<?xml version="1.0" encoding="utf-8" standalone="no"?>
<!DOCTYPE svg PUBLIC "-//W3C//DTD SVG 1.1//EN"
  "http://www.w3.org/Graphics/SVG/1.1/DTD/svg11.dtd">
<svg xmlns:xlink="http://www.w3.org/1999/xlink" width="460.8pt" height="345.6pt" viewBox="0 0 460.8 345.6" xmlns="http://www.w3.org/2000/svg" version="1.1">
 <metadata>
  <rdf:RDF xmlns:dc="http://purl.org/dc/elements/1.1/" xmlns:cc="http://creativecommons.org/ns#" xmlns:rdf="http://www.w3.org/1999/02/22-rdf-syntax-ns#">
   <cc:Work>
    <dc:type rdf:resource="http://purl.org/dc/dcmitype/StillImage"/>
    <dc:date>2024-11-10T14:07:18.709320</dc:date>
    <dc:format>image/svg+xml</dc:format>
    <dc:creator>
     <cc:Agent>
      <dc:title>Matplotlib v3.9.2, https://matplotlib.org/</dc:title>
     </cc:Agent>
    </dc:creator>
   </cc:Work>
  </rdf:RDF>
 </metadata>
 <defs>
  <style type="text/css">*{stroke-linejoin: round; stroke-linecap: butt}</style>
 </defs>
 <g id="figure_1">
  <g id="patch_1">
   <path d="M 0 345.6 
L 460.8 345.6 
L 460.8 0 
L 0 0 
z
" style="fill: #ffffff"/>
  </g>
  <g id="axes_1">
   <g id="patch_2">
    <path d="M 57.6 276.48 
L 414.72 276.48 
L 414.72 41.472 
L 57.6 41.472 
z
" style="fill: #c0c0c0"/>
   </g>
   <g id="matplotlib.axis_1">
    <g id="xtick_1">
     <g id="line2d_1">
      <path d="M 97.474724 276.48 
L 97.474724 41.472 
" clip-path="url(#p2f29d70c92)" style="fill: none; stroke: #ffffff; stroke-width: 0.8; stroke-linecap: square"/>
     </g>
     <g id="line2d_2">
      <defs>
       <path id="m4739f0197b" d="M 0 0 
L 0 3.5 
" style="stroke: #000000; stroke-width: 0.8"/>
      </defs>
      <g>
       <use xlink:href="#m4739f0197b" x="97.474724" y="276.48" style="stroke: #000000; stroke-width: 0.8"/>
      </g>
     </g>
     <g id="text_1">
      <!-- 2024-10-13 -->
      <g transform="translate(46.105273 319.118252) rotate(-30) scale(0.1 -0.1)">
       <defs>
        <path id="DejaVuSans-32" d="M 1228 531 
L 3431 531 
L 3431 0 
L 469 0 
L 469 531 
Q 828 903 1448 1529 
Q 2069 2156 2228 2338 
Q 2531 2678 2651 2914 
Q 2772 3150 2772 3378 
Q 2772 3750 2511 3984 
Q 2250 4219 1831 4219 
Q 1534 4219 1204 4116 
Q 875 4013 500 3803 
L 500 4441 
Q 881 4594 1212 4672 
Q 1544 4750 1819 4750 
Q 2544 4750 2975 4387 
Q 3406 4025 3406 3419 
Q 3406 3131 3298 2873 
Q 3191 2616 2906 2266 
Q 2828 2175 2409 1742 
Q 1991 1309 1228 531 
z
" transform="scale(0.015625)"/>
        <path id="DejaVuSans-30" d="M 2034 4250 
Q 1547 4250 1301 3770 
Q 1056 3291 1056 2328 
Q 1056 1369 1301 889 
Q 1547 409 2034 409 
Q 2525 409 2770 889 
Q 3016 1369 3016 2328 
Q 3016 3291 2770 3770 
Q 2525 4250 2034 4250 
z
M 2034 4750 
Q 2819 4750 3233 4129 
Q 3647 3509 3647 2328 
Q 3647 1150 3233 529 
Q 2819 -91 2034 -91 
Q 1250 -91 836 529 
Q 422 1150 422 2328 
Q 422 3509 836 4129 
Q 1250 4750 2034 4750 
z
" transform="scale(0.015625)"/>
        <path id="DejaVuSans-34" d="M 2419 4116 
L 825 1625 
L 2419 1625 
L 2419 4116 
z
M 2253 4666 
L 3047 4666 
L 3047 1625 
L 3713 1625 
L 3713 1100 
L 3047 1100 
L 3047 0 
L 2419 0 
L 2419 1100 
L 313 1100 
L 313 1709 
L 2253 4666 
z
" transform="scale(0.015625)"/>
        <path id="DejaVuSans-2d" d="M 313 2009 
L 1997 2009 
L 1997 1497 
L 313 1497 
L 313 2009 
z
" transform="scale(0.015625)"/>
        <path id="DejaVuSans-31" d="M 794 531 
L 1825 531 
L 1825 4091 
L 703 3866 
L 703 4441 
L 1819 4666 
L 2450 4666 
L 2450 531 
L 3481 531 
L 3481 0 
L 794 0 
L 794 531 
z
" transform="scale(0.015625)"/>
        <path id="DejaVuSans-33" d="M 2597 2516 
Q 3050 2419 3304 2112 
Q 3559 1806 3559 1356 
Q 3559 666 3084 287 
Q 2609 -91 1734 -91 
Q 1441 -91 1130 -33 
Q 819 25 488 141 
L 488 750 
Q 750 597 1062 519 
Q 1375 441 1716 441 
Q 2309 441 2620 675 
Q 2931 909 2931 1356 
Q 2931 1769 2642 2001 
Q 2353 2234 1838 2234 
L 1294 2234 
L 1294 2753 
L 1863 2753 
Q 2328 2753 2575 2939 
Q 2822 3125 2822 3475 
Q 2822 3834 2567 4026 
Q 2313 4219 1838 4219 
Q 1578 4219 1281 4162 
Q 984 4106 628 3988 
L 628 4550 
Q 988 4650 1302 4700 
Q 1616 4750 1894 4750 
Q 2613 4750 3031 4423 
Q 3450 4097 3450 3541 
Q 3450 3153 3228 2886 
Q 3006 2619 2597 2516 
z
" transform="scale(0.015625)"/>
       </defs>
       <use xlink:href="#DejaVuSans-32"/>
       <use xlink:href="#DejaVuSans-30" x="63.623047"/>
       <use xlink:href="#DejaVuSans-32" x="127.246094"/>
       <use xlink:href="#DejaVuSans-34" x="190.869141"/>
       <use xlink:href="#DejaVuSans-2d" x="254.492188"/>
       <use xlink:href="#DejaVuSans-31" x="290.576172"/>
       <use xlink:href="#DejaVuSans-30" x="354.199219"/>
       <use xlink:href="#DejaVuSans-2d" x="417.822266"/>
       <use xlink:href="#DejaVuSans-31" x="453.90625"/>
       <use xlink:href="#DejaVuSans-33" x="517.529297"/>
      </g>
     </g>
    </g>
    <g id="xtick_2">
     <g id="line2d_3">
      <path d="M 139.537613 276.48 
L 139.537613 41.472 
" clip-path="url(#p2f29d70c92)" style="fill: none; stroke: #ffffff; stroke-width: 0.8; stroke-linecap: square"/>
     </g>
     <g id="line2d_4">
      <g>
       <use xlink:href="#m4739f0197b" x="139.537613" y="276.48" style="stroke: #000000; stroke-width: 0.8"/>
      </g>
     </g>
     <g id="text_2">
      <!-- 2024-10-17 -->
      <g transform="translate(88.168162 319.118252) rotate(-30) scale(0.1 -0.1)">
       <defs>
        <path id="DejaVuSans-37" d="M 525 4666 
L 3525 4666 
L 3525 4397 
L 1831 0 
L 1172 0 
L 2766 4134 
L 525 4134 
L 525 4666 
z
" transform="scale(0.015625)"/>
       </defs>
       <use xlink:href="#DejaVuSans-32"/>
       <use xlink:href="#DejaVuSans-30" x="63.623047"/>
       <use xlink:href="#DejaVuSans-32" x="127.246094"/>
       <use xlink:href="#DejaVuSans-34" x="190.869141"/>
       <use xlink:href="#DejaVuSans-2d" x="254.492188"/>
       <use xlink:href="#DejaVuSans-31" x="290.576172"/>
       <use xlink:href="#DejaVuSans-30" x="354.199219"/>
       <use xlink:href="#DejaVuSans-2d" x="417.822266"/>
       <use xlink:href="#DejaVuSans-31" x="453.90625"/>
       <use xlink:href="#DejaVuSans-37" x="517.529297"/>
      </g>
     </g>
    </g>
    <g id="xtick_3">
     <g id="line2d_5">
      <path d="M 181.600502 276.48 
L 181.600502 41.472 
" clip-path="url(#p2f29d70c92)" style="fill: none; stroke: #ffffff; stroke-width: 0.8; stroke-linecap: square"/>
     </g>
     <g id="line2d_6">
      <g>
       <use xlink:href="#m4739f0197b" x="181.600502" y="276.48" style="stroke: #000000; stroke-width: 0.8"/>
      </g>
     </g>
     <g id="text_3">
      <!-- 2024-10-21 -->
      <g transform="translate(130.231051 319.118252) rotate(-30) scale(0.1 -0.1)">
       <use xlink:href="#DejaVuSans-32"/>
       <use xlink:href="#DejaVuSans-30" x="63.623047"/>
       <use xlink:href="#DejaVuSans-32" x="127.246094"/>
       <use xlink:href="#DejaVuSans-34" x="190.869141"/>
       <use xlink:href="#DejaVuSans-2d" x="254.492188"/>
       <use xlink:href="#DejaVuSans-31" x="290.576172"/>
       <use xlink:href="#DejaVuSans-30" x="354.199219"/>
       <use xlink:href="#DejaVuSans-2d" x="417.822266"/>
       <use xlink:href="#DejaVuSans-32" x="453.90625"/>
       <use xlink:href="#DejaVuSans-31" x="517.529297"/>
      </g>
     </g>
    </g>
    <g id="xtick_4">
     <g id="line2d_7">
      <path d="M 223.663391 276.48 
L 223.663391 41.472 
" clip-path="url(#p2f29d70c92)" style="fill: none; stroke: #ffffff; stroke-width: 0.8; stroke-linecap: square"/>
     </g>
     <g id="line2d_8">
      <g>
       <use xlink:href="#m4739f0197b" x="223.663391" y="276.48" style="stroke: #000000; stroke-width: 0.8"/>
      </g>
     </g>
     <g id="text_4">
      <!-- 2024-10-25 -->
      <g transform="translate(172.293939 319.118252) rotate(-30) scale(0.1 -0.1)">
       <defs>
        <path id="DejaVuSans-35" d="M 691 4666 
L 3169 4666 
L 3169 4134 
L 1269 4134 
L 1269 2991 
Q 1406 3038 1543 3061 
Q 1681 3084 1819 3084 
Q 2600 3084 3056 2656 
Q 3513 2228 3513 1497 
Q 3513 744 3044 326 
Q 2575 -91 1722 -91 
Q 1428 -91 1123 -41 
Q 819 9 494 109 
L 494 744 
Q 775 591 1075 516 
Q 1375 441 1709 441 
Q 2250 441 2565 725 
Q 2881 1009 2881 1497 
Q 2881 1984 2565 2268 
Q 2250 2553 1709 2553 
Q 1456 2553 1204 2497 
Q 953 2441 691 2322 
L 691 4666 
z
" transform="scale(0.015625)"/>
       </defs>
       <use xlink:href="#DejaVuSans-32"/>
       <use xlink:href="#DejaVuSans-30" x="63.623047"/>
       <use xlink:href="#DejaVuSans-32" x="127.246094"/>
       <use xlink:href="#DejaVuSans-34" x="190.869141"/>
       <use xlink:href="#DejaVuSans-2d" x="254.492188"/>
       <use xlink:href="#DejaVuSans-31" x="290.576172"/>
       <use xlink:href="#DejaVuSans-30" x="354.199219"/>
       <use xlink:href="#DejaVuSans-2d" x="417.822266"/>
       <use xlink:href="#DejaVuSans-32" x="453.90625"/>
       <use xlink:href="#DejaVuSans-35" x="517.529297"/>
      </g>
     </g>
    </g>
    <g id="xtick_5">
     <g id="line2d_9">
      <path d="M 265.72628 276.48 
L 265.72628 41.472 
" clip-path="url(#p2f29d70c92)" style="fill: none; stroke: #ffffff; stroke-width: 0.8; stroke-linecap: square"/>
     </g>
     <g id="line2d_10">
      <g>
       <use xlink:href="#m4739f0197b" x="265.72628" y="276.48" style="stroke: #000000; stroke-width: 0.8"/>
      </g>
     </g>
     <g id="text_5">
      <!-- 2024-10-29 -->
      <g transform="translate(214.356828 319.118252) rotate(-30) scale(0.1 -0.1)">
       <defs>
        <path id="DejaVuSans-39" d="M 703 97 
L 703 672 
Q 941 559 1184 500 
Q 1428 441 1663 441 
Q 2288 441 2617 861 
Q 2947 1281 2994 2138 
Q 2813 1869 2534 1725 
Q 2256 1581 1919 1581 
Q 1219 1581 811 2004 
Q 403 2428 403 3163 
Q 403 3881 828 4315 
Q 1253 4750 1959 4750 
Q 2769 4750 3195 4129 
Q 3622 3509 3622 2328 
Q 3622 1225 3098 567 
Q 2575 -91 1691 -91 
Q 1453 -91 1209 -44 
Q 966 3 703 97 
z
M 1959 2075 
Q 2384 2075 2632 2365 
Q 2881 2656 2881 3163 
Q 2881 3666 2632 3958 
Q 2384 4250 1959 4250 
Q 1534 4250 1286 3958 
Q 1038 3666 1038 3163 
Q 1038 2656 1286 2365 
Q 1534 2075 1959 2075 
z
" transform="scale(0.015625)"/>
       </defs>
       <use xlink:href="#DejaVuSans-32"/>
       <use xlink:href="#DejaVuSans-30" x="63.623047"/>
       <use xlink:href="#DejaVuSans-32" x="127.246094"/>
       <use xlink:href="#DejaVuSans-34" x="190.869141"/>
       <use xlink:href="#DejaVuSans-2d" x="254.492188"/>
       <use xlink:href="#DejaVuSans-31" x="290.576172"/>
       <use xlink:href="#DejaVuSans-30" x="354.199219"/>
       <use xlink:href="#DejaVuSans-2d" x="417.822266"/>
       <use xlink:href="#DejaVuSans-32" x="453.90625"/>
       <use xlink:href="#DejaVuSans-39" x="517.529297"/>
      </g>
     </g>
    </g>
    <g id="xtick_6">
     <g id="line2d_11">
      <path d="M 297.273446 276.48 
L 297.273446 41.472 
" clip-path="url(#p2f29d70c92)" style="fill: none; stroke: #ffffff; stroke-width: 0.8; stroke-linecap: square"/>
     </g>
     <g id="line2d_12">
      <g>
       <use xlink:href="#m4739f0197b" x="297.273446" y="276.48" style="stroke: #000000; stroke-width: 0.8"/>
      </g>
     </g>
     <g id="text_6">
      <!-- 2024-11-01 -->
      <g transform="translate(245.903995 319.118252) rotate(-30) scale(0.1 -0.1)">
       <use xlink:href="#DejaVuSans-32"/>
       <use xlink:href="#DejaVuSans-30" x="63.623047"/>
       <use xlink:href="#DejaVuSans-32" x="127.246094"/>
       <use xlink:href="#DejaVuSans-34" x="190.869141"/>
       <use xlink:href="#DejaVuSans-2d" x="254.492188"/>
       <use xlink:href="#DejaVuSans-31" x="290.576172"/>
       <use xlink:href="#DejaVuSans-31" x="354.199219"/>
       <use xlink:href="#DejaVuSans-2d" x="417.822266"/>
       <use xlink:href="#DejaVuSans-30" x="453.90625"/>
       <use xlink:href="#DejaVuSans-31" x="517.529297"/>
      </g>
     </g>
    </g>
    <g id="xtick_7">
     <g id="line2d_13">
      <path d="M 339.77449 276.48 
L 339.77449 41.472 
" clip-path="url(#p2f29d70c92)" style="fill: none; stroke: #ffffff; stroke-width: 0.8; stroke-linecap: square"/>
     </g>
     <g id="line2d_14">
      <g>
       <use xlink:href="#m4739f0197b" x="339.77449" y="276.48" style="stroke: #000000; stroke-width: 0.8"/>
      </g>
     </g>
     <g id="text_7">
      <!-- 2024-11-05 -->
      <g transform="translate(288.405039 319.118252) rotate(-30) scale(0.1 -0.1)">
       <use xlink:href="#DejaVuSans-32"/>
       <use xlink:href="#DejaVuSans-30" x="63.623047"/>
       <use xlink:href="#DejaVuSans-32" x="127.246094"/>
       <use xlink:href="#DejaVuSans-34" x="190.869141"/>
       <use xlink:href="#DejaVuSans-2d" x="254.492188"/>
       <use xlink:href="#DejaVuSans-31" x="290.576172"/>
       <use xlink:href="#DejaVuSans-31" x="354.199219"/>
       <use xlink:href="#DejaVuSans-2d" x="417.822266"/>
       <use xlink:href="#DejaVuSans-30" x="453.90625"/>
       <use xlink:href="#DejaVuSans-35" x="517.529297"/>
      </g>
     </g>
    </g>
    <g id="xtick_8">
     <g id="line2d_15">
      <path d="M 381.837379 276.48 
L 381.837379 41.472 
" clip-path="url(#p2f29d70c92)" style="fill: none; stroke: #ffffff; stroke-width: 0.8; stroke-linecap: square"/>
     </g>
     <g id="line2d_16">
      <g>
       <use xlink:href="#m4739f0197b" x="381.837379" y="276.48" style="stroke: #000000; stroke-width: 0.8"/>
      </g>
     </g>
     <g id="text_8">
      <!-- 2024-11-09 -->
      <g transform="translate(330.467928 319.118252) rotate(-30) scale(0.1 -0.1)">
       <use xlink:href="#DejaVuSans-32"/>
       <use xlink:href="#DejaVuSans-30" x="63.623047"/>
       <use xlink:href="#DejaVuSans-32" x="127.246094"/>
       <use xlink:href="#DejaVuSans-34" x="190.869141"/>
       <use xlink:href="#DejaVuSans-2d" x="254.492188"/>
       <use xlink:href="#DejaVuSans-31" x="290.576172"/>
       <use xlink:href="#DejaVuSans-31" x="354.199219"/>
       <use xlink:href="#DejaVuSans-2d" x="417.822266"/>
       <use xlink:href="#DejaVuSans-30" x="453.90625"/>
       <use xlink:href="#DejaVuSans-39" x="517.529297"/>
      </g>
     </g>
    </g>
    <g id="text_9">
     <!-- When -->
     <g transform="translate(221.802188 332.517752) scale(0.1 -0.1)">
      <defs>
       <path id="DejaVuSans-57" d="M 213 4666 
L 850 4666 
L 1831 722 
L 2809 4666 
L 3519 4666 
L 4500 722 
L 5478 4666 
L 6119 4666 
L 4947 0 
L 4153 0 
L 3169 4050 
L 2175 0 
L 1381 0 
L 213 4666 
z
" transform="scale(0.015625)"/>
       <path id="DejaVuSans-68" d="M 3513 2113 
L 3513 0 
L 2938 0 
L 2938 2094 
Q 2938 2591 2744 2837 
Q 2550 3084 2163 3084 
Q 1697 3084 1428 2787 
Q 1159 2491 1159 1978 
L 1159 0 
L 581 0 
L 581 4863 
L 1159 4863 
L 1159 2956 
Q 1366 3272 1645 3428 
Q 1925 3584 2291 3584 
Q 2894 3584 3203 3211 
Q 3513 2838 3513 2113 
z
" transform="scale(0.015625)"/>
       <path id="DejaVuSans-65" d="M 3597 1894 
L 3597 1613 
L 953 1613 
Q 991 1019 1311 708 
Q 1631 397 2203 397 
Q 2534 397 2845 478 
Q 3156 559 3463 722 
L 3463 178 
Q 3153 47 2828 -22 
Q 2503 -91 2169 -91 
Q 1331 -91 842 396 
Q 353 884 353 1716 
Q 353 2575 817 3079 
Q 1281 3584 2069 3584 
Q 2775 3584 3186 3129 
Q 3597 2675 3597 1894 
z
M 3022 2063 
Q 3016 2534 2758 2815 
Q 2500 3097 2075 3097 
Q 1594 3097 1305 2825 
Q 1016 2553 972 2059 
L 3022 2063 
z
" transform="scale(0.015625)"/>
       <path id="DejaVuSans-6e" d="M 3513 2113 
L 3513 0 
L 2938 0 
L 2938 2094 
Q 2938 2591 2744 2837 
Q 2550 3084 2163 3084 
Q 1697 3084 1428 2787 
Q 1159 2491 1159 1978 
L 1159 0 
L 581 0 
L 581 3500 
L 1159 3500 
L 1159 2956 
Q 1366 3272 1645 3428 
Q 1925 3584 2291 3584 
Q 2894 3584 3203 3211 
Q 3513 2838 3513 2113 
z
" transform="scale(0.015625)"/>
      </defs>
      <use xlink:href="#DejaVuSans-57"/>
      <use xlink:href="#DejaVuSans-68" x="98.876953"/>
      <use xlink:href="#DejaVuSans-65" x="162.255859"/>
      <use xlink:href="#DejaVuSans-6e" x="223.779297"/>
     </g>
    </g>
   </g>
   <g id="matplotlib.axis_2">
    <g id="ytick_1">
     <g id="line2d_17">
      <path d="M 57.6 243.157352 
L 414.72 243.157352 
" clip-path="url(#p2f29d70c92)" style="fill: none; stroke: #ffffff; stroke-width: 0.8; stroke-linecap: square"/>
     </g>
     <g id="line2d_18">
      <defs>
       <path id="m0c7ce03b0f" d="M 0 0 
L -3.5 0 
" style="stroke: #000000; stroke-width: 0.8"/>
      </defs>
      <g>
       <use xlink:href="#m0c7ce03b0f" x="57.6" y="243.157352" style="stroke: #000000; stroke-width: 0.8"/>
      </g>
     </g>
     <g id="text_10">
      <!-- 0 -->
      <g transform="translate(44.2375 246.95657) scale(0.1 -0.1)">
       <use xlink:href="#DejaVuSans-30"/>
      </g>
     </g>
    </g>
    <g id="ytick_2">
     <g id="line2d_19">
      <path d="M 57.6 203.911966 
L 414.72 203.911966 
" clip-path="url(#p2f29d70c92)" style="fill: none; stroke: #ffffff; stroke-width: 0.8; stroke-linecap: square"/>
     </g>
     <g id="line2d_20">
      <g>
       <use xlink:href="#m0c7ce03b0f" x="57.6" y="203.911966" style="stroke: #000000; stroke-width: 0.8"/>
      </g>
     </g>
     <g id="text_11">
      <!-- 100 -->
      <g transform="translate(31.5125 207.711185) scale(0.1 -0.1)">
       <use xlink:href="#DejaVuSans-31"/>
       <use xlink:href="#DejaVuSans-30" x="63.623047"/>
       <use xlink:href="#DejaVuSans-30" x="127.246094"/>
      </g>
     </g>
    </g>
    <g id="ytick_3">
     <g id="line2d_21">
      <path d="M 57.6 164.666581 
L 414.72 164.666581 
" clip-path="url(#p2f29d70c92)" style="fill: none; stroke: #ffffff; stroke-width: 0.8; stroke-linecap: square"/>
     </g>
     <g id="line2d_22">
      <g>
       <use xlink:href="#m0c7ce03b0f" x="57.6" y="164.666581" style="stroke: #000000; stroke-width: 0.8"/>
      </g>
     </g>
     <g id="text_12">
      <!-- 200 -->
      <g transform="translate(31.5125 168.4658) scale(0.1 -0.1)">
       <use xlink:href="#DejaVuSans-32"/>
       <use xlink:href="#DejaVuSans-30" x="63.623047"/>
       <use xlink:href="#DejaVuSans-30" x="127.246094"/>
      </g>
     </g>
    </g>
    <g id="ytick_4">
     <g id="line2d_23">
      <path d="M 57.6 125.421196 
L 414.72 125.421196 
" clip-path="url(#p2f29d70c92)" style="fill: none; stroke: #ffffff; stroke-width: 0.8; stroke-linecap: square"/>
     </g>
     <g id="line2d_24">
      <g>
       <use xlink:href="#m0c7ce03b0f" x="57.6" y="125.421196" style="stroke: #000000; stroke-width: 0.8"/>
      </g>
     </g>
     <g id="text_13">
      <!-- 300 -->
      <g transform="translate(31.5125 129.220414) scale(0.1 -0.1)">
       <use xlink:href="#DejaVuSans-33"/>
       <use xlink:href="#DejaVuSans-30" x="63.623047"/>
       <use xlink:href="#DejaVuSans-30" x="127.246094"/>
      </g>
     </g>
    </g>
    <g id="ytick_5">
     <g id="line2d_25">
      <path d="M 57.6 86.17581 
L 414.72 86.17581 
" clip-path="url(#p2f29d70c92)" style="fill: none; stroke: #ffffff; stroke-width: 0.8; stroke-linecap: square"/>
     </g>
     <g id="line2d_26">
      <g>
       <use xlink:href="#m0c7ce03b0f" x="57.6" y="86.17581" style="stroke: #000000; stroke-width: 0.8"/>
      </g>
     </g>
     <g id="text_14">
      <!-- 400 -->
      <g transform="translate(31.5125 89.975029) scale(0.1 -0.1)">
       <use xlink:href="#DejaVuSans-34"/>
       <use xlink:href="#DejaVuSans-30" x="63.623047"/>
       <use xlink:href="#DejaVuSans-30" x="127.246094"/>
      </g>
     </g>
    </g>
    <g id="ytick_6">
     <g id="line2d_27">
      <path d="M 57.6 46.930425 
L 414.72 46.930425 
" clip-path="url(#p2f29d70c92)" style="fill: none; stroke: #ffffff; stroke-width: 0.8; stroke-linecap: square"/>
     </g>
     <g id="line2d_28">
      <g>
       <use xlink:href="#m0c7ce03b0f" x="57.6" y="46.930425" style="stroke: #000000; stroke-width: 0.8"/>
      </g>
     </g>
     <g id="text_15">
      <!-- 500 -->
      <g transform="translate(31.5125 50.729644) scale(0.1 -0.1)">
       <use xlink:href="#DejaVuSans-35"/>
       <use xlink:href="#DejaVuSans-30" x="63.623047"/>
       <use xlink:href="#DejaVuSans-30" x="127.246094"/>
      </g>
     </g>
    </g>
    <g id="text_16">
     <!-- RADON_SHORT_TERM_AVG Bq/m3 -->
     <g transform="translate(25.154687 244.060375) rotate(-90) scale(0.1 -0.1)">
      <defs>
       <path id="DejaVuSans-52" d="M 2841 2188 
Q 3044 2119 3236 1894 
Q 3428 1669 3622 1275 
L 4263 0 
L 3584 0 
L 2988 1197 
Q 2756 1666 2539 1819 
Q 2322 1972 1947 1972 
L 1259 1972 
L 1259 0 
L 628 0 
L 628 4666 
L 2053 4666 
Q 2853 4666 3247 4331 
Q 3641 3997 3641 3322 
Q 3641 2881 3436 2590 
Q 3231 2300 2841 2188 
z
M 1259 4147 
L 1259 2491 
L 2053 2491 
Q 2509 2491 2742 2702 
Q 2975 2913 2975 3322 
Q 2975 3731 2742 3939 
Q 2509 4147 2053 4147 
L 1259 4147 
z
" transform="scale(0.015625)"/>
       <path id="DejaVuSans-41" d="M 2188 4044 
L 1331 1722 
L 3047 1722 
L 2188 4044 
z
M 1831 4666 
L 2547 4666 
L 4325 0 
L 3669 0 
L 3244 1197 
L 1141 1197 
L 716 0 
L 50 0 
L 1831 4666 
z
" transform="scale(0.015625)"/>
       <path id="DejaVuSans-44" d="M 1259 4147 
L 1259 519 
L 2022 519 
Q 2988 519 3436 956 
Q 3884 1394 3884 2338 
Q 3884 3275 3436 3711 
Q 2988 4147 2022 4147 
L 1259 4147 
z
M 628 4666 
L 1925 4666 
Q 3281 4666 3915 4102 
Q 4550 3538 4550 2338 
Q 4550 1131 3912 565 
Q 3275 0 1925 0 
L 628 0 
L 628 4666 
z
" transform="scale(0.015625)"/>
       <path id="DejaVuSans-4f" d="M 2522 4238 
Q 1834 4238 1429 3725 
Q 1025 3213 1025 2328 
Q 1025 1447 1429 934 
Q 1834 422 2522 422 
Q 3209 422 3611 934 
Q 4013 1447 4013 2328 
Q 4013 3213 3611 3725 
Q 3209 4238 2522 4238 
z
M 2522 4750 
Q 3503 4750 4090 4092 
Q 4678 3434 4678 2328 
Q 4678 1225 4090 567 
Q 3503 -91 2522 -91 
Q 1538 -91 948 565 
Q 359 1222 359 2328 
Q 359 3434 948 4092 
Q 1538 4750 2522 4750 
z
" transform="scale(0.015625)"/>
       <path id="DejaVuSans-4e" d="M 628 4666 
L 1478 4666 
L 3547 763 
L 3547 4666 
L 4159 4666 
L 4159 0 
L 3309 0 
L 1241 3903 
L 1241 0 
L 628 0 
L 628 4666 
z
" transform="scale(0.015625)"/>
       <path id="DejaVuSans-5f" d="M 3263 -1063 
L 3263 -1509 
L -63 -1509 
L -63 -1063 
L 3263 -1063 
z
" transform="scale(0.015625)"/>
       <path id="DejaVuSans-53" d="M 3425 4513 
L 3425 3897 
Q 3066 4069 2747 4153 
Q 2428 4238 2131 4238 
Q 1616 4238 1336 4038 
Q 1056 3838 1056 3469 
Q 1056 3159 1242 3001 
Q 1428 2844 1947 2747 
L 2328 2669 
Q 3034 2534 3370 2195 
Q 3706 1856 3706 1288 
Q 3706 609 3251 259 
Q 2797 -91 1919 -91 
Q 1588 -91 1214 -16 
Q 841 59 441 206 
L 441 856 
Q 825 641 1194 531 
Q 1563 422 1919 422 
Q 2459 422 2753 634 
Q 3047 847 3047 1241 
Q 3047 1584 2836 1778 
Q 2625 1972 2144 2069 
L 1759 2144 
Q 1053 2284 737 2584 
Q 422 2884 422 3419 
Q 422 4038 858 4394 
Q 1294 4750 2059 4750 
Q 2388 4750 2728 4690 
Q 3069 4631 3425 4513 
z
" transform="scale(0.015625)"/>
       <path id="DejaVuSans-48" d="M 628 4666 
L 1259 4666 
L 1259 2753 
L 3553 2753 
L 3553 4666 
L 4184 4666 
L 4184 0 
L 3553 0 
L 3553 2222 
L 1259 2222 
L 1259 0 
L 628 0 
L 628 4666 
z
" transform="scale(0.015625)"/>
       <path id="DejaVuSans-54" d="M -19 4666 
L 3928 4666 
L 3928 4134 
L 2272 4134 
L 2272 0 
L 1638 0 
L 1638 4134 
L -19 4134 
L -19 4666 
z
" transform="scale(0.015625)"/>
       <path id="DejaVuSans-45" d="M 628 4666 
L 3578 4666 
L 3578 4134 
L 1259 4134 
L 1259 2753 
L 3481 2753 
L 3481 2222 
L 1259 2222 
L 1259 531 
L 3634 531 
L 3634 0 
L 628 0 
L 628 4666 
z
" transform="scale(0.015625)"/>
       <path id="DejaVuSans-4d" d="M 628 4666 
L 1569 4666 
L 2759 1491 
L 3956 4666 
L 4897 4666 
L 4897 0 
L 4281 0 
L 4281 4097 
L 3078 897 
L 2444 897 
L 1241 4097 
L 1241 0 
L 628 0 
L 628 4666 
z
" transform="scale(0.015625)"/>
       <path id="DejaVuSans-56" d="M 1831 0 
L 50 4666 
L 709 4666 
L 2188 738 
L 3669 4666 
L 4325 4666 
L 2547 0 
L 1831 0 
z
" transform="scale(0.015625)"/>
       <path id="DejaVuSans-47" d="M 3809 666 
L 3809 1919 
L 2778 1919 
L 2778 2438 
L 4434 2438 
L 4434 434 
Q 4069 175 3628 42 
Q 3188 -91 2688 -91 
Q 1594 -91 976 548 
Q 359 1188 359 2328 
Q 359 3472 976 4111 
Q 1594 4750 2688 4750 
Q 3144 4750 3555 4637 
Q 3966 4525 4313 4306 
L 4313 3634 
Q 3963 3931 3569 4081 
Q 3175 4231 2741 4231 
Q 1884 4231 1454 3753 
Q 1025 3275 1025 2328 
Q 1025 1384 1454 906 
Q 1884 428 2741 428 
Q 3075 428 3337 486 
Q 3600 544 3809 666 
z
" transform="scale(0.015625)"/>
       <path id="DejaVuSans-20" transform="scale(0.015625)"/>
       <path id="DejaVuSans-42" d="M 1259 2228 
L 1259 519 
L 2272 519 
Q 2781 519 3026 730 
Q 3272 941 3272 1375 
Q 3272 1813 3026 2020 
Q 2781 2228 2272 2228 
L 1259 2228 
z
M 1259 4147 
L 1259 2741 
L 2194 2741 
Q 2656 2741 2882 2914 
Q 3109 3088 3109 3444 
Q 3109 3797 2882 3972 
Q 2656 4147 2194 4147 
L 1259 4147 
z
M 628 4666 
L 2241 4666 
Q 2963 4666 3353 4366 
Q 3744 4066 3744 3513 
Q 3744 3084 3544 2831 
Q 3344 2578 2956 2516 
Q 3422 2416 3680 2098 
Q 3938 1781 3938 1306 
Q 3938 681 3513 340 
Q 3088 0 2303 0 
L 628 0 
L 628 4666 
z
" transform="scale(0.015625)"/>
       <path id="DejaVuSans-71" d="M 947 1747 
Q 947 1113 1208 752 
Q 1469 391 1925 391 
Q 2381 391 2643 752 
Q 2906 1113 2906 1747 
Q 2906 2381 2643 2742 
Q 2381 3103 1925 3103 
Q 1469 3103 1208 2742 
Q 947 2381 947 1747 
z
M 2906 525 
Q 2725 213 2448 61 
Q 2172 -91 1784 -91 
Q 1150 -91 751 415 
Q 353 922 353 1747 
Q 353 2572 751 3078 
Q 1150 3584 1784 3584 
Q 2172 3584 2448 3432 
Q 2725 3281 2906 2969 
L 2906 3500 
L 3481 3500 
L 3481 -1331 
L 2906 -1331 
L 2906 525 
z
" transform="scale(0.015625)"/>
       <path id="DejaVuSans-2f" d="M 1625 4666 
L 2156 4666 
L 531 -594 
L 0 -594 
L 1625 4666 
z
" transform="scale(0.015625)"/>
       <path id="DejaVuSans-6d" d="M 3328 2828 
Q 3544 3216 3844 3400 
Q 4144 3584 4550 3584 
Q 5097 3584 5394 3201 
Q 5691 2819 5691 2113 
L 5691 0 
L 5113 0 
L 5113 2094 
Q 5113 2597 4934 2840 
Q 4756 3084 4391 3084 
Q 3944 3084 3684 2787 
Q 3425 2491 3425 1978 
L 3425 0 
L 2847 0 
L 2847 2094 
Q 2847 2600 2669 2842 
Q 2491 3084 2119 3084 
Q 1678 3084 1418 2786 
Q 1159 2488 1159 1978 
L 1159 0 
L 581 0 
L 581 3500 
L 1159 3500 
L 1159 2956 
Q 1356 3278 1631 3431 
Q 1906 3584 2284 3584 
Q 2666 3584 2933 3390 
Q 3200 3197 3328 2828 
z
" transform="scale(0.015625)"/>
      </defs>
      <use xlink:href="#DejaVuSans-52"/>
      <use xlink:href="#DejaVuSans-41" x="65.482422"/>
      <use xlink:href="#DejaVuSans-44" x="133.890625"/>
      <use xlink:href="#DejaVuSans-4f" x="210.892578"/>
      <use xlink:href="#DejaVuSans-4e" x="289.603516"/>
      <use xlink:href="#DejaVuSans-5f" x="364.408203"/>
      <use xlink:href="#DejaVuSans-53" x="414.408203"/>
      <use xlink:href="#DejaVuSans-48" x="477.884766"/>
      <use xlink:href="#DejaVuSans-4f" x="553.080078"/>
      <use xlink:href="#DejaVuSans-52" x="631.791016"/>
      <use xlink:href="#DejaVuSans-54" x="694.023438"/>
      <use xlink:href="#DejaVuSans-5f" x="755.107422"/>
      <use xlink:href="#DejaVuSans-54" x="805.107422"/>
      <use xlink:href="#DejaVuSans-45" x="866.191406"/>
      <use xlink:href="#DejaVuSans-52" x="929.375"/>
      <use xlink:href="#DejaVuSans-4d" x="998.857422"/>
      <use xlink:href="#DejaVuSans-5f" x="1085.136719"/>
      <use xlink:href="#DejaVuSans-41" x="1135.136719"/>
      <use xlink:href="#DejaVuSans-56" x="1197.169922"/>
      <use xlink:href="#DejaVuSans-47" x="1265.578125"/>
      <use xlink:href="#DejaVuSans-20" x="1343.068359"/>
      <use xlink:href="#DejaVuSans-42" x="1374.855469"/>
      <use xlink:href="#DejaVuSans-71" x="1443.458984"/>
      <use xlink:href="#DejaVuSans-2f" x="1506.935547"/>
      <use xlink:href="#DejaVuSans-6d" x="1540.626953"/>
      <use xlink:href="#DejaVuSans-33" x="1638.039062"/>
     </g>
    </g>
   </g>
   <g id="line2d_29">
    <path d="M 147.351744 204.027394 
L 147.461526 205.874236 
L 147.735982 205.966578 
L 148.100867 206.659143 
L 148.174137 206.751485 
L 148.539023 207.444051 
L 148.611805 207.444051 
L 148.7211 206.048659 
L 148.86703 205.874236 
L 149.050325 205.961447 
L 149.159377 206.571931 
L 149.305307 206.659143 
L 149.488237 206.659143 
L 149.598019 205.149705 
L 149.76184 204.696874 
L 149.92627 204.696874 
L 149.963148 204.004308 
M 152.190193 204.004308 
L 152.299975 205.481782 
L 152.993843 205.38944 
L 153.358607 204.696874 
L 153.870031 204.604532 
L 153.924435 203.958137 
M 154.764354 203.958137 
L 155.111471 206.659143 
L 155.184253 206.659143 
L 155.294035 208.598327 
L 155.457978 209.013866 
L 155.622652 209.106208 
L 155.73219 210.306655 
L 155.896133 210.583682 
L 156.06105 210.49134 
L 156.425936 209.798774 
L 156.499205 209.891116 
L 156.864091 210.583682 
L 156.936873 210.583682 
L 157.046656 205.735722 
L 157.210599 204.696874 
L 157.375029 204.696874 
L 157.484811 207.60565 
L 157.648875 208.228959 
L 157.813184 208.228959 
L 157.922966 205.320183 
L 158.086787 204.696874 
L 158.251582 204.604532 
L 158.305986 203.958137 
M 178.460999 204.027394 
L 178.570903 205.874236 
L 179.282905 205.874236 
L 179.392809 208.136617 
L 179.55663 208.621412 
L 179.72179 208.52907 
L 180.086676 207.836505 
L 180.159702 207.767248 
L 180.269119 206.866913 
L 180.433184 206.659143 
L 180.615748 206.566801 
L 180.980756 206.266689 
L 181.473802 206.266689 
L 181.583706 204.327506 
L 181.601476 204.050479 
M 183.29957 204.004308 
L 183.409352 205.481782 
L 183.664699 205.481782 
L 183.719347 204.004308 
M 255.559499 203.958137 
L 255.851724 205.481782 
L 255.96102 205.481782 
L 256.070559 203.981223 
M 256.436053 203.935052 
L 256.728035 204.696874 
L 256.837695 204.789216 
L 256.947234 205.989663 
L 257.111055 206.266689 
L 257.275972 206.359031 
L 257.640979 207.051597 
L 257.714005 207.143939 
L 257.823422 208.344386 
L 257.987487 208.621412 
L 258.152282 208.52907 
L 258.517168 207.836505 
L 258.590072 207.836505 
L 258.699732 204.927729 
L 258.863676 204.30442 
L 259.028714 204.212078 
L 259.082753 203.935052 
M 275.276478 204.173602 
L 275.56846 205.481782 
L 275.678607 205.481782 
L 275.787781 207.226021 
L 275.933833 207.444051 
L 276.117128 207.356839 
L 276.482014 207.051597 
L 276.555161 207.138809 
L 276.920169 207.444051 
L 277.431228 207.531263 
L 277.540401 208.141747 
L 277.686575 208.228959 
L 277.869626 208.316171 
L 277.978678 208.926654 
L 278.12473 209.013866 
L 278.307538 209.013866 
L 278.416833 205.874236 
L 278.562763 205.481782 
L 278.745693 205.481782 
L 278.781719 204.30442 
M 295.523138 204.188992 
L 295.651299 204.696874 
L 295.833498 204.696874 
L 295.943402 208.575241 
L 296.107345 209.40632 
L 296.27214 209.498662 
L 296.637148 210.191228 
L 296.709808 210.191228 
L 296.819591 212.130412 
L 296.983655 212.545951 
L 297.14845 212.615208 
L 297.257867 213.515543 
L 297.421811 213.723313 
L 297.586849 213.815655 
L 297.951491 214.50822 
L 298.024395 214.50822 
L 298.134178 216.124207 
L 298.297999 216.47049 
L 298.462672 216.47049 
L 298.572333 219.056068 
L 298.736276 219.61012 
L 299.338861 219.61012 
L 299.448643 224.134882 
L 299.612343 225.104474 
L 299.777138 225.104474 
L 299.886798 227.366855 
L 300.050741 227.851651 
L 301.530366 227.943993 
L 301.895009 228.636559 
L 301.968156 228.705816 
L 302.077574 229.606151 
L 302.241638 229.813921 
L 302.844588 229.906263 
L 303.209474 230.598828 
L 303.282622 230.69117 
L 303.39216 231.891617 
L 303.555982 232.168644 
L 303.720777 232.260986 
L 303.830316 233.461433 
L 303.994259 233.738459 
L 304.597087 233.646117 
L 304.706626 232.44567 
L 304.870569 232.168644 
L 305.473275 232.099387 
L 305.582693 231.199052 
L 305.746879 230.991282 
L 307.226018 231.060539 
L 307.335435 231.960874 
L 307.499499 232.168644 
L 308.102206 232.099387 
L 308.211988 231.199052 
L 308.375688 230.991282 
L 309.434684 230.89894 
L 309.799935 230.598828 
L 310.293103 230.598828 
L 310.402642 228.982842 
L 310.566585 228.636559 
L 311.169535 228.705816 
L 311.278952 229.606151 
L 311.442895 229.813921 
L 311.607447 229.813921 
L 311.717107 228.197934 
L 311.88105 227.851651 
L 312.483757 227.851651 
L 312.593539 226.235665 
L 312.757482 225.889382 
L 314.236377 225.889382 
L 314.346038 224.273396 
L 314.510103 223.927113 
L 314.675019 223.834771 
L 315.039905 223.142205 
L 315.113053 223.234547 
L 315.222348 224.434994 
L 315.386291 224.71202 
L 315.551329 224.804363 
L 315.916094 225.496928 
L 315.989363 225.566185 
L 316.098658 226.46652 
L 316.262601 226.67429 
L 317.303706 226.605033 
L 317.413245 225.704698 
L 317.577188 225.496928 
L 318.179651 225.496928 
L 318.289555 227.112915 
L 318.453498 227.459197 
L 319.05657 227.528454 
L 319.165866 228.428789 
L 319.329809 228.636559 
L 320.37067 228.567302 
L 320.480209 227.666967 
L 320.644274 227.459197 
L 320.808947 227.528454 
L 320.918486 228.428789 
L 321.082429 228.636559 
L 321.247467 228.728901 
L 321.612231 229.421467 
L 322.123412 229.490723 
L 322.233073 230.391059 
L 322.397016 230.598828 
L 322.999844 230.668085 
L 323.109261 231.56842 
L 323.273204 231.77619 
L 324.7521 231.77619 
L 324.862003 233.392176 
L 325.025825 233.738459 
L 325.628775 233.807716 
L 325.738314 234.708051 
L 325.902378 234.915821 
L 326.066565 234.915821 
L 326.176347 232.65344 
L 326.340533 232.168644 
L 326.942997 232.076302 
L 327.052779 230.875855 
L 327.216722 230.598828 
L 327.81955 230.668085 
L 327.929089 231.56842 
L 328.093032 231.77619 
L 329.133772 231.77619 
L 329.243554 233.392176 
L 329.407376 233.738459 
L 330.448359 233.807716 
L 330.55802 234.708051 
L 330.721963 234.915821 
L 330.886514 234.846564 
L 330.996053 233.946229 
L 331.159996 233.738459 
L 331.763311 233.646117 
L 332.128197 232.953551 
L 333.077168 232.953551 
L 333.187194 231.337565 
L 333.351015 230.991282 
L 333.533701 230.89894 
L 333.898587 230.598828 
L 334.391998 230.529572 
L 334.501537 229.629236 
L 334.665359 229.421467 
L 334.830275 229.329125 
L 334.939692 228.128678 
L 335.103514 227.851651 
L 335.706585 227.943993 
L 336.071593 228.636559 
L 336.58253 228.636559 
L 336.692191 230.575743 
L 336.856134 230.991282 
L 337.897117 230.922026 
L 338.006656 230.02169 
L 338.170721 229.813921 
L 339.64986 229.744664 
L 339.759398 228.844329 
L 339.92322 228.636559 
L 340.087893 228.636559 
L 340.197675 227.020573 
L 340.361375 226.67429 
L 340.526413 226.581948 
L 340.891421 225.889382 
L 340.964081 225.889382 
L 341.073864 224.273396 
L 341.237928 223.927113 
L 341.402358 223.996369 
L 341.512019 224.896705 
L 341.676083 225.104474 
L 341.841 225.196816 
L 342.205643 225.889382 
L 342.71731 225.79704 
L 343.082074 225.104474 
L 343.155344 225.196816 
L 343.520351 225.889382 
L 344.469931 225.981724 
L 344.834695 226.67429 
L 344.907842 226.743546 
L 345.017381 227.643882 
L 345.181324 227.851651 
L 345.345754 227.851651 
L 345.455415 229.467638 
L 345.619479 229.813921 
L 347.098374 229.813921 
L 347.208035 228.197934 
L 347.372221 227.851651 
L 347.974685 227.851651 
L 348.084467 229.467638 
L 348.24841 229.813921 
L 348.413083 229.883177 
L 348.522744 230.783512 
L 348.686687 230.991282 
L 348.869251 230.89894 
L 349.23438 230.598828 
L 349.727427 230.598828 
L 349.837087 228.982842 
L 350.001152 228.636559 
L 350.166069 228.544217 
L 350.530833 227.851651 
L 350.603737 227.851651 
L 350.713397 229.467638 
L 350.87734 229.813921 
L 351.042257 229.906263 
L 351.407143 230.598828 
L 351.498182 230.69117 
L 351.863189 230.991282 
L 352.374249 230.89894 
L 352.7395 230.598828 
L 352.812525 230.69117 
L 353.177655 230.991282 
L 353.232667 231.060539 
L 353.34245 231.960874 
L 353.506271 232.168644 
L 353.670944 232.076302 
L 353.780483 230.875855 
L 353.944426 230.598828 
L 354.127112 230.69117 
L 354.492363 230.991282 
L 354.547254 231.060539 
L 354.656793 231.960874 
L 354.820858 232.168644 
L 355.441699 232.076302 
L 355.806585 231.77619 
L 355.861963 231.683848 
L 356.227092 230.991282 
L 356.756043 230.89894 
L 357.121294 230.598828 
L 357.632231 230.69117 
L 357.997604 230.991282 
L 358.052495 230.991282 
L 358.162034 229.052098 
L 358.326099 228.636559 
L 358.491015 228.544217 
L 358.855779 227.851651 
L 358.928562 227.851651 
L 359.038588 226.235665 
L 359.202409 225.889382 
L 359.804994 225.889382 
L 359.914776 224.273396 
L 360.078719 223.927113 
L 360.243392 223.996369 
L 360.352931 224.896705 
L 360.516996 225.104474 
L 360.681669 225.196816 
L 361.046677 225.889382 
L 361.557858 225.820125 
L 361.667275 224.91979 
L 361.831339 224.71202 
L 361.996013 224.781277 
L 362.105551 225.681612 
L 362.269373 225.889382 
L 362.434411 225.981724 
L 362.799175 226.67429 
L 362.872566 226.766632 
L 363.237452 227.459197 
L 363.748998 227.366855 
L 364.113762 226.67429 
L 364.186545 226.67429 
L 364.296327 228.290276 
L 364.46027 228.636559 
L 366.377929 228.728901 
L 366.742693 229.421467 
L 366.816206 229.329125 
L 367.180848 228.636559 
L 368.130671 228.728901 
L 368.495435 229.421467 
L 368.568339 229.513809 
L 368.677878 230.714256 
L 368.841943 230.991282 
L 369.006494 231.060539 
L 369.116033 231.960874 
L 369.279976 232.168644 
L 369.444771 232.260986 
L 369.55431 233.461433 
L 369.718253 233.738459 
L 369.882926 233.807716 
L 369.992587 234.708051 
L 370.156408 234.915821 
L 370.320838 234.915821 
L 370.43062 236.531807 
L 370.594563 236.87809 
L 370.777128 236.970432 
L 371.142379 237.270544 
L 371.197635 237.362886 
L 371.562521 238.055451 
L 372.073702 238.124708 
L 372.183362 239.025043 
L 372.347305 239.232813 
L 373.388167 239.163556 
L 373.497584 238.263221 
L 373.66177 238.055451 
L 375.140665 238.124708 
L 375.250326 239.025043 
L 375.414269 239.232813 
L 375.578699 239.232813 
L 375.688481 237.616827 
L 375.852424 237.270544 
L 376.455496 237.178202 
L 376.820382 236.485636 
L 376.893164 236.485636 
L 377.002946 233.57686 
L 377.167011 232.953551 
L 377.769474 232.953551 
L 377.879256 231.337565 
L 378.043321 230.991282 
L 378.207995 230.89894 
L 378.317533 229.698493 
L 378.481476 229.421467 
L 379.102074 229.513809 
L 379.485947 229.813921 
L 379.522216 229.813921 
L 379.631755 228.197934 
L 379.796063 227.851651 
L 380.39877 227.782395 
L 380.508309 226.882059 
L 380.672252 226.67429 
L 381.27508 226.581948 
L 381.384619 225.381501 
L 381.548562 225.104474 
L 381.713114 225.012132 
L 381.822774 223.811685 
L 381.986717 223.534659 
L 382.151634 223.442317 
L 382.516641 222.749751 
L 383.027579 222.749751 
L 383.137239 221.133765 
L 383.301304 220.787482 
L 386.095151 220.879824 
L 386.459915 221.57239 
L 386.532941 221.480048 
L 386.64248 220.2796 
L 386.806423 220.002574 
L 387.408886 220.002574 
L 387.51879 222.91135 
L 387.682855 223.534659 
L 387.86542 223.627001 
L 388.230549 223.927113 
L 388.28544 223.927113 
L 388.3951 226.512691 
L 388.559165 227.066744 
L 388.723838 227.159086 
L 388.833256 228.359533 
L 388.99732 228.636559 
L 389.179885 228.728901 
L 389.545014 229.029013 
L 389.600392 229.121355 
L 389.965156 229.813921 
L 390.038547 229.906263 
L 390.403311 230.598828 
L 390.476702 230.506486 
L 390.841588 229.813921 
L 390.914736 229.906263 
L 391.279743 230.598828 
L 391.790924 230.69117 
L 391.900463 231.891617 
L 392.064406 232.168644 
L 392.228714 232.168644 
L 392.338496 233.78463 
L 392.502561 234.130913 
L 392.667478 234.223255 
L 393.032364 234.915821 
L 393.543666 235.008163 
L 393.908795 235.700728 
L 393.981943 235.608386 
L 394.346707 234.915821 
L 394.420098 235.008163 
L 394.784862 235.700728 
L 395.296287 235.769985 
L 395.405825 236.67032 
L 395.569768 236.87809 
L 395.73432 236.808833 
L 395.843737 235.908498 
L 396.007923 235.700728 
L 396.610387 235.769985 
L 396.720291 236.67032 
L 396.884112 236.87809 
L 397.048907 236.947347 
L 397.158324 237.847682 
L 397.322267 238.055451 
L 397.48694 238.124708 
L 397.596357 239.025043 
L 397.760544 239.232813 
L 397.925217 239.163556 
L 398.034634 238.263221 
L 398.198577 238.055451 
L 398.253712 238.055451 
L 398.253712 238.055451 
" clip-path="url(#p2f29d70c92)" style="fill: none; stroke: #008000; stroke-width: 1.5; stroke-linecap: square"/>
   </g>
   <g id="line2d_30">
    <path d="M 123.709869 184.35853 
L 123.819651 185.466635 
L 124.075363 185.558977 
L 124.440371 186.251543 
L 124.513031 186.251543 
L 124.622935 188.190727 
L 124.786878 188.606266 
L 124.951187 188.606266 
L 125.042347 184.450872 
M 136.361354 184.381616 
L 136.471136 186.482398 
L 136.599053 186.643997 
L 136.781739 186.551655 
L 136.891278 185.351208 
L 137.055464 185.074181 
L 137.219651 185.074181 
L 137.329311 187.013365 
L 137.493498 187.428904 
L 137.658414 187.521246 
L 138.023179 188.213812 
L 138.534238 188.213812 
L 138.64402 190.152996 
L 138.807841 190.568535 
L 138.972393 190.568535 
L 139.082053 194.123705 
L 139.245996 194.885528 
L 139.410426 194.885528 
L 139.52033 196.824711 
L 139.684152 197.240251 
L 139.848947 197.332593 
L 139.958364 198.53304 
L 140.122428 198.810066 
L 140.28698 198.902408 
L 140.396519 200.102855 
L 140.560583 200.379882 
L 140.725257 200.287539 
L 140.834795 199.087092 
L 140.998617 198.810066 
L 141.163412 198.879323 
L 141.272951 199.779658 
L 141.437015 199.987428 
L 141.601202 199.987428 
L 141.711106 198.371441 
L 141.874927 198.025158 
L 142.0396 198.025158 
L 142.149382 199.641145 
L 142.313204 199.987428 
L 142.477999 200.07977 
L 142.605185 200.679993 
L 142.714846 200.772335 
L 142.916276 200.864677 
L 143.28104 201.557243 
L 143.792221 201.557243 
L 143.901759 199.618059 
L 144.065946 199.20252 
L 144.230619 199.110178 
L 144.340036 197.909731 
L 144.504101 197.632705 
L 144.668896 197.540362 
L 145.033782 196.847797 
L 145.106686 196.847797 
L 145.216468 199.110178 
L 145.380289 199.594974 
L 145.544841 199.594974 
L 145.654623 201.857355 
L 145.818445 202.342151 
L 145.983361 202.446805 
L 146.311734 203.127059 
L 146.439408 203.219401 
L 146.804293 203.519512 
L 146.859671 203.42717 
L 147.224557 202.734605 
L 147.29734 202.734605 
L 147.334218 203.84271 
M 149.980674 203.888881 
L 150.090578 202.734605 
L 150.364912 202.665348 
L 150.474208 201.765013 
L 150.638151 201.557243 
L 151.241222 201.649585 
L 151.60623 202.342151 
L 152.117046 202.342151 
L 152.171815 203.819624 
M 153.942814 203.865795 
L 154.052474 203.127059 
L 154.746098 203.127059 
L 154.764111 203.750368 
M 158.324365 203.865795 
L 158.434268 203.127059 
L 158.689494 203.127059 
L 158.799154 200.864677 
L 158.963341 200.379882 
L 159.128136 200.472224 
L 159.4929 201.164789 
L 159.565926 201.164789 
L 159.67583 198.902408 
L 159.839529 198.417612 
L 160.460249 198.509954 
L 160.825256 198.810066 
L 160.880756 198.902408 
L 161.007821 199.502632 
L 161.117603 199.594974 
L 161.318424 199.594974 
L 161.428328 197.65579 
L 161.592271 197.240251 
L 161.756945 197.147909 
L 161.866362 195.947462 
L 162.030426 195.670435 
L 162.194856 195.670435 
L 162.304638 194.054449 
L 162.468581 193.708166 
L 162.633011 193.708166 
L 162.742672 190.79939 
L 162.906615 190.176081 
L 163.089301 190.268423 
L 163.45443 190.568535 
L 163.509322 190.568535 
L 163.619104 188.629351 
L 163.782925 188.213812 
L 163.965733 188.306154 
L 164.330619 188.606266 
L 164.82403 188.698608 
L 164.933569 189.899055 
L 165.097634 190.176081 
L 165.261942 190.176081 
L 165.371724 188.560095 
L 165.535667 188.213812 
L 166.138617 188.144556 
L 166.248034 187.24422 
L 166.411977 187.036451 
L 166.576529 187.128793 
L 166.686189 188.32924 
L 166.850132 188.606266 
L 167.014441 188.606266 
L 167.124223 186.667082 
L 167.288287 186.251543 
L 167.453204 186.343885 
L 167.817968 187.036451 
L 167.891359 186.944108 
L 168.256123 186.251543 
L 168.329028 186.251543 
L 168.438688 189.160318 
L 168.602753 189.783628 
L 169.205459 189.783628 
L 169.315242 191.722811 
L 169.478941 192.138351 
L 169.661749 192.230693 
L 170.026757 192.530804 
L 170.081526 192.530804 
L 170.191552 195.116383 
L 170.355373 195.670435 
L 170.52029 195.578093 
L 170.647233 194.97787 
L 170.756894 194.885528 
L 170.976215 194.97787 
L 171.341344 195.277981 
L 171.396478 195.370324 
L 171.505895 196.570771 
L 171.669838 196.847797 
L 172.27291 196.940139 
L 172.637796 197.632705 
L 173.149099 197.701961 
L 173.258637 198.602296 
L 173.422337 198.810066 
L 174.025409 198.879323 
L 174.134826 199.779658 
L 174.298769 199.987428 
L 174.463564 199.895086 
L 174.572981 198.694639 
L 174.737046 198.417612 
L 175.339874 198.32527 
L 175.449413 197.124823 
L 175.613234 196.847797 
L 175.777786 196.847797 
L 175.887568 198.786981 
L 176.051389 199.20252 
L 176.215941 199.20252 
L 176.325601 197.263336 
L 176.489666 196.847797 
L 176.654339 196.940139 
L 177.019469 197.632705 
L 177.092738 197.540362 
L 177.457624 196.847797 
L 177.530528 196.847797 
L 177.640188 199.433375 
L 177.804375 199.987428 
L 177.968561 199.987428 
L 178.078222 202.249809 
L 178.242408 202.734605 
L 178.406595 202.734605 
L 178.443594 203.84271 
M 181.619854 203.911966 
L 181.911835 203.911966 
L 182.021861 201.649585 
L 182.185804 201.164789 
L 182.368247 201.072447 
L 182.733498 200.772335 
L 182.788511 200.864677 
L 182.897928 202.065125 
L 183.062114 202.342151 
L 183.226544 202.342151 
L 183.281192 203.819624 
M 183.737603 203.819624 
L 183.847507 202.342151 
L 184.103463 202.249809 
L 184.467984 201.557243 
L 184.559022 201.649585 
L 184.924273 201.949697 
L 184.979651 201.857355 
L 185.344415 201.164789 
L 185.417806 201.257131 
L 185.782692 201.949697 
L 186.293508 201.949697 
L 186.40329 197.424935 
L 186.567355 196.455343 
L 186.74992 196.363001 
L 187.115049 196.062889 
L 187.169818 196.062889 
L 187.279844 194.446903 
L 187.443787 194.10062 
L 187.608095 194.10062 
L 187.717999 191.515042 
L 187.881942 190.960989 
L 188.041869 190.868647 
L 188.411501 190.176081 
L 188.484284 190.176081 
L 188.594187 187.9137 
L 188.758252 187.428904 
L 189.361081 187.336562 
L 189.470376 186.136115 
L 189.634562 185.859089 
L 189.799236 185.789832 
L 189.908774 184.889497 
L 190.072596 184.681727 
L 190.237512 184.589385 
L 190.291673 184.312359 
M 201.191633 184.312359 
L 201.318455 187.013365 
L 201.428359 187.428904 
L 201.62918 187.428904 
L 201.738962 184.520129 
L 201.756732 184.312359 
M 204.276367 184.35853 
L 204.623605 185.859089 
L 204.696265 185.859089 
L 204.805926 184.35853 
M 205.572941 184.520129 
L 205.682358 187.521246 
L 205.846301 188.213812 
L 206.011217 188.12147 
L 206.376225 187.428904 
L 206.449007 187.428904 
L 206.55879 185.812918 
L 206.722733 185.466635 
L 206.887284 185.397379 
L 206.996945 184.497043 
L 207.014836 184.35853 
M 209.588997 184.450872 
L 209.699023 187.036451 
L 209.95437 187.036451 
L 210.027152 184.543214 
M 212.218293 184.312359 
L 212.437492 186.251543 
L 212.583179 186.251543 
L 212.692961 188.190727 
L 212.856904 188.606266 
L 213.021334 188.606266 
L 213.131116 190.222252 
L 213.295181 190.568535 
L 213.459489 190.568535 
L 213.569271 192.184522 
L 213.733336 192.530804 
L 213.898253 192.623147 
L 214.263017 193.315712 
L 214.336043 193.246456 
L 214.445581 192.34612 
L 214.609524 192.138351 
L 214.774319 192.046009 
L 214.883736 190.845561 
L 215.047679 190.568535 
L 215.212109 190.568535 
L 215.32177 192.507719 
L 215.485956 192.923258 
L 215.650508 192.992515 
L 215.759925 193.89285 
L 215.92399 194.10062 
L 216.106798 194.192962 
L 216.471805 194.493074 
L 216.544953 194.585416 
L 216.90996 194.885528 
L 216.965338 194.97787 
L 217.330346 195.670435 
L 217.402885 195.670435 
L 217.512789 197.932816 
L 217.676732 198.417612 
L 217.841162 198.417612 
L 217.950822 200.033599 
L 218.115008 200.379882 
L 218.717715 200.310625 
L 218.827254 199.41029 
L 218.991197 199.20252 
L 219.155992 199.133263 
L 219.265409 198.232928 
L 219.429474 198.025158 
L 219.59439 197.932816 
L 219.959155 197.240251 
L 220.03218 197.170994 
L 220.141719 196.270659 
L 220.305662 196.062889 
L 220.470092 196.062889 
L 220.579874 198.32527 
L 220.743696 198.810066 
L 220.908247 198.810066 
L 221.018029 200.426053 
L 221.181972 200.772335 
L 221.346889 200.864677 
L 221.711653 201.557243 
L 221.784557 201.557243 
L 221.89434 199.618059 
L 222.058404 199.20252 
L 222.222956 199.110178 
L 222.332373 197.909731 
L 222.496681 197.632705 
L 223.537178 197.632705 
L 223.647082 196.016718 
L 223.810903 195.670435 
L 223.975455 195.578093 
L 224.085237 194.377646 
L 224.249058 194.10062 
L 224.431744 194.192962 
L 224.796874 194.493074 
L 224.852252 194.585416 
L 225.217016 195.277981 
L 225.290407 195.185639 
L 225.655049 194.493074 
L 225.728562 194.400732 
L 226.093326 193.708166 
L 226.166473 193.615824 
L 226.276012 192.415377 
L 226.439834 192.138351 
L 226.60475 192.230693 
L 226.969758 192.923258 
L 227.04254 192.830916 
L 227.152079 191.630469 
L 227.316265 191.353443 
L 227.498708 191.445785 
L 227.863959 191.745897 
L 227.919337 191.838239 
L 228.284101 192.530804 
L 228.357249 192.461548 
L 228.466666 191.561213 
L 228.630609 191.353443 
L 230.109626 191.353443 
L 230.219408 193.292627 
L 230.383229 193.708166 
L 230.548146 193.800508 
L 230.913154 194.493074 
L 230.986058 194.493074 
L 231.095718 196.10906 
L 231.259661 196.455343 
L 231.442226 196.363001 
L 231.807477 196.062889 
L 231.862125 196.062889 
L 231.972028 194.123705 
L 232.13585 193.708166 
L 232.300401 193.708166 
L 232.410305 196.293744 
L 232.574127 196.847797 
L 232.738678 196.847797 
L 232.848339 194.585416 
L 233.012403 194.10062 
L 233.194846 194.008278 
L 233.560097 193.708166 
L 233.614867 193.708166 
L 233.724527 192.09218 
L 233.888714 191.745897 
L 234.053265 191.815153 
L 234.162682 192.715489 
L 234.326747 192.923258 
L 234.929332 192.923258 
L 235.039114 190.984075 
L 235.202935 190.568535 
L 235.385743 190.476193 
L 235.750629 190.176081 
L 235.805642 190.176081 
L 235.915424 188.560095 
L 236.079489 188.213812 
L 236.243919 188.283069 
L 236.353701 189.183404 
L 236.517522 189.391174 
L 236.681952 189.391174 
L 236.791856 191.330357 
L 236.955799 191.745897 
L 237.120229 191.745897 
L 237.22989 190.12991 
L 237.393833 189.783628 
L 237.558384 189.783628 
L 237.668045 191.722811 
L 237.832109 192.138351 
L 237.996539 192.138351 
L 238.106321 190.522364 
L 238.270264 190.176081 
L 238.434694 190.176081 
L 238.544477 188.236898 
L 238.708298 187.821358 
L 239.749646 187.9137 
L 240.114532 188.606266 
L 240.187193 188.606266 
L 240.297097 185.69749 
L 240.46104 185.074181 
L 240.62547 185.074181 
L 240.662226 184.381616 
M 249.388937 184.381616 
L 249.498476 185.582063 
L 249.662419 185.859089 
L 249.827092 185.928346 
L 249.936631 186.828681 
L 250.100574 187.036451 
L 250.265125 187.105707 
L 250.374664 188.006042 
L 250.538729 188.213812 
L 250.703037 188.213812 
L 250.812819 191.768982 
L 250.976884 192.530804 
L 251.141801 192.438462 
L 251.506565 191.745897 
L 251.579712 191.838239 
L 251.689251 193.038686 
L 251.853194 193.315712 
L 252.017867 193.408054 
L 252.127284 194.608501 
L 252.291349 194.885528 
L 252.455779 194.885528 
L 252.565439 197.471106 
L 252.729383 198.025158 
L 252.912191 198.117501 
L 253.277076 198.417612 
L 253.332333 198.486869 
L 253.44175 199.387204 
L 253.605814 199.594974 
L 253.770366 199.687316 
L 253.880148 200.887763 
L 254.043848 201.164789 
L 254.208765 201.257131 
L 254.335586 201.857355 
L 254.445733 201.949697 
L 254.646554 201.949697 
L 254.756458 200.333711 
L 254.920401 199.987428 
L 255.08471 199.987428 
L 255.194613 202.573006 
L 255.358556 203.127059 
L 255.522865 203.127059 
L 255.559256 203.819624 
M 256.070802 203.865795 
L 256.234867 203.519512 
L 256.39954 203.588769 
L 256.435809 203.865795 
M 259.10101 203.888881 
L 259.210792 203.519512 
L 259.466504 203.42717 
L 259.576043 202.226723 
L 259.739864 201.949697 
L 259.904537 201.949697 
L 260.014319 198.717724 
L 260.178019 198.025158 
L 260.780604 198.025158 
L 260.890386 196.409172 
L 261.054573 196.062889 
L 261.237016 195.970547 
L 261.620766 195.670435 
L 261.657036 195.670435 
L 261.766818 197.932816 
L 261.931005 198.417612 
L 262.0958 198.32527 
L 262.460685 197.632705 
L 262.533833 197.540362 
L 262.64325 196.339915 
L 262.807193 196.062889 
L 262.989636 196.155231 
L 263.354765 196.455343 
L 263.410021 196.363001 
L 263.519439 195.162554 
L 263.683503 194.885528 
L 263.847933 194.885528 
L 263.957715 192.946344 
L 264.121658 192.530804 
L 264.286088 192.530804 
L 264.395627 189.945226 
L 264.559813 189.391174 
L 264.724487 189.298832 
L 264.833904 188.098384 
L 264.99809 187.821358 
L 265.180533 187.9137 
L 265.545662 188.213812 
L 265.60104 188.12147 
L 265.965926 187.428904 
L 266.03883 187.498161 
L 266.148491 188.398496 
L 266.312434 188.606266 
L 266.476742 188.606266 
L 266.586524 190.868647 
L 266.750589 191.353443 
L 266.915019 191.353443 
L 267.024801 189.737456 
L 267.188744 189.391174 
L 267.353661 189.483516 
L 267.718547 190.176081 
L 267.791938 190.268423 
L 268.156823 190.960989 
L 268.229606 190.960989 
L 268.33951 188.698608 
L 268.503088 188.213812 
L 268.685896 188.12147 
L 269.050903 187.821358 
L 269.105794 187.821358 
L 269.215698 190.730134 
L 269.379519 191.353443 
L 269.544436 191.445785 
L 269.671379 192.046009 
L 269.78104 192.138351 
L 269.982104 192.138351 
L 270.091765 193.754337 
L 270.256073 194.10062 
L 270.42026 194.10062 
L 270.530042 196.686198 
L 270.694228 197.240251 
L 271.296691 197.240251 
L 271.405987 199.333338 
L 271.552038 199.594974 
L 271.73509 199.682186 
L 271.844142 200.29267 
L 271.990315 200.379882 
L 272.173367 200.467094 
L 272.282419 201.077577 
L 272.428349 201.164789 
L 272.611278 201.164789 
L 272.720574 199.769398 
L 272.866504 199.594974 
L 273.04992 199.507762 
L 273.414563 199.20252 
L 273.487467 199.20252 
L 273.596762 200.597911 
L 273.742692 200.772335 
L 273.925744 200.772335 
L 274.035039 202.167727 
L 274.180969 202.342151 
L 274.802419 202.429363 
L 274.911228 203.039847 
L 275.057279 203.127059 
L 275.240331 203.127059 
L 275.276235 203.911966 
M 278.781963 203.911966 
L 279.074066 201.949697 
L 279.184335 201.862485 
L 279.549343 201.557243 
L 279.622125 201.557243 
L 279.73142 199.464156 
L 279.87735 199.20252 
L 280.498435 199.20252 
L 280.607731 197.109433 
L 280.753661 196.847797 
L 281.37438 196.755455 
L 281.484041 195.555008 
L 281.647984 195.277981 
L 281.812779 195.208725 
L 281.922196 194.30839 
L 282.086261 194.10062 
L 282.250569 194.10062 
L 282.360351 191.838239 
L 282.524294 191.353443 
L 282.688846 191.353443 
L 282.798628 188.767865 
L 282.962449 188.213812 
L 283.145014 188.12147 
L 283.510143 187.821358 
L 283.565156 187.821358 
L 283.674816 184.589385 
L 283.692586 184.35853 
M 293.660614 184.450872 
L 293.770396 186.851766 
L 293.898678 187.036451 
L 294.081 187.036451 
L 294.19066 191.88441 
L 294.354725 192.923258 
L 294.519398 192.992515 
L 294.628937 193.89285 
L 294.79288 194.10062 
L 294.957188 194.10062 
L 295.067092 195.716606 
L 295.231035 196.062889 
L 295.395343 196.062889 
L 295.505125 203.17323 
L 295.522895 203.681111 
L 295.522895 203.681111 
" clip-path="url(#p2f29d70c92)" style="fill: none; stroke: #ffff00; stroke-width: 1.5; stroke-linecap: square"/>
   </g>
   <g id="line2d_31">
    <path d="M 73.832727 148.968427 
L 74.124831 148.968427 
L 74.234613 145.090059 
L 74.398434 144.25898 
L 74.563229 144.166638 
L 74.672768 142.966191 
L 74.836833 142.689165 
L 75.001141 142.689165 
L 75.110923 144.305152 
L 75.274866 144.651434 
L 75.895586 144.559092 
L 76.260715 144.25898 
L 76.315728 144.351323 
L 76.425388 145.55177 
L 76.589331 145.828796 
L 76.771896 145.736454 
L 77.137025 145.436342 
L 77.19216 145.505599 
L 77.301577 146.405934 
L 77.465642 146.613704 
L 77.630315 146.544447 
L 77.739732 145.644112 
L 77.903797 145.436342 
L 78.06847 145.528684 
L 78.177887 146.729131 
L 78.341952 147.006157 
L 78.506503 147.006157 
L 78.616042 145.390171 
L 78.779985 145.043888 
L 78.94478 144.951546 
L 79.054319 143.751099 
L 79.218262 143.474073 
L 79.382813 143.381731 
L 79.492474 142.181284 
L 79.656295 141.904257 
L 79.820969 141.835001 
L 79.930507 140.934665 
L 80.09445 140.726896 
L 80.25888 140.726896 
L 80.368662 138.787712 
L 80.532727 138.372173 
L 80.697035 138.372173 
L 80.806939 135.786594 
L 80.971004 135.232542 
L 81.13519 135.232542 
L 81.245094 138.787712 
L 81.409037 139.549534 
L 81.591602 139.641876 
L 81.956853 139.941988 
L 82.011744 139.941988 
L 82.121405 138.326002 
L 82.285469 137.979719 
L 82.450021 138.072061 
L 82.559681 139.272508 
L 82.723624 139.549534 
L 82.888541 139.457192 
L 83.253427 138.764627 
L 83.344344 138.856969 
L 83.709473 139.15708 
L 83.76473 139.064738 
L 84.129615 138.372173 
L 84.202398 138.372173 
L 84.31218 140.311356 
L 84.476245 140.726896 
L 84.640553 140.726896 
L 84.750335 142.342882 
L 84.914156 142.689165 
L 85.078708 142.689165 
L 85.188612 141.073179 
L 85.352433 140.726896 
L 85.53512 140.634554 
L 85.900127 140.334442 
L 85.955018 140.334442 
L 86.0648 138.395258 
L 86.228865 137.979719 
L 86.39366 138.072061 
L 86.758668 138.764627 
L 86.831328 138.764627 
L 86.941111 135.209456 
L 87.105054 134.447634 
L 87.70776 134.447634 
L 87.817421 131.862056 
L 87.981364 131.308003 
L 88.14628 131.400345 
L 88.255576 132.600792 
L 88.419641 132.877819 
L 88.602083 132.970161 
L 88.967334 133.270273 
L 89.022712 133.177931 
L 89.387598 132.485365 
L 89.460381 132.485365 
L 89.570163 129.899787 
L 89.734106 129.345734 
L 89.898536 129.345734 
L 90.008196 127.729748 
L 90.172261 127.383465 
L 90.336691 127.383465 
L 90.446351 125.767478 
L 90.610416 125.421196 
L 90.774724 125.421196 
L 90.884506 127.683577 
L 91.048693 128.168372 
L 91.213123 128.099116 
L 91.322783 127.198781 
L 91.486605 126.991011 
L 91.651156 126.991011 
L 91.760938 118.587881 
L 91.924881 116.787211 
L 92.089311 116.787211 
L 92.198972 113.878435 
L 92.362915 113.255126 
L 92.527466 113.255126 
L 92.637248 111.315942 
L 92.80107 110.900403 
L 92.965621 110.900403 
L 93.075404 107.991627 
L 93.239468 107.368318 
L 93.403776 107.368318 
L 93.513559 105.752332 
L 93.677623 105.406049 
L 93.842053 105.406049 
L 93.951714 103.790063 
L 94.115778 103.44378 
L 94.280208 103.44378 
L 94.389869 100.535004 
L 94.553812 99.911695 
L 94.718242 99.911695 
L 94.828024 97.326117 
L 94.991967 96.772064 
L 95.174653 96.864406 
L 95.539661 97.164518 
L 95.612808 97.072176 
L 95.977816 96.772064 
L 96.03295 96.864406 
L 96.142489 98.064853 
L 96.306311 98.34188 
L 96.489119 98.434222 
L 96.854126 98.734333 
L 96.908895 98.734333 
L 97.018799 96.471952 
L 97.182742 95.987156 
L 97.785206 95.987156 
L 97.89511 93.078381 
L 98.059174 92.455072 
L 98.223726 92.385815 
L 98.333265 91.48548 
L 98.497208 91.27771 
L 98.661638 91.27771 
L 98.77142 87.076145 
L 98.935484 86.17581 
L 99.099914 86.17581 
L 99.209575 82.943837 
L 99.373518 82.251272 
L 99.556326 82.15893 
L 99.921212 81.858818 
L 99.976346 81.858818 
L 100.085885 79.273239 
L 100.249828 78.719187 
L 100.41438 78.719187 
L 100.523918 82.274357 
L 100.688105 83.036179 
L 100.852656 83.036179 
L 100.962317 84.975363 
L 101.126138 85.390902 
L 101.308946 85.483245 
L 101.673954 85.783356 
L 101.74698 85.875698 
L 102.111987 86.17581 
L 102.166878 86.17581 
L 102.276782 90.377375 
L 102.440725 91.27771 
L 102.605155 91.27771 
L 102.715059 96.772064 
L 102.87888 97.949426 
L 103.043188 97.949426 
L 103.152971 100.211807 
L 103.317035 100.696603 
L 103.481344 100.696603 
L 103.591126 103.605378 
L 103.755312 104.228687 
L 103.91962 104.228687 
L 104.029281 106.491068 
L 104.193346 106.975864 
L 104.358019 107.068206 
L 104.467558 108.268654 
L 104.631501 108.54568 
L 104.796417 108.638022 
L 105.161303 109.330588 
L 105.234207 109.330588 
L 105.343868 111.592969 
L 105.507811 112.077764 
L 105.690376 112.170107 
L 106.055505 112.470218 
L 106.110396 112.470218 
L 106.2203 115.702191 
L 106.384121 116.394757 
L 106.549038 116.302415 
L 106.913802 115.609849 
L 107.004719 115.517507 
L 107.36997 115.217395 
L 107.424861 115.217395 
L 107.534643 118.126171 
L 107.698586 118.74948 
L 107.863016 118.74948 
L 107.972798 121.658256 
L 108.136863 122.281565 
L 108.319306 122.189223 
L 108.684557 121.889111 
L 108.73957 121.819854 
L 108.849109 120.919519 
L 109.013173 120.711749 
L 109.177603 120.711749 
L 109.287264 124.913314 
L 109.451328 125.813649 
L 109.633771 125.721307 
L 109.998901 125.421196 
L 110.053792 125.421196 
L 110.163452 120.896433 
L 110.327639 119.926842 
L 110.492068 119.926842 
L 110.601729 117.341263 
L 110.765794 116.787211 
L 110.930224 116.787211 
L 111.039884 114.52483 
L 111.203827 114.040034 
L 111.368622 113.947692 
L 111.478039 112.747245 
L 111.641982 112.470218 
L 111.806534 112.470218 
L 111.916194 105.359878 
L 112.080137 103.836234 
L 112.245297 103.928576 
L 112.609818 104.621141 
L 112.700979 104.713483 
L 113.065865 105.013595 
L 113.121121 104.921253 
L 113.230781 103.720806 
L 113.394724 103.44378 
L 113.997188 103.44378 
L 114.107091 101.827793 
L 114.271034 101.48151 
L 114.435951 101.573853 
L 114.800715 102.266418 
L 114.873498 102.266418 
L 114.983402 106.144786 
L 115.147466 106.975864 
L 115.311775 106.975864 
L 115.421557 111.823824 
L 115.5855 112.862672 
L 115.74993 112.862672 
L 115.859712 116.094645 
L 116.023655 116.787211 
L 116.188085 116.787211 
L 116.297867 120.342381 
L 116.46181 121.104203 
L 116.626727 121.196545 
L 116.991612 121.889111 
L 117.06476 121.981453 
L 117.429768 122.674019 
L 117.50255 122.674019 
L 117.612332 126.552386 
L 117.776275 127.383465 
L 118.37886 127.383465 
L 118.488521 128.999451 
L 118.652585 129.345734 
L 118.817015 129.345734 
L 118.926676 133.224102 
L 119.09074 134.05518 
L 119.25517 134.05518 
L 119.364953 140.519126 
L 119.528896 141.904257 
L 119.693325 141.904257 
L 119.802986 143.843441 
L 119.967051 144.25898 
L 120.131481 144.25898 
L 120.241141 149.430137 
L 120.405206 150.538242 
L 120.569636 150.538242 
L 120.67954 154.41661 
L 120.842996 155.247688 
L 121.007791 155.247688 
L 121.117695 160.418845 
L 121.263625 161.52695 
L 121.445824 161.52695 
L 121.555971 166.374909 
L 121.701901 167.413758 
L 121.884344 167.483014 
L 121.993883 168.38335 
L 122.157826 168.591119 
L 122.322256 168.591119 
L 122.432038 179.579827 
L 122.57809 181.93455 
L 123.19881 182.003807 
L 123.308348 182.904142 
L 123.472413 183.111912 
L 123.636721 183.111912 
L 123.691369 184.220017 
M 125.060725 184.104589 
L 125.170629 182.719458 
L 125.389342 182.719458 
L 125.499246 177.548301 
L 125.663067 176.440196 
L 125.827497 176.440196 
L 125.937157 172.238632 
L 126.101222 171.338296 
L 126.265774 171.338296 
L 126.375434 169.399113 
L 126.539499 168.983573 
L 126.703929 168.983573 
L 126.813467 165.7516 
L 126.977654 165.059035 
L 127.141962 165.059035 
L 127.251622 163.443048 
L 127.415809 163.096765 
L 128.018394 163.096765 
L 128.128054 160.18799 
L 128.291997 159.564681 
L 128.456671 159.564681 
L 128.566331 157.625497 
L 128.730153 157.209958 
L 128.894826 157.117616 
L 129.004608 155.917168 
L 129.168429 155.640142 
L 129.351116 155.5478 
L 129.716001 155.247688 
L 129.771014 155.247688 
L 129.880796 152.985307 
L 130.044618 152.500511 
L 130.647568 152.408169 
L 130.757107 151.207722 
L 130.92105 150.930696 
L 131.08548 150.930696 
L 131.195262 152.86988 
L 131.359326 153.285419 
L 131.523635 153.285419 
L 131.633417 154.901406 
L 131.79736 155.247688 
L 131.96179 155.247688 
L 132.071572 156.863675 
L 132.235515 157.209958 
L 132.400067 157.209958 
L 132.509727 159.472339 
L 132.67367 159.957135 
L 132.838587 160.049477 
L 133.203473 160.742042 
L 133.276255 160.742042 
L 133.386037 165.266804 
L 133.550102 166.236396 
L 133.714532 166.236396 
L 133.824314 169.145172 
L 133.988135 169.768481 
L 134.152687 169.768481 
L 134.262347 172.030862 
L 134.42629 172.515658 
L 134.608977 172.608 
L 134.973984 172.908112 
L 135.029484 172.81577 
L 135.39437 172.123204 
L 135.466909 172.123204 
L 135.576934 177.940755 
L 135.740756 179.187373 
L 135.905064 179.187373 
L 136.015211 183.065741 
L 136.179032 183.89682 
L 136.343219 183.89682 
L 136.343706 184.220017 
M 190.30993 184.266188 
L 190.419712 183.89682 
L 190.675302 183.89682 
L 190.784963 182.280833 
L 190.948784 181.93455 
L 191.113336 181.93455 
L 191.223118 180.318564 
L 191.387061 179.972281 
L 191.990133 180.064623 
L 192.355262 180.757189 
L 192.427923 180.757189 
L 192.537462 182.373175 
L 192.701648 182.719458 
L 192.8662 182.627116 
L 192.975738 181.426669 
L 193.139925 181.149643 
L 193.30472 181.057301 
L 193.669606 180.364735 
L 193.742388 180.364735 
L 193.85217 178.748749 
L 194.016113 178.402466 
L 194.1803 178.402466 
L 194.290325 180.664847 
L 194.454268 181.149643 
L 194.61882 181.080386 
L 194.72848 180.180051 
L 194.89218 179.972281 
L 195.056853 179.972281 
L 195.166636 176.093914 
L 195.3307 175.262835 
L 195.495252 175.355177 
L 195.604791 176.555624 
L 195.768734 176.83265 
L 195.933407 176.763394 
L 196.042946 175.863058 
L 196.206767 175.655289 
L 196.809352 175.655289 
L 196.919256 178.887262 
L 197.083199 179.579827 
L 197.247629 179.579827 
L 197.357289 181.519011 
L 197.521354 181.93455 
L 197.685906 182.003807 
L 197.795566 182.904142 
L 197.959509 183.111912 
L 198.562581 183.01957 
L 198.927467 182.327004 
L 199.000249 182.327004 
L 199.110031 179.418229 
L 199.273974 178.79492 
L 199.438891 178.887262 
L 199.803899 179.579827 
L 199.876438 179.579827 
L 199.986342 181.519011 
L 200.150285 181.93455 
L 200.332971 182.026893 
L 200.6981 182.327004 
L 200.753235 182.419346 
L 200.86253 183.619793 
L 201.026716 183.89682 
L 201.191146 183.89682 
L 201.19139 184.104589 
M 201.756975 184.104589 
L 201.884892 183.89682 
L 202.067822 183.804478 
L 202.432707 183.111912 
L 202.505977 183.042655 
L 202.615516 182.14232 
L 202.779215 181.93455 
L 202.943645 181.93455 
L 203.053549 179.995367 
L 203.217492 179.579827 
L 203.381678 179.579827 
L 203.491582 181.519011 
L 203.655647 181.93455 
L 203.819955 181.93455 
L 203.929737 183.550537 
L 204.093924 183.89682 
L 204.258232 183.89682 
L 204.276123 184.243103 
M 204.806169 184.243103 
L 204.970112 183.89682 
L 205.152555 183.989162 
L 205.517806 184.289274 
L 205.572697 184.289274 
M 207.033214 184.289274 
L 207.325439 184.196931 
L 207.4351 182.996484 
L 207.598921 182.719458 
L 207.763473 182.719458 
L 207.873377 180.457077 
L 208.037076 179.972281 
L 208.20175 179.903025 
L 208.31141 179.002689 
L 208.475475 178.79492 
L 208.639783 178.79492 
L 208.749565 180.734103 
L 208.91363 181.149643 
L 209.096073 181.241985 
L 209.46108 181.542097 
L 209.516093 181.542097 
L 209.570619 184.127675 
M 210.027396 184.266188 
L 210.24696 182.327004 
L 210.393012 182.234662 
L 210.757776 181.542097 
L 212.145024 181.542097 
L 212.218049 184.035333 
M 240.679874 184.266188 
L 240.789656 183.111912 
L 241.06399 183.204254 
L 241.429119 183.89682 
L 241.50178 183.89682 
L 241.611562 181.634439 
L 241.775627 181.149643 
L 241.940057 181.149643 
L 242.049596 179.210459 
L 242.21366 178.79492 
L 242.378577 178.887262 
L 242.743341 179.579827 
L 242.816732 179.487485 
L 243.181618 178.79492 
L 243.254522 178.79492 
L 243.364183 181.057301 
L 243.528126 181.542097 
L 243.71069 181.634439 
L 244.075819 181.93455 
L 244.130711 181.93455 
L 244.240614 183.873734 
L 244.404314 184.289274 
L 244.568866 184.289274 
L 244.678526 182.35009 
L 244.842591 181.93455 
L 245.007021 181.93455 
L 245.116803 179.025775 
L 245.280868 178.402466 
L 245.445298 178.494808 
L 245.554836 179.695255 
L 245.719023 179.972281 
L 245.883818 179.879939 
L 246.248704 179.187373 
L 246.321851 179.279716 
L 246.431146 180.480163 
L 246.595333 180.757189 
L 246.760128 180.664847 
L 246.869423 179.4644 
L 247.033366 179.187373 
L 247.198405 179.095031 
L 247.563169 178.402466 
L 247.635951 178.402466 
L 247.745733 180.341649 
L 247.909798 180.757189 
L 248.512383 180.757189 
L 248.622165 182.373175 
L 248.786108 182.719458 
L 248.950782 182.8118 
L 249.06032 184.012247 
L 249.224142 184.289274 
L 249.388693 184.289274 
M 283.692829 184.127675 
L 283.820868 183.89682 
L 284.003433 183.827563 
L 284.113093 182.927228 
L 284.277036 182.719458 
L 284.879499 182.719458 
L 284.989403 177.225104 
L 285.153225 176.047743 
L 285.31802 175.978486 
L 285.427558 175.078151 
L 285.591623 174.870381 
L 285.756175 174.778039 
L 285.865713 173.577592 
L 286.029778 173.300566 
L 286.194208 173.300566 
L 286.303868 170.714987 
L 286.467811 170.160935 
L 286.632363 170.068593 
L 286.742145 168.868146 
L 286.905967 168.591119 
L 287.07064 168.521863 
L 287.180179 167.621528 
L 287.344122 167.413758 
L 287.508795 167.321416 
L 287.618212 166.120969 
L 287.782398 165.843942 
L 287.946707 165.843942 
L 288.056367 162.61197 
L 288.220554 161.919404 
L 288.385105 161.850147 
L 288.494522 160.949812 
L 288.658587 160.742042 
L 288.841152 160.6497 
L 289.206281 160.349588 
L 289.261294 160.349588 
L 289.371076 162.61197 
L 289.534775 163.096765 
L 289.699692 163.189108 
L 290.064821 163.881673 
L 290.13736 163.881673 
L 290.247143 166.467251 
L 290.411207 167.021304 
L 290.575637 167.021304 
L 290.685419 169.283685 
L 290.849484 169.768481 
L 291.013792 169.768481 
L 291.123574 172.677257 
L 291.287639 173.300566 
L 291.452313 173.392908 
L 291.56173 174.593355 
L 291.725673 174.870381 
L 291.890224 174.870381 
L 291.999885 177.779157 
L 292.163949 178.402466 
L 292.328623 178.494808 
L 292.69363 179.187373 
L 292.766413 179.187373 
L 292.876195 181.772952 
L 293.040138 182.327004 
L 293.204933 182.419346 
L 293.314472 183.619793 
L 293.478415 183.89682 
L 293.642723 183.89682 
L 293.64321 184.266188 
L 293.64321 184.266188 
" clip-path="url(#p2f29d70c92)" style="fill: none; stroke: #ff0000; stroke-width: 1.5; stroke-linecap: square"/>
   </g>
   <g id="LineCollection_1">
    <path d="M 115.000928 247.258494 
L 115.000928 70.693506 
" clip-path="url(#p2f29d70c92)" style="fill: none; stroke-dasharray: 5.55,2.4; stroke-dashoffset: 0; stroke: #000000; stroke-width: 1.5"/>
   </g>
   <g id="LineCollection_2">
    <path d="M 285.443259 256.086744 
L 285.443259 61.865256 
" clip-path="url(#p2f29d70c92)" style="fill: none; stroke-dasharray: 5.55,2.4; stroke-dashoffset: 0; stroke: #000000; stroke-width: 1.5"/>
   </g>
   <g id="LineCollection_3">
    <path d="M 398.487273 265.797818 
L 398.487273 52.154182 
" clip-path="url(#p2f29d70c92)" style="fill: none; stroke-dasharray: 5.55,2.4; stroke-dashoffset: 0; stroke: #000000; stroke-width: 1.5"/>
   </g>
   <g id="patch_3">
    <path d="M 57.6 276.48 
L 57.6 41.472 
" style="fill: none; stroke: #000000; stroke-width: 0.8; stroke-linejoin: miter; stroke-linecap: square"/>
   </g>
   <g id="patch_4">
    <path d="M 414.72 276.48 
L 414.72 41.472 
" style="fill: none; stroke: #000000; stroke-width: 0.8; stroke-linejoin: miter; stroke-linecap: square"/>
   </g>
   <g id="patch_5">
    <path d="M 57.6 276.48 
L 414.72 276.48 
" style="fill: none; stroke: #000000; stroke-width: 0.8; stroke-linejoin: miter; stroke-linecap: square"/>
   </g>
   <g id="patch_6">
    <path d="M 57.6 41.472 
L 414.72 41.472 
" style="fill: none; stroke: #000000; stroke-width: 0.8; stroke-linejoin: miter; stroke-linecap: square"/>
   </g>
   <g id="text_17">
    <!-- dinky fan on -->
    <g transform="translate(112.92124 255.836575) rotate(-90) scale(0.1 -0.1)">
     <defs>
      <path id="DejaVuSans-64" d="M 2906 2969 
L 2906 4863 
L 3481 4863 
L 3481 0 
L 2906 0 
L 2906 525 
Q 2725 213 2448 61 
Q 2172 -91 1784 -91 
Q 1150 -91 751 415 
Q 353 922 353 1747 
Q 353 2572 751 3078 
Q 1150 3584 1784 3584 
Q 2172 3584 2448 3432 
Q 2725 3281 2906 2969 
z
M 947 1747 
Q 947 1113 1208 752 
Q 1469 391 1925 391 
Q 2381 391 2643 752 
Q 2906 1113 2906 1747 
Q 2906 2381 2643 2742 
Q 2381 3103 1925 3103 
Q 1469 3103 1208 2742 
Q 947 2381 947 1747 
z
" transform="scale(0.015625)"/>
      <path id="DejaVuSans-69" d="M 603 3500 
L 1178 3500 
L 1178 0 
L 603 0 
L 603 3500 
z
M 603 4863 
L 1178 4863 
L 1178 4134 
L 603 4134 
L 603 4863 
z
" transform="scale(0.015625)"/>
      <path id="DejaVuSans-6b" d="M 581 4863 
L 1159 4863 
L 1159 1991 
L 2875 3500 
L 3609 3500 
L 1753 1863 
L 3688 0 
L 2938 0 
L 1159 1709 
L 1159 0 
L 581 0 
L 581 4863 
z
" transform="scale(0.015625)"/>
      <path id="DejaVuSans-79" d="M 2059 -325 
Q 1816 -950 1584 -1140 
Q 1353 -1331 966 -1331 
L 506 -1331 
L 506 -850 
L 844 -850 
Q 1081 -850 1212 -737 
Q 1344 -625 1503 -206 
L 1606 56 
L 191 3500 
L 800 3500 
L 1894 763 
L 2988 3500 
L 3597 3500 
L 2059 -325 
z
" transform="scale(0.015625)"/>
      <path id="DejaVuSans-66" d="M 2375 4863 
L 2375 4384 
L 1825 4384 
Q 1516 4384 1395 4259 
Q 1275 4134 1275 3809 
L 1275 3500 
L 2222 3500 
L 2222 3053 
L 1275 3053 
L 1275 0 
L 697 0 
L 697 3053 
L 147 3053 
L 147 3500 
L 697 3500 
L 697 3744 
Q 697 4328 969 4595 
Q 1241 4863 1831 4863 
L 2375 4863 
z
" transform="scale(0.015625)"/>
      <path id="DejaVuSans-61" d="M 2194 1759 
Q 1497 1759 1228 1600 
Q 959 1441 959 1056 
Q 959 750 1161 570 
Q 1363 391 1709 391 
Q 2188 391 2477 730 
Q 2766 1069 2766 1631 
L 2766 1759 
L 2194 1759 
z
M 3341 1997 
L 3341 0 
L 2766 0 
L 2766 531 
Q 2569 213 2275 61 
Q 1981 -91 1556 -91 
Q 1019 -91 701 211 
Q 384 513 384 1019 
Q 384 1609 779 1909 
Q 1175 2209 1959 2209 
L 2766 2209 
L 2766 2266 
Q 2766 2663 2505 2880 
Q 2244 3097 1772 3097 
Q 1472 3097 1187 3025 
Q 903 2953 641 2809 
L 641 3341 
Q 956 3463 1253 3523 
Q 1550 3584 1831 3584 
Q 2591 3584 2966 3190 
Q 3341 2797 3341 1997 
z
" transform="scale(0.015625)"/>
      <path id="DejaVuSans-6f" d="M 1959 3097 
Q 1497 3097 1228 2736 
Q 959 2375 959 1747 
Q 959 1119 1226 758 
Q 1494 397 1959 397 
Q 2419 397 2687 759 
Q 2956 1122 2956 1747 
Q 2956 2369 2687 2733 
Q 2419 3097 1959 3097 
z
M 1959 3584 
Q 2709 3584 3137 3096 
Q 3566 2609 3566 1747 
Q 3566 888 3137 398 
Q 2709 -91 1959 -91 
Q 1206 -91 779 398 
Q 353 888 353 1747 
Q 353 2609 779 3096 
Q 1206 3584 1959 3584 
z
" transform="scale(0.015625)"/>
     </defs>
     <use xlink:href="#DejaVuSans-64"/>
     <use xlink:href="#DejaVuSans-69" x="63.476562"/>
     <use xlink:href="#DejaVuSans-6e" x="91.259766"/>
     <use xlink:href="#DejaVuSans-6b" x="154.638672"/>
     <use xlink:href="#DejaVuSans-79" x="208.923828"/>
     <use xlink:href="#DejaVuSans-20" x="268.103516"/>
     <use xlink:href="#DejaVuSans-66" x="299.890625"/>
     <use xlink:href="#DejaVuSans-61" x="335.095703"/>
     <use xlink:href="#DejaVuSans-6e" x="396.375"/>
     <use xlink:href="#DejaVuSans-20" x="459.753906"/>
     <use xlink:href="#DejaVuSans-6f" x="491.541016"/>
     <use xlink:href="#DejaVuSans-6e" x="552.722656"/>
    </g>
   </g>
   <g id="text_18">
    <!-- big fan on -->
    <g transform="translate(283.363571 185.748637) rotate(-90) scale(0.1 -0.1)">
     <defs>
      <path id="DejaVuSans-62" d="M 3116 1747 
Q 3116 2381 2855 2742 
Q 2594 3103 2138 3103 
Q 1681 3103 1420 2742 
Q 1159 2381 1159 1747 
Q 1159 1113 1420 752 
Q 1681 391 2138 391 
Q 2594 391 2855 752 
Q 3116 1113 3116 1747 
z
M 1159 2969 
Q 1341 3281 1617 3432 
Q 1894 3584 2278 3584 
Q 2916 3584 3314 3078 
Q 3713 2572 3713 1747 
Q 3713 922 3314 415 
Q 2916 -91 2278 -91 
Q 1894 -91 1617 61 
Q 1341 213 1159 525 
L 1159 0 
L 581 0 
L 581 4863 
L 1159 4863 
L 1159 2969 
z
" transform="scale(0.015625)"/>
      <path id="DejaVuSans-67" d="M 2906 1791 
Q 2906 2416 2648 2759 
Q 2391 3103 1925 3103 
Q 1463 3103 1205 2759 
Q 947 2416 947 1791 
Q 947 1169 1205 825 
Q 1463 481 1925 481 
Q 2391 481 2648 825 
Q 2906 1169 2906 1791 
z
M 3481 434 
Q 3481 -459 3084 -895 
Q 2688 -1331 1869 -1331 
Q 1566 -1331 1297 -1286 
Q 1028 -1241 775 -1147 
L 775 -588 
Q 1028 -725 1275 -790 
Q 1522 -856 1778 -856 
Q 2344 -856 2625 -561 
Q 2906 -266 2906 331 
L 2906 616 
Q 2728 306 2450 153 
Q 2172 0 1784 0 
Q 1141 0 747 490 
Q 353 981 353 1791 
Q 353 2603 747 3093 
Q 1141 3584 1784 3584 
Q 2172 3584 2450 3431 
Q 2728 3278 2906 2969 
L 2906 3500 
L 3481 3500 
L 3481 434 
z
" transform="scale(0.015625)"/>
     </defs>
     <use xlink:href="#DejaVuSans-62"/>
     <use xlink:href="#DejaVuSans-69" x="63.476562"/>
     <use xlink:href="#DejaVuSans-67" x="91.259766"/>
     <use xlink:href="#DejaVuSans-20" x="154.736328"/>
     <use xlink:href="#DejaVuSans-66" x="186.523438"/>
     <use xlink:href="#DejaVuSans-61" x="221.728516"/>
     <use xlink:href="#DejaVuSans-6e" x="283.007812"/>
     <use xlink:href="#DejaVuSans-20" x="346.386719"/>
     <use xlink:href="#DejaVuSans-6f" x="378.173828"/>
     <use xlink:href="#DejaVuSans-6e" x="439.355469"/>
    </g>
   </g>
   <g id="text_19">
    <!-- moved to basement desk -->
    <g transform="translate(396.407585 262.820512) rotate(-90) scale(0.1 -0.1)">
     <defs>
      <path id="DejaVuSans-76" d="M 191 3500 
L 800 3500 
L 1894 563 
L 2988 3500 
L 3597 3500 
L 2284 0 
L 1503 0 
L 191 3500 
z
" transform="scale(0.015625)"/>
      <path id="DejaVuSans-74" d="M 1172 4494 
L 1172 3500 
L 2356 3500 
L 2356 3053 
L 1172 3053 
L 1172 1153 
Q 1172 725 1289 603 
Q 1406 481 1766 481 
L 2356 481 
L 2356 0 
L 1766 0 
Q 1100 0 847 248 
Q 594 497 594 1153 
L 594 3053 
L 172 3053 
L 172 3500 
L 594 3500 
L 594 4494 
L 1172 4494 
z
" transform="scale(0.015625)"/>
      <path id="DejaVuSans-73" d="M 2834 3397 
L 2834 2853 
Q 2591 2978 2328 3040 
Q 2066 3103 1784 3103 
Q 1356 3103 1142 2972 
Q 928 2841 928 2578 
Q 928 2378 1081 2264 
Q 1234 2150 1697 2047 
L 1894 2003 
Q 2506 1872 2764 1633 
Q 3022 1394 3022 966 
Q 3022 478 2636 193 
Q 2250 -91 1575 -91 
Q 1294 -91 989 -36 
Q 684 19 347 128 
L 347 722 
Q 666 556 975 473 
Q 1284 391 1588 391 
Q 1994 391 2212 530 
Q 2431 669 2431 922 
Q 2431 1156 2273 1281 
Q 2116 1406 1581 1522 
L 1381 1569 
Q 847 1681 609 1914 
Q 372 2147 372 2553 
Q 372 3047 722 3315 
Q 1072 3584 1716 3584 
Q 2034 3584 2315 3537 
Q 2597 3491 2834 3397 
z
" transform="scale(0.015625)"/>
     </defs>
     <use xlink:href="#DejaVuSans-6d"/>
     <use xlink:href="#DejaVuSans-6f" x="97.412109"/>
     <use xlink:href="#DejaVuSans-76" x="158.59375"/>
     <use xlink:href="#DejaVuSans-65" x="217.773438"/>
     <use xlink:href="#DejaVuSans-64" x="279.296875"/>
     <use xlink:href="#DejaVuSans-20" x="342.773438"/>
     <use xlink:href="#DejaVuSans-74" x="374.560547"/>
     <use xlink:href="#DejaVuSans-6f" x="413.769531"/>
     <use xlink:href="#DejaVuSans-20" x="474.951172"/>
     <use xlink:href="#DejaVuSans-62" x="506.738281"/>
     <use xlink:href="#DejaVuSans-61" x="570.214844"/>
     <use xlink:href="#DejaVuSans-73" x="631.494141"/>
     <use xlink:href="#DejaVuSans-65" x="683.59375"/>
     <use xlink:href="#DejaVuSans-6d" x="745.117188"/>
     <use xlink:href="#DejaVuSans-65" x="842.529297"/>
     <use xlink:href="#DejaVuSans-6e" x="904.052734"/>
     <use xlink:href="#DejaVuSans-74" x="967.431641"/>
     <use xlink:href="#DejaVuSans-20" x="1006.640625"/>
     <use xlink:href="#DejaVuSans-64" x="1038.427734"/>
     <use xlink:href="#DejaVuSans-65" x="1101.904297"/>
     <use xlink:href="#DejaVuSans-73" x="1163.427734"/>
     <use xlink:href="#DejaVuSans-6b" x="1215.527344"/>
    </g>
   </g>
   <g id="text_20">
    <!-- Radon in Office -->
    <g transform="translate(190.277812 35.472) scale(0.12 -0.12)">
     <defs>
      <path id="DejaVuSans-63" d="M 3122 3366 
L 3122 2828 
Q 2878 2963 2633 3030 
Q 2388 3097 2138 3097 
Q 1578 3097 1268 2742 
Q 959 2388 959 1747 
Q 959 1106 1268 751 
Q 1578 397 2138 397 
Q 2388 397 2633 464 
Q 2878 531 3122 666 
L 3122 134 
Q 2881 22 2623 -34 
Q 2366 -91 2075 -91 
Q 1284 -91 818 406 
Q 353 903 353 1747 
Q 353 2603 823 3093 
Q 1294 3584 2113 3584 
Q 2378 3584 2631 3529 
Q 2884 3475 3122 3366 
z
" transform="scale(0.015625)"/>
     </defs>
     <use xlink:href="#DejaVuSans-52"/>
     <use xlink:href="#DejaVuSans-61" x="67.232422"/>
     <use xlink:href="#DejaVuSans-64" x="128.511719"/>
     <use xlink:href="#DejaVuSans-6f" x="191.988281"/>
     <use xlink:href="#DejaVuSans-6e" x="253.169922"/>
     <use xlink:href="#DejaVuSans-20" x="316.548828"/>
     <use xlink:href="#DejaVuSans-69" x="348.335938"/>
     <use xlink:href="#DejaVuSans-6e" x="376.119141"/>
     <use xlink:href="#DejaVuSans-20" x="439.498047"/>
     <use xlink:href="#DejaVuSans-4f" x="471.285156"/>
     <use xlink:href="#DejaVuSans-66" x="549.996094"/>
     <use xlink:href="#DejaVuSans-66" x="585.201172"/>
     <use xlink:href="#DejaVuSans-69" x="620.40625"/>
     <use xlink:href="#DejaVuSans-63" x="648.189453"/>
     <use xlink:href="#DejaVuSans-65" x="703.169922"/>
    </g>
   </g>
   <g id="legend_1">
    <g id="patch_7">
     <path d="M 350.785625 93.506375 
L 407.72 93.506375 
Q 409.72 93.506375 409.72 91.506375 
L 409.72 48.472 
Q 409.72 46.472 407.72 46.472 
L 350.785625 46.472 
Q 348.785625 46.472 348.785625 48.472 
L 348.785625 91.506375 
Q 348.785625 93.506375 350.785625 93.506375 
z
" style="fill: #ffffff; opacity: 0.8; stroke: #cccccc; stroke-linejoin: miter"/>
    </g>
    <g id="line2d_32">
     <path d="M 352.785625 54.570437 
L 362.785625 54.570437 
L 372.785625 54.570437 
" style="fill: none; stroke: #008000; stroke-width: 1.5; stroke-linecap: square"/>
    </g>
    <g id="text_21">
     <!-- good -->
     <g transform="translate(380.785625 58.070437) scale(0.1 -0.1)">
      <use xlink:href="#DejaVuSans-67"/>
      <use xlink:href="#DejaVuSans-6f" x="63.476562"/>
      <use xlink:href="#DejaVuSans-6f" x="124.658203"/>
      <use xlink:href="#DejaVuSans-64" x="185.839844"/>
     </g>
    </g>
    <g id="line2d_33">
     <path d="M 352.785625 69.248562 
L 362.785625 69.248562 
L 372.785625 69.248562 
" style="fill: none; stroke: #ffff00; stroke-width: 1.5; stroke-linecap: square"/>
    </g>
    <g id="text_22">
     <!-- bad -->
     <g transform="translate(380.785625 72.748562) scale(0.1 -0.1)">
      <use xlink:href="#DejaVuSans-62"/>
      <use xlink:href="#DejaVuSans-61" x="63.476562"/>
      <use xlink:href="#DejaVuSans-64" x="124.755859"/>
     </g>
    </g>
    <g id="line2d_34">
     <path d="M 352.785625 83.926687 
L 362.785625 83.926687 
L 372.785625 83.926687 
" style="fill: none; stroke: #ff0000; stroke-width: 1.5; stroke-linecap: square"/>
    </g>
    <g id="text_23">
     <!-- ugly -->
     <g transform="translate(380.785625 87.426687) scale(0.1 -0.1)">
      <defs>
       <path id="DejaVuSans-75" d="M 544 1381 
L 544 3500 
L 1119 3500 
L 1119 1403 
Q 1119 906 1312 657 
Q 1506 409 1894 409 
Q 2359 409 2629 706 
Q 2900 1003 2900 1516 
L 2900 3500 
L 3475 3500 
L 3475 0 
L 2900 0 
L 2900 538 
Q 2691 219 2414 64 
Q 2138 -91 1772 -91 
Q 1169 -91 856 284 
Q 544 659 544 1381 
z
M 1991 3584 
L 1991 3584 
z
" transform="scale(0.015625)"/>
       <path id="DejaVuSans-6c" d="M 603 4863 
L 1178 4863 
L 1178 0 
L 603 0 
L 603 4863 
z
" transform="scale(0.015625)"/>
      </defs>
      <use xlink:href="#DejaVuSans-75"/>
      <use xlink:href="#DejaVuSans-67" x="63.378906"/>
      <use xlink:href="#DejaVuSans-6c" x="126.855469"/>
      <use xlink:href="#DejaVuSans-79" x="154.638672"/>
     </g>
    </g>
   </g>
  </g>
 </g>
 <defs>
  <clipPath id="p2f29d70c92">
   <rect x="57.6" y="41.472" width="357.12" height="235.008"/>
  </clipPath>
 </defs>
</svg>
