<?xml version="1.0" encoding="utf-8" standalone="no"?>
<!DOCTYPE svg PUBLIC "-//W3C//DTD SVG 1.1//EN"
  "http://www.w3.org/Graphics/SVG/1.1/DTD/svg11.dtd">
<svg xmlns:xlink="http://www.w3.org/1999/xlink" width="460.8pt" height="345.6pt" viewBox="0 0 460.8 345.6" xmlns="http://www.w3.org/2000/svg" version="1.1">
 <metadata>
  <rdf:RDF xmlns:dc="http://purl.org/dc/elements/1.1/" xmlns:cc="http://creativecommons.org/ns#" xmlns:rdf="http://www.w3.org/1999/02/22-rdf-syntax-ns#">
   <cc:Work>
    <dc:type rdf:resource="http://purl.org/dc/dcmitype/StillImage"/>
    <dc:date>2024-11-10T14:27:28.724079</dc:date>
    <dc:format>image/svg+xml</dc:format>
    <dc:creator>
     <cc:Agent>
      <dc:title>Matplotlib v3.9.2, https://matplotlib.org/</dc:title>
     </cc:Agent>
    </dc:creator>
   </cc:Work>
  </rdf:RDF>
 </metadata>
 <defs>
  <style type="text/css">*{stroke-linejoin: round; stroke-linecap: butt}</style>
 </defs>
 <g id="figure_1">
  <g id="patch_1">
   <path d="M 0 345.6 
L 460.8 345.6 
L 460.8 0 
L 0 0 
z
" style="fill: #ffffff"/>
  </g>
  <g id="axes_1">
   <g id="patch_2">
    <path d="M 57.6 276.48 
L 414.72 276.48 
L 414.72 41.472 
L 57.6 41.472 
z
" style="fill: #c0c0c0"/>
   </g>
   <g id="matplotlib.axis_1">
    <g id="xtick_1">
     <g id="line2d_1">
      <path d="M 97.491763 276.48 
L 97.491763 41.472 
" clip-path="url(#p7a01d10e28)" style="fill: none; stroke: #ffffff; stroke-width: 0.8; stroke-linecap: square"/>
     </g>
     <g id="line2d_2">
      <defs>
       <path id="mf203e88eab" d="M 0 0 
L 0 3.5 
" style="stroke: #000000; stroke-width: 0.8"/>
      </defs>
      <g>
       <use xlink:href="#mf203e88eab" x="97.491763" y="276.48" style="stroke: #000000; stroke-width: 0.8"/>
      </g>
     </g>
     <g id="text_1">
      <!-- 2024-10-13 -->
      <g transform="translate(46.122312 319.118252) rotate(-30) scale(0.1 -0.1)">
       <defs>
        <path id="DejaVuSans-32" d="M 1228 531 
L 3431 531 
L 3431 0 
L 469 0 
L 469 531 
Q 828 903 1448 1529 
Q 2069 2156 2228 2338 
Q 2531 2678 2651 2914 
Q 2772 3150 2772 3378 
Q 2772 3750 2511 3984 
Q 2250 4219 1831 4219 
Q 1534 4219 1204 4116 
Q 875 4013 500 3803 
L 500 4441 
Q 881 4594 1212 4672 
Q 1544 4750 1819 4750 
Q 2544 4750 2975 4387 
Q 3406 4025 3406 3419 
Q 3406 3131 3298 2873 
Q 3191 2616 2906 2266 
Q 2828 2175 2409 1742 
Q 1991 1309 1228 531 
z
" transform="scale(0.015625)"/>
        <path id="DejaVuSans-30" d="M 2034 4250 
Q 1547 4250 1301 3770 
Q 1056 3291 1056 2328 
Q 1056 1369 1301 889 
Q 1547 409 2034 409 
Q 2525 409 2770 889 
Q 3016 1369 3016 2328 
Q 3016 3291 2770 3770 
Q 2525 4250 2034 4250 
z
M 2034 4750 
Q 2819 4750 3233 4129 
Q 3647 3509 3647 2328 
Q 3647 1150 3233 529 
Q 2819 -91 2034 -91 
Q 1250 -91 836 529 
Q 422 1150 422 2328 
Q 422 3509 836 4129 
Q 1250 4750 2034 4750 
z
" transform="scale(0.015625)"/>
        <path id="DejaVuSans-34" d="M 2419 4116 
L 825 1625 
L 2419 1625 
L 2419 4116 
z
M 2253 4666 
L 3047 4666 
L 3047 1625 
L 3713 1625 
L 3713 1100 
L 3047 1100 
L 3047 0 
L 2419 0 
L 2419 1100 
L 313 1100 
L 313 1709 
L 2253 4666 
z
" transform="scale(0.015625)"/>
        <path id="DejaVuSans-2d" d="M 313 2009 
L 1997 2009 
L 1997 1497 
L 313 1497 
L 313 2009 
z
" transform="scale(0.015625)"/>
        <path id="DejaVuSans-31" d="M 794 531 
L 1825 531 
L 1825 4091 
L 703 3866 
L 703 4441 
L 1819 4666 
L 2450 4666 
L 2450 531 
L 3481 531 
L 3481 0 
L 794 0 
L 794 531 
z
" transform="scale(0.015625)"/>
        <path id="DejaVuSans-33" d="M 2597 2516 
Q 3050 2419 3304 2112 
Q 3559 1806 3559 1356 
Q 3559 666 3084 287 
Q 2609 -91 1734 -91 
Q 1441 -91 1130 -33 
Q 819 25 488 141 
L 488 750 
Q 750 597 1062 519 
Q 1375 441 1716 441 
Q 2309 441 2620 675 
Q 2931 909 2931 1356 
Q 2931 1769 2642 2001 
Q 2353 2234 1838 2234 
L 1294 2234 
L 1294 2753 
L 1863 2753 
Q 2328 2753 2575 2939 
Q 2822 3125 2822 3475 
Q 2822 3834 2567 4026 
Q 2313 4219 1838 4219 
Q 1578 4219 1281 4162 
Q 984 4106 628 3988 
L 628 4550 
Q 988 4650 1302 4700 
Q 1616 4750 1894 4750 
Q 2613 4750 3031 4423 
Q 3450 4097 3450 3541 
Q 3450 3153 3228 2886 
Q 3006 2619 2597 2516 
z
" transform="scale(0.015625)"/>
       </defs>
       <use xlink:href="#DejaVuSans-32"/>
       <use xlink:href="#DejaVuSans-30" x="63.623047"/>
       <use xlink:href="#DejaVuSans-32" x="127.246094"/>
       <use xlink:href="#DejaVuSans-34" x="190.869141"/>
       <use xlink:href="#DejaVuSans-2d" x="254.492188"/>
       <use xlink:href="#DejaVuSans-31" x="290.576172"/>
       <use xlink:href="#DejaVuSans-30" x="354.199219"/>
       <use xlink:href="#DejaVuSans-2d" x="417.822266"/>
       <use xlink:href="#DejaVuSans-31" x="453.90625"/>
       <use xlink:href="#DejaVuSans-33" x="517.529297"/>
      </g>
     </g>
    </g>
    <g id="xtick_2">
     <g id="line2d_3">
      <path d="M 139.552271 276.48 
L 139.552271 41.472 
" clip-path="url(#p7a01d10e28)" style="fill: none; stroke: #ffffff; stroke-width: 0.8; stroke-linecap: square"/>
     </g>
     <g id="line2d_4">
      <g>
       <use xlink:href="#mf203e88eab" x="139.552271" y="276.48" style="stroke: #000000; stroke-width: 0.8"/>
      </g>
     </g>
     <g id="text_2">
      <!-- 2024-10-17 -->
      <g transform="translate(88.18282 319.118252) rotate(-30) scale(0.1 -0.1)">
       <defs>
        <path id="DejaVuSans-37" d="M 525 4666 
L 3525 4666 
L 3525 4397 
L 1831 0 
L 1172 0 
L 2766 4134 
L 525 4134 
L 525 4666 
z
" transform="scale(0.015625)"/>
       </defs>
       <use xlink:href="#DejaVuSans-32"/>
       <use xlink:href="#DejaVuSans-30" x="63.623047"/>
       <use xlink:href="#DejaVuSans-32" x="127.246094"/>
       <use xlink:href="#DejaVuSans-34" x="190.869141"/>
       <use xlink:href="#DejaVuSans-2d" x="254.492188"/>
       <use xlink:href="#DejaVuSans-31" x="290.576172"/>
       <use xlink:href="#DejaVuSans-30" x="354.199219"/>
       <use xlink:href="#DejaVuSans-2d" x="417.822266"/>
       <use xlink:href="#DejaVuSans-31" x="453.90625"/>
       <use xlink:href="#DejaVuSans-37" x="517.529297"/>
      </g>
     </g>
    </g>
    <g id="xtick_3">
     <g id="line2d_5">
      <path d="M 181.612779 276.48 
L 181.612779 41.472 
" clip-path="url(#p7a01d10e28)" style="fill: none; stroke: #ffffff; stroke-width: 0.8; stroke-linecap: square"/>
     </g>
     <g id="line2d_6">
      <g>
       <use xlink:href="#mf203e88eab" x="181.612779" y="276.48" style="stroke: #000000; stroke-width: 0.8"/>
      </g>
     </g>
     <g id="text_3">
      <!-- 2024-10-21 -->
      <g transform="translate(130.243327 319.118252) rotate(-30) scale(0.1 -0.1)">
       <use xlink:href="#DejaVuSans-32"/>
       <use xlink:href="#DejaVuSans-30" x="63.623047"/>
       <use xlink:href="#DejaVuSans-32" x="127.246094"/>
       <use xlink:href="#DejaVuSans-34" x="190.869141"/>
       <use xlink:href="#DejaVuSans-2d" x="254.492188"/>
       <use xlink:href="#DejaVuSans-31" x="290.576172"/>
       <use xlink:href="#DejaVuSans-30" x="354.199219"/>
       <use xlink:href="#DejaVuSans-2d" x="417.822266"/>
       <use xlink:href="#DejaVuSans-32" x="453.90625"/>
       <use xlink:href="#DejaVuSans-31" x="517.529297"/>
      </g>
     </g>
    </g>
    <g id="xtick_4">
     <g id="line2d_7">
      <path d="M 223.673287 276.48 
L 223.673287 41.472 
" clip-path="url(#p7a01d10e28)" style="fill: none; stroke: #ffffff; stroke-width: 0.8; stroke-linecap: square"/>
     </g>
     <g id="line2d_8">
      <g>
       <use xlink:href="#mf203e88eab" x="223.673287" y="276.48" style="stroke: #000000; stroke-width: 0.8"/>
      </g>
     </g>
     <g id="text_4">
      <!-- 2024-10-25 -->
      <g transform="translate(172.303835 319.118252) rotate(-30) scale(0.1 -0.1)">
       <defs>
        <path id="DejaVuSans-35" d="M 691 4666 
L 3169 4666 
L 3169 4134 
L 1269 4134 
L 1269 2991 
Q 1406 3038 1543 3061 
Q 1681 3084 1819 3084 
Q 2600 3084 3056 2656 
Q 3513 2228 3513 1497 
Q 3513 744 3044 326 
Q 2575 -91 1722 -91 
Q 1428 -91 1123 -41 
Q 819 9 494 109 
L 494 744 
Q 775 591 1075 516 
Q 1375 441 1709 441 
Q 2250 441 2565 725 
Q 2881 1009 2881 1497 
Q 2881 1984 2565 2268 
Q 2250 2553 1709 2553 
Q 1456 2553 1204 2497 
Q 953 2441 691 2322 
L 691 4666 
z
" transform="scale(0.015625)"/>
       </defs>
       <use xlink:href="#DejaVuSans-32"/>
       <use xlink:href="#DejaVuSans-30" x="63.623047"/>
       <use xlink:href="#DejaVuSans-32" x="127.246094"/>
       <use xlink:href="#DejaVuSans-34" x="190.869141"/>
       <use xlink:href="#DejaVuSans-2d" x="254.492188"/>
       <use xlink:href="#DejaVuSans-31" x="290.576172"/>
       <use xlink:href="#DejaVuSans-30" x="354.199219"/>
       <use xlink:href="#DejaVuSans-2d" x="417.822266"/>
       <use xlink:href="#DejaVuSans-32" x="453.90625"/>
       <use xlink:href="#DejaVuSans-35" x="517.529297"/>
      </g>
     </g>
    </g>
    <g id="xtick_5">
     <g id="line2d_9">
      <path d="M 265.733795 276.48 
L 265.733795 41.472 
" clip-path="url(#p7a01d10e28)" style="fill: none; stroke: #ffffff; stroke-width: 0.8; stroke-linecap: square"/>
     </g>
     <g id="line2d_10">
      <g>
       <use xlink:href="#mf203e88eab" x="265.733795" y="276.48" style="stroke: #000000; stroke-width: 0.8"/>
      </g>
     </g>
     <g id="text_5">
      <!-- 2024-10-29 -->
      <g transform="translate(214.364343 319.118252) rotate(-30) scale(0.1 -0.1)">
       <defs>
        <path id="DejaVuSans-39" d="M 703 97 
L 703 672 
Q 941 559 1184 500 
Q 1428 441 1663 441 
Q 2288 441 2617 861 
Q 2947 1281 2994 2138 
Q 2813 1869 2534 1725 
Q 2256 1581 1919 1581 
Q 1219 1581 811 2004 
Q 403 2428 403 3163 
Q 403 3881 828 4315 
Q 1253 4750 1959 4750 
Q 2769 4750 3195 4129 
Q 3622 3509 3622 2328 
Q 3622 1225 3098 567 
Q 2575 -91 1691 -91 
Q 1453 -91 1209 -44 
Q 966 3 703 97 
z
M 1959 2075 
Q 2384 2075 2632 2365 
Q 2881 2656 2881 3163 
Q 2881 3666 2632 3958 
Q 2384 4250 1959 4250 
Q 1534 4250 1286 3958 
Q 1038 3666 1038 3163 
Q 1038 2656 1286 2365 
Q 1534 2075 1959 2075 
z
" transform="scale(0.015625)"/>
       </defs>
       <use xlink:href="#DejaVuSans-32"/>
       <use xlink:href="#DejaVuSans-30" x="63.623047"/>
       <use xlink:href="#DejaVuSans-32" x="127.246094"/>
       <use xlink:href="#DejaVuSans-34" x="190.869141"/>
       <use xlink:href="#DejaVuSans-2d" x="254.492188"/>
       <use xlink:href="#DejaVuSans-31" x="290.576172"/>
       <use xlink:href="#DejaVuSans-30" x="354.199219"/>
       <use xlink:href="#DejaVuSans-2d" x="417.822266"/>
       <use xlink:href="#DejaVuSans-32" x="453.90625"/>
       <use xlink:href="#DejaVuSans-39" x="517.529297"/>
      </g>
     </g>
    </g>
    <g id="xtick_6">
     <g id="line2d_11">
      <path d="M 297.279176 276.48 
L 297.279176 41.472 
" clip-path="url(#p7a01d10e28)" style="fill: none; stroke: #ffffff; stroke-width: 0.8; stroke-linecap: square"/>
     </g>
     <g id="line2d_12">
      <g>
       <use xlink:href="#mf203e88eab" x="297.279176" y="276.48" style="stroke: #000000; stroke-width: 0.8"/>
      </g>
     </g>
     <g id="text_6">
      <!-- 2024-11-01 -->
      <g transform="translate(245.909724 319.118252) rotate(-30) scale(0.1 -0.1)">
       <use xlink:href="#DejaVuSans-32"/>
       <use xlink:href="#DejaVuSans-30" x="63.623047"/>
       <use xlink:href="#DejaVuSans-32" x="127.246094"/>
       <use xlink:href="#DejaVuSans-34" x="190.869141"/>
       <use xlink:href="#DejaVuSans-2d" x="254.492188"/>
       <use xlink:href="#DejaVuSans-31" x="290.576172"/>
       <use xlink:href="#DejaVuSans-31" x="354.199219"/>
       <use xlink:href="#DejaVuSans-2d" x="417.822266"/>
       <use xlink:href="#DejaVuSans-30" x="453.90625"/>
       <use xlink:href="#DejaVuSans-31" x="517.529297"/>
      </g>
     </g>
    </g>
    <g id="xtick_7">
     <g id="line2d_13">
      <path d="M 339.777814 276.48 
L 339.777814 41.472 
" clip-path="url(#p7a01d10e28)" style="fill: none; stroke: #ffffff; stroke-width: 0.8; stroke-linecap: square"/>
     </g>
     <g id="line2d_14">
      <g>
       <use xlink:href="#mf203e88eab" x="339.777814" y="276.48" style="stroke: #000000; stroke-width: 0.8"/>
      </g>
     </g>
     <g id="text_7">
      <!-- 2024-11-05 -->
      <g transform="translate(288.408362 319.118252) rotate(-30) scale(0.1 -0.1)">
       <use xlink:href="#DejaVuSans-32"/>
       <use xlink:href="#DejaVuSans-30" x="63.623047"/>
       <use xlink:href="#DejaVuSans-32" x="127.246094"/>
       <use xlink:href="#DejaVuSans-34" x="190.869141"/>
       <use xlink:href="#DejaVuSans-2d" x="254.492188"/>
       <use xlink:href="#DejaVuSans-31" x="290.576172"/>
       <use xlink:href="#DejaVuSans-31" x="354.199219"/>
       <use xlink:href="#DejaVuSans-2d" x="417.822266"/>
       <use xlink:href="#DejaVuSans-30" x="453.90625"/>
       <use xlink:href="#DejaVuSans-35" x="517.529297"/>
      </g>
     </g>
    </g>
    <g id="xtick_8">
     <g id="line2d_15">
      <path d="M 381.838322 276.48 
L 381.838322 41.472 
" clip-path="url(#p7a01d10e28)" style="fill: none; stroke: #ffffff; stroke-width: 0.8; stroke-linecap: square"/>
     </g>
     <g id="line2d_16">
      <g>
       <use xlink:href="#mf203e88eab" x="381.838322" y="276.48" style="stroke: #000000; stroke-width: 0.8"/>
      </g>
     </g>
     <g id="text_8">
      <!-- 2024-11-09 -->
      <g transform="translate(330.46887 319.118252) rotate(-30) scale(0.1 -0.1)">
       <use xlink:href="#DejaVuSans-32"/>
       <use xlink:href="#DejaVuSans-30" x="63.623047"/>
       <use xlink:href="#DejaVuSans-32" x="127.246094"/>
       <use xlink:href="#DejaVuSans-34" x="190.869141"/>
       <use xlink:href="#DejaVuSans-2d" x="254.492188"/>
       <use xlink:href="#DejaVuSans-31" x="290.576172"/>
       <use xlink:href="#DejaVuSans-31" x="354.199219"/>
       <use xlink:href="#DejaVuSans-2d" x="417.822266"/>
       <use xlink:href="#DejaVuSans-30" x="453.90625"/>
       <use xlink:href="#DejaVuSans-39" x="517.529297"/>
      </g>
     </g>
    </g>
    <g id="text_9">
     <!-- When -->
     <g transform="translate(221.802188 332.517752) scale(0.1 -0.1)">
      <defs>
       <path id="DejaVuSans-57" d="M 213 4666 
L 850 4666 
L 1831 722 
L 2809 4666 
L 3519 4666 
L 4500 722 
L 5478 4666 
L 6119 4666 
L 4947 0 
L 4153 0 
L 3169 4050 
L 2175 0 
L 1381 0 
L 213 4666 
z
" transform="scale(0.015625)"/>
       <path id="DejaVuSans-68" d="M 3513 2113 
L 3513 0 
L 2938 0 
L 2938 2094 
Q 2938 2591 2744 2837 
Q 2550 3084 2163 3084 
Q 1697 3084 1428 2787 
Q 1159 2491 1159 1978 
L 1159 0 
L 581 0 
L 581 4863 
L 1159 4863 
L 1159 2956 
Q 1366 3272 1645 3428 
Q 1925 3584 2291 3584 
Q 2894 3584 3203 3211 
Q 3513 2838 3513 2113 
z
" transform="scale(0.015625)"/>
       <path id="DejaVuSans-65" d="M 3597 1894 
L 3597 1613 
L 953 1613 
Q 991 1019 1311 708 
Q 1631 397 2203 397 
Q 2534 397 2845 478 
Q 3156 559 3463 722 
L 3463 178 
Q 3153 47 2828 -22 
Q 2503 -91 2169 -91 
Q 1331 -91 842 396 
Q 353 884 353 1716 
Q 353 2575 817 3079 
Q 1281 3584 2069 3584 
Q 2775 3584 3186 3129 
Q 3597 2675 3597 1894 
z
M 3022 2063 
Q 3016 2534 2758 2815 
Q 2500 3097 2075 3097 
Q 1594 3097 1305 2825 
Q 1016 2553 972 2059 
L 3022 2063 
z
" transform="scale(0.015625)"/>
       <path id="DejaVuSans-6e" d="M 3513 2113 
L 3513 0 
L 2938 0 
L 2938 2094 
Q 2938 2591 2744 2837 
Q 2550 3084 2163 3084 
Q 1697 3084 1428 2787 
Q 1159 2491 1159 1978 
L 1159 0 
L 581 0 
L 581 3500 
L 1159 3500 
L 1159 2956 
Q 1366 3272 1645 3428 
Q 1925 3584 2291 3584 
Q 2894 3584 3203 3211 
Q 3513 2838 3513 2113 
z
" transform="scale(0.015625)"/>
      </defs>
      <use xlink:href="#DejaVuSans-57"/>
      <use xlink:href="#DejaVuSans-68" x="98.876953"/>
      <use xlink:href="#DejaVuSans-65" x="162.255859"/>
      <use xlink:href="#DejaVuSans-6e" x="223.779297"/>
     </g>
    </g>
   </g>
   <g id="matplotlib.axis_2">
    <g id="ytick_1">
     <g id="line2d_17">
      <path d="M 57.6 276.48 
L 414.72 276.48 
" clip-path="url(#p7a01d10e28)" style="fill: none; stroke: #ffffff; stroke-width: 0.8; stroke-linecap: square"/>
     </g>
     <g id="line2d_18">
      <defs>
       <path id="m7f1224af23" d="M 0 0 
L -3.5 0 
" style="stroke: #000000; stroke-width: 0.8"/>
      </defs>
      <g>
       <use xlink:href="#m7f1224af23" x="57.6" y="276.48" style="stroke: #000000; stroke-width: 0.8"/>
      </g>
     </g>
     <g id="text_10">
      <!-- 0 -->
      <g transform="translate(44.2375 280.279219) scale(0.1 -0.1)">
       <use xlink:href="#DejaVuSans-30"/>
      </g>
     </g>
    </g>
    <g id="ytick_2">
     <g id="line2d_19">
      <path d="M 57.6 249.741122 
L 414.72 249.741122 
" clip-path="url(#p7a01d10e28)" style="fill: none; stroke: #ffffff; stroke-width: 0.8; stroke-linecap: square"/>
     </g>
     <g id="line2d_20">
      <g>
       <use xlink:href="#m7f1224af23" x="57.6" y="249.741122" style="stroke: #000000; stroke-width: 0.8"/>
      </g>
     </g>
     <g id="text_11">
      <!-- 50 -->
      <g transform="translate(37.875 253.540341) scale(0.1 -0.1)">
       <use xlink:href="#DejaVuSans-35"/>
       <use xlink:href="#DejaVuSans-30" x="63.623047"/>
      </g>
     </g>
    </g>
    <g id="ytick_3">
     <g id="line2d_21">
      <path d="M 57.6 223.002244 
L 414.72 223.002244 
" clip-path="url(#p7a01d10e28)" style="fill: none; stroke: #ffffff; stroke-width: 0.8; stroke-linecap: square"/>
     </g>
     <g id="line2d_22">
      <g>
       <use xlink:href="#m7f1224af23" x="57.6" y="223.002244" style="stroke: #000000; stroke-width: 0.8"/>
      </g>
     </g>
     <g id="text_12">
      <!-- 100 -->
      <g transform="translate(31.5125 226.801462) scale(0.1 -0.1)">
       <use xlink:href="#DejaVuSans-31"/>
       <use xlink:href="#DejaVuSans-30" x="63.623047"/>
       <use xlink:href="#DejaVuSans-30" x="127.246094"/>
      </g>
     </g>
    </g>
    <g id="ytick_4">
     <g id="line2d_23">
      <path d="M 57.6 196.263366 
L 414.72 196.263366 
" clip-path="url(#p7a01d10e28)" style="fill: none; stroke: #ffffff; stroke-width: 0.8; stroke-linecap: square"/>
     </g>
     <g id="line2d_24">
      <g>
       <use xlink:href="#m7f1224af23" x="57.6" y="196.263366" style="stroke: #000000; stroke-width: 0.8"/>
      </g>
     </g>
     <g id="text_13">
      <!-- 150 -->
      <g transform="translate(31.5125 200.062584) scale(0.1 -0.1)">
       <use xlink:href="#DejaVuSans-31"/>
       <use xlink:href="#DejaVuSans-35" x="63.623047"/>
       <use xlink:href="#DejaVuSans-30" x="127.246094"/>
      </g>
     </g>
    </g>
    <g id="ytick_5">
     <g id="line2d_25">
      <path d="M 57.6 169.524487 
L 414.72 169.524487 
" clip-path="url(#p7a01d10e28)" style="fill: none; stroke: #ffffff; stroke-width: 0.8; stroke-linecap: square"/>
     </g>
     <g id="line2d_26">
      <g>
       <use xlink:href="#m7f1224af23" x="57.6" y="169.524487" style="stroke: #000000; stroke-width: 0.8"/>
      </g>
     </g>
     <g id="text_14">
      <!-- 200 -->
      <g transform="translate(31.5125 173.323706) scale(0.1 -0.1)">
       <use xlink:href="#DejaVuSans-32"/>
       <use xlink:href="#DejaVuSans-30" x="63.623047"/>
       <use xlink:href="#DejaVuSans-30" x="127.246094"/>
      </g>
     </g>
    </g>
    <g id="ytick_6">
     <g id="line2d_27">
      <path d="M 57.6 142.785609 
L 414.72 142.785609 
" clip-path="url(#p7a01d10e28)" style="fill: none; stroke: #ffffff; stroke-width: 0.8; stroke-linecap: square"/>
     </g>
     <g id="line2d_28">
      <g>
       <use xlink:href="#m7f1224af23" x="57.6" y="142.785609" style="stroke: #000000; stroke-width: 0.8"/>
      </g>
     </g>
     <g id="text_15">
      <!-- 250 -->
      <g transform="translate(31.5125 146.584828) scale(0.1 -0.1)">
       <use xlink:href="#DejaVuSans-32"/>
       <use xlink:href="#DejaVuSans-35" x="63.623047"/>
       <use xlink:href="#DejaVuSans-30" x="127.246094"/>
      </g>
     </g>
    </g>
    <g id="ytick_7">
     <g id="line2d_29">
      <path d="M 57.6 116.046731 
L 414.72 116.046731 
" clip-path="url(#p7a01d10e28)" style="fill: none; stroke: #ffffff; stroke-width: 0.8; stroke-linecap: square"/>
     </g>
     <g id="line2d_30">
      <g>
       <use xlink:href="#m7f1224af23" x="57.6" y="116.046731" style="stroke: #000000; stroke-width: 0.8"/>
      </g>
     </g>
     <g id="text_16">
      <!-- 300 -->
      <g transform="translate(31.5125 119.84595) scale(0.1 -0.1)">
       <use xlink:href="#DejaVuSans-33"/>
       <use xlink:href="#DejaVuSans-30" x="63.623047"/>
       <use xlink:href="#DejaVuSans-30" x="127.246094"/>
      </g>
     </g>
    </g>
    <g id="ytick_8">
     <g id="line2d_31">
      <path d="M 57.6 89.307853 
L 414.72 89.307853 
" clip-path="url(#p7a01d10e28)" style="fill: none; stroke: #ffffff; stroke-width: 0.8; stroke-linecap: square"/>
     </g>
     <g id="line2d_32">
      <g>
       <use xlink:href="#m7f1224af23" x="57.6" y="89.307853" style="stroke: #000000; stroke-width: 0.8"/>
      </g>
     </g>
     <g id="text_17">
      <!-- 350 -->
      <g transform="translate(31.5125 93.107072) scale(0.1 -0.1)">
       <use xlink:href="#DejaVuSans-33"/>
       <use xlink:href="#DejaVuSans-35" x="63.623047"/>
       <use xlink:href="#DejaVuSans-30" x="127.246094"/>
      </g>
     </g>
    </g>
    <g id="ytick_9">
     <g id="line2d_33">
      <path d="M 57.6 62.568975 
L 414.72 62.568975 
" clip-path="url(#p7a01d10e28)" style="fill: none; stroke: #ffffff; stroke-width: 0.8; stroke-linecap: square"/>
     </g>
     <g id="line2d_34">
      <g>
       <use xlink:href="#m7f1224af23" x="57.6" y="62.568975" style="stroke: #000000; stroke-width: 0.8"/>
      </g>
     </g>
     <g id="text_18">
      <!-- 400 -->
      <g transform="translate(31.5125 66.368194) scale(0.1 -0.1)">
       <use xlink:href="#DejaVuSans-34"/>
       <use xlink:href="#DejaVuSans-30" x="63.623047"/>
       <use xlink:href="#DejaVuSans-30" x="127.246094"/>
      </g>
     </g>
    </g>
    <g id="text_19">
     <!-- RADON_SHORT_TERM_AVG Bq/m3 -->
     <g transform="translate(25.154687 244.060375) rotate(-90) scale(0.1 -0.1)">
      <defs>
       <path id="DejaVuSans-52" d="M 2841 2188 
Q 3044 2119 3236 1894 
Q 3428 1669 3622 1275 
L 4263 0 
L 3584 0 
L 2988 1197 
Q 2756 1666 2539 1819 
Q 2322 1972 1947 1972 
L 1259 1972 
L 1259 0 
L 628 0 
L 628 4666 
L 2053 4666 
Q 2853 4666 3247 4331 
Q 3641 3997 3641 3322 
Q 3641 2881 3436 2590 
Q 3231 2300 2841 2188 
z
M 1259 4147 
L 1259 2491 
L 2053 2491 
Q 2509 2491 2742 2702 
Q 2975 2913 2975 3322 
Q 2975 3731 2742 3939 
Q 2509 4147 2053 4147 
L 1259 4147 
z
" transform="scale(0.015625)"/>
       <path id="DejaVuSans-41" d="M 2188 4044 
L 1331 1722 
L 3047 1722 
L 2188 4044 
z
M 1831 4666 
L 2547 4666 
L 4325 0 
L 3669 0 
L 3244 1197 
L 1141 1197 
L 716 0 
L 50 0 
L 1831 4666 
z
" transform="scale(0.015625)"/>
       <path id="DejaVuSans-44" d="M 1259 4147 
L 1259 519 
L 2022 519 
Q 2988 519 3436 956 
Q 3884 1394 3884 2338 
Q 3884 3275 3436 3711 
Q 2988 4147 2022 4147 
L 1259 4147 
z
M 628 4666 
L 1925 4666 
Q 3281 4666 3915 4102 
Q 4550 3538 4550 2338 
Q 4550 1131 3912 565 
Q 3275 0 1925 0 
L 628 0 
L 628 4666 
z
" transform="scale(0.015625)"/>
       <path id="DejaVuSans-4f" d="M 2522 4238 
Q 1834 4238 1429 3725 
Q 1025 3213 1025 2328 
Q 1025 1447 1429 934 
Q 1834 422 2522 422 
Q 3209 422 3611 934 
Q 4013 1447 4013 2328 
Q 4013 3213 3611 3725 
Q 3209 4238 2522 4238 
z
M 2522 4750 
Q 3503 4750 4090 4092 
Q 4678 3434 4678 2328 
Q 4678 1225 4090 567 
Q 3503 -91 2522 -91 
Q 1538 -91 948 565 
Q 359 1222 359 2328 
Q 359 3434 948 4092 
Q 1538 4750 2522 4750 
z
" transform="scale(0.015625)"/>
       <path id="DejaVuSans-4e" d="M 628 4666 
L 1478 4666 
L 3547 763 
L 3547 4666 
L 4159 4666 
L 4159 0 
L 3309 0 
L 1241 3903 
L 1241 0 
L 628 0 
L 628 4666 
z
" transform="scale(0.015625)"/>
       <path id="DejaVuSans-5f" d="M 3263 -1063 
L 3263 -1509 
L -63 -1509 
L -63 -1063 
L 3263 -1063 
z
" transform="scale(0.015625)"/>
       <path id="DejaVuSans-53" d="M 3425 4513 
L 3425 3897 
Q 3066 4069 2747 4153 
Q 2428 4238 2131 4238 
Q 1616 4238 1336 4038 
Q 1056 3838 1056 3469 
Q 1056 3159 1242 3001 
Q 1428 2844 1947 2747 
L 2328 2669 
Q 3034 2534 3370 2195 
Q 3706 1856 3706 1288 
Q 3706 609 3251 259 
Q 2797 -91 1919 -91 
Q 1588 -91 1214 -16 
Q 841 59 441 206 
L 441 856 
Q 825 641 1194 531 
Q 1563 422 1919 422 
Q 2459 422 2753 634 
Q 3047 847 3047 1241 
Q 3047 1584 2836 1778 
Q 2625 1972 2144 2069 
L 1759 2144 
Q 1053 2284 737 2584 
Q 422 2884 422 3419 
Q 422 4038 858 4394 
Q 1294 4750 2059 4750 
Q 2388 4750 2728 4690 
Q 3069 4631 3425 4513 
z
" transform="scale(0.015625)"/>
       <path id="DejaVuSans-48" d="M 628 4666 
L 1259 4666 
L 1259 2753 
L 3553 2753 
L 3553 4666 
L 4184 4666 
L 4184 0 
L 3553 0 
L 3553 2222 
L 1259 2222 
L 1259 0 
L 628 0 
L 628 4666 
z
" transform="scale(0.015625)"/>
       <path id="DejaVuSans-54" d="M -19 4666 
L 3928 4666 
L 3928 4134 
L 2272 4134 
L 2272 0 
L 1638 0 
L 1638 4134 
L -19 4134 
L -19 4666 
z
" transform="scale(0.015625)"/>
       <path id="DejaVuSans-45" d="M 628 4666 
L 3578 4666 
L 3578 4134 
L 1259 4134 
L 1259 2753 
L 3481 2753 
L 3481 2222 
L 1259 2222 
L 1259 531 
L 3634 531 
L 3634 0 
L 628 0 
L 628 4666 
z
" transform="scale(0.015625)"/>
       <path id="DejaVuSans-4d" d="M 628 4666 
L 1569 4666 
L 2759 1491 
L 3956 4666 
L 4897 4666 
L 4897 0 
L 4281 0 
L 4281 4097 
L 3078 897 
L 2444 897 
L 1241 4097 
L 1241 0 
L 628 0 
L 628 4666 
z
" transform="scale(0.015625)"/>
       <path id="DejaVuSans-56" d="M 1831 0 
L 50 4666 
L 709 4666 
L 2188 738 
L 3669 4666 
L 4325 4666 
L 2547 0 
L 1831 0 
z
" transform="scale(0.015625)"/>
       <path id="DejaVuSans-47" d="M 3809 666 
L 3809 1919 
L 2778 1919 
L 2778 2438 
L 4434 2438 
L 4434 434 
Q 4069 175 3628 42 
Q 3188 -91 2688 -91 
Q 1594 -91 976 548 
Q 359 1188 359 2328 
Q 359 3472 976 4111 
Q 1594 4750 2688 4750 
Q 3144 4750 3555 4637 
Q 3966 4525 4313 4306 
L 4313 3634 
Q 3963 3931 3569 4081 
Q 3175 4231 2741 4231 
Q 1884 4231 1454 3753 
Q 1025 3275 1025 2328 
Q 1025 1384 1454 906 
Q 1884 428 2741 428 
Q 3075 428 3337 486 
Q 3600 544 3809 666 
z
" transform="scale(0.015625)"/>
       <path id="DejaVuSans-20" transform="scale(0.015625)"/>
       <path id="DejaVuSans-42" d="M 1259 2228 
L 1259 519 
L 2272 519 
Q 2781 519 3026 730 
Q 3272 941 3272 1375 
Q 3272 1813 3026 2020 
Q 2781 2228 2272 2228 
L 1259 2228 
z
M 1259 4147 
L 1259 2741 
L 2194 2741 
Q 2656 2741 2882 2914 
Q 3109 3088 3109 3444 
Q 3109 3797 2882 3972 
Q 2656 4147 2194 4147 
L 1259 4147 
z
M 628 4666 
L 2241 4666 
Q 2963 4666 3353 4366 
Q 3744 4066 3744 3513 
Q 3744 3084 3544 2831 
Q 3344 2578 2956 2516 
Q 3422 2416 3680 2098 
Q 3938 1781 3938 1306 
Q 3938 681 3513 340 
Q 3088 0 2303 0 
L 628 0 
L 628 4666 
z
" transform="scale(0.015625)"/>
       <path id="DejaVuSans-71" d="M 947 1747 
Q 947 1113 1208 752 
Q 1469 391 1925 391 
Q 2381 391 2643 752 
Q 2906 1113 2906 1747 
Q 2906 2381 2643 2742 
Q 2381 3103 1925 3103 
Q 1469 3103 1208 2742 
Q 947 2381 947 1747 
z
M 2906 525 
Q 2725 213 2448 61 
Q 2172 -91 1784 -91 
Q 1150 -91 751 415 
Q 353 922 353 1747 
Q 353 2572 751 3078 
Q 1150 3584 1784 3584 
Q 2172 3584 2448 3432 
Q 2725 3281 2906 2969 
L 2906 3500 
L 3481 3500 
L 3481 -1331 
L 2906 -1331 
L 2906 525 
z
" transform="scale(0.015625)"/>
       <path id="DejaVuSans-2f" d="M 1625 4666 
L 2156 4666 
L 531 -594 
L 0 -594 
L 1625 4666 
z
" transform="scale(0.015625)"/>
       <path id="DejaVuSans-6d" d="M 3328 2828 
Q 3544 3216 3844 3400 
Q 4144 3584 4550 3584 
Q 5097 3584 5394 3201 
Q 5691 2819 5691 2113 
L 5691 0 
L 5113 0 
L 5113 2094 
Q 5113 2597 4934 2840 
Q 4756 3084 4391 3084 
Q 3944 3084 3684 2787 
Q 3425 2491 3425 1978 
L 3425 0 
L 2847 0 
L 2847 2094 
Q 2847 2600 2669 2842 
Q 2491 3084 2119 3084 
Q 1678 3084 1418 2786 
Q 1159 2488 1159 1978 
L 1159 0 
L 581 0 
L 581 3500 
L 1159 3500 
L 1159 2956 
Q 1356 3278 1631 3431 
Q 1906 3584 2284 3584 
Q 2666 3584 2933 3390 
Q 3200 3197 3328 2828 
z
" transform="scale(0.015625)"/>
      </defs>
      <use xlink:href="#DejaVuSans-52"/>
      <use xlink:href="#DejaVuSans-41" x="65.482422"/>
      <use xlink:href="#DejaVuSans-44" x="133.890625"/>
      <use xlink:href="#DejaVuSans-4f" x="210.892578"/>
      <use xlink:href="#DejaVuSans-4e" x="289.603516"/>
      <use xlink:href="#DejaVuSans-5f" x="364.408203"/>
      <use xlink:href="#DejaVuSans-53" x="414.408203"/>
      <use xlink:href="#DejaVuSans-48" x="477.884766"/>
      <use xlink:href="#DejaVuSans-4f" x="553.080078"/>
      <use xlink:href="#DejaVuSans-52" x="631.791016"/>
      <use xlink:href="#DejaVuSans-54" x="694.023438"/>
      <use xlink:href="#DejaVuSans-5f" x="755.107422"/>
      <use xlink:href="#DejaVuSans-54" x="805.107422"/>
      <use xlink:href="#DejaVuSans-45" x="866.191406"/>
      <use xlink:href="#DejaVuSans-52" x="929.375"/>
      <use xlink:href="#DejaVuSans-4d" x="998.857422"/>
      <use xlink:href="#DejaVuSans-5f" x="1085.136719"/>
      <use xlink:href="#DejaVuSans-41" x="1135.136719"/>
      <use xlink:href="#DejaVuSans-56" x="1197.169922"/>
      <use xlink:href="#DejaVuSans-47" x="1265.578125"/>
      <use xlink:href="#DejaVuSans-20" x="1343.068359"/>
      <use xlink:href="#DejaVuSans-42" x="1374.855469"/>
      <use xlink:href="#DejaVuSans-71" x="1443.458984"/>
      <use xlink:href="#DejaVuSans-2f" x="1506.935547"/>
      <use xlink:href="#DejaVuSans-6d" x="1540.626953"/>
      <use xlink:href="#DejaVuSans-33" x="1638.039062"/>
     </g>
    </g>
   </g>
   <g id="line2d_35">
    <path d="M 147.36596 223.159531 
L 147.475735 225.676132 
L 147.749932 225.739047 
L 147.859465 226.556942 
L 148.02352 226.745687 
L 148.188062 226.808602 
L 148.297717 227.626497 
L 148.443273 227.815242 
L 148.625949 227.815242 
L 148.735238 225.91381 
L 148.88116 225.676132 
L 149.064201 225.676132 
L 149.17349 226.626847 
L 149.319412 226.745687 
L 149.502331 226.745687 
L 149.612107 224.68885 
L 149.77592 224.071799 
L 149.94034 224.071799 
L 149.977216 223.128074 
M 152.204135 223.128074 
L 152.313911 225.141354 
L 153.007496 225.078439 
L 153.117028 224.260544 
L 153.281205 224.071799 
L 153.883634 224.071799 
L 153.938279 223.065159 
M 154.77815 223.065159 
L 155.125247 226.745687 
L 155.198025 226.745687 
L 155.307801 229.388117 
L 155.471735 229.954352 
L 155.636156 229.954352 
L 155.745932 231.715972 
L 155.909865 232.093462 
L 156.074529 232.030547 
L 156.184062 231.212652 
L 156.347996 231.023907 
L 156.51266 231.086822 
L 156.622192 231.904717 
L 156.786126 232.093462 
L 156.950546 232.093462 
L 157.060322 225.487387 
L 157.224256 224.071799 
L 157.388677 224.071799 
L 157.498453 228.035444 
L 157.662508 228.884797 
L 157.826807 228.884797 
L 157.936583 224.921151 
L 158.100395 224.071799 
L 158.264937 224.071799 
L 158.319582 223.065159 
M 178.473454 223.159531 
L 178.583351 225.676132 
L 179.295313 225.676132 
L 179.405211 228.758967 
L 179.569023 229.419574 
L 179.73393 229.356659 
L 179.843341 228.538764 
L 180.007275 228.350019 
L 180.17206 228.255647 
L 180.281471 227.028804 
L 180.445527 226.745687 
L 180.627838 226.651314 
L 180.737614 226.242367 
L 180.883657 226.210909 
L 181.486086 226.210909 
L 181.595984 223.568479 
L 181.613752 223.190989 
M 183.311751 223.128074 
L 183.421527 225.141354 
L 183.676859 225.141354 
L 183.731504 223.128074 
M 255.56759 223.065159 
L 255.859798 225.141354 
L 255.969087 225.141354 
L 256.07862 223.096616 
M 256.444094 223.033701 
L 256.736059 224.071799 
L 256.84547 224.071799 
L 256.955246 225.833419 
L 257.119058 226.210909 
L 257.283722 226.273824 
L 257.393376 227.091719 
L 257.557188 227.280464 
L 257.72173 227.280464 
L 257.831385 229.042084 
L 257.99544 229.419574 
L 258.159982 229.356659 
L 258.269393 228.538764 
L 258.43357 228.350019 
L 258.597991 228.350019 
L 258.707645 224.386374 
L 258.871579 223.537021 
L 259.036365 223.474106 
L 259.090644 223.033701 
M 275.283453 223.358762 
L 275.575418 225.141354 
L 275.685559 225.141354 
L 275.794727 227.518143 
L 275.94077 227.815242 
L 276.123811 227.755822 
L 276.232857 227.339884 
L 276.3789 227.280464 
L 276.56182 227.339884 
L 276.670987 227.755822 
L 276.817031 227.815242 
L 277.437837 227.815242 
L 277.547248 228.765957 
L 277.693413 228.884797 
L 277.876211 228.884797 
L 277.9855 229.835513 
L 278.131543 229.954352 
L 278.314341 229.954352 
L 278.42363 225.676132 
L 278.569552 225.141354 
L 278.752471 225.141354 
L 278.788495 223.537021 
M 295.528967 223.379734 
L 295.65712 224.071799 
L 295.839309 224.071799 
L 295.949207 229.356659 
L 296.11314 230.48913 
L 296.277683 230.552045 
L 296.387337 231.36994 
L 296.551392 231.558685 
L 296.71557 231.558685 
L 296.825346 234.201115 
L 296.989401 234.76735 
L 297.154187 234.861723 
L 297.263598 236.088565 
L 297.427531 236.371683 
L 297.592317 236.434598 
L 297.701728 237.252493 
L 297.865783 237.441238 
L 298.030082 237.441238 
L 298.139858 239.643263 
L 298.30367 240.115126 
L 298.468334 240.115126 
L 298.577988 243.638366 
L 298.741922 244.393346 
L 299.344473 244.393346 
L 299.454249 250.559017 
L 299.617939 251.880232 
L 299.782725 251.880232 
L 299.892379 254.963067 
L 300.056313 255.623675 
L 301.535611 255.68659 
L 301.645022 256.504485 
L 301.808834 256.69323 
L 301.97362 256.787603 
L 302.083031 258.014445 
L 302.247086 258.297563 
L 302.849759 258.360478 
L 302.959291 259.178373 
L 303.123347 259.367118 
L 303.287767 259.367118 
L 303.397543 261.128738 
L 303.561355 261.506228 
L 303.725898 261.506228 
L 303.835674 263.267848 
L 303.999607 263.645338 
L 304.602158 263.645338 
L 304.711934 261.883718 
L 304.875868 261.506228 
L 305.478541 261.411856 
L 305.587951 260.185013 
L 305.752129 259.901896 
L 307.231183 259.996268 
L 307.340594 261.223111 
L 307.50465 261.506228 
L 308.107322 261.411856 
L 308.217098 260.185013 
L 308.380789 259.901896 
L 309.439482 259.807523 
L 309.549379 259.398575 
L 309.695301 259.367118 
L 310.298095 259.367118 
L 310.407628 257.165093 
L 310.571562 256.69323 
L 311.174478 256.787603 
L 311.283889 258.014445 
L 311.447822 258.297563 
L 311.612365 258.297563 
L 311.722019 256.095538 
L 311.885953 255.623675 
L 312.488625 255.623675 
L 312.598401 253.42165 
L 312.762335 252.949787 
L 314.241146 252.949787 
L 314.350801 250.747762 
L 314.514856 250.275899 
L 314.67952 250.212984 
L 314.788931 249.395089 
L 314.952865 249.206344 
L 315.117529 249.206344 
L 315.227061 250.967965 
L 315.390995 251.345455 
L 315.555781 251.40837 
L 315.665192 252.226265 
L 315.829125 252.41501 
L 315.994033 252.509382 
L 316.103322 253.736225 
L 316.267256 254.019342 
L 317.308302 253.92497 
L 317.417834 252.698127 
L 317.581768 252.41501 
L 318.184197 252.41501 
L 318.294095 254.617035 
L 318.458029 255.088897 
L 319.061066 255.18327 
L 319.170356 256.410113 
L 319.334289 256.69323 
L 320.375092 256.598858 
L 320.484625 255.372015 
L 320.64868 255.088897 
L 320.813344 255.18327 
L 320.922877 256.410113 
L 321.08681 256.69323 
L 321.251596 256.756145 
L 321.361007 257.57404 
L 321.524819 257.762785 
L 322.127735 257.857158 
L 322.237389 259.084 
L 322.401323 259.367118 
L 323.004117 259.46149 
L 323.113528 260.688333 
L 323.277462 260.971451 
L 324.756273 260.971451 
L 324.866171 263.173476 
L 325.029983 263.645338 
L 325.632899 263.739711 
L 325.742432 264.966554 
L 325.906487 265.249671 
L 326.070664 265.249671 
L 326.18044 262.166836 
L 326.344617 261.506228 
L 326.946803 261.506228 
L 327.056822 259.744608 
L 327.220756 259.367118 
L 327.82355 259.46149 
L 327.933083 260.688333 
L 328.097017 260.971451 
L 329.137698 260.971451 
L 329.247474 263.173476 
L 329.411286 263.645338 
L 330.452211 263.739711 
L 330.561865 264.966554 
L 330.725799 265.249671 
L 330.890341 265.155299 
L 330.999873 263.928456 
L 331.163807 263.645338 
L 331.766845 263.582423 
L 331.876256 262.764528 
L 332.040311 262.575783 
L 333.080871 262.575783 
L 333.19089 260.373758 
L 333.354702 259.901896 
L 333.537135 259.807523 
L 333.646667 259.398575 
L 333.792832 259.367118 
L 334.395627 259.272745 
L 334.505159 258.045903 
L 334.668971 257.762785 
L 334.833513 257.762785 
L 334.943289 256.001165 
L 335.107101 255.623675 
L 335.709896 255.68659 
L 335.819428 256.504485 
L 335.983484 256.69323 
L 336.586035 256.69323 
L 336.695689 259.33566 
L 336.859623 259.901896 
L 337.900547 259.807523 
L 338.01008 258.58068 
L 338.174135 258.297563 
L 339.65319 258.20319 
L 339.762723 256.976348 
L 339.926535 256.69323 
L 340.091199 256.69323 
L 340.200975 254.491205 
L 340.364665 254.019342 
L 340.529451 253.956427 
L 340.639105 253.138532 
L 340.803039 252.949787 
L 340.967338 252.949787 
L 341.077113 250.747762 
L 341.241169 250.275899 
L 341.405589 250.370272 
L 341.515244 251.597115 
L 341.679299 251.880232 
L 341.843963 251.943147 
L 341.953496 252.761042 
L 342.11743 252.949787 
L 342.720224 252.886872 
L 342.829513 252.068977 
L 342.993568 251.880232 
L 343.158232 251.943147 
L 343.267765 252.761042 
L 343.43182 252.949787 
L 344.472745 253.012702 
L 344.582278 253.830597 
L 344.746211 254.019342 
L 344.910875 254.113715 
L 345.020408 255.340558 
L 345.184342 255.623675 
L 345.348762 255.623675 
L 345.458416 257.8257 
L 345.622472 258.297563 
L 347.101283 258.297563 
L 347.210938 256.095538 
L 347.375115 255.623675 
L 347.977544 255.623675 
L 348.08732 257.8257 
L 348.251254 258.297563 
L 348.415918 258.391935 
L 348.525572 259.618778 
L 348.689506 259.901896 
L 348.871816 259.807523 
L 348.981471 259.398575 
L 349.127392 259.367118 
L 349.730187 259.367118 
L 349.839841 257.165093 
L 350.003896 256.69323 
L 350.16856 256.630315 
L 350.277971 255.81242 
L 350.441905 255.623675 
L 350.606447 255.623675 
L 350.716102 257.8257 
L 350.880035 258.297563 
L 351.044699 258.360478 
L 351.154354 259.178373 
L 351.318166 259.367118 
L 351.500598 259.46149 
L 351.610252 259.870438 
L 351.756296 259.901896 
L 352.376615 259.807523 
L 352.486635 259.398575 
L 352.632556 259.367118 
L 352.814867 259.46149 
L 352.924643 259.870438 
L 353.070687 259.901896 
L 353.235229 259.996268 
L 353.345005 261.223111 
L 353.508817 261.506228 
L 353.673238 261.506228 
L 353.783014 259.744608 
L 353.946947 259.367118 
L 354.12938 259.46149 
L 354.239034 259.870438 
L 354.385199 259.901896 
L 354.549742 259.996268 
L 354.659274 261.223111 
L 354.82333 261.506228 
L 355.443893 261.411856 
L 355.553425 261.002908 
L 355.69959 260.971451 
L 355.864132 260.908536 
L 355.973665 260.090641 
L 356.137842 259.901896 
L 356.758162 259.807523 
L 356.867938 259.398575 
L 357.014103 259.367118 
L 357.634301 259.46149 
L 357.744198 259.870438 
L 357.890363 259.901896 
L 358.054784 259.901896 
L 358.164317 257.259465 
L 358.328372 256.69323 
L 358.493036 256.630315 
L 358.602569 255.81242 
L 358.766502 255.623675 
L 358.930801 255.623675 
L 359.040821 253.42165 
L 359.204633 252.949787 
L 359.807183 252.949787 
L 359.916959 250.747762 
L 360.080893 250.275899 
L 360.245557 250.370272 
L 360.35509 251.597115 
L 360.519145 251.880232 
L 360.683566 251.943147 
L 360.793098 252.761042 
L 360.957154 252.949787 
L 361.559948 252.855415 
L 361.669359 251.628572 
L 361.833414 251.345455 
L 361.998078 251.439827 
L 362.107611 252.66667 
L 362.271423 252.949787 
L 362.436209 253.012702 
L 362.545619 253.830597 
L 362.709675 254.019342 
L 362.874339 254.082257 
L 362.983871 254.900152 
L 363.147927 255.088897 
L 363.750721 255.025982 
L 363.860132 254.208087 
L 364.024066 254.019342 
L 364.188486 254.019342 
L 364.298262 256.221368 
L 364.462196 256.69323 
L 366.379503 256.756145 
L 366.489035 257.57404 
L 366.652969 257.762785 
L 366.817755 257.69987 
L 366.927044 256.881975 
L 367.091099 256.69323 
L 368.132146 256.756145 
L 368.241435 257.57404 
L 368.40549 257.762785 
L 368.569789 257.762785 
L 368.679565 259.524406 
L 368.843621 259.901896 
L 369.008163 259.996268 
L 369.117695 261.223111 
L 369.281629 261.506228 
L 369.446172 261.506228 
L 369.555947 263.267848 
L 369.719881 263.645338 
L 369.884545 263.739711 
L 369.994199 264.966554 
L 370.158012 265.249671 
L 370.322432 265.249671 
L 370.432208 267.451696 
L 370.596142 267.923559 
L 370.778453 268.017932 
L 370.887985 268.426879 
L 371.034394 268.458337 
L 371.198936 268.521252 
L 371.308469 269.339147 
L 371.472524 269.527892 
L 372.075197 269.622264 
L 372.184851 270.849107 
L 372.348785 271.132224 
L 373.389588 271.037852 
L 373.498998 269.811009 
L 373.663176 269.527892 
L 375.141987 269.622264 
L 375.251641 270.849107 
L 375.415575 271.132224 
L 375.579996 271.132224 
L 375.689772 268.930199 
L 375.853705 268.458337 
L 376.4565 268.395422 
L 376.566032 267.577526 
L 376.730088 267.388781 
L 376.894386 267.388781 
L 377.004162 263.425136 
L 377.168218 262.575783 
L 377.770647 262.575783 
L 377.880423 260.373758 
L 378.044478 259.901896 
L 378.208899 259.901896 
L 378.318675 258.140275 
L 378.482609 257.762785 
L 379.102928 257.857158 
L 379.212704 258.266105 
L 379.358869 258.297563 
L 379.52329 258.297563 
L 379.632822 256.095538 
L 379.797121 255.623675 
L 380.399794 255.529303 
L 380.509326 254.30246 
L 380.67326 254.019342 
L 381.275811 254.019342 
L 381.385587 252.257722 
L 381.549521 251.880232 
L 381.71382 251.880232 
L 381.823717 250.118612 
L 381.987651 249.741122 
L 382.152315 249.678207 
L 382.261726 248.860312 
L 382.425903 248.671567 
L 383.028454 248.671567 
L 383.138108 246.469541 
L 383.302164 245.997679 
L 386.095609 246.060594 
L 386.20502 246.878489 
L 386.368954 247.067234 
L 386.533375 247.067234 
L 386.643151 245.305614 
L 386.807084 244.928124 
L 387.409513 244.928124 
L 387.519411 248.891769 
L 387.683467 249.741122 
L 387.865777 249.835494 
L 387.975432 250.244442 
L 388.121475 250.275899 
L 388.286017 250.275899 
L 388.395672 253.79914 
L 388.559727 254.55412 
L 388.724148 254.55412 
L 388.833802 256.31574 
L 388.997857 256.69323 
L 389.180168 256.787603 
L 389.289823 257.19655 
L 389.435988 257.228008 
L 389.600652 257.290923 
L 389.710063 258.108818 
L 389.873996 258.297563 
L 390.038782 258.360478 
L 390.148315 259.178373 
L 390.312127 259.367118 
L 390.476912 259.304203 
L 390.586445 258.486308 
L 390.750257 258.297563 
L 390.914921 258.360478 
L 391.024453 259.178373 
L 391.188509 259.367118 
L 391.79106 259.367118 
L 391.900836 261.128738 
L 392.064769 261.506228 
L 392.229068 261.506228 
L 392.338844 263.708253 
L 392.5029 264.180116 
L 392.667564 264.243031 
L 392.776975 265.060926 
L 392.941152 265.249671 
L 393.543703 265.312586 
L 393.653235 266.130481 
L 393.817169 266.319226 
L 393.981955 266.256311 
L 394.091365 265.438416 
L 394.255421 265.249671 
L 394.420085 265.312586 
L 394.529617 266.130481 
L 394.693551 266.319226 
L 395.296467 266.413599 
L 395.406 267.640441 
L 395.569934 267.923559 
L 395.734476 267.829186 
L 395.843887 266.602344 
L 396.008064 266.319226 
L 396.610493 266.413599 
L 396.720391 267.640441 
L 396.884203 267.923559 
L 397.048988 268.017932 
L 397.158399 269.244774 
L 397.322333 269.527892 
L 397.486997 269.622264 
L 397.596408 270.849107 
L 397.760585 271.132224 
L 397.925249 271.037852 
L 398.03466 269.811009 
L 398.198594 269.527892 
L 398.253725 269.527892 
L 398.253725 269.527892 
" clip-path="url(#p7a01d10e28)" style="fill: none; stroke: #008000; stroke-width: 1.5; stroke-linecap: square"/>
   </g>
   <g id="line2d_36">
    <path d="M 123.725423 196.357738 
L 123.835199 197.867698 
L 124.090653 197.930613 
L 124.200185 198.748508 
L 124.364119 198.937253 
L 124.52854 198.937253 
L 124.638437 201.579684 
L 124.802371 202.145919 
L 124.96667 202.145919 
L 125.057826 196.483568 
M 136.376191 196.389196 
L 136.485967 199.251828 
L 136.613877 199.472031 
L 136.79631 199.472031 
L 136.906086 197.710411 
L 137.070263 197.332921 
L 137.23444 197.332921 
L 137.344094 199.975351 
L 137.508271 200.541586 
L 137.672935 200.604501 
L 137.782468 201.422396 
L 137.946523 201.611141 
L 138.548953 201.611141 
L 138.658728 204.253572 
L 138.822541 204.819807 
L 138.987083 204.819807 
L 139.096737 209.664262 
L 139.260671 210.70236 
L 139.425091 210.70236 
L 139.534989 213.34479 
L 139.698801 213.911025 
L 139.863343 213.911025 
L 139.972998 215.672645 
L 140.137053 216.050135 
L 140.301352 216.050135 
L 140.411128 217.811756 
L 140.575183 218.189246 
L 140.739604 218.189246 
L 140.84938 216.427625 
L 141.013192 216.050135 
L 141.177978 216.144508 
L 141.28751 217.371351 
L 141.451566 217.654468 
L 141.615743 217.654468 
L 141.725641 215.452443 
L 141.889453 214.98058 
L 142.054117 214.98058 
L 142.163893 217.182606 
L 142.327705 217.654468 
L 142.492247 217.717383 
L 142.601901 218.535278 
L 142.765957 218.724023 
L 142.930499 218.786938 
L 143.03991 219.604833 
L 143.203843 219.793578 
L 143.806638 219.793578 
L 143.91617 217.151148 
L 144.080347 216.584913 
L 144.244768 216.584913 
L 144.354422 214.823293 
L 144.518478 214.445803 
L 144.68302 214.382888 
L 144.792553 213.564993 
L 144.956365 213.376248 
L 145.121029 213.376248 
L 145.230805 216.459083 
L 145.394617 217.119691 
L 145.559159 217.119691 
L 145.668935 220.202526 
L 145.832747 220.863133 
L 145.997411 220.934437 
L 146.106943 221.718778 
L 146.270755 221.932689 
L 146.453431 222.027061 
L 146.563086 222.436009 
L 146.709129 222.467466 
L 146.873671 222.404551 
L 146.983204 221.586656 
L 147.147259 221.397911 
L 147.311558 221.397911 
L 147.348434 222.907871 
M 149.994741 222.970786 
L 150.104639 221.397911 
L 150.378957 221.303539 
L 150.488246 220.076696 
L 150.65218 219.793578 
L 151.254974 219.856493 
L 151.364629 220.674388 
L 151.528562 220.863133 
L 152.130992 220.863133 
L 152.185758 222.876414 
M 153.956656 222.939329 
L 154.06631 221.932689 
L 154.759895 221.932689 
L 154.777907 222.782041 
M 158.337959 222.939329 
L 158.447857 221.932689 
L 158.703068 221.932689 
L 158.812722 218.849853 
L 158.976899 218.189246 
L 159.141441 218.252161 
L 159.250852 219.070056 
L 159.415029 219.258801 
L 159.57945 219.258801 
L 159.689348 216.175965 
L 159.853038 215.515358 
L 160.473479 215.60973 
L 160.583255 216.018678 
L 160.729298 216.050135 
L 160.893962 216.11305 
L 161.003617 216.930946 
L 161.167429 217.119691 
L 161.331849 217.119691 
L 161.441747 214.47726 
L 161.605681 213.911025 
L 161.770101 213.911025 
L 161.879756 212.149405 
L 162.043811 211.771915 
L 162.208232 211.771915 
L 162.318008 209.56989 
L 162.481941 209.098027 
L 162.646362 209.098027 
L 162.756016 205.134382 
L 162.91995 204.285029 
L 163.102383 204.379402 
L 163.212159 204.788349 
L 163.358202 204.819807 
L 163.522623 204.819807 
L 163.632398 202.177376 
L 163.796211 201.611141 
L 163.978765 201.705514 
L 164.088419 202.114461 
L 164.234463 202.145919 
L 164.837013 202.145919 
L 164.946789 203.907539 
L 165.110845 204.285029 
L 165.275144 204.285029 
L 165.38492 202.083004 
L 165.548853 201.611141 
L 166.151769 201.516769 
L 166.26118 200.289926 
L 166.425114 200.006809 
L 166.589413 200.006809 
L 166.699311 201.768429 
L 166.863244 202.145919 
L 167.027543 202.145919 
L 167.137319 199.503488 
L 167.301375 198.937253 
L 167.466039 199.000168 
L 167.575449 199.818063 
L 167.739627 200.006809 
L 167.904169 199.943894 
L 168.013701 199.125998 
L 168.177757 198.937253 
L 168.342056 198.937253 
L 168.45171 202.900899 
L 168.615765 203.750251 
L 169.218438 203.750251 
L 169.328214 206.392682 
L 169.491904 206.958917 
L 169.674459 207.053289 
L 169.783991 207.462237 
L 169.930156 207.493694 
L 170.094455 207.493694 
L 170.204475 211.016935 
L 170.368287 211.771915 
L 170.532951 211.709 
L 170.642483 210.891105 
L 170.806417 210.70236 
L 170.988849 210.796732 
L 171.098625 211.20568 
L 171.244791 211.237137 
L 171.409089 211.237137 
L 171.518744 212.998758 
L 171.682677 213.376248 
L 172.285472 213.439163 
L 172.395126 214.257058 
L 172.558938 214.445803 
L 173.161854 214.540175 
L 173.271387 215.767018 
L 173.435077 216.050135 
L 174.038115 216.144508 
L 174.147525 217.371351 
L 174.311459 217.654468 
L 174.476001 217.654468 
L 174.585656 215.892848 
L 174.749711 215.515358 
L 175.352262 215.515358 
L 175.462038 213.753738 
L 175.62585 213.376248 
L 175.790392 213.376248 
L 175.900168 216.018678 
L 176.06398 216.584913 
L 176.228523 216.584913 
L 176.338177 213.942483 
L 176.502232 213.376248 
L 176.666653 213.439163 
L 176.776307 214.257058 
L 176.940484 214.445803 
L 177.105027 214.382888 
L 177.214437 213.564993 
L 177.378493 213.376248 
L 177.543035 213.376248 
L 177.652689 216.899488 
L 177.816867 217.654468 
L 177.981044 217.654468 
L 178.090698 220.737303 
L 178.254875 221.397911 
L 178.419052 221.397911 
L 178.45605 222.907871 
M 181.63213 223.002244 
L 181.924095 223.002244 
L 182.034114 219.919408 
L 182.198048 219.258801 
L 182.380237 219.164428 
L 182.490135 218.755481 
L 182.636056 218.724023 
L 182.800477 218.724023 
L 182.910131 220.485643 
L 183.074308 220.863133 
L 183.238729 220.863133 
L 183.293374 222.876414 
M 183.749759 222.876414 
L 183.859657 220.863133 
L 184.115355 220.800218 
L 184.224766 219.982323 
L 184.388699 219.793578 
L 184.570888 219.887951 
L 184.680786 220.296898 
L 184.826708 220.328356 
L 184.991494 220.265441 
L 185.100904 219.447546 
L 185.264838 219.258801 
L 185.429624 219.321716 
L 185.539278 220.139611 
L 185.702968 220.328356 
L 186.305519 220.328356 
L 186.415295 214.162685 
L 186.579351 212.84147 
L 186.761662 212.747098 
L 186.871438 212.33815 
L 187.011883 212.306692 
L 187.18178 212.306692 
L 187.291799 210.104667 
L 187.455733 209.632805 
L 187.620032 209.632805 
L 187.72993 206.109564 
L 187.893863 205.354584 
L 188.053537 205.291669 
L 188.149439 204.599604 
L 188.350858 204.285029 
L 188.496171 204.285029 
L 188.606068 201.202194 
L 188.770124 200.541586 
L 189.372675 200.541586 
L 189.482207 198.779966 
L 189.646384 198.402476 
L 189.811048 198.308103 
L 189.920581 197.081261 
L 190.084393 196.798143 
L 190.249057 196.735228 
L 190.303458 196.294823 
M 201.202801 196.294823 
L 201.329616 199.975351 
L 201.439513 200.541586 
L 201.640323 200.541586 
L 201.750099 196.577941 
L 201.767868 196.294823 
M 204.28736 196.357738 
L 204.634578 198.402476 
L 204.707235 198.402476 
L 204.816889 196.357738 
M 205.583861 196.577941 
L 205.693272 200.667416 
L 205.857205 201.611141 
L 206.021869 201.548226 
L 206.131402 200.730331 
L 206.295457 200.541586 
L 206.459878 200.541586 
L 206.569654 198.339561 
L 206.733588 197.867698 
L 206.89813 197.773326 
L 207.007784 196.546483 
L 207.025674 196.357738 
M 209.59969 196.483568 
L 209.709709 200.006809 
L 209.965042 200.006809 
L 210.03782 196.609398 
M 212.228837 196.294823 
L 212.448024 198.937253 
L 212.593702 198.937253 
L 212.703478 201.579684 
L 212.867412 202.145919 
L 213.031832 202.145919 
L 213.141608 204.347944 
L 213.305664 204.819807 
L 213.469962 204.819807 
L 213.579738 207.021832 
L 213.743794 207.493694 
L 213.908458 207.556609 
L 214.01799 208.374504 
L 214.181924 208.56325 
L 214.346466 208.468877 
L 214.455999 207.242034 
L 214.619933 206.958917 
L 214.784475 206.958917 
L 214.894129 205.197297 
L 215.058063 204.819807 
L 215.222484 204.819807 
L 215.332138 207.462237 
L 215.496315 208.028472 
L 215.660857 208.122844 
L 215.770268 209.349687 
L 215.934324 209.632805 
L 216.116878 209.727177 
L 216.226654 210.136125 
L 216.372576 210.167582 
L 216.555008 210.261955 
L 216.664541 210.670902 
L 216.810706 210.70236 
L 216.97537 210.765275 
L 217.085024 211.58317 
L 217.248593 211.771915 
L 217.413135 211.771915 
L 217.523033 214.85475 
L 217.686967 215.515358 
L 217.851387 215.515358 
L 217.961041 217.717383 
L 218.125219 218.189246 
L 218.727891 218.094873 
L 218.837424 216.86803 
L 219.001357 216.584913 
L 219.166143 216.49054 
L 219.275554 215.263698 
L 219.439609 214.98058 
L 219.604273 214.917665 
L 219.713684 214.09977 
L 219.877618 213.911025 
L 220.042282 213.816653 
L 220.151815 212.58981 
L 220.315748 212.306692 
L 220.480169 212.306692 
L 220.589945 215.389528 
L 220.753757 216.050135 
L 220.918299 216.050135 
L 221.028075 218.252161 
L 221.192009 218.724023 
L 221.356673 218.786938 
L 221.466205 219.604833 
L 221.630017 219.793578 
L 221.79456 219.793578 
L 221.904336 217.151148 
L 222.068391 216.584913 
L 222.23269 216.584913 
L 222.342344 214.823293 
L 222.506643 214.445803 
L 223.547081 214.445803 
L 223.656979 212.243777 
L 223.820791 211.771915 
L 223.985089 211.771915 
L 224.095109 210.010295 
L 224.258921 209.632805 
L 224.441353 209.727177 
L 224.551129 210.136125 
L 224.697051 210.167582 
L 224.861837 210.230497 
L 224.971248 211.048392 
L 225.135181 211.237137 
L 225.299967 211.174222 
L 225.409378 210.356327 
L 225.573433 210.167582 
L 225.738097 210.104667 
L 225.84763 209.286772 
L 226.011442 209.098027 
L 226.175984 209.098027 
L 226.28576 207.336407 
L 226.449572 206.958917 
L 226.614236 207.021832 
L 226.723891 207.839727 
L 226.887824 208.028472 
L 227.052001 208.028472 
L 227.161777 206.266852 
L 227.325955 205.889362 
L 227.508144 205.983734 
L 227.618041 206.392682 
L 227.763963 206.424139 
L 227.928749 206.487054 
L 228.03816 207.304949 
L 228.202337 207.493694 
L 228.366879 207.399322 
L 228.47629 206.172479 
L 228.640224 205.889362 
L 230.119157 205.889362 
L 230.228933 208.531792 
L 230.392745 209.098027 
L 230.557409 209.160942 
L 230.666941 209.978837 
L 230.831119 210.167582 
L 230.995539 210.167582 
L 231.105193 212.369607 
L 231.269127 212.84147 
L 231.451438 212.747098 
L 231.561336 212.33815 
L 231.707136 212.306692 
L 231.871556 212.306692 
L 231.981454 209.664262 
L 232.145266 209.098027 
L 232.309808 209.098027 
L 232.419706 212.621267 
L 232.583518 213.376248 
L 232.74806 213.376248 
L 232.857715 210.293412 
L 233.02177 209.632805 
L 233.203959 209.538432 
L 233.313857 209.129485 
L 233.4599 209.098027 
L 233.624199 209.098027 
L 233.733854 206.896002 
L 233.898031 206.424139 
L 234.062573 206.518512 
L 234.171984 207.745354 
L 234.336039 208.028472 
L 234.93859 208.028472 
L 235.048366 205.386042 
L 235.212178 204.819807 
L 235.394732 204.725434 
L 235.504508 204.316487 
L 235.650552 204.285029 
L 235.814851 204.285029 
L 235.924627 202.083004 
L 236.088682 201.611141 
L 236.253103 201.705514 
L 236.362879 202.932356 
L 236.526691 203.215474 
L 236.691111 203.215474 
L 236.801009 205.857904 
L 236.964943 206.424139 
L 237.129363 206.424139 
L 237.239018 204.222114 
L 237.402951 203.750251 
L 237.567494 203.750251 
L 237.677148 206.392682 
L 237.841203 206.958917 
L 238.005624 206.958917 
L 238.1154 204.756892 
L 238.279334 204.285029 
L 238.443754 204.285029 
L 238.55353 201.642599 
L 238.717342 201.076364 
L 239.758388 201.139279 
L 239.867921 201.957174 
L 240.031855 202.145919 
L 240.196154 202.145919 
L 240.306051 198.182273 
L 240.469985 197.332921 
L 240.634406 197.332921 
L 240.67116 196.389196 
M 249.397377 196.389196 
L 249.506909 198.024986 
L 249.670843 198.402476 
L 249.835507 198.496848 
L 249.945039 199.723691 
L 250.108973 200.006809 
L 250.273515 200.101181 
L 250.383048 201.328024 
L 250.547103 201.611141 
L 250.711402 201.611141 
L 250.821178 206.455597 
L 250.985234 207.493694 
L 251.149898 207.430779 
L 251.259187 206.612884 
L 251.423364 206.424139 
L 251.587785 206.424139 
L 251.697561 208.185759 
L 251.861494 208.56325 
L 252.025915 208.56325 
L 252.135569 210.32487 
L 252.299625 210.70236 
L 252.464045 210.70236 
L 252.573699 214.2256 
L 252.737633 214.98058 
L 252.920187 215.074953 
L 253.02972 215.4839 
L 253.175885 215.515358 
L 253.340549 215.60973 
L 253.44996 216.836573 
L 253.614015 217.119691 
L 253.778314 217.119691 
L 253.888334 218.881311 
L 254.052024 219.258801 
L 254.216688 219.321716 
L 254.326099 220.139611 
L 254.490398 220.328356 
L 254.654697 220.328356 
L 254.764594 218.126331 
L 254.928528 217.654468 
L 255.092827 217.654468 
L 255.202725 221.177708 
L 255.366658 221.932689 
L 255.530957 221.932689 
L 255.567346 222.876414 
M 256.078863 222.939329 
L 256.242919 222.467466 
L 256.407583 222.561839 
L 256.44385 222.939329 
M 259.1089 222.970786 
L 259.218675 222.467466 
L 259.47413 222.467466 
L 259.583906 220.705846 
L 259.747718 220.328356 
L 259.912382 220.328356 
L 260.022158 215.924305 
L 260.185848 214.98058 
L 260.788399 214.98058 
L 260.898175 212.778555 
L 261.062352 212.306692 
L 261.244541 212.21232 
L 261.354561 211.803372 
L 261.500604 211.771915 
L 261.664781 211.771915 
L 261.774557 214.85475 
L 261.938734 215.515358 
L 262.103277 215.452443 
L 262.212688 214.634548 
L 262.376621 214.445803 
L 262.541285 214.445803 
L 262.65094 212.684183 
L 262.814873 212.306692 
L 262.997062 212.401065 
L 263.10696 212.810013 
L 263.253004 212.84147 
L 263.417424 212.84147 
L 263.527078 211.07985 
L 263.691134 210.70236 
L 263.855554 210.70236 
L 263.96533 208.059929 
L 264.129264 207.493694 
L 264.293685 207.493694 
L 264.403217 203.970454 
L 264.567394 203.215474 
L 264.731815 203.215474 
L 264.841469 201.453854 
L 265.005646 201.076364 
L 265.187836 201.170736 
L 265.297612 201.579684 
L 265.443655 201.611141 
L 265.608319 201.548226 
L 265.717852 200.730331 
L 265.881785 200.541586 
L 266.046328 200.635959 
L 266.155982 201.862801 
L 266.319916 202.145919 
L 266.484214 202.145919 
L 266.59399 205.228754 
L 266.758046 205.889362 
L 266.922466 205.889362 
L 267.032242 203.687336 
L 267.196176 203.215474 
L 267.36084 203.278389 
L 267.470251 204.096284 
L 267.634306 204.285029 
L 267.799092 204.347944 
L 267.908503 205.165839 
L 268.072558 205.354584 
L 268.236979 205.354584 
L 268.346877 202.271749 
L 268.510445 201.611141 
L 268.693 201.516769 
L 268.802776 201.107821 
L 268.948819 201.076364 
L 269.113118 201.076364 
L 269.223016 205.040009 
L 269.386828 205.889362 
L 269.551492 205.952277 
L 269.660902 206.770172 
L 269.82508 206.958917 
L 269.989378 206.958917 
L 270.099033 209.160942 
L 270.263332 209.632805 
L 270.427509 209.632805 
L 270.537285 213.156045 
L 270.701462 213.911025 
L 271.303891 213.911025 
L 271.41318 216.763172 
L 271.559224 217.119691 
L 271.742021 217.119691 
L 271.851311 218.070406 
L 271.997476 218.189246 
L 272.180273 218.189246 
L 272.289563 219.139961 
L 272.435484 219.258801 
L 272.618404 219.258801 
L 272.727693 217.357369 
L 272.873615 217.119691 
L 273.056777 217.060271 
L 273.165823 216.644333 
L 273.311745 216.584913 
L 273.494543 216.584913 
L 273.603832 218.486344 
L 273.749753 218.724023 
L 273.932795 218.724023 
L 274.042084 220.625455 
L 274.188005 220.863133 
L 274.809177 220.863133 
L 274.918223 221.813849 
L 275.064266 221.932689 
L 275.247307 221.932689 
L 275.283209 223.002244 
M 278.788739 223.002244 
L 279.080825 220.328356 
L 279.190845 220.268936 
L 279.299891 219.852998 
L 279.445934 219.793578 
L 279.628853 219.793578 
L 279.738143 216.941431 
L 279.884064 216.584913 
L 280.505114 216.584913 
L 280.614403 213.732766 
L 280.760325 213.376248 
L 281.380766 213.376248 
L 281.490664 211.614627 
L 281.654597 211.237137 
L 281.819383 211.142765 
L 281.928794 209.915922 
L 282.092849 209.632805 
L 282.257148 209.632805 
L 282.366924 206.549969 
L 282.530858 205.889362 
L 282.6954 205.889362 
L 282.805176 202.366121 
L 282.968988 201.611141 
L 283.151299 201.516769 
L 283.261075 201.107821 
L 283.407119 201.076364 
L 283.571661 201.076364 
L 283.681315 196.672313 
L 283.699084 196.357738 
M 293.666548 196.483568 
L 293.776324 199.755148 
L 293.904599 200.006809 
L 294.08691 200.006809 
L 294.196564 206.612884 
L 294.360619 208.028472 
L 294.525283 208.122844 
L 294.634816 209.349687 
L 294.79875 209.632805 
L 294.963048 209.632805 
L 295.072946 211.83483 
L 295.23688 212.306692 
L 295.401179 212.306692 
L 295.510955 221.995604 
L 295.528723 222.687669 
L 295.528723 222.687669 
" clip-path="url(#p7a01d10e28)" style="fill: none; stroke: #ffff00; stroke-width: 1.5; stroke-linecap: square"/>
   </g>
   <g id="line2d_37">
    <path d="M 73.851104 148.133385 
L 74.143191 148.133385 
L 74.252967 142.848524 
L 74.416779 141.716054 
L 74.581322 141.716054 
L 74.691098 139.954434 
L 74.855153 139.576944 
L 75.019452 139.576944 
L 75.129228 141.778969 
L 75.293162 142.250832 
L 75.913603 142.156459 
L 76.023379 141.747512 
L 76.169422 141.716054 
L 76.333721 141.716054 
L 76.443619 143.477674 
L 76.607552 143.855164 
L 76.789863 143.760792 
L 76.899639 143.351844 
L 77.045683 143.320387 
L 77.210347 143.414759 
L 77.319758 144.641602 
L 77.483813 144.92472 
L 77.648477 144.830347 
L 77.757888 143.603504 
L 77.921943 143.320387 
L 78.086364 143.320387 
L 78.196018 145.082007 
L 78.360074 145.459497 
L 78.524616 145.459497 
L 78.634148 143.257472 
L 78.798082 142.785609 
L 78.962624 142.785609 
L 79.0724 141.023989 
L 79.236334 140.646499 
L 79.400633 140.646499 
L 79.510531 138.884879 
L 79.674343 138.507389 
L 79.839007 138.413016 
L 79.948539 137.186174 
L 80.112473 136.903056 
L 80.276894 136.903056 
L 80.38667 134.260626 
L 80.550725 133.694391 
L 80.715024 133.694391 
L 80.824922 130.17115 
L 80.988977 129.41617 
L 81.153154 129.41617 
L 81.263052 134.260626 
L 81.426986 135.298723 
L 81.609297 135.393096 
L 81.719194 135.802043 
L 81.865116 135.833501 
L 82.029658 135.833501 
L 82.139312 133.631476 
L 82.303368 133.159613 
L 82.467667 133.159613 
L 82.577564 134.921233 
L 82.741498 135.298723 
L 82.906162 135.235808 
L 83.015451 134.417913 
L 83.179629 134.229168 
L 83.361939 134.323541 
L 83.471715 134.732488 
L 83.617515 134.763946 
L 83.782301 134.701031 
L 83.891834 133.883136 
L 84.055889 133.694391 
L 84.220188 133.694391 
L 84.329964 136.336821 
L 84.494019 136.903056 
L 84.658318 136.903056 
L 84.768094 139.105081 
L 84.931906 139.576944 
L 85.096449 139.576944 
L 85.206346 137.374919 
L 85.370158 136.903056 
L 85.552591 136.808684 
L 85.662367 136.399736 
L 85.80841 136.368279 
L 85.972709 136.368279 
L 86.082485 133.725848 
L 86.246541 133.159613 
L 86.411083 133.222528 
L 86.520615 134.040423 
L 86.684671 134.229168 
L 86.84897 134.229168 
L 86.958746 129.384713 
L 87.122679 128.346615 
L 87.725352 128.346615 
L 87.835006 124.823375 
L 87.99894 124.068395 
L 88.163604 124.068395 
L 88.273137 125.830015 
L 88.437192 126.207505 
L 88.619381 126.301877 
L 88.729279 126.710825 
L 88.875322 126.742282 
L 89.039986 126.679367 
L 89.149397 125.861472 
L 89.313331 125.672727 
L 89.477873 125.672727 
L 89.587649 122.149487 
L 89.751583 121.394507 
L 89.916003 121.394507 
L 90.025658 119.192482 
L 90.189713 118.720619 
L 90.354134 118.720619 
L 90.463788 116.518594 
L 90.627843 116.046731 
L 90.792142 116.046731 
L 90.901918 119.129567 
L 91.066095 119.790174 
L 91.230516 119.695802 
L 91.34017 118.468959 
L 91.503982 118.185841 
L 91.668525 118.185841 
L 91.778301 106.73531 
L 91.942234 104.281625 
L 92.106655 104.281625 
L 92.216309 100.317979 
L 92.380243 99.468627 
L 92.544785 99.468627 
L 92.654561 96.826196 
L 92.818373 96.259961 
L 92.982915 96.259961 
L 93.092691 92.296316 
L 93.256747 91.446963 
L 93.421046 91.446963 
L 93.530822 89.244938 
L 93.694877 88.773075 
L 93.859298 88.773075 
L 93.968952 86.57105 
L 94.133007 86.099188 
L 94.297428 86.099188 
L 94.407082 82.135542 
L 94.571016 81.28619 
L 94.735437 81.28619 
L 94.845213 77.762949 
L 95.009146 77.007969 
L 95.191579 77.102342 
L 95.301233 77.511289 
L 95.447277 77.542747 
L 95.629709 77.448374 
L 95.739364 77.039427 
L 95.885407 77.007969 
L 96.049828 77.007969 
L 96.159603 78.769589 
L 96.323416 79.147079 
L 96.50597 79.241452 
L 96.615624 79.650399 
L 96.761668 79.681857 
L 96.925966 79.681857 
L 97.035864 76.599022 
L 97.199798 75.938414 
L 97.802227 75.938414 
L 97.912125 71.974768 
L 98.07618 71.125416 
L 98.240722 71.031043 
L 98.350255 69.804201 
L 98.514189 69.521083 
L 98.678609 69.521083 
L 98.788385 63.795817 
L 98.952441 62.568975 
L 99.116861 62.568975 
L 99.226516 58.164924 
L 99.390449 57.221199 
L 99.573004 57.126827 
L 99.682658 56.717879 
L 99.82858 56.686422 
L 99.993244 56.686422 
L 100.102776 53.163181 
L 100.26671 52.408201 
L 100.431252 52.408201 
L 100.540785 57.252657 
L 100.704962 58.290754 
L 100.869504 58.290754 
L 100.979158 60.933185 
L 101.14297 61.49942 
L 101.325525 61.593792 
L 101.435057 62.00274 
L 101.580979 62.034197 
L 101.763533 62.12857 
L 101.873188 62.537517 
L 102.019474 62.568975 
L 102.183652 62.568975 
L 102.293549 68.294241 
L 102.457483 69.521083 
L 102.621904 69.521083 
L 102.731801 77.007969 
L 102.895613 78.612302 
L 103.059912 78.612302 
L 103.169688 81.695137 
L 103.333744 82.355745 
L 103.498042 82.355745 
L 103.607818 86.31939 
L 103.771996 87.168743 
L 103.936294 87.168743 
L 104.045949 90.251578 
L 104.210004 90.912186 
L 104.374425 90.912186 
L 104.484201 92.673806 
L 104.648134 93.051296 
L 104.812798 93.114211 
L 104.922209 93.932106 
L 105.086265 94.120851 
L 105.250807 94.120851 
L 105.360461 97.203686 
L 105.524395 97.864294 
L 105.706706 97.958667 
L 105.816482 98.367614 
L 105.962525 98.399072 
L 106.126946 98.399072 
L 106.236844 102.803122 
L 106.400656 103.746847 
L 106.56532 103.683932 
L 106.674974 102.866037 
L 106.838664 102.677292 
L 107.020975 102.58292 
L 107.130994 102.173972 
L 107.276916 102.142515 
L 107.441337 102.142515 
L 107.551113 106.10616 
L 107.715046 106.955513 
L 107.879467 106.955513 
L 107.989243 110.919158 
L 108.153298 111.768511 
L 108.335488 111.674138 
L 108.445385 111.265191 
L 108.591307 111.233733 
L 108.755971 111.139361 
L 108.865504 109.912518 
L 109.029559 109.6294 
L 109.19398 109.6294 
L 109.303634 115.354666 
L 109.467689 116.581509 
L 109.649879 116.487136 
L 109.759776 116.078189 
L 109.905698 116.046731 
L 110.070119 116.046731 
L 110.179773 109.88106 
L 110.343707 108.559845 
L 110.508371 108.559845 
L 110.618025 105.036605 
L 110.78208 104.281625 
L 110.946501 104.281625 
L 111.056155 101.198789 
L 111.220089 100.538182 
L 111.384631 100.538182 
L 111.494285 98.776562 
L 111.658219 98.399072 
L 111.822761 98.399072 
L 111.932416 88.71016 
L 112.096349 86.633965 
L 112.261257 86.69688 
L 112.370668 87.514775 
L 112.534358 87.70352 
L 112.716912 87.797893 
L 112.826567 88.20684 
L 112.972488 88.238298 
L 113.137031 88.238298 
L 113.246928 86.476678 
L 113.410862 86.099188 
L 114.013291 86.099188 
L 114.123189 83.897162 
L 114.287123 83.4253 
L 114.451787 83.488215 
L 114.561319 84.30611 
L 114.725375 84.494855 
L 114.889552 84.494855 
L 114.999449 89.779716 
L 115.163505 90.912186 
L 115.327804 90.912186 
L 115.43758 97.518261 
L 115.601513 98.933849 
L 115.765934 98.933849 
L 115.87571 103.3379 
L 116.039644 104.281625 
L 116.204064 104.281625 
L 116.31384 109.12608 
L 116.477774 110.164178 
L 116.642438 110.227093 
L 116.751971 111.044988 
L 116.915904 111.233733 
L 117.080447 111.296648 
L 117.190101 112.114543 
L 117.354035 112.303288 
L 117.518455 112.303288 
L 117.628231 117.588149 
L 117.792165 118.720619 
L 118.394716 118.720619 
L 118.50437 120.922644 
L 118.668425 121.394507 
L 118.832846 121.394507 
L 118.9425 126.679367 
L 119.106556 127.811838 
L 119.270976 127.811838 
L 119.380752 136.619939 
L 119.544686 138.507389 
L 119.709107 138.507389 
L 119.818761 141.149819 
L 119.982816 141.716054 
L 120.147237 141.716054 
L 120.256891 148.762535 
L 120.420947 150.272495 
L 120.585367 150.272495 
L 120.695265 155.557356 
L 120.841187 156.689826 
L 121.023497 156.689826 
L 121.133395 163.736307 
L 121.279317 165.246267 
L 121.461506 165.246267 
L 121.571647 171.852343 
L 121.717569 173.26793 
L 121.900001 173.362303 
L 122.009534 174.589146 
L 122.173468 174.872263 
L 122.337888 174.872263 
L 122.447664 189.846035 
L 122.593708 193.0547 
L 123.214392 193.149073 
L 123.323925 194.375915 
L 123.48798 194.659033 
L 123.652279 194.659033 
L 123.706924 196.168993 
M 125.076203 196.011706 
L 125.1861 194.124255 
L 125.4048 194.124255 
L 125.514698 187.077774 
L 125.67851 185.567814 
L 125.842931 185.567814 
L 125.952585 179.842549 
L 126.11664 178.615706 
L 126.281183 178.615706 
L 126.390837 175.973276 
L 126.554892 175.407041 
L 126.719313 175.407041 
L 126.828846 171.00299 
L 126.993023 170.059265 
L 127.157322 170.059265 
L 127.266976 167.85724 
L 127.431153 167.385377 
L 128.033704 167.385377 
L 128.143358 163.421732 
L 128.307292 162.572379 
L 128.471956 162.572379 
L 128.58161 159.929949 
L 128.745422 159.363714 
L 128.909843 159.363714 
L 129.019862 157.602094 
L 129.183674 157.224603 
L 129.366107 157.130231 
L 129.475639 156.721283 
L 129.621683 156.689826 
L 129.786225 156.689826 
L 129.896001 153.606991 
L 130.059813 152.946383 
L 130.662486 152.946383 
L 130.772262 151.184763 
L 130.936195 150.807273 
L 131.100616 150.807273 
L 131.210392 153.449703 
L 131.374447 154.015938 
L 131.538746 154.015938 
L 131.648522 156.217963 
L 131.812456 156.689826 
L 131.976876 156.689826 
L 132.086652 158.891851 
L 132.250586 159.363714 
L 132.415128 159.363714 
L 132.524783 162.446549 
L 132.688716 163.107157 
L 132.85338 163.170072 
L 132.962913 163.987967 
L 133.126847 164.176712 
L 133.291267 164.176712 
L 133.401043 170.342383 
L 133.565099 171.663598 
L 133.729519 171.663598 
L 133.839295 175.627243 
L 134.003107 176.476596 
L 134.16765 176.476596 
L 134.277304 179.559431 
L 134.441238 180.220039 
L 134.62367 180.314411 
L 134.733446 180.723359 
L 134.87949 180.754816 
L 135.044154 180.691901 
L 135.153686 179.874006 
L 135.31762 179.685261 
L 135.481797 179.685261 
L 135.591816 187.612552 
L 135.755629 189.311257 
L 135.919927 189.311257 
L 136.030068 194.596118 
L 136.193881 195.728588 
L 136.358058 195.728588 
L 136.358544 196.168993 
M 190.321714 196.231908 
L 190.43149 195.728588 
L 190.687066 195.728588 
L 190.79672 193.526563 
L 190.960532 193.0547 
L 191.125074 193.0547 
L 191.23485 190.852675 
L 191.398784 190.380812 
L 192.001578 190.443727 
L 192.110989 191.261622 
L 192.275045 191.450368 
L 192.439587 191.450368 
L 192.549119 193.652393 
L 192.713297 194.124255 
L 192.877595 194.124255 
L 192.987371 192.362635 
L 193.151549 191.985145 
L 193.316091 191.92223 
L 193.425502 191.104335 
L 193.589435 190.91559 
L 193.753978 190.91559 
L 193.863754 188.713565 
L 194.027687 188.241702 
L 194.191865 188.241702 
L 194.301884 191.324537 
L 194.465818 191.985145 
L 194.63036 191.890773 
L 194.740014 190.66393 
L 194.903705 190.380812 
L 195.068369 190.380812 
L 195.178145 185.095952 
L 195.3422 183.963482 
L 195.506499 183.963482 
L 195.616275 185.725102 
L 195.780209 186.102592 
L 195.944873 186.008219 
L 196.054405 184.781377 
L 196.218217 184.498259 
L 196.820768 184.498259 
L 196.930666 188.90231 
L 197.094599 189.846035 
L 197.25902 189.846035 
L 197.368674 192.488465 
L 197.53273 193.0547 
L 197.697272 193.149073 
L 197.806926 194.375915 
L 197.97086 194.659033 
L 198.573654 194.596118 
L 198.683187 193.778223 
L 198.846999 193.589478 
L 199.011541 193.589478 
L 199.121317 189.625832 
L 199.285251 188.77648 
L 199.449915 188.839395 
L 199.559447 189.65729 
L 199.723503 189.846035 
L 199.88768 189.846035 
L 199.997578 192.488465 
L 200.161511 193.0547 
L 200.343944 193.149073 
L 200.45372 193.55802 
L 200.599642 193.589478 
L 200.764184 193.589478 
L 200.873717 195.351098 
L 201.037894 195.728588 
L 201.202314 195.728588 
L 201.202558 196.011706 
M 201.768111 196.011706 
L 201.896021 195.728588 
L 202.078697 195.665673 
L 202.188229 194.847778 
L 202.352163 194.659033 
L 202.51707 194.56466 
L 202.626603 193.337818 
L 202.790293 193.0547 
L 202.954714 193.0547 
L 203.064611 190.41227 
L 203.228545 189.846035 
L 203.392722 189.846035 
L 203.50262 192.488465 
L 203.666675 193.0547 
L 203.830974 193.0547 
L 203.94075 195.256725 
L 204.104927 195.728588 
L 204.269226 195.728588 
L 204.287117 196.200451 
M 204.817133 196.200451 
L 204.981066 195.728588 
L 205.163256 195.822961 
L 205.273153 196.231908 
L 205.419075 196.263366 
L 205.583617 196.263366 
M 207.044052 196.263366 
L 207.336017 196.263366 
L 207.445914 194.501745 
L 207.609726 194.124255 
L 207.774269 194.124255 
L 207.884166 191.04142 
L 208.047857 190.380812 
L 208.212521 190.28644 
L 208.322175 189.059597 
L 208.48623 188.77648 
L 208.650529 188.77648 
L 208.760305 191.41891 
L 208.924361 191.985145 
L 209.10655 192.079518 
L 209.216448 192.488465 
L 209.362369 192.519923 
L 209.52679 192.519923 
L 209.581313 196.043163 
M 210.038064 196.231908 
L 210.257616 193.589478 
L 210.403416 193.526563 
L 210.512826 192.708668 
L 210.67676 192.519923 
L 212.155572 192.519923 
L 212.228593 195.917333 
M 240.688807 196.231908 
L 240.798583 194.659033 
L 241.072658 194.721948 
L 241.182312 195.539843 
L 241.346246 195.728588 
L 241.510666 195.728588 
L 241.620442 192.645753 
L 241.784498 191.985145 
L 241.948918 191.985145 
L 242.058451 189.342715 
L 242.222506 188.77648 
L 242.38717 188.839395 
L 242.496581 189.65729 
L 242.660758 189.846035 
L 242.8253 189.78312 
L 242.934833 188.965225 
L 243.098645 188.77648 
L 243.263309 188.77648 
L 243.372963 191.859315 
L 243.536897 192.519923 
L 243.719208 192.614295 
L 243.828984 193.023243 
L 243.975027 193.0547 
L 244.139448 193.0547 
L 244.249346 195.697131 
L 244.413036 196.263366 
L 244.577578 196.263366 
L 244.687232 193.620935 
L 244.851288 193.0547 
L 245.015709 193.0547 
L 245.125484 189.091055 
L 245.28954 188.241702 
L 245.453717 188.241702 
L 245.563493 190.003322 
L 245.72767 190.380812 
L 245.892212 190.317897 
L 246.001745 189.500002 
L 246.165801 189.311257 
L 246.330221 189.311257 
L 246.439754 191.072877 
L 246.603931 191.450368 
L 246.768473 191.450368 
L 246.878006 189.688747 
L 247.041939 189.311257 
L 247.206725 189.248342 
L 247.316136 188.430447 
L 247.48007 188.241702 
L 247.64449 188.241702 
L 247.754266 190.884132 
L 247.918322 191.450368 
L 248.520873 191.450368 
L 248.630649 193.652393 
L 248.794582 194.124255 
L 248.959003 194.124255 
L 249.068779 195.885876 
L 249.232591 196.263366 
L 249.397133 196.263366 
M 283.699327 196.043163 
L 283.827359 195.728588 
L 284.009913 195.634215 
L 284.119567 194.407373 
L 284.283501 194.124255 
L 284.88593 194.124255 
L 284.995828 186.637369 
L 285.15964 185.033037 
L 285.324425 184.938664 
L 285.433958 183.711822 
L 285.598013 183.428704 
L 285.762312 183.428704 
L 285.872088 181.667084 
L 286.036144 181.289594 
L 286.200564 181.289594 
L 286.310219 177.766353 
L 286.474152 177.011373 
L 286.638451 177.011373 
L 286.748471 175.249753 
L 286.912283 174.872263 
L 287.076947 174.777891 
L 287.186479 173.551048 
L 287.350413 173.26793 
L 287.514834 173.26793 
L 287.624488 171.50631 
L 287.788665 171.12882 
L 287.952964 171.12882 
L 288.062618 166.72477 
L 288.226795 165.781044 
L 288.391338 165.686672 
L 288.500748 164.459829 
L 288.664804 164.176712 
L 288.847115 164.082339 
L 288.956769 163.673392 
L 289.102812 163.641934 
L 289.267476 163.641934 
L 289.377252 166.72477 
L 289.540943 167.385377 
L 289.705607 167.448292 
L 289.815383 168.266187 
L 289.979316 168.454932 
L 290.143494 168.454932 
L 290.25327 171.978173 
L 290.417325 172.733153 
L 290.581746 172.733153 
L 290.691522 175.815988 
L 290.855577 176.476596 
L 291.019876 176.476596 
L 291.129652 180.440241 
L 291.293707 181.289594 
L 291.458128 181.289594 
L 291.567782 183.051214 
L 291.731716 183.428704 
L 291.896258 183.428704 
L 292.005912 187.39235 
L 292.169968 188.241702 
L 292.334388 188.304617 
L 292.444164 189.122512 
L 292.608098 189.311257 
L 292.772397 189.311257 
L 292.882173 192.834498 
L 293.046107 193.589478 
L 293.210649 193.589478 
L 293.320425 195.351098 
L 293.484359 195.728588 
L 293.648658 195.728588 
L 293.649144 196.231908 
L 293.649144 196.231908 
" clip-path="url(#p7a01d10e28)" style="fill: none; stroke: #ff0000; stroke-width: 1.5; stroke-linecap: square"/>
   </g>
   <g id="LineCollection_1">
    <path d="M 73.832727 276.48 
L 73.832727 41.472 
" clip-path="url(#p7a01d10e28)" style="fill: none; stroke-dasharray: 5.55,2.4; stroke-dashoffset: 0; stroke: #000000; stroke-width: 1.5"/>
   </g>
   <g id="LineCollection_2">
    <path d="M 115.016975 276.48 
L 115.016975 41.472 
" clip-path="url(#p7a01d10e28)" style="fill: none; stroke-dasharray: 5.55,2.4; stroke-dashoffset: 0; stroke: #000000; stroke-width: 1.5"/>
   </g>
   <g id="LineCollection_3">
    <path d="M 285.449658 276.48 
L 285.449658 41.472 
" clip-path="url(#p7a01d10e28)" style="fill: none; stroke-dasharray: 5.55,2.4; stroke-dashoffset: 0; stroke: #000000; stroke-width: 1.5"/>
   </g>
   <g id="LineCollection_4">
    <path d="M 398.487273 276.48 
L 398.487273 41.472 
" clip-path="url(#p7a01d10e28)" style="fill: none; stroke-dasharray: 5.55,2.4; stroke-dashoffset: 0; stroke: #000000; stroke-width: 1.5"/>
   </g>
   <g id="patch_3">
    <path d="M 57.6 276.48 
L 57.6 41.472 
" style="fill: none; stroke: #000000; stroke-width: 0.8; stroke-linejoin: miter; stroke-linecap: square"/>
   </g>
   <g id="patch_4">
    <path d="M 414.72 276.48 
L 414.72 41.472 
" style="fill: none; stroke: #000000; stroke-width: 0.8; stroke-linejoin: miter; stroke-linecap: square"/>
   </g>
   <g id="patch_5">
    <path d="M 57.6 276.48 
L 414.72 276.48 
" style="fill: none; stroke: #000000; stroke-width: 0.8; stroke-linejoin: miter; stroke-linecap: square"/>
   </g>
   <g id="patch_6">
    <path d="M 57.6 41.472 
L 414.72 41.472 
" style="fill: none; stroke: #000000; stroke-width: 0.8; stroke-linejoin: miter; stroke-linecap: square"/>
   </g>
   <g id="text_20">
    <!-- sensor @ ground floor office -->
    <g transform="translate(71.75304 265.188862) rotate(-90) scale(0.1 -0.1)">
     <defs>
      <path id="DejaVuSans-73" d="M 2834 3397 
L 2834 2853 
Q 2591 2978 2328 3040 
Q 2066 3103 1784 3103 
Q 1356 3103 1142 2972 
Q 928 2841 928 2578 
Q 928 2378 1081 2264 
Q 1234 2150 1697 2047 
L 1894 2003 
Q 2506 1872 2764 1633 
Q 3022 1394 3022 966 
Q 3022 478 2636 193 
Q 2250 -91 1575 -91 
Q 1294 -91 989 -36 
Q 684 19 347 128 
L 347 722 
Q 666 556 975 473 
Q 1284 391 1588 391 
Q 1994 391 2212 530 
Q 2431 669 2431 922 
Q 2431 1156 2273 1281 
Q 2116 1406 1581 1522 
L 1381 1569 
Q 847 1681 609 1914 
Q 372 2147 372 2553 
Q 372 3047 722 3315 
Q 1072 3584 1716 3584 
Q 2034 3584 2315 3537 
Q 2597 3491 2834 3397 
z
" transform="scale(0.015625)"/>
      <path id="DejaVuSans-6f" d="M 1959 3097 
Q 1497 3097 1228 2736 
Q 959 2375 959 1747 
Q 959 1119 1226 758 
Q 1494 397 1959 397 
Q 2419 397 2687 759 
Q 2956 1122 2956 1747 
Q 2956 2369 2687 2733 
Q 2419 3097 1959 3097 
z
M 1959 3584 
Q 2709 3584 3137 3096 
Q 3566 2609 3566 1747 
Q 3566 888 3137 398 
Q 2709 -91 1959 -91 
Q 1206 -91 779 398 
Q 353 888 353 1747 
Q 353 2609 779 3096 
Q 1206 3584 1959 3584 
z
" transform="scale(0.015625)"/>
      <path id="DejaVuSans-72" d="M 2631 2963 
Q 2534 3019 2420 3045 
Q 2306 3072 2169 3072 
Q 1681 3072 1420 2755 
Q 1159 2438 1159 1844 
L 1159 0 
L 581 0 
L 581 3500 
L 1159 3500 
L 1159 2956 
Q 1341 3275 1631 3429 
Q 1922 3584 2338 3584 
Q 2397 3584 2469 3576 
Q 2541 3569 2628 3553 
L 2631 2963 
z
" transform="scale(0.015625)"/>
      <path id="DejaVuSans-40" d="M 2381 1678 
Q 2381 1231 2603 976 
Q 2825 722 3213 722 
Q 3597 722 3817 978 
Q 4038 1234 4038 1678 
Q 4038 2116 3813 2373 
Q 3588 2631 3206 2631 
Q 2828 2631 2604 2375 
Q 2381 2119 2381 1678 
z
M 4084 744 
Q 3897 503 3655 389 
Q 3413 275 3091 275 
Q 2553 275 2217 664 
Q 1881 1053 1881 1678 
Q 1881 2303 2218 2693 
Q 2556 3084 3091 3084 
Q 3413 3084 3656 2967 
Q 3900 2850 4084 2613 
L 4084 3022 
L 4531 3022 
L 4531 722 
Q 4988 791 5245 1139 
Q 5503 1488 5503 2041 
Q 5503 2375 5404 2669 
Q 5306 2963 5106 3213 
Q 4781 3622 4314 3839 
Q 3847 4056 3297 4056 
Q 2913 4056 2559 3954 
Q 2206 3853 1906 3653 
Q 1416 3334 1139 2817 
Q 863 2300 863 1697 
Q 863 1200 1042 765 
Q 1222 331 1563 0 
Q 1891 -325 2322 -495 
Q 2753 -666 3244 -666 
Q 3647 -666 4036 -530 
Q 4425 -394 4750 -141 
L 5031 -488 
Q 4641 -791 4180 -952 
Q 3719 -1113 3244 -1113 
Q 2666 -1113 2153 -908 
Q 1641 -703 1241 -313 
Q 841 78 631 592 
Q 422 1106 422 1697 
Q 422 2266 634 2781 
Q 847 3297 1241 3688 
Q 1644 4084 2172 4295 
Q 2700 4506 3291 4506 
Q 3953 4506 4520 4234 
Q 5088 3963 5472 3463 
Q 5706 3156 5829 2797 
Q 5953 2438 5953 2053 
Q 5953 1231 5456 756 
Q 4959 281 4084 263 
L 4084 744 
z
" transform="scale(0.015625)"/>
      <path id="DejaVuSans-67" d="M 2906 1791 
Q 2906 2416 2648 2759 
Q 2391 3103 1925 3103 
Q 1463 3103 1205 2759 
Q 947 2416 947 1791 
Q 947 1169 1205 825 
Q 1463 481 1925 481 
Q 2391 481 2648 825 
Q 2906 1169 2906 1791 
z
M 3481 434 
Q 3481 -459 3084 -895 
Q 2688 -1331 1869 -1331 
Q 1566 -1331 1297 -1286 
Q 1028 -1241 775 -1147 
L 775 -588 
Q 1028 -725 1275 -790 
Q 1522 -856 1778 -856 
Q 2344 -856 2625 -561 
Q 2906 -266 2906 331 
L 2906 616 
Q 2728 306 2450 153 
Q 2172 0 1784 0 
Q 1141 0 747 490 
Q 353 981 353 1791 
Q 353 2603 747 3093 
Q 1141 3584 1784 3584 
Q 2172 3584 2450 3431 
Q 2728 3278 2906 2969 
L 2906 3500 
L 3481 3500 
L 3481 434 
z
" transform="scale(0.015625)"/>
      <path id="DejaVuSans-75" d="M 544 1381 
L 544 3500 
L 1119 3500 
L 1119 1403 
Q 1119 906 1312 657 
Q 1506 409 1894 409 
Q 2359 409 2629 706 
Q 2900 1003 2900 1516 
L 2900 3500 
L 3475 3500 
L 3475 0 
L 2900 0 
L 2900 538 
Q 2691 219 2414 64 
Q 2138 -91 1772 -91 
Q 1169 -91 856 284 
Q 544 659 544 1381 
z
M 1991 3584 
L 1991 3584 
z
" transform="scale(0.015625)"/>
      <path id="DejaVuSans-64" d="M 2906 2969 
L 2906 4863 
L 3481 4863 
L 3481 0 
L 2906 0 
L 2906 525 
Q 2725 213 2448 61 
Q 2172 -91 1784 -91 
Q 1150 -91 751 415 
Q 353 922 353 1747 
Q 353 2572 751 3078 
Q 1150 3584 1784 3584 
Q 2172 3584 2448 3432 
Q 2725 3281 2906 2969 
z
M 947 1747 
Q 947 1113 1208 752 
Q 1469 391 1925 391 
Q 2381 391 2643 752 
Q 2906 1113 2906 1747 
Q 2906 2381 2643 2742 
Q 2381 3103 1925 3103 
Q 1469 3103 1208 2742 
Q 947 2381 947 1747 
z
" transform="scale(0.015625)"/>
      <path id="DejaVuSans-66" d="M 2375 4863 
L 2375 4384 
L 1825 4384 
Q 1516 4384 1395 4259 
Q 1275 4134 1275 3809 
L 1275 3500 
L 2222 3500 
L 2222 3053 
L 1275 3053 
L 1275 0 
L 697 0 
L 697 3053 
L 147 3053 
L 147 3500 
L 697 3500 
L 697 3744 
Q 697 4328 969 4595 
Q 1241 4863 1831 4863 
L 2375 4863 
z
" transform="scale(0.015625)"/>
      <path id="DejaVuSans-6c" d="M 603 4863 
L 1178 4863 
L 1178 0 
L 603 0 
L 603 4863 
z
" transform="scale(0.015625)"/>
      <path id="DejaVuSans-69" d="M 603 3500 
L 1178 3500 
L 1178 0 
L 603 0 
L 603 3500 
z
M 603 4863 
L 1178 4863 
L 1178 4134 
L 603 4134 
L 603 4863 
z
" transform="scale(0.015625)"/>
      <path id="DejaVuSans-63" d="M 3122 3366 
L 3122 2828 
Q 2878 2963 2633 3030 
Q 2388 3097 2138 3097 
Q 1578 3097 1268 2742 
Q 959 2388 959 1747 
Q 959 1106 1268 751 
Q 1578 397 2138 397 
Q 2388 397 2633 464 
Q 2878 531 3122 666 
L 3122 134 
Q 2881 22 2623 -34 
Q 2366 -91 2075 -91 
Q 1284 -91 818 406 
Q 353 903 353 1747 
Q 353 2603 823 3093 
Q 1294 3584 2113 3584 
Q 2378 3584 2631 3529 
Q 2884 3475 3122 3366 
z
" transform="scale(0.015625)"/>
     </defs>
     <use xlink:href="#DejaVuSans-73"/>
     <use xlink:href="#DejaVuSans-65" x="52.099609"/>
     <use xlink:href="#DejaVuSans-6e" x="113.623047"/>
     <use xlink:href="#DejaVuSans-73" x="177.001953"/>
     <use xlink:href="#DejaVuSans-6f" x="229.101562"/>
     <use xlink:href="#DejaVuSans-72" x="290.283203"/>
     <use xlink:href="#DejaVuSans-20" x="331.396484"/>
     <use xlink:href="#DejaVuSans-40" x="363.183594"/>
     <use xlink:href="#DejaVuSans-20" x="463.183594"/>
     <use xlink:href="#DejaVuSans-67" x="494.970703"/>
     <use xlink:href="#DejaVuSans-72" x="558.447266"/>
     <use xlink:href="#DejaVuSans-6f" x="597.310547"/>
     <use xlink:href="#DejaVuSans-75" x="658.492188"/>
     <use xlink:href="#DejaVuSans-6e" x="721.871094"/>
     <use xlink:href="#DejaVuSans-64" x="785.25"/>
     <use xlink:href="#DejaVuSans-20" x="848.726562"/>
     <use xlink:href="#DejaVuSans-66" x="880.513672"/>
     <use xlink:href="#DejaVuSans-6c" x="915.71875"/>
     <use xlink:href="#DejaVuSans-6f" x="943.501953"/>
     <use xlink:href="#DejaVuSans-6f" x="1004.683594"/>
     <use xlink:href="#DejaVuSans-72" x="1065.865234"/>
     <use xlink:href="#DejaVuSans-20" x="1106.978516"/>
     <use xlink:href="#DejaVuSans-6f" x="1138.765625"/>
     <use xlink:href="#DejaVuSans-66" x="1199.947266"/>
     <use xlink:href="#DejaVuSans-66" x="1235.152344"/>
     <use xlink:href="#DejaVuSans-69" x="1270.357422"/>
     <use xlink:href="#DejaVuSans-63" x="1298.140625"/>
     <use xlink:href="#DejaVuSans-65" x="1353.121094"/>
    </g>
   </g>
   <g id="text_21">
    <!-- pipe install and dinky fan on -->
    <g transform="translate(112.937287 265.240425) rotate(-90) scale(0.1 -0.1)">
     <defs>
      <path id="DejaVuSans-70" d="M 1159 525 
L 1159 -1331 
L 581 -1331 
L 581 3500 
L 1159 3500 
L 1159 2969 
Q 1341 3281 1617 3432 
Q 1894 3584 2278 3584 
Q 2916 3584 3314 3078 
Q 3713 2572 3713 1747 
Q 3713 922 3314 415 
Q 2916 -91 2278 -91 
Q 1894 -91 1617 61 
Q 1341 213 1159 525 
z
M 3116 1747 
Q 3116 2381 2855 2742 
Q 2594 3103 2138 3103 
Q 1681 3103 1420 2742 
Q 1159 2381 1159 1747 
Q 1159 1113 1420 752 
Q 1681 391 2138 391 
Q 2594 391 2855 752 
Q 3116 1113 3116 1747 
z
" transform="scale(0.015625)"/>
      <path id="DejaVuSans-74" d="M 1172 4494 
L 1172 3500 
L 2356 3500 
L 2356 3053 
L 1172 3053 
L 1172 1153 
Q 1172 725 1289 603 
Q 1406 481 1766 481 
L 2356 481 
L 2356 0 
L 1766 0 
Q 1100 0 847 248 
Q 594 497 594 1153 
L 594 3053 
L 172 3053 
L 172 3500 
L 594 3500 
L 594 4494 
L 1172 4494 
z
" transform="scale(0.015625)"/>
      <path id="DejaVuSans-61" d="M 2194 1759 
Q 1497 1759 1228 1600 
Q 959 1441 959 1056 
Q 959 750 1161 570 
Q 1363 391 1709 391 
Q 2188 391 2477 730 
Q 2766 1069 2766 1631 
L 2766 1759 
L 2194 1759 
z
M 3341 1997 
L 3341 0 
L 2766 0 
L 2766 531 
Q 2569 213 2275 61 
Q 1981 -91 1556 -91 
Q 1019 -91 701 211 
Q 384 513 384 1019 
Q 384 1609 779 1909 
Q 1175 2209 1959 2209 
L 2766 2209 
L 2766 2266 
Q 2766 2663 2505 2880 
Q 2244 3097 1772 3097 
Q 1472 3097 1187 3025 
Q 903 2953 641 2809 
L 641 3341 
Q 956 3463 1253 3523 
Q 1550 3584 1831 3584 
Q 2591 3584 2966 3190 
Q 3341 2797 3341 1997 
z
" transform="scale(0.015625)"/>
      <path id="DejaVuSans-6b" d="M 581 4863 
L 1159 4863 
L 1159 1991 
L 2875 3500 
L 3609 3500 
L 1753 1863 
L 3688 0 
L 2938 0 
L 1159 1709 
L 1159 0 
L 581 0 
L 581 4863 
z
" transform="scale(0.015625)"/>
      <path id="DejaVuSans-79" d="M 2059 -325 
Q 1816 -950 1584 -1140 
Q 1353 -1331 966 -1331 
L 506 -1331 
L 506 -850 
L 844 -850 
Q 1081 -850 1212 -737 
Q 1344 -625 1503 -206 
L 1606 56 
L 191 3500 
L 800 3500 
L 1894 763 
L 2988 3500 
L 3597 3500 
L 2059 -325 
z
" transform="scale(0.015625)"/>
     </defs>
     <use xlink:href="#DejaVuSans-70"/>
     <use xlink:href="#DejaVuSans-69" x="63.476562"/>
     <use xlink:href="#DejaVuSans-70" x="91.259766"/>
     <use xlink:href="#DejaVuSans-65" x="154.736328"/>
     <use xlink:href="#DejaVuSans-20" x="216.259766"/>
     <use xlink:href="#DejaVuSans-69" x="248.046875"/>
     <use xlink:href="#DejaVuSans-6e" x="275.830078"/>
     <use xlink:href="#DejaVuSans-73" x="339.208984"/>
     <use xlink:href="#DejaVuSans-74" x="391.308594"/>
     <use xlink:href="#DejaVuSans-61" x="430.517578"/>
     <use xlink:href="#DejaVuSans-6c" x="491.796875"/>
     <use xlink:href="#DejaVuSans-6c" x="519.580078"/>
     <use xlink:href="#DejaVuSans-20" x="547.363281"/>
     <use xlink:href="#DejaVuSans-61" x="579.150391"/>
     <use xlink:href="#DejaVuSans-6e" x="640.429688"/>
     <use xlink:href="#DejaVuSans-64" x="703.808594"/>
     <use xlink:href="#DejaVuSans-20" x="767.285156"/>
     <use xlink:href="#DejaVuSans-64" x="799.072266"/>
     <use xlink:href="#DejaVuSans-69" x="862.548828"/>
     <use xlink:href="#DejaVuSans-6e" x="890.332031"/>
     <use xlink:href="#DejaVuSans-6b" x="953.710938"/>
     <use xlink:href="#DejaVuSans-79" x="1007.996094"/>
     <use xlink:href="#DejaVuSans-20" x="1067.175781"/>
     <use xlink:href="#DejaVuSans-66" x="1098.962891"/>
     <use xlink:href="#DejaVuSans-61" x="1134.167969"/>
     <use xlink:href="#DejaVuSans-6e" x="1195.447266"/>
     <use xlink:href="#DejaVuSans-20" x="1258.826172"/>
     <use xlink:href="#DejaVuSans-6f" x="1290.613281"/>
     <use xlink:href="#DejaVuSans-6e" x="1351.794922"/>
    </g>
   </g>
   <g id="text_22">
    <!-- big fan swapped in -->
    <g transform="translate(283.36997 159.7978) rotate(-90) scale(0.1 -0.1)">
     <defs>
      <path id="DejaVuSans-62" d="M 3116 1747 
Q 3116 2381 2855 2742 
Q 2594 3103 2138 3103 
Q 1681 3103 1420 2742 
Q 1159 2381 1159 1747 
Q 1159 1113 1420 752 
Q 1681 391 2138 391 
Q 2594 391 2855 752 
Q 3116 1113 3116 1747 
z
M 1159 2969 
Q 1341 3281 1617 3432 
Q 1894 3584 2278 3584 
Q 2916 3584 3314 3078 
Q 3713 2572 3713 1747 
Q 3713 922 3314 415 
Q 2916 -91 2278 -91 
Q 1894 -91 1617 61 
Q 1341 213 1159 525 
L 1159 0 
L 581 0 
L 581 4863 
L 1159 4863 
L 1159 2969 
z
" transform="scale(0.015625)"/>
      <path id="DejaVuSans-77" d="M 269 3500 
L 844 3500 
L 1563 769 
L 2278 3500 
L 2956 3500 
L 3675 769 
L 4391 3500 
L 4966 3500 
L 4050 0 
L 3372 0 
L 2619 2869 
L 1863 0 
L 1184 0 
L 269 3500 
z
" transform="scale(0.015625)"/>
     </defs>
     <use xlink:href="#DejaVuSans-62"/>
     <use xlink:href="#DejaVuSans-69" x="63.476562"/>
     <use xlink:href="#DejaVuSans-67" x="91.259766"/>
     <use xlink:href="#DejaVuSans-20" x="154.736328"/>
     <use xlink:href="#DejaVuSans-66" x="186.523438"/>
     <use xlink:href="#DejaVuSans-61" x="221.728516"/>
     <use xlink:href="#DejaVuSans-6e" x="283.007812"/>
     <use xlink:href="#DejaVuSans-20" x="346.386719"/>
     <use xlink:href="#DejaVuSans-73" x="378.173828"/>
     <use xlink:href="#DejaVuSans-77" x="430.273438"/>
     <use xlink:href="#DejaVuSans-61" x="512.060547"/>
     <use xlink:href="#DejaVuSans-70" x="573.339844"/>
     <use xlink:href="#DejaVuSans-70" x="636.816406"/>
     <use xlink:href="#DejaVuSans-65" x="700.292969"/>
     <use xlink:href="#DejaVuSans-64" x="761.816406"/>
     <use xlink:href="#DejaVuSans-20" x="825.292969"/>
     <use xlink:href="#DejaVuSans-69" x="857.080078"/>
     <use xlink:href="#DejaVuSans-6e" x="884.863281"/>
    </g>
   </g>
   <g id="text_23">
    <!-- sensor @ basement desk -->
    <g transform="translate(396.407585 249.890425) rotate(-90) scale(0.1 -0.1)">
     <use xlink:href="#DejaVuSans-73"/>
     <use xlink:href="#DejaVuSans-65" x="52.099609"/>
     <use xlink:href="#DejaVuSans-6e" x="113.623047"/>
     <use xlink:href="#DejaVuSans-73" x="177.001953"/>
     <use xlink:href="#DejaVuSans-6f" x="229.101562"/>
     <use xlink:href="#DejaVuSans-72" x="290.283203"/>
     <use xlink:href="#DejaVuSans-20" x="331.396484"/>
     <use xlink:href="#DejaVuSans-40" x="363.183594"/>
     <use xlink:href="#DejaVuSans-20" x="463.183594"/>
     <use xlink:href="#DejaVuSans-62" x="494.970703"/>
     <use xlink:href="#DejaVuSans-61" x="558.447266"/>
     <use xlink:href="#DejaVuSans-73" x="619.726562"/>
     <use xlink:href="#DejaVuSans-65" x="671.826172"/>
     <use xlink:href="#DejaVuSans-6d" x="733.349609"/>
     <use xlink:href="#DejaVuSans-65" x="830.761719"/>
     <use xlink:href="#DejaVuSans-6e" x="892.285156"/>
     <use xlink:href="#DejaVuSans-74" x="955.664062"/>
     <use xlink:href="#DejaVuSans-20" x="994.873047"/>
     <use xlink:href="#DejaVuSans-64" x="1026.660156"/>
     <use xlink:href="#DejaVuSans-65" x="1090.136719"/>
     <use xlink:href="#DejaVuSans-73" x="1151.660156"/>
     <use xlink:href="#DejaVuSans-6b" x="1203.759766"/>
    </g>
   </g>
   <g id="text_24">
    <!-- Radon in 2808 -->
    <g transform="translate(192.613125 35.472) scale(0.12 -0.12)">
     <defs>
      <path id="DejaVuSans-38" d="M 2034 2216 
Q 1584 2216 1326 1975 
Q 1069 1734 1069 1313 
Q 1069 891 1326 650 
Q 1584 409 2034 409 
Q 2484 409 2743 651 
Q 3003 894 3003 1313 
Q 3003 1734 2745 1975 
Q 2488 2216 2034 2216 
z
M 1403 2484 
Q 997 2584 770 2862 
Q 544 3141 544 3541 
Q 544 4100 942 4425 
Q 1341 4750 2034 4750 
Q 2731 4750 3128 4425 
Q 3525 4100 3525 3541 
Q 3525 3141 3298 2862 
Q 3072 2584 2669 2484 
Q 3125 2378 3379 2068 
Q 3634 1759 3634 1313 
Q 3634 634 3220 271 
Q 2806 -91 2034 -91 
Q 1263 -91 848 271 
Q 434 634 434 1313 
Q 434 1759 690 2068 
Q 947 2378 1403 2484 
z
M 1172 3481 
Q 1172 3119 1398 2916 
Q 1625 2713 2034 2713 
Q 2441 2713 2670 2916 
Q 2900 3119 2900 3481 
Q 2900 3844 2670 4047 
Q 2441 4250 2034 4250 
Q 1625 4250 1398 4047 
Q 1172 3844 1172 3481 
z
" transform="scale(0.015625)"/>
     </defs>
     <use xlink:href="#DejaVuSans-52"/>
     <use xlink:href="#DejaVuSans-61" x="67.232422"/>
     <use xlink:href="#DejaVuSans-64" x="128.511719"/>
     <use xlink:href="#DejaVuSans-6f" x="191.988281"/>
     <use xlink:href="#DejaVuSans-6e" x="253.169922"/>
     <use xlink:href="#DejaVuSans-20" x="316.548828"/>
     <use xlink:href="#DejaVuSans-69" x="348.335938"/>
     <use xlink:href="#DejaVuSans-6e" x="376.119141"/>
     <use xlink:href="#DejaVuSans-20" x="439.498047"/>
     <use xlink:href="#DejaVuSans-32" x="471.285156"/>
     <use xlink:href="#DejaVuSans-38" x="534.908203"/>
     <use xlink:href="#DejaVuSans-30" x="598.53125"/>
     <use xlink:href="#DejaVuSans-38" x="662.154297"/>
    </g>
   </g>
   <g id="legend_1">
    <g id="patch_7">
     <path d="M 350.785625 93.506375 
L 407.72 93.506375 
Q 409.72 93.506375 409.72 91.506375 
L 409.72 48.472 
Q 409.72 46.472 407.72 46.472 
L 350.785625 46.472 
Q 348.785625 46.472 348.785625 48.472 
L 348.785625 91.506375 
Q 348.785625 93.506375 350.785625 93.506375 
z
" style="fill: #ffffff; opacity: 0.8; stroke: #cccccc; stroke-linejoin: miter"/>
    </g>
    <g id="line2d_38">
     <path d="M 352.785625 54.570437 
L 362.785625 54.570437 
L 372.785625 54.570437 
" style="fill: none; stroke: #008000; stroke-width: 1.5; stroke-linecap: square"/>
    </g>
    <g id="text_25">
     <!-- good -->
     <g transform="translate(380.785625 58.070437) scale(0.1 -0.1)">
      <use xlink:href="#DejaVuSans-67"/>
      <use xlink:href="#DejaVuSans-6f" x="63.476562"/>
      <use xlink:href="#DejaVuSans-6f" x="124.658203"/>
      <use xlink:href="#DejaVuSans-64" x="185.839844"/>
     </g>
    </g>
    <g id="line2d_39">
     <path d="M 352.785625 69.248562 
L 362.785625 69.248562 
L 372.785625 69.248562 
" style="fill: none; stroke: #ffff00; stroke-width: 1.5; stroke-linecap: square"/>
    </g>
    <g id="text_26">
     <!-- bad -->
     <g transform="translate(380.785625 72.748562) scale(0.1 -0.1)">
      <use xlink:href="#DejaVuSans-62"/>
      <use xlink:href="#DejaVuSans-61" x="63.476562"/>
      <use xlink:href="#DejaVuSans-64" x="124.755859"/>
     </g>
    </g>
    <g id="line2d_40">
     <path d="M 352.785625 83.926687 
L 362.785625 83.926687 
L 372.785625 83.926687 
" style="fill: none; stroke: #ff0000; stroke-width: 1.5; stroke-linecap: square"/>
    </g>
    <g id="text_27">
     <!-- ugly -->
     <g transform="translate(380.785625 87.426687) scale(0.1 -0.1)">
      <use xlink:href="#DejaVuSans-75"/>
      <use xlink:href="#DejaVuSans-67" x="63.378906"/>
      <use xlink:href="#DejaVuSans-6c" x="126.855469"/>
      <use xlink:href="#DejaVuSans-79" x="154.638672"/>
     </g>
    </g>
   </g>
  </g>
 </g>
 <defs>
  <clipPath id="p7a01d10e28">
   <rect x="57.6" y="41.472" width="357.12" height="235.008"/>
  </clipPath>
 </defs>
</svg>
