<?xml version="1.0" encoding="utf-8" standalone="no"?>
<!DOCTYPE svg PUBLIC "-//W3C//DTD SVG 1.1//EN"
  "http://www.w3.org/Graphics/SVG/1.1/DTD/svg11.dtd">
<svg xmlns:xlink="http://www.w3.org/1999/xlink" width="460.8pt" height="345.6pt" viewBox="0 0 460.8 345.6" xmlns="http://www.w3.org/2000/svg" version="1.1">
 <metadata>
  <rdf:RDF xmlns:dc="http://purl.org/dc/elements/1.1/" xmlns:cc="http://creativecommons.org/ns#" xmlns:rdf="http://www.w3.org/1999/02/22-rdf-syntax-ns#">
   <cc:Work>
    <dc:type rdf:resource="http://purl.org/dc/dcmitype/StillImage"/>
    <dc:date>2024-10-26T15:46:32.079382</dc:date>
    <dc:format>image/svg+xml</dc:format>
    <dc:creator>
     <cc:Agent>
      <dc:title>Matplotlib v3.9.2, https://matplotlib.org/</dc:title>
     </cc:Agent>
    </dc:creator>
   </cc:Work>
  </rdf:RDF>
 </metadata>
 <defs>
  <style type="text/css">*{stroke-linejoin: round; stroke-linecap: butt}</style>
 </defs>
 <g id="figure_1">
  <g id="patch_1">
   <path d="M 0 345.6 
L 460.8 345.6 
L 460.8 0 
L 0 0 
z
" style="fill: #ffffff"/>
  </g>
  <g id="axes_1">
   <g id="patch_2">
    <path d="M 57.6 276.48 
L 414.72 276.48 
L 414.72 41.472 
L 57.6 41.472 
z
" style="fill: #c0c0c0"/>
   </g>
   <g id="matplotlib.axis_1">
    <g id="xtick_1">
     <g id="line2d_1">
      <path d="M 101.492646 276.48 
L 101.492646 41.472 
" clip-path="url(#p4f83480632)" style="fill: none; stroke: #ffffff; stroke-width: 0.8; stroke-linecap: square"/>
     </g>
     <g id="line2d_2">
      <defs>
       <path id="m227d2b3f76" d="M 0 0 
L 0 3.5 
" style="stroke: #000000; stroke-width: 0.8"/>
      </defs>
      <g>
       <use xlink:href="#m227d2b3f76" x="101.492646" y="276.48" style="stroke: #000000; stroke-width: 0.8"/>
      </g>
     </g>
     <g id="text_1">
      <!-- 2024-10-13 -->
      <g transform="translate(50.123195 319.118252) rotate(-30) scale(0.1 -0.1)">
       <defs>
        <path id="DejaVuSans-32" d="M 1228 531 
L 3431 531 
L 3431 0 
L 469 0 
L 469 531 
Q 828 903 1448 1529 
Q 2069 2156 2228 2338 
Q 2531 2678 2651 2914 
Q 2772 3150 2772 3378 
Q 2772 3750 2511 3984 
Q 2250 4219 1831 4219 
Q 1534 4219 1204 4116 
Q 875 4013 500 3803 
L 500 4441 
Q 881 4594 1212 4672 
Q 1544 4750 1819 4750 
Q 2544 4750 2975 4387 
Q 3406 4025 3406 3419 
Q 3406 3131 3298 2873 
Q 3191 2616 2906 2266 
Q 2828 2175 2409 1742 
Q 1991 1309 1228 531 
z
" transform="scale(0.015625)"/>
        <path id="DejaVuSans-30" d="M 2034 4250 
Q 1547 4250 1301 3770 
Q 1056 3291 1056 2328 
Q 1056 1369 1301 889 
Q 1547 409 2034 409 
Q 2525 409 2770 889 
Q 3016 1369 3016 2328 
Q 3016 3291 2770 3770 
Q 2525 4250 2034 4250 
z
M 2034 4750 
Q 2819 4750 3233 4129 
Q 3647 3509 3647 2328 
Q 3647 1150 3233 529 
Q 2819 -91 2034 -91 
Q 1250 -91 836 529 
Q 422 1150 422 2328 
Q 422 3509 836 4129 
Q 1250 4750 2034 4750 
z
" transform="scale(0.015625)"/>
        <path id="DejaVuSans-34" d="M 2419 4116 
L 825 1625 
L 2419 1625 
L 2419 4116 
z
M 2253 4666 
L 3047 4666 
L 3047 1625 
L 3713 1625 
L 3713 1100 
L 3047 1100 
L 3047 0 
L 2419 0 
L 2419 1100 
L 313 1100 
L 313 1709 
L 2253 4666 
z
" transform="scale(0.015625)"/>
        <path id="DejaVuSans-2d" d="M 313 2009 
L 1997 2009 
L 1997 1497 
L 313 1497 
L 313 2009 
z
" transform="scale(0.015625)"/>
        <path id="DejaVuSans-31" d="M 794 531 
L 1825 531 
L 1825 4091 
L 703 3866 
L 703 4441 
L 1819 4666 
L 2450 4666 
L 2450 531 
L 3481 531 
L 3481 0 
L 794 0 
L 794 531 
z
" transform="scale(0.015625)"/>
        <path id="DejaVuSans-33" d="M 2597 2516 
Q 3050 2419 3304 2112 
Q 3559 1806 3559 1356 
Q 3559 666 3084 287 
Q 2609 -91 1734 -91 
Q 1441 -91 1130 -33 
Q 819 25 488 141 
L 488 750 
Q 750 597 1062 519 
Q 1375 441 1716 441 
Q 2309 441 2620 675 
Q 2931 909 2931 1356 
Q 2931 1769 2642 2001 
Q 2353 2234 1838 2234 
L 1294 2234 
L 1294 2753 
L 1863 2753 
Q 2328 2753 2575 2939 
Q 2822 3125 2822 3475 
Q 2822 3834 2567 4026 
Q 2313 4219 1838 4219 
Q 1578 4219 1281 4162 
Q 984 4106 628 3988 
L 628 4550 
Q 988 4650 1302 4700 
Q 1616 4750 1894 4750 
Q 2613 4750 3031 4423 
Q 3450 4097 3450 3541 
Q 3450 3153 3228 2886 
Q 3006 2619 2597 2516 
z
" transform="scale(0.015625)"/>
       </defs>
       <use xlink:href="#DejaVuSans-32"/>
       <use xlink:href="#DejaVuSans-30" x="63.623047"/>
       <use xlink:href="#DejaVuSans-32" x="127.246094"/>
       <use xlink:href="#DejaVuSans-34" x="190.869141"/>
       <use xlink:href="#DejaVuSans-2d" x="254.492188"/>
       <use xlink:href="#DejaVuSans-31" x="290.576172"/>
       <use xlink:href="#DejaVuSans-30" x="354.199219"/>
       <use xlink:href="#DejaVuSans-2d" x="417.822266"/>
       <use xlink:href="#DejaVuSans-31" x="453.90625"/>
       <use xlink:href="#DejaVuSans-33" x="517.529297"/>
      </g>
     </g>
    </g>
    <g id="xtick_2">
     <g id="line2d_3">
      <path d="M 145.81048 276.48 
L 145.81048 41.472 
" clip-path="url(#p4f83480632)" style="fill: none; stroke: #ffffff; stroke-width: 0.8; stroke-linecap: square"/>
     </g>
     <g id="line2d_4">
      <g>
       <use xlink:href="#m227d2b3f76" x="145.81048" y="276.48" style="stroke: #000000; stroke-width: 0.8"/>
      </g>
     </g>
     <g id="text_2">
      <!-- 2024-10-15 -->
      <g transform="translate(94.441028 319.118252) rotate(-30) scale(0.1 -0.1)">
       <defs>
        <path id="DejaVuSans-35" d="M 691 4666 
L 3169 4666 
L 3169 4134 
L 1269 4134 
L 1269 2991 
Q 1406 3038 1543 3061 
Q 1681 3084 1819 3084 
Q 2600 3084 3056 2656 
Q 3513 2228 3513 1497 
Q 3513 744 3044 326 
Q 2575 -91 1722 -91 
Q 1428 -91 1123 -41 
Q 819 9 494 109 
L 494 744 
Q 775 591 1075 516 
Q 1375 441 1709 441 
Q 2250 441 2565 725 
Q 2881 1009 2881 1497 
Q 2881 1984 2565 2268 
Q 2250 2553 1709 2553 
Q 1456 2553 1204 2497 
Q 953 2441 691 2322 
L 691 4666 
z
" transform="scale(0.015625)"/>
       </defs>
       <use xlink:href="#DejaVuSans-32"/>
       <use xlink:href="#DejaVuSans-30" x="63.623047"/>
       <use xlink:href="#DejaVuSans-32" x="127.246094"/>
       <use xlink:href="#DejaVuSans-34" x="190.869141"/>
       <use xlink:href="#DejaVuSans-2d" x="254.492188"/>
       <use xlink:href="#DejaVuSans-31" x="290.576172"/>
       <use xlink:href="#DejaVuSans-30" x="354.199219"/>
       <use xlink:href="#DejaVuSans-2d" x="417.822266"/>
       <use xlink:href="#DejaVuSans-31" x="453.90625"/>
       <use xlink:href="#DejaVuSans-35" x="517.529297"/>
      </g>
     </g>
    </g>
    <g id="xtick_3">
     <g id="line2d_5">
      <path d="M 190.128313 276.48 
L 190.128313 41.472 
" clip-path="url(#p4f83480632)" style="fill: none; stroke: #ffffff; stroke-width: 0.8; stroke-linecap: square"/>
     </g>
     <g id="line2d_6">
      <g>
       <use xlink:href="#m227d2b3f76" x="190.128313" y="276.48" style="stroke: #000000; stroke-width: 0.8"/>
      </g>
     </g>
     <g id="text_3">
      <!-- 2024-10-17 -->
      <g transform="translate(138.758862 319.118252) rotate(-30) scale(0.1 -0.1)">
       <defs>
        <path id="DejaVuSans-37" d="M 525 4666 
L 3525 4666 
L 3525 4397 
L 1831 0 
L 1172 0 
L 2766 4134 
L 525 4134 
L 525 4666 
z
" transform="scale(0.015625)"/>
       </defs>
       <use xlink:href="#DejaVuSans-32"/>
       <use xlink:href="#DejaVuSans-30" x="63.623047"/>
       <use xlink:href="#DejaVuSans-32" x="127.246094"/>
       <use xlink:href="#DejaVuSans-34" x="190.869141"/>
       <use xlink:href="#DejaVuSans-2d" x="254.492188"/>
       <use xlink:href="#DejaVuSans-31" x="290.576172"/>
       <use xlink:href="#DejaVuSans-30" x="354.199219"/>
       <use xlink:href="#DejaVuSans-2d" x="417.822266"/>
       <use xlink:href="#DejaVuSans-31" x="453.90625"/>
       <use xlink:href="#DejaVuSans-37" x="517.529297"/>
      </g>
     </g>
    </g>
    <g id="xtick_4">
     <g id="line2d_7">
      <path d="M 234.446146 276.48 
L 234.446146 41.472 
" clip-path="url(#p4f83480632)" style="fill: none; stroke: #ffffff; stroke-width: 0.8; stroke-linecap: square"/>
     </g>
     <g id="line2d_8">
      <g>
       <use xlink:href="#m227d2b3f76" x="234.446146" y="276.48" style="stroke: #000000; stroke-width: 0.8"/>
      </g>
     </g>
     <g id="text_4">
      <!-- 2024-10-19 -->
      <g transform="translate(183.076695 319.118252) rotate(-30) scale(0.1 -0.1)">
       <defs>
        <path id="DejaVuSans-39" d="M 703 97 
L 703 672 
Q 941 559 1184 500 
Q 1428 441 1663 441 
Q 2288 441 2617 861 
Q 2947 1281 2994 2138 
Q 2813 1869 2534 1725 
Q 2256 1581 1919 1581 
Q 1219 1581 811 2004 
Q 403 2428 403 3163 
Q 403 3881 828 4315 
Q 1253 4750 1959 4750 
Q 2769 4750 3195 4129 
Q 3622 3509 3622 2328 
Q 3622 1225 3098 567 
Q 2575 -91 1691 -91 
Q 1453 -91 1209 -44 
Q 966 3 703 97 
z
M 1959 2075 
Q 2384 2075 2632 2365 
Q 2881 2656 2881 3163 
Q 2881 3666 2632 3958 
Q 2384 4250 1959 4250 
Q 1534 4250 1286 3958 
Q 1038 3666 1038 3163 
Q 1038 2656 1286 2365 
Q 1534 2075 1959 2075 
z
" transform="scale(0.015625)"/>
       </defs>
       <use xlink:href="#DejaVuSans-32"/>
       <use xlink:href="#DejaVuSans-30" x="63.623047"/>
       <use xlink:href="#DejaVuSans-32" x="127.246094"/>
       <use xlink:href="#DejaVuSans-34" x="190.869141"/>
       <use xlink:href="#DejaVuSans-2d" x="254.492188"/>
       <use xlink:href="#DejaVuSans-31" x="290.576172"/>
       <use xlink:href="#DejaVuSans-30" x="354.199219"/>
       <use xlink:href="#DejaVuSans-2d" x="417.822266"/>
       <use xlink:href="#DejaVuSans-31" x="453.90625"/>
       <use xlink:href="#DejaVuSans-39" x="517.529297"/>
      </g>
     </g>
    </g>
    <g id="xtick_5">
     <g id="line2d_9">
      <path d="M 278.76398 276.48 
L 278.76398 41.472 
" clip-path="url(#p4f83480632)" style="fill: none; stroke: #ffffff; stroke-width: 0.8; stroke-linecap: square"/>
     </g>
     <g id="line2d_10">
      <g>
       <use xlink:href="#m227d2b3f76" x="278.76398" y="276.48" style="stroke: #000000; stroke-width: 0.8"/>
      </g>
     </g>
     <g id="text_5">
      <!-- 2024-10-21 -->
      <g transform="translate(227.394528 319.118252) rotate(-30) scale(0.1 -0.1)">
       <use xlink:href="#DejaVuSans-32"/>
       <use xlink:href="#DejaVuSans-30" x="63.623047"/>
       <use xlink:href="#DejaVuSans-32" x="127.246094"/>
       <use xlink:href="#DejaVuSans-34" x="190.869141"/>
       <use xlink:href="#DejaVuSans-2d" x="254.492188"/>
       <use xlink:href="#DejaVuSans-31" x="290.576172"/>
       <use xlink:href="#DejaVuSans-30" x="354.199219"/>
       <use xlink:href="#DejaVuSans-2d" x="417.822266"/>
       <use xlink:href="#DejaVuSans-32" x="453.90625"/>
       <use xlink:href="#DejaVuSans-31" x="517.529297"/>
      </g>
     </g>
    </g>
    <g id="xtick_6">
     <g id="line2d_11">
      <path d="M 323.081813 276.48 
L 323.081813 41.472 
" clip-path="url(#p4f83480632)" style="fill: none; stroke: #ffffff; stroke-width: 0.8; stroke-linecap: square"/>
     </g>
     <g id="line2d_12">
      <g>
       <use xlink:href="#m227d2b3f76" x="323.081813" y="276.48" style="stroke: #000000; stroke-width: 0.8"/>
      </g>
     </g>
     <g id="text_6">
      <!-- 2024-10-23 -->
      <g transform="translate(271.712362 319.118252) rotate(-30) scale(0.1 -0.1)">
       <use xlink:href="#DejaVuSans-32"/>
       <use xlink:href="#DejaVuSans-30" x="63.623047"/>
       <use xlink:href="#DejaVuSans-32" x="127.246094"/>
       <use xlink:href="#DejaVuSans-34" x="190.869141"/>
       <use xlink:href="#DejaVuSans-2d" x="254.492188"/>
       <use xlink:href="#DejaVuSans-31" x="290.576172"/>
       <use xlink:href="#DejaVuSans-30" x="354.199219"/>
       <use xlink:href="#DejaVuSans-2d" x="417.822266"/>
       <use xlink:href="#DejaVuSans-32" x="453.90625"/>
       <use xlink:href="#DejaVuSans-33" x="517.529297"/>
      </g>
     </g>
    </g>
    <g id="xtick_7">
     <g id="line2d_13">
      <path d="M 367.399646 276.48 
L 367.399646 41.472 
" clip-path="url(#p4f83480632)" style="fill: none; stroke: #ffffff; stroke-width: 0.8; stroke-linecap: square"/>
     </g>
     <g id="line2d_14">
      <g>
       <use xlink:href="#m227d2b3f76" x="367.399646" y="276.48" style="stroke: #000000; stroke-width: 0.8"/>
      </g>
     </g>
     <g id="text_7">
      <!-- 2024-10-25 -->
      <g transform="translate(316.030195 319.118252) rotate(-30) scale(0.1 -0.1)">
       <use xlink:href="#DejaVuSans-32"/>
       <use xlink:href="#DejaVuSans-30" x="63.623047"/>
       <use xlink:href="#DejaVuSans-32" x="127.246094"/>
       <use xlink:href="#DejaVuSans-34" x="190.869141"/>
       <use xlink:href="#DejaVuSans-2d" x="254.492188"/>
       <use xlink:href="#DejaVuSans-31" x="290.576172"/>
       <use xlink:href="#DejaVuSans-30" x="354.199219"/>
       <use xlink:href="#DejaVuSans-2d" x="417.822266"/>
       <use xlink:href="#DejaVuSans-32" x="453.90625"/>
       <use xlink:href="#DejaVuSans-35" x="517.529297"/>
      </g>
     </g>
    </g>
    <g id="xtick_8">
     <g id="line2d_15">
      <path d="M 411.71748 276.48 
L 411.71748 41.472 
" clip-path="url(#p4f83480632)" style="fill: none; stroke: #ffffff; stroke-width: 0.8; stroke-linecap: square"/>
     </g>
     <g id="line2d_16">
      <g>
       <use xlink:href="#m227d2b3f76" x="411.71748" y="276.48" style="stroke: #000000; stroke-width: 0.8"/>
      </g>
     </g>
     <g id="text_8">
      <!-- 2024-10-27 -->
      <g transform="translate(360.348028 319.118252) rotate(-30) scale(0.1 -0.1)">
       <use xlink:href="#DejaVuSans-32"/>
       <use xlink:href="#DejaVuSans-30" x="63.623047"/>
       <use xlink:href="#DejaVuSans-32" x="127.246094"/>
       <use xlink:href="#DejaVuSans-34" x="190.869141"/>
       <use xlink:href="#DejaVuSans-2d" x="254.492188"/>
       <use xlink:href="#DejaVuSans-31" x="290.576172"/>
       <use xlink:href="#DejaVuSans-30" x="354.199219"/>
       <use xlink:href="#DejaVuSans-2d" x="417.822266"/>
       <use xlink:href="#DejaVuSans-32" x="453.90625"/>
       <use xlink:href="#DejaVuSans-37" x="517.529297"/>
      </g>
     </g>
    </g>
    <g id="text_9">
     <!-- When -->
     <g transform="translate(221.802188 332.517752) scale(0.1 -0.1)">
      <defs>
       <path id="DejaVuSans-57" d="M 213 4666 
L 850 4666 
L 1831 722 
L 2809 4666 
L 3519 4666 
L 4500 722 
L 5478 4666 
L 6119 4666 
L 4947 0 
L 4153 0 
L 3169 4050 
L 2175 0 
L 1381 0 
L 213 4666 
z
" transform="scale(0.015625)"/>
       <path id="DejaVuSans-68" d="M 3513 2113 
L 3513 0 
L 2938 0 
L 2938 2094 
Q 2938 2591 2744 2837 
Q 2550 3084 2163 3084 
Q 1697 3084 1428 2787 
Q 1159 2491 1159 1978 
L 1159 0 
L 581 0 
L 581 4863 
L 1159 4863 
L 1159 2956 
Q 1366 3272 1645 3428 
Q 1925 3584 2291 3584 
Q 2894 3584 3203 3211 
Q 3513 2838 3513 2113 
z
" transform="scale(0.015625)"/>
       <path id="DejaVuSans-65" d="M 3597 1894 
L 3597 1613 
L 953 1613 
Q 991 1019 1311 708 
Q 1631 397 2203 397 
Q 2534 397 2845 478 
Q 3156 559 3463 722 
L 3463 178 
Q 3153 47 2828 -22 
Q 2503 -91 2169 -91 
Q 1331 -91 842 396 
Q 353 884 353 1716 
Q 353 2575 817 3079 
Q 1281 3584 2069 3584 
Q 2775 3584 3186 3129 
Q 3597 2675 3597 1894 
z
M 3022 2063 
Q 3016 2534 2758 2815 
Q 2500 3097 2075 3097 
Q 1594 3097 1305 2825 
Q 1016 2553 972 2059 
L 3022 2063 
z
" transform="scale(0.015625)"/>
       <path id="DejaVuSans-6e" d="M 3513 2113 
L 3513 0 
L 2938 0 
L 2938 2094 
Q 2938 2591 2744 2837 
Q 2550 3084 2163 3084 
Q 1697 3084 1428 2787 
Q 1159 2491 1159 1978 
L 1159 0 
L 581 0 
L 581 3500 
L 1159 3500 
L 1159 2956 
Q 1366 3272 1645 3428 
Q 1925 3584 2291 3584 
Q 2894 3584 3203 3211 
Q 3513 2838 3513 2113 
z
" transform="scale(0.015625)"/>
      </defs>
      <use xlink:href="#DejaVuSans-57"/>
      <use xlink:href="#DejaVuSans-68" x="98.876953"/>
      <use xlink:href="#DejaVuSans-65" x="162.255859"/>
      <use xlink:href="#DejaVuSans-6e" x="223.779297"/>
     </g>
    </g>
   </g>
   <g id="matplotlib.axis_2">
    <g id="ytick_1">
     <g id="line2d_17">
      <path d="M 57.6 275.162068 
L 414.72 275.162068 
" clip-path="url(#p4f83480632)" style="fill: none; stroke: #ffffff; stroke-width: 0.8; stroke-linecap: square"/>
     </g>
     <g id="line2d_18">
      <defs>
       <path id="mda51e1325a" d="M 0 0 
L -3.5 0 
" style="stroke: #000000; stroke-width: 0.8"/>
      </defs>
      <g>
       <use xlink:href="#mda51e1325a" x="57.6" y="275.162068" style="stroke: #000000; stroke-width: 0.8"/>
      </g>
     </g>
     <g id="text_10">
      <!-- 50 -->
      <g transform="translate(37.875 278.961287) scale(0.1 -0.1)">
       <use xlink:href="#DejaVuSans-35"/>
       <use xlink:href="#DejaVuSans-30" x="63.623047"/>
      </g>
     </g>
    </g>
    <g id="ytick_2">
     <g id="line2d_19">
      <path d="M 57.6 246.260061 
L 414.72 246.260061 
" clip-path="url(#p4f83480632)" style="fill: none; stroke: #ffffff; stroke-width: 0.8; stroke-linecap: square"/>
     </g>
     <g id="line2d_20">
      <g>
       <use xlink:href="#mda51e1325a" x="57.6" y="246.260061" style="stroke: #000000; stroke-width: 0.8"/>
      </g>
     </g>
     <g id="text_11">
      <!-- 100 -->
      <g transform="translate(31.5125 250.05928) scale(0.1 -0.1)">
       <use xlink:href="#DejaVuSans-31"/>
       <use xlink:href="#DejaVuSans-30" x="63.623047"/>
       <use xlink:href="#DejaVuSans-30" x="127.246094"/>
      </g>
     </g>
    </g>
    <g id="ytick_3">
     <g id="line2d_21">
      <path d="M 57.6 217.358054 
L 414.72 217.358054 
" clip-path="url(#p4f83480632)" style="fill: none; stroke: #ffffff; stroke-width: 0.8; stroke-linecap: square"/>
     </g>
     <g id="line2d_22">
      <g>
       <use xlink:href="#mda51e1325a" x="57.6" y="217.358054" style="stroke: #000000; stroke-width: 0.8"/>
      </g>
     </g>
     <g id="text_12">
      <!-- 150 -->
      <g transform="translate(31.5125 221.157273) scale(0.1 -0.1)">
       <use xlink:href="#DejaVuSans-31"/>
       <use xlink:href="#DejaVuSans-35" x="63.623047"/>
       <use xlink:href="#DejaVuSans-30" x="127.246094"/>
      </g>
     </g>
    </g>
    <g id="ytick_4">
     <g id="line2d_23">
      <path d="M 57.6 188.456047 
L 414.72 188.456047 
" clip-path="url(#p4f83480632)" style="fill: none; stroke: #ffffff; stroke-width: 0.8; stroke-linecap: square"/>
     </g>
     <g id="line2d_24">
      <g>
       <use xlink:href="#mda51e1325a" x="57.6" y="188.456047" style="stroke: #000000; stroke-width: 0.8"/>
      </g>
     </g>
     <g id="text_13">
      <!-- 200 -->
      <g transform="translate(31.5125 192.255266) scale(0.1 -0.1)">
       <use xlink:href="#DejaVuSans-32"/>
       <use xlink:href="#DejaVuSans-30" x="63.623047"/>
       <use xlink:href="#DejaVuSans-30" x="127.246094"/>
      </g>
     </g>
    </g>
    <g id="ytick_5">
     <g id="line2d_25">
      <path d="M 57.6 159.55404 
L 414.72 159.55404 
" clip-path="url(#p4f83480632)" style="fill: none; stroke: #ffffff; stroke-width: 0.8; stroke-linecap: square"/>
     </g>
     <g id="line2d_26">
      <g>
       <use xlink:href="#mda51e1325a" x="57.6" y="159.55404" style="stroke: #000000; stroke-width: 0.8"/>
      </g>
     </g>
     <g id="text_14">
      <!-- 250 -->
      <g transform="translate(31.5125 163.353259) scale(0.1 -0.1)">
       <use xlink:href="#DejaVuSans-32"/>
       <use xlink:href="#DejaVuSans-35" x="63.623047"/>
       <use xlink:href="#DejaVuSans-30" x="127.246094"/>
      </g>
     </g>
    </g>
    <g id="ytick_6">
     <g id="line2d_27">
      <path d="M 57.6 130.652033 
L 414.72 130.652033 
" clip-path="url(#p4f83480632)" style="fill: none; stroke: #ffffff; stroke-width: 0.8; stroke-linecap: square"/>
     </g>
     <g id="line2d_28">
      <g>
       <use xlink:href="#mda51e1325a" x="57.6" y="130.652033" style="stroke: #000000; stroke-width: 0.8"/>
      </g>
     </g>
     <g id="text_15">
      <!-- 300 -->
      <g transform="translate(31.5125 134.451252) scale(0.1 -0.1)">
       <use xlink:href="#DejaVuSans-33"/>
       <use xlink:href="#DejaVuSans-30" x="63.623047"/>
       <use xlink:href="#DejaVuSans-30" x="127.246094"/>
      </g>
     </g>
    </g>
    <g id="ytick_7">
     <g id="line2d_29">
      <path d="M 57.6 101.750026 
L 414.72 101.750026 
" clip-path="url(#p4f83480632)" style="fill: none; stroke: #ffffff; stroke-width: 0.8; stroke-linecap: square"/>
     </g>
     <g id="line2d_30">
      <g>
       <use xlink:href="#mda51e1325a" x="57.6" y="101.750026" style="stroke: #000000; stroke-width: 0.8"/>
      </g>
     </g>
     <g id="text_16">
      <!-- 350 -->
      <g transform="translate(31.5125 105.549245) scale(0.1 -0.1)">
       <use xlink:href="#DejaVuSans-33"/>
       <use xlink:href="#DejaVuSans-35" x="63.623047"/>
       <use xlink:href="#DejaVuSans-30" x="127.246094"/>
      </g>
     </g>
    </g>
    <g id="ytick_8">
     <g id="line2d_31">
      <path d="M 57.6 72.848019 
L 414.72 72.848019 
" clip-path="url(#p4f83480632)" style="fill: none; stroke: #ffffff; stroke-width: 0.8; stroke-linecap: square"/>
     </g>
     <g id="line2d_32">
      <g>
       <use xlink:href="#mda51e1325a" x="57.6" y="72.848019" style="stroke: #000000; stroke-width: 0.8"/>
      </g>
     </g>
     <g id="text_17">
      <!-- 400 -->
      <g transform="translate(31.5125 76.647238) scale(0.1 -0.1)">
       <use xlink:href="#DejaVuSans-34"/>
       <use xlink:href="#DejaVuSans-30" x="63.623047"/>
       <use xlink:href="#DejaVuSans-30" x="127.246094"/>
      </g>
     </g>
    </g>
    <g id="ytick_9">
     <g id="line2d_33">
      <path d="M 57.6 43.946012 
L 414.72 43.946012 
" clip-path="url(#p4f83480632)" style="fill: none; stroke: #ffffff; stroke-width: 0.8; stroke-linecap: square"/>
     </g>
     <g id="line2d_34">
      <g>
       <use xlink:href="#mda51e1325a" x="57.6" y="43.946012" style="stroke: #000000; stroke-width: 0.8"/>
      </g>
     </g>
     <g id="text_18">
      <!-- 450 -->
      <g transform="translate(31.5125 47.745231) scale(0.1 -0.1)">
       <use xlink:href="#DejaVuSans-34"/>
       <use xlink:href="#DejaVuSans-35" x="63.623047"/>
       <use xlink:href="#DejaVuSans-30" x="127.246094"/>
      </g>
     </g>
    </g>
    <g id="text_19">
     <!-- RADON_SHORT_TERM_AVG Bq/m3 -->
     <g transform="translate(25.154687 244.060375) rotate(-90) scale(0.1 -0.1)">
      <defs>
       <path id="DejaVuSans-52" d="M 2841 2188 
Q 3044 2119 3236 1894 
Q 3428 1669 3622 1275 
L 4263 0 
L 3584 0 
L 2988 1197 
Q 2756 1666 2539 1819 
Q 2322 1972 1947 1972 
L 1259 1972 
L 1259 0 
L 628 0 
L 628 4666 
L 2053 4666 
Q 2853 4666 3247 4331 
Q 3641 3997 3641 3322 
Q 3641 2881 3436 2590 
Q 3231 2300 2841 2188 
z
M 1259 4147 
L 1259 2491 
L 2053 2491 
Q 2509 2491 2742 2702 
Q 2975 2913 2975 3322 
Q 2975 3731 2742 3939 
Q 2509 4147 2053 4147 
L 1259 4147 
z
" transform="scale(0.015625)"/>
       <path id="DejaVuSans-41" d="M 2188 4044 
L 1331 1722 
L 3047 1722 
L 2188 4044 
z
M 1831 4666 
L 2547 4666 
L 4325 0 
L 3669 0 
L 3244 1197 
L 1141 1197 
L 716 0 
L 50 0 
L 1831 4666 
z
" transform="scale(0.015625)"/>
       <path id="DejaVuSans-44" d="M 1259 4147 
L 1259 519 
L 2022 519 
Q 2988 519 3436 956 
Q 3884 1394 3884 2338 
Q 3884 3275 3436 3711 
Q 2988 4147 2022 4147 
L 1259 4147 
z
M 628 4666 
L 1925 4666 
Q 3281 4666 3915 4102 
Q 4550 3538 4550 2338 
Q 4550 1131 3912 565 
Q 3275 0 1925 0 
L 628 0 
L 628 4666 
z
" transform="scale(0.015625)"/>
       <path id="DejaVuSans-4f" d="M 2522 4238 
Q 1834 4238 1429 3725 
Q 1025 3213 1025 2328 
Q 1025 1447 1429 934 
Q 1834 422 2522 422 
Q 3209 422 3611 934 
Q 4013 1447 4013 2328 
Q 4013 3213 3611 3725 
Q 3209 4238 2522 4238 
z
M 2522 4750 
Q 3503 4750 4090 4092 
Q 4678 3434 4678 2328 
Q 4678 1225 4090 567 
Q 3503 -91 2522 -91 
Q 1538 -91 948 565 
Q 359 1222 359 2328 
Q 359 3434 948 4092 
Q 1538 4750 2522 4750 
z
" transform="scale(0.015625)"/>
       <path id="DejaVuSans-4e" d="M 628 4666 
L 1478 4666 
L 3547 763 
L 3547 4666 
L 4159 4666 
L 4159 0 
L 3309 0 
L 1241 3903 
L 1241 0 
L 628 0 
L 628 4666 
z
" transform="scale(0.015625)"/>
       <path id="DejaVuSans-5f" d="M 3263 -1063 
L 3263 -1509 
L -63 -1509 
L -63 -1063 
L 3263 -1063 
z
" transform="scale(0.015625)"/>
       <path id="DejaVuSans-53" d="M 3425 4513 
L 3425 3897 
Q 3066 4069 2747 4153 
Q 2428 4238 2131 4238 
Q 1616 4238 1336 4038 
Q 1056 3838 1056 3469 
Q 1056 3159 1242 3001 
Q 1428 2844 1947 2747 
L 2328 2669 
Q 3034 2534 3370 2195 
Q 3706 1856 3706 1288 
Q 3706 609 3251 259 
Q 2797 -91 1919 -91 
Q 1588 -91 1214 -16 
Q 841 59 441 206 
L 441 856 
Q 825 641 1194 531 
Q 1563 422 1919 422 
Q 2459 422 2753 634 
Q 3047 847 3047 1241 
Q 3047 1584 2836 1778 
Q 2625 1972 2144 2069 
L 1759 2144 
Q 1053 2284 737 2584 
Q 422 2884 422 3419 
Q 422 4038 858 4394 
Q 1294 4750 2059 4750 
Q 2388 4750 2728 4690 
Q 3069 4631 3425 4513 
z
" transform="scale(0.015625)"/>
       <path id="DejaVuSans-48" d="M 628 4666 
L 1259 4666 
L 1259 2753 
L 3553 2753 
L 3553 4666 
L 4184 4666 
L 4184 0 
L 3553 0 
L 3553 2222 
L 1259 2222 
L 1259 0 
L 628 0 
L 628 4666 
z
" transform="scale(0.015625)"/>
       <path id="DejaVuSans-54" d="M -19 4666 
L 3928 4666 
L 3928 4134 
L 2272 4134 
L 2272 0 
L 1638 0 
L 1638 4134 
L -19 4134 
L -19 4666 
z
" transform="scale(0.015625)"/>
       <path id="DejaVuSans-45" d="M 628 4666 
L 3578 4666 
L 3578 4134 
L 1259 4134 
L 1259 2753 
L 3481 2753 
L 3481 2222 
L 1259 2222 
L 1259 531 
L 3634 531 
L 3634 0 
L 628 0 
L 628 4666 
z
" transform="scale(0.015625)"/>
       <path id="DejaVuSans-4d" d="M 628 4666 
L 1569 4666 
L 2759 1491 
L 3956 4666 
L 4897 4666 
L 4897 0 
L 4281 0 
L 4281 4097 
L 3078 897 
L 2444 897 
L 1241 4097 
L 1241 0 
L 628 0 
L 628 4666 
z
" transform="scale(0.015625)"/>
       <path id="DejaVuSans-56" d="M 1831 0 
L 50 4666 
L 709 4666 
L 2188 738 
L 3669 4666 
L 4325 4666 
L 2547 0 
L 1831 0 
z
" transform="scale(0.015625)"/>
       <path id="DejaVuSans-47" d="M 3809 666 
L 3809 1919 
L 2778 1919 
L 2778 2438 
L 4434 2438 
L 4434 434 
Q 4069 175 3628 42 
Q 3188 -91 2688 -91 
Q 1594 -91 976 548 
Q 359 1188 359 2328 
Q 359 3472 976 4111 
Q 1594 4750 2688 4750 
Q 3144 4750 3555 4637 
Q 3966 4525 4313 4306 
L 4313 3634 
Q 3963 3931 3569 4081 
Q 3175 4231 2741 4231 
Q 1884 4231 1454 3753 
Q 1025 3275 1025 2328 
Q 1025 1384 1454 906 
Q 1884 428 2741 428 
Q 3075 428 3337 486 
Q 3600 544 3809 666 
z
" transform="scale(0.015625)"/>
       <path id="DejaVuSans-20" transform="scale(0.015625)"/>
       <path id="DejaVuSans-42" d="M 1259 2228 
L 1259 519 
L 2272 519 
Q 2781 519 3026 730 
Q 3272 941 3272 1375 
Q 3272 1813 3026 2020 
Q 2781 2228 2272 2228 
L 1259 2228 
z
M 1259 4147 
L 1259 2741 
L 2194 2741 
Q 2656 2741 2882 2914 
Q 3109 3088 3109 3444 
Q 3109 3797 2882 3972 
Q 2656 4147 2194 4147 
L 1259 4147 
z
M 628 4666 
L 2241 4666 
Q 2963 4666 3353 4366 
Q 3744 4066 3744 3513 
Q 3744 3084 3544 2831 
Q 3344 2578 2956 2516 
Q 3422 2416 3680 2098 
Q 3938 1781 3938 1306 
Q 3938 681 3513 340 
Q 3088 0 2303 0 
L 628 0 
L 628 4666 
z
" transform="scale(0.015625)"/>
       <path id="DejaVuSans-71" d="M 947 1747 
Q 947 1113 1208 752 
Q 1469 391 1925 391 
Q 2381 391 2643 752 
Q 2906 1113 2906 1747 
Q 2906 2381 2643 2742 
Q 2381 3103 1925 3103 
Q 1469 3103 1208 2742 
Q 947 2381 947 1747 
z
M 2906 525 
Q 2725 213 2448 61 
Q 2172 -91 1784 -91 
Q 1150 -91 751 415 
Q 353 922 353 1747 
Q 353 2572 751 3078 
Q 1150 3584 1784 3584 
Q 2172 3584 2448 3432 
Q 2725 3281 2906 2969 
L 2906 3500 
L 3481 3500 
L 3481 -1331 
L 2906 -1331 
L 2906 525 
z
" transform="scale(0.015625)"/>
       <path id="DejaVuSans-2f" d="M 1625 4666 
L 2156 4666 
L 531 -594 
L 0 -594 
L 1625 4666 
z
" transform="scale(0.015625)"/>
       <path id="DejaVuSans-6d" d="M 3328 2828 
Q 3544 3216 3844 3400 
Q 4144 3584 4550 3584 
Q 5097 3584 5394 3201 
Q 5691 2819 5691 2113 
L 5691 0 
L 5113 0 
L 5113 2094 
Q 5113 2597 4934 2840 
Q 4756 3084 4391 3084 
Q 3944 3084 3684 2787 
Q 3425 2491 3425 1978 
L 3425 0 
L 2847 0 
L 2847 2094 
Q 2847 2600 2669 2842 
Q 2491 3084 2119 3084 
Q 1678 3084 1418 2786 
Q 1159 2488 1159 1978 
L 1159 0 
L 581 0 
L 581 3500 
L 1159 3500 
L 1159 2956 
Q 1356 3278 1631 3431 
Q 1906 3584 2284 3584 
Q 2666 3584 2933 3390 
Q 3200 3197 3328 2828 
z
" transform="scale(0.015625)"/>
      </defs>
      <use xlink:href="#DejaVuSans-52"/>
      <use xlink:href="#DejaVuSans-41" x="65.482422"/>
      <use xlink:href="#DejaVuSans-44" x="133.890625"/>
      <use xlink:href="#DejaVuSans-4f" x="210.892578"/>
      <use xlink:href="#DejaVuSans-4e" x="289.603516"/>
      <use xlink:href="#DejaVuSans-5f" x="364.408203"/>
      <use xlink:href="#DejaVuSans-53" x="414.408203"/>
      <use xlink:href="#DejaVuSans-48" x="477.884766"/>
      <use xlink:href="#DejaVuSans-4f" x="553.080078"/>
      <use xlink:href="#DejaVuSans-52" x="631.791016"/>
      <use xlink:href="#DejaVuSans-54" x="694.023438"/>
      <use xlink:href="#DejaVuSans-5f" x="755.107422"/>
      <use xlink:href="#DejaVuSans-54" x="805.107422"/>
      <use xlink:href="#DejaVuSans-45" x="866.191406"/>
      <use xlink:href="#DejaVuSans-52" x="929.375"/>
      <use xlink:href="#DejaVuSans-4d" x="998.857422"/>
      <use xlink:href="#DejaVuSans-5f" x="1085.136719"/>
      <use xlink:href="#DejaVuSans-41" x="1135.136719"/>
      <use xlink:href="#DejaVuSans-56" x="1197.169922"/>
      <use xlink:href="#DejaVuSans-47" x="1265.578125"/>
      <use xlink:href="#DejaVuSans-20" x="1343.068359"/>
      <use xlink:href="#DejaVuSans-42" x="1374.855469"/>
      <use xlink:href="#DejaVuSans-71" x="1443.458984"/>
      <use xlink:href="#DejaVuSans-2f" x="1506.935547"/>
      <use xlink:href="#DejaVuSans-6d" x="1540.626953"/>
      <use xlink:href="#DejaVuSans-33" x="1638.039062"/>
     </g>
    </g>
   </g>
   <g id="line2d_35">
    <path d="M 206.594388 246.430073 
L 206.671842 247.790168 
L 206.941904 249.150262 
L 207.403548 249.218267 
L 207.51819 249.6943 
L 207.671815 250.170333 
L 207.749012 250.306342 
L 208.326836 250.374347 
L 208.441478 250.85038 
L 208.595103 251.326413 
L 208.6723 251.462423 
L 209.249611 251.462423 
L 209.326039 250.434796 
L 209.479408 249.664076 
L 209.5584 249.150262 
L 210.173156 249.150262 
L 210.249584 249.664076 
L 210.402952 250.049436 
L 210.481945 250.306342 
L 211.096444 250.306342 
L 211.172616 249.41705 
L 211.250839 248.972404 
L 211.596302 247.416142 
L 212.019476 247.416142 
L 212.097186 246.396071 
M 216.790055 246.396071 
L 216.867508 247.756165 
L 217.059091 248.572222 
L 218.483006 248.504217 
L 218.56046 248.164194 
L 218.713315 247.688161 
L 218.791282 247.416142 
L 220.329326 247.416142 
L 220.444481 246.328066 
M 222.214373 246.328066 
L 222.329784 247.858172 
L 222.407238 249.388279 
L 222.599076 250.306342 
L 223.099191 250.306342 
L 223.214345 251.938456 
L 223.330013 252.958527 
L 223.407979 253.774583 
L 224.022479 253.774583 
L 224.137634 254.862659 
L 224.253301 255.542706 
L 224.331268 256.086744 
L 224.94628 256.018739 
L 225.060922 255.542706 
L 225.21429 255.066673 
L 225.291744 254.930664 
L 225.869568 254.998668 
L 225.98421 255.474701 
L 226.137835 255.950734 
L 226.215032 256.086744 
L 226.792344 256.086744 
L 226.907498 252.00646 
L 227.023166 249.456283 
L 227.101132 247.416142 
L 227.715632 247.416142 
L 227.830786 249.864312 
L 227.946454 251.394418 
L 228.024164 252.618503 
L 228.63892 252.618503 
L 228.753818 250.170333 
L 228.869742 248.640227 
L 228.947709 247.416142 
L 229.562208 247.416142 
L 229.677363 246.328066 
M 272.148363 246.430073 
L 272.22633 247.790168 
L 272.496135 249.150262 
L 273.880298 249.150262 
L 273.957752 250.578361 
L 274.111377 252.244477 
L 274.189087 253.196543 
L 274.804612 253.128538 
L 274.918997 252.652505 
L 275.072366 252.176472 
L 275.149819 252.040463 
L 275.7279 251.938456 
L 275.842542 251.224406 
L 275.99591 250.510357 
L 276.072851 250.306342 
L 276.688376 250.204335 
L 276.76583 250.034323 
L 277.267227 249.728302 
L 278.496995 249.728302 
L 278.61215 248.096189 
L 278.728074 247.076118 
L 278.766031 246.464076 
M 282.344286 246.396071 
L 282.421483 247.756165 
L 282.613322 248.572222 
L 283.113693 248.572222 
L 283.228847 246.396071 
L 283.228847 246.396071 
" clip-path="url(#p4f83480632)" style="fill: none; stroke: #008000; stroke-width: 1.5; stroke-linecap: square"/>
   </g>
   <g id="line2d_36">
    <path d="M 156.775809 217.460061 
L 156.853263 218.480132 
L 157.044845 219.092175 
L 157.545473 219.160179 
L 157.660114 219.636213 
L 157.813483 220.112246 
L 157.891193 220.248255 
L 158.468248 220.248255 
L 158.583402 221.880368 
L 158.699326 222.900439 
L 158.777293 223.716496 
L 159.391536 223.716496 
L 159.506691 219.636213 
L 159.583631 217.596071 
M 183.435243 217.494064 
L 183.51244 218.684146 
L 183.628108 219.874229 
L 183.706074 220.826295 
L 184.320574 220.826295 
L 184.435728 219.73822 
L 184.551396 219.058172 
L 184.629362 218.514135 
L 185.243862 218.514135 
L 185.359016 220.146248 
L 185.474428 221.166319 
L 185.552907 221.982375 
L 186.16792 222.05038 
L 186.24486 222.390404 
L 186.398229 222.866437 
L 186.476452 223.138456 
L 188.013983 223.138456 
L 188.091437 224.362541 
L 188.244805 225.79064 
L 188.323028 226.606697 
L 188.937271 226.606697 
L 189.052426 229.598904 
L 189.167837 231.469034 
L 189.24606 232.965138 
L 189.860303 232.965138 
L 189.937757 234.189223 
L 190.091381 235.617322 
L 190.169348 236.433379 
L 190.783848 236.433379 
L 190.898746 237.521455 
L 191.014413 238.201502 
L 191.09238 238.74554 
L 191.706879 238.74554 
L 191.822034 239.833615 
L 191.937701 240.513662 
L 192.015924 241.0577 
L 192.630424 241.0577 
L 192.745579 239.969625 
L 192.861759 239.153568 
L 193.053341 238.74554 
L 193.554225 238.847547 
L 193.668867 239.561596 
L 193.822748 240.275646 
L 193.899689 240.47966 
L 194.476744 240.47966 
L 194.553941 239.459589 
L 194.707822 238.269506 
L 194.785532 237.589459 
L 195.400545 237.589459 
L 195.515443 238.949554 
L 195.631367 239.799613 
L 195.709077 240.47966 
L 196.323833 240.547665 
L 196.401287 240.887688 
L 196.554399 241.363721 
L 196.632109 241.63574 
L 197.247378 241.703745 
L 197.361763 242.179778 
L 197.515388 242.655811 
L 197.592842 242.791821 
L 199.093698 242.791821 
L 199.208852 241.159707 
L 199.324007 240.139636 
L 199.40223 239.32358 
L 200.016986 239.32358 
L 200.132141 238.235504 
L 200.248065 237.419447 
L 200.439647 237.011419 
L 200.940531 236.943414 
L 201.055172 236.467381 
L 201.208541 235.991348 
L 201.286251 235.855339 
L 201.863562 235.855339 
L 201.978717 237.759471 
L 202.094384 238.949554 
L 202.172095 239.90162 
L 202.786851 239.90162 
L 202.901749 241.805752 
L 203.017673 242.995835 
L 203.095383 243.947901 
L 203.710395 244.024973 
L 203.787336 244.410333 
L 203.901208 244.641549 
L 203.978662 245.026909 
L 204.132543 245.103981 
L 204.671384 245.205988 
L 204.748325 245.376 
L 205.249722 245.682021 
L 205.556972 245.614017 
L 205.671613 245.137983 
L 205.825238 244.66195 
L 205.902435 244.525941 
L 206.479747 244.525941 
L 206.557457 246.158054 
M 212.134118 246.226059 
L 212.211571 245.376 
L 212.481377 244.525941 
L 212.94379 244.423934 
L 213.058175 243.709884 
L 213.2118 242.995835 
L 213.288997 242.791821 
L 214.789854 242.859825 
L 214.866794 243.199849 
L 215.020419 243.675882 
L 215.098386 243.947901 
L 216.635917 243.947901 
L 216.713627 245.580014 
L 216.751328 246.124052 
M 220.483208 246.192057 
L 220.560661 245.512009 
L 220.752244 245.103981 
L 222.175903 245.103981 
L 222.21386 246.022045 
M 229.71609 246.192057 
L 229.793287 245.512009 
L 229.985382 245.103981 
L 230.485496 245.103981 
L 230.563206 243.675882 
L 230.716062 242.009766 
L 230.794541 241.0577 
L 231.409298 241.125705 
L 231.523939 241.601738 
L 231.677564 242.077771 
L 231.755018 242.21378 
L 232.332329 242.21378 
L 232.409526 240.785681 
L 232.563151 239.119566 
L 232.641374 238.167499 
L 234.21635 238.269506 
L 234.293804 238.439518 
L 234.795201 238.74554 
L 235.10245 238.813544 
L 235.217092 239.289577 
L 235.370717 239.76561 
L 235.448427 239.90162 
L 236.025226 239.90162 
L 236.102679 238.677535 
L 236.256304 237.249436 
L 236.334271 236.433379 
L 236.94877 236.433379 
L 237.063668 235.345303 
L 237.179336 234.665256 
L 237.257302 234.121218 
L 237.872058 234.121218 
L 237.986957 232.761124 
L 238.10288 231.911065 
L 238.180591 231.231018 
L 238.795347 231.231018 
L 238.910501 228.782848 
L 239.025912 227.252741 
L 239.104135 226.028656 
L 239.756336 226.130664 
L 239.833789 226.300675 
L 240.335186 226.606697 
L 240.641923 226.606697 
L 240.719377 225.382612 
L 240.872745 223.954512 
L 240.950712 223.138456 
L 241.603169 223.240463 
L 241.680366 223.410475 
L 242.181763 223.716496 
L 243.411788 223.716496 
L 243.526942 224.804571 
L 243.64261 225.484619 
L 243.720576 226.028656 
L 244.335076 226.028656 
L 244.45023 224.668562 
L 244.565898 223.818503 
L 244.644121 223.138456 
L 246.182422 223.036449 
L 246.296807 222.322399 
L 246.450175 221.608349 
L 246.527629 221.404335 
L 247.104684 221.404335 
L 247.182394 222.220392 
L 247.335762 223.172458 
L 247.413473 223.716496 
L 248.027972 223.716496 
L 248.105682 222.492411 
L 248.258794 221.064312 
L 248.337017 220.248255 
L 248.95203 220.31626 
L 249.066671 220.792293 
L 249.22004 221.268326 
L 249.297237 221.404335 
L 249.875318 221.336331 
L 249.952259 220.996307 
L 250.105627 220.520274 
L 250.18385 220.248255 
L 250.798093 220.248255 
L 250.913248 222.696425 
L 251.028659 224.226531 
L 251.106882 225.450616 
L 252.644926 225.450616 
L 252.760081 227.08273 
L 252.875492 228.1028 
L 252.953715 228.918857 
L 253.605915 229.020864 
L 253.683369 229.190876 
L 254.184509 229.496897 
L 254.490989 229.496897 
L 254.568443 231.129011 
L 254.722324 233.033143 
L 254.800291 234.121218 
L 255.415047 234.053214 
L 255.529689 233.577181 
L 255.683057 233.101148 
L 255.760767 232.965138 
L 256.37578 233.067145 
L 256.453233 233.237157 
L 256.95463 233.543178 
L 257.261367 233.543178 
L 257.376265 234.631254 
L 257.491933 235.311301 
L 257.569899 235.855339 
L 259.1082 235.923344 
L 259.222841 236.399377 
L 259.376466 236.87541 
L 259.45392 237.011419 
L 260.955033 237.113426 
L 261.031973 237.623462 
L 261.185342 238.337511 
L 261.263308 238.74554 
L 262.801609 238.847547 
L 262.916251 239.561596 
L 263.069619 240.275646 
L 263.14656 240.47966 
L 263.724384 240.47966 
L 263.839282 239.391584 
L 263.95495 238.711537 
L 264.033173 238.167499 
L 265.570961 238.167499 
L 265.686115 237.079424 
L 265.802296 236.263367 
L 265.993878 235.855339 
L 266.494249 235.855339 
L 266.609403 237.487452 
L 266.725071 238.507523 
L 266.803294 239.32358 
L 267.417537 239.32358 
L 267.532692 237.691466 
L 267.648103 236.671396 
L 267.726069 235.855339 
L 268.340825 235.923344 
L 268.417766 236.263367 
L 268.571391 236.7394 
L 268.649101 237.011419 
L 269.264626 236.943414 
L 269.379268 236.467381 
L 269.532636 235.991348 
L 269.61009 235.855339 
L 270.187658 235.855339 
L 270.302556 238.03149 
L 270.418224 239.391584 
L 270.49619 240.47966 
L 271.11069 240.47966 
L 271.225588 242.383792 
L 271.341255 243.573875 
L 271.419222 244.525941 
L 272.033722 244.525941 
L 272.111688 246.158054 
M 278.804758 246.260061 
L 279.420027 246.260061 
L 279.497737 244.831962 
L 279.651362 243.165847 
L 279.729072 242.21378 
L 280.381273 242.111773 
L 280.45847 241.941762 
L 280.960123 241.63574 
L 281.26686 241.63574 
L 281.381502 242.587806 
L 281.458955 243.267854 
L 281.766462 243.947901 
L 282.190405 243.947901 
L 282.305559 246.124052 
M 283.267318 246.124052 
L 283.344771 244.763957 
L 283.53661 243.947901 
L 284.03775 243.879896 
L 284.152392 243.403863 
L 284.305504 242.92783 
L 284.383214 242.791821 
L 284.997714 242.893828 
L 285.07568 243.063839 
L 285.576821 243.369861 
L 285.88407 243.301856 
L 285.961011 242.961832 
L 286.114123 242.485799 
L 286.192346 242.21378 
L 286.807359 242.281785 
L 286.884043 242.621809 
L 287.037924 243.097842 
L 287.115378 243.369861 
L 288.653166 243.369861 
L 288.76832 239.561596 
L 288.883988 237.181431 
L 288.961954 235.277299 
L 289.614411 235.175292 
L 289.691865 235.00528 
L 290.181464 234.699259 
L 290.499742 234.699259 
L 290.577709 233.679188 
L 290.731077 232.489105 
L 290.808787 231.809058 
L 291.423287 231.809058 
L 291.538185 229.632907 
L 291.654365 228.272812 
L 291.732075 227.184737 
L 292.336829 227.116732 
L 292.451214 226.640699 
L 292.614841 226.164666 
L 292.692551 226.028656 
L 293.269607 226.028656 
L 293.347573 224.600557 
L 293.500685 222.934442 
L 293.578652 221.982375 
L 295.116696 221.982375 
L 295.231594 220.8943 
L 295.347005 220.214253 
L 295.425228 219.670215 
L 296.040497 219.568208 
L 296.154882 218.854158 
L 296.308507 218.140109 
L 296.385961 217.936094 
L 296.963529 217.86809 
L 297.07817 217.392057 
M 320.046759 217.392057 
L 320.199359 219.534205 
L 320.276812 221.064312 
L 320.468651 221.982375 
L 320.968765 221.982375 
L 321.046219 220.146248 
L 321.199587 218.004099 
L 321.237545 217.392057 
M 326.546965 217.460061 
L 326.662376 218.31012 
L 326.739829 219.160179 
L 326.931412 219.670215 
L 327.431783 219.670215 
L 327.546937 218.31012 
L 327.662861 217.460061 
M 329.279128 217.698078 
L 329.356069 219.398196 
L 329.509181 221.778361 
L 329.587148 223.138456 
L 330.20216 223.070451 
L 330.316802 222.594418 
L 330.470427 222.118385 
L 330.548137 221.982375 
L 331.125192 221.982375 
L 331.24009 220.622281 
L 331.356014 219.772222 
L 331.433981 219.092175 
L 332.048737 218.990168 
L 332.163378 218.276118 
L 332.317003 217.562068 
L 332.317516 217.460061 
M 337.741834 217.596071 
L 337.819544 219.976236 
L 338.011127 221.404335 
L 338.511754 221.404335 
L 338.626909 218.140109 
L 338.665122 217.73208 
M 343.282333 217.392057 
L 343.627796 220.248255 
L 344.051227 220.248255 
L 344.166381 221.880368 
L 344.282049 222.900439 
L 344.360015 223.716496 
L 344.974515 223.716496 
L 345.089413 225.07659 
L 345.205337 225.926649 
L 345.283303 226.606697 
L 345.897803 226.606697 
L 346.012958 227.966791 
L 346.128625 228.81685 
L 346.206592 229.496897 
L 346.821861 229.564902 
L 346.936502 230.040935 
L 347.089871 230.516968 
L 347.167324 230.652978 
L 347.744892 230.55097 
L 347.859534 229.836921 
L 348.012902 229.122871 
L 348.090356 228.918857 
L 348.667924 228.918857 
L 348.783079 227.830782 
L 348.89849 227.150734 
L 348.976456 226.606697 
L 349.590956 226.606697 
L 349.70611 228.23881 
L 349.821521 229.258881 
L 349.899744 230.074937 
L 350.514757 230.176945 
L 350.629399 230.890994 
L 350.782767 231.605044 
L 350.860477 231.809058 
L 351.475746 231.911065 
L 351.5532 232.081077 
L 352.054596 232.387098 
L 352.399034 232.489105 
L 352.475975 232.659117 
L 352.977628 232.965138 
L 353.284878 233.033143 
L 353.39952 233.509176 
L 353.552632 233.985209 
L 353.630342 234.121218 
L 354.207397 234.121218 
L 354.285107 235.549318 
L 354.438475 237.215433 
L 354.515929 238.167499 
L 355.130941 238.167499 
L 355.246096 239.527594 
L 355.361507 240.377653 
L 355.43973 241.0577 
L 356.978031 240.955693 
L 357.092416 240.241643 
L 357.246041 239.527594 
L 357.323494 239.32358 
L 357.901575 239.221573 
L 358.016217 238.507523 
L 358.169585 237.793473 
L 358.246783 237.589459 
L 358.824864 237.521455 
L 358.939505 237.045421 
L 359.092617 236.569388 
L 359.170071 236.433379 
L 359.747895 236.331372 
L 359.862537 235.617322 
L 360.015905 234.903273 
L 360.093616 234.699259 
L 360.670671 234.699259 
L 360.748124 236.127358 
L 360.901493 237.793473 
L 360.979203 238.74554 
L 361.593959 238.74554 
L 361.671412 239.76561 
L 361.824781 240.955693 
L 361.902491 241.63574 
L 362.51776 241.703745 
L 362.632402 242.179778 
L 362.78577 242.655811 
L 362.863224 242.791821 
L 363.440535 242.791821 
L 363.55569 241.159707 
L 363.671357 240.139636 
L 363.749324 239.32358 
L 364.363823 239.32358 
L 364.478978 238.235504 
L 364.594902 237.419447 
L 364.786741 237.011419 
L 367.133688 237.011419 
L 367.211398 235.991348 
L 367.364767 234.801266 
L 367.442477 234.121218 
L 368.05672 234.121218 
L 368.171874 233.033143 
L 368.288055 232.353096 
L 368.366021 231.809058 
L 369.018222 231.911065 
L 369.095675 232.081077 
L 369.596816 232.387098 
L 369.904322 232.455103 
L 370.018964 232.931136 
L 370.172076 233.407169 
L 370.249273 233.543178 
L 370.82761 233.475174 
L 370.942252 232.99914 
L 371.09562 232.523107 
L 371.173074 232.387098 
L 371.750898 232.319093 
L 371.86554 231.84306 
L 372.018652 231.367027 
L 372.096362 231.231018 
L 372.673674 231.231018 
L 372.788828 230.142942 
L 372.905009 229.326885 
L 373.096334 228.918857 
L 373.597218 228.986862 
L 373.71186 229.462895 
L 373.865485 229.938928 
L 373.942938 230.074937 
L 374.519737 230.074937 
L 374.634892 228.986862 
L 374.750559 228.306815 
L 374.828782 227.762777 
L 375.480983 227.864784 
L 375.558436 228.034796 
L 376.059833 228.340817 
L 376.367339 228.408822 
L 376.481724 228.884855 
L 376.635349 229.360888 
L 376.712547 229.496897 
L 377.290628 229.39489 
L 377.405269 228.680841 
L 377.558381 227.966791 
L 377.635835 227.762777 
L 380.983267 227.762777 
L 381.060721 228.986862 
L 381.214089 230.414961 
L 381.292312 231.231018 
L 381.906812 231.299022 
L 382.021454 231.775055 
L 382.175079 232.251089 
L 382.252532 232.387098 
L 382.8301 232.387098 
L 382.944742 233.747192 
L 383.060666 234.597251 
L 383.138889 235.277299 
L 383.790833 235.175292 
L 383.868287 235.00528 
L 384.369427 234.699259 
L 384.676164 234.699259 
L 384.753874 233.475174 
L 384.907242 232.047074 
L 384.985209 231.231018 
L 385.599708 231.231018 
L 385.677418 232.863131 
L 385.830787 234.767263 
L 385.908753 235.855339 
L 386.523253 235.855339 
L 386.638408 233.951207 
L 386.753819 232.761124 
L 386.832042 231.809058 
L 387.483986 231.707051 
L 387.561439 231.537039 
L 388.063093 231.231018 
L 388.369573 231.231018 
L 388.484727 229.870923 
L 388.600139 229.020864 
L 388.678618 228.340817 
L 389.293374 228.442824 
L 389.408016 229.156874 
L 389.561384 229.870923 
L 389.639094 230.074937 
L 391.139438 230.074937 
L 391.254592 228.442824 
L 391.37026 227.422753 
L 391.44797 226.606697 
L 392.100683 226.504689 
L 392.17788 226.334678 
L 392.679277 226.028656 
L 392.986014 226.028656 
L 393.101168 224.668562 
L 393.216836 223.818503 
L 393.294803 223.138456 
L 393.909559 223.240463 
L 394.0242 223.954512 
L 394.178338 224.668562 
L 394.255279 224.872576 
L 394.83259 224.872576 
L 394.9103 226.096661 
L 395.063669 227.52476 
L 395.141379 228.340817 
L 395.756135 228.340817 
L 395.87129 226.980723 
L 395.986701 226.130664 
L 396.064924 225.450616 
L 396.679423 225.450616 
L 396.794578 227.08273 
L 396.909989 228.1028 
L 396.988468 228.918857 
L 397.602711 228.918857 
L 397.679908 227.898786 
L 397.833533 226.708704 
L 397.9115 226.028656 
L 398.487273 226.028656 
L 398.487273 226.028656 
" clip-path="url(#p4f83480632)" style="fill: none; stroke: #ffff00; stroke-width: 1.5; stroke-linecap: square"/>
   </g>
   <g id="line2d_37">
    <path d="M 73.832727 153.195599 
L 74.448253 153.195599 
L 74.563407 154.555693 
L 74.679075 155.405752 
L 74.757298 156.085799 
L 75.371541 156.085799 
L 75.486695 154.725705 
L 75.602619 153.875646 
L 75.680586 153.195599 
L 76.332787 153.093591 
L 76.41024 152.92358 
L 76.91138 152.617558 
L 77.218117 152.617558 
L 77.333272 150.985445 
L 77.448939 149.965374 
L 77.526649 149.149318 
L 78.141918 149.217322 
L 78.25656 149.693355 
L 78.410185 150.169388 
L 78.487382 150.305398 
L 79.064694 150.305398 
L 79.179848 147.31319 
L 79.295516 145.44306 
L 79.373482 143.946956 
L 80.911527 143.946956 
L 81.026681 141.770805 
L 81.142092 140.410711 
L 81.220315 139.322635 
L 81.835071 139.322635 
L 81.949969 140.410711 
L 82.06538 141.090758 
L 82.143603 141.634796 
L 82.795547 141.736803 
L 82.873258 141.906815 
L 83.374911 142.212836 
L 83.681904 142.144831 
L 83.796546 141.668798 
L 83.949658 141.192765 
L 84.027368 141.056756 
L 84.604679 141.056756 
L 84.719834 138.880604 
L 84.835501 137.52051 
L 84.913211 136.432434 
L 85.527968 136.432434 
L 85.642866 135.07234 
L 85.758533 134.222281 
L 85.8365 133.542234 
L 86.451256 133.542234 
L 86.566154 132.182139 
L 86.681821 131.33208 
L 86.759788 130.652033 
L 87.374287 130.652033 
L 87.489442 132.556165 
L 87.60511 133.746248 
L 87.683076 134.698314 
L 88.298089 134.596307 
L 88.375029 134.086272 
L 88.528654 133.372222 
L 88.606364 132.964194 
L 89.22112 132.964194 
L 89.336275 125.891702 
L 89.451942 121.471396 
L 89.530165 117.93515 
L 90.144409 117.93515 
L 90.259307 115.48698 
L 90.374974 113.956874 
L 90.452941 112.732789 
L 91.067697 112.732789 
L 91.182851 111.100675 
L 91.298519 110.080604 
L 91.375972 109.264548 
L 91.990985 109.264548 
L 92.106139 106.816378 
L 92.221807 105.286272 
L 92.299517 104.062187 
L 92.914273 104.062187 
L 93.029428 102.702092 
L 93.145095 101.852033 
L 93.223318 101.171986 
L 93.837818 101.171986 
L 93.952972 99.811891 
L 94.068383 98.961832 
L 94.146606 98.281785 
L 94.761106 98.281785 
L 94.876261 95.833615 
L 94.991672 94.303509 
L 95.069895 93.079424 
L 95.684138 93.079424 
L 95.761335 91.447311 
L 95.91496 89.543178 
L 95.993183 88.455103 
L 96.645383 88.55711 
L 96.722837 88.727122 
L 97.224234 89.033143 
L 97.568671 88.931136 
L 97.646125 88.761124 
L 98.147522 88.455103 
L 98.454002 88.455103 
L 98.569157 89.543178 
L 98.685337 90.359235 
L 98.877176 90.767263 
L 99.415248 90.86927 
L 99.492445 91.039282 
L 99.993842 91.345303 
L 100.300322 91.345303 
L 100.378032 89.917204 
L 100.531401 88.251089 
L 100.609367 87.299022 
L 102.146899 87.299022 
L 102.224609 85.462895 
L 102.377977 83.320746 
L 102.455944 82.096661 
L 103.070956 81.994654 
L 103.185598 81.280604 
L 103.339223 80.566555 
L 103.41642 80.362541 
L 103.993731 80.362541 
L 104.108886 76.826295 
L 104.224553 74.616142 
L 104.30252 72.848019 
L 104.917276 72.848019 
L 105.032174 70.12783 
L 105.147842 68.427712 
L 105.225808 67.067617 
L 105.878522 66.96561 
L 105.956232 66.795599 
L 106.456859 66.489577 
L 106.764109 66.489577 
L 106.879264 64.313426 
L 106.994418 62.953332 
L 107.072385 61.865256 
L 107.687141 61.865256 
L 107.802039 64.857464 
L 107.91745 66.727594 
L 107.995929 68.223698 
L 108.610685 68.223698 
L 108.725583 69.855811 
L 108.841251 70.875882 
L 108.919217 71.691939 
L 109.571674 71.793946 
L 109.648872 71.963957 
L 110.150268 72.269979 
L 110.494706 72.371986 
L 110.57216 72.541998 
L 111.073813 72.848019 
L 111.380037 72.848019 
L 111.457234 75.500203 
L 111.611115 78.594418 
L 111.688826 80.362541 
L 112.303582 80.362541 
L 112.418736 84.986862 
L 112.53466 87.877063 
L 112.612114 90.189223 
L 113.226613 90.189223 
L 113.341768 92.093355 
L 113.457435 93.283438 
L 113.535402 94.235504 
L 114.149902 94.235504 
L 114.265056 96.683674 
L 114.380724 98.21378 
L 114.45869 99.437865 
L 115.073446 99.437865 
L 115.188344 101.341998 
L 115.304012 102.53208 
L 115.382235 103.484146 
L 115.996734 103.484146 
L 116.074188 104.300203 
L 116.227556 105.252269 
L 116.305779 105.796307 
L 116.920536 105.864312 
L 117.035177 106.340345 
L 117.188289 106.816378 
L 117.265743 106.952387 
L 117.843567 106.952387 
L 117.958722 108.856519 
L 118.074133 110.046602 
L 118.152356 110.998668 
L 118.8043 111.100675 
L 118.88201 111.270687 
L 119.38315 111.576708 
L 119.689887 111.576708 
L 119.805042 114.296897 
L 119.920709 115.997015 
L 119.998676 117.35711 
L 120.613688 117.289105 
L 120.72833 116.813072 
L 120.881698 116.337039 
L 120.959665 116.20103 
L 121.573908 116.099022 
L 121.651362 115.929011 
L 122.153015 115.622989 
L 122.459752 115.622989 
L 122.574906 118.071159 
L 122.690574 119.601266 
L 122.76854 120.825351 
L 123.38304 120.825351 
L 123.460237 122.661478 
L 123.613862 124.803627 
L 123.691829 126.027712 
L 124.344029 125.925705 
L 124.421483 125.755693 
L 124.92288 125.449672 
L 125.230129 125.347665 
L 125.344771 124.633615 
L 125.498396 123.919566 
L 125.575849 123.715551 
L 126.153161 123.715551 
L 126.268316 127.251797 
L 126.383727 129.46195 
L 126.461693 131.230073 
L 127.113894 131.128066 
L 127.191347 130.958054 
L 127.692744 130.652033 
L 127.999481 130.652033 
L 128.114379 126.843769 
L 128.230047 124.463603 
L 128.30827 122.559471 
L 128.923026 122.559471 
L 129.03818 120.38332 
L 129.153591 119.023226 
L 129.231814 117.93515 
L 129.846314 117.93515 
L 129.961468 116.031018 
L 130.076879 114.840935 
L 130.155102 113.888869 
L 130.769602 113.888869 
L 130.884757 112.800793 
L 131.000681 111.984737 
L 131.192519 111.576708 
L 131.69289 111.576708 
L 131.808045 105.592293 
L 131.923456 101.852033 
L 132.001679 98.859825 
L 132.616948 98.92783 
L 132.731333 99.403863 
L 132.884445 99.879896 
L 132.962155 100.015906 
L 133.577168 100.117913 
L 133.654621 100.287924 
L 134.155505 100.593946 
L 134.462498 100.593946 
L 134.577653 99.50587 
L 134.693577 98.825823 
L 134.771287 98.281785 
L 136.309075 98.281785 
L 136.386528 97.261714 
L 136.540153 96.071632 
L 136.61812 95.391584 
L 137.233132 95.459589 
L 137.347517 95.935622 
L 137.501399 96.411655 
L 137.578596 96.547665 
L 138.155651 96.547665 
L 138.233105 98.995835 
L 138.38673 101.852033 
L 138.46444 103.484146 
L 139.079196 103.484146 
L 139.19435 107.56443 
L 139.310018 110.114607 
L 139.387984 112.154749 
L 140.002484 112.154749 
L 140.117639 114.874937 
L 140.233306 116.575055 
L 140.311273 117.93515 
L 140.925772 117.93515 
L 141.040927 120.927358 
L 141.156594 122.797488 
L 141.234561 124.293591 
L 141.849573 124.361596 
L 141.964215 124.837629 
L 142.117583 125.313662 
L 142.195037 125.449672 
L 142.772605 125.517677 
L 142.849802 125.8577 
L 143.003171 126.333733 
L 143.080881 126.605752 
L 143.695637 126.605752 
L 143.810535 129.869979 
L 143.926459 131.91012 
L 144.004425 133.542234 
L 145.542213 133.542234 
L 145.657368 134.902328 
L 145.772779 135.752387 
L 145.851002 136.432434 
L 146.465501 136.432434 
L 146.580656 139.696661 
L 146.696067 141.736803 
L 146.77429 143.368916 
L 147.38879 143.368916 
L 147.503944 148.809294 
L 147.619612 152.20953 
L 147.697835 154.929719 
L 148.312078 154.929719 
L 148.427232 156.561832 
L 148.542643 157.581903 
L 148.620866 158.39796 
L 149.235366 158.39796 
L 149.35052 162.750262 
L 149.465931 165.470451 
L 149.544154 167.646602 
L 150.158654 167.646602 
L 150.273809 170.910829 
L 150.389476 172.95097 
L 150.467443 174.583084 
L 151.081942 174.583084 
L 151.159396 177.847311 
L 151.313021 181.655575 
L 151.390474 183.831726 
L 152.004974 183.831726 
L 152.082941 186.891939 
L 152.236565 190.462187 
L 152.314019 192.502328 
L 152.929032 192.604335 
L 153.043673 193.318385 
L 153.197042 194.032434 
L 153.274752 194.236449 
L 153.851807 194.236449 
L 153.966961 203.485091 
L 154.082629 209.265492 
L 154.160595 213.889813 
L 155.698896 213.991821 
L 155.813538 214.70587 
L 155.967419 215.41992 
L 156.04436 215.623934 
L 156.621671 215.623934 
L 156.736826 217.256047 
M 159.622358 217.086035 
L 159.700581 215.045894 
L 160.314824 215.045894 
L 160.392278 211.781667 
L 160.545903 207.973403 
L 160.623869 205.797251 
L 161.238112 205.797251 
L 161.353267 202.261006 
L 161.468678 200.050852 
L 161.546901 198.28273 
L 162.161657 198.28273 
L 162.276812 196.650616 
L 162.392223 195.630545 
L 162.470446 194.814489 
L 163.084945 194.814489 
L 163.199843 192.0943 
L 163.315254 190.394182 
L 163.393477 189.034087 
L 164.007977 189.034087 
L 164.123132 187.673993 
L 164.238543 186.823934 
L 164.317022 186.143887 
L 165.85481 186.143887 
L 165.969964 183.695717 
L 166.085375 182.16561 
L 166.163598 180.941525 
L 166.778355 180.941525 
L 166.893509 179.309412 
L 167.00892 178.289341 
L 167.086887 177.473285 
L 167.70113 177.473285 
L 167.778583 176.657228 
L 167.932465 175.705162 
L 168.010175 175.161124 
L 168.662632 175.059117 
L 168.739829 174.889105 
L 169.240969 174.583084 
L 169.547963 174.583084 
L 169.663117 172.678952 
L 169.778785 171.488869 
L 169.856495 170.536803 
L 171.394539 170.536803 
L 171.509694 169.448727 
L 171.625361 168.76868 
L 171.703328 168.224642 
L 172.317827 168.224642 
L 172.432982 169.856756 
L 172.548649 170.876826 
L 172.626616 171.692883 
L 173.241115 171.692883 
L 173.35627 173.052978 
L 173.471937 173.903037 
L 173.549648 174.583084 
L 174.164404 174.583084 
L 174.279302 175.943178 
L 174.395226 176.793237 
L 174.473449 177.473285 
L 175.087948 177.473285 
L 175.202846 179.377417 
L 175.318514 180.567499 
L 175.396737 181.519566 
L 176.011493 181.58757 
L 176.088434 181.927594 
L 176.241802 182.403627 
L 176.319769 182.675646 
L 176.934268 182.675646 
L 177.049423 186.48391 
L 177.16509 188.864076 
L 177.243057 190.768208 
L 177.857813 190.768208 
L 177.972711 193.216378 
L 178.088635 194.746484 
L 178.166345 195.970569 
L 178.781101 195.970569 
L 178.895999 197.874701 
L 179.011667 199.064784 
L 179.089633 200.01685 
L 179.74209 200.118857 
L 179.819544 200.288869 
L 180.320941 200.59489 
L 180.62819 200.526885 
L 180.742832 200.050852 
L 180.8962 199.574819 
L 180.973654 199.43881 
L 181.550453 199.43881 
L 181.628163 203.111065 
L 181.781788 207.395362 
L 181.859498 209.843532 
L 182.473741 209.843532 
L 182.551707 212.291702 
L 182.705332 215.147901 
L 182.783042 216.780014 
L 183.397029 216.780014 
L 183.398055 217.256047 
M 297.116641 217.324052 
L 297.194351 216.984028 
L 297.424916 216.780014 
L 297.88656 216.780014 
L 298.001715 215.41992 
L 298.117126 214.569861 
L 298.195093 213.889813 
L 298.809592 213.889813 
L 298.924747 212.529719 
L 299.040414 211.67966 
L 299.118381 210.999613 
L 300.656682 211.067617 
L 300.771323 211.543651 
L 300.924692 212.019684 
L 301.002145 212.155693 
L 301.579713 212.155693 
L 301.694868 213.515787 
L 301.810022 214.365847 
L 301.888245 215.045894 
L 302.502745 215.045894 
L 302.580199 214.229837 
L 302.733567 213.277771 
L 302.81179 212.733733 
L 303.426803 212.665728 
L 303.541188 212.189695 
L 303.694556 211.713662 
L 303.77201 211.577653 
L 304.349578 211.577653 
L 304.464732 210.217558 
L 304.580913 209.197488 
L 304.772752 208.687452 
L 305.272353 208.687452 
L 305.350063 210.115551 
L 305.503688 211.781667 
L 305.581398 212.733733 
L 306.196411 212.631726 
L 306.273608 212.121691 
L 306.426976 211.407641 
L 306.504943 210.999613 
L 307.119442 210.999613 
L 307.234597 207.735386 
L 307.350264 205.695244 
L 307.427975 204.063131 
L 308.042731 204.063131 
L 308.157885 205.151207 
L 308.273553 205.831254 
L 308.351519 206.375292 
L 308.966532 206.273285 
L 309.081173 205.559235 
L 309.234542 204.845185 
L 309.311739 204.641171 
L 310.812339 204.641171 
L 310.889792 206.681313 
L 311.043417 209.061478 
L 311.121384 210.421573 
L 311.735883 210.421573 
L 311.851038 212.053686 
L 311.966449 213.073757 
L 312.044672 213.889813 
L 312.659428 213.991821 
L 312.736625 214.501856 
L 312.889994 215.215906 
L 312.96796 215.623934 
L 314.506261 215.555929 
L 314.620903 215.079896 
L 314.774271 214.603863 
L 314.851725 214.467854 
L 315.429036 214.467854 
L 315.544191 212.019684 
L 315.659858 210.489577 
L 315.737825 209.265492 
L 316.352837 209.333497 
L 316.467479 209.80953 
L 316.620847 210.285563 
L 316.698301 210.421573 
L 317.275356 210.421573 
L 317.353066 211.645658 
L 317.506435 213.073757 
L 317.584145 213.889813 
L 318.236858 213.991821 
L 318.313799 214.161832 
L 318.815196 214.467854 
L 319.122445 214.467854 
L 319.237343 215.555929 
L 319.352755 216.235976 
L 319.430978 216.780014 
L 320.045734 216.780014 
L 320.046247 217.086035 
M 321.238058 217.086035 
L 321.353725 216.780014 
L 321.892566 216.712009 
L 322.007208 216.235976 
L 322.160577 215.759943 
L 322.238287 215.623934 
L 322.816368 215.521927 
L 322.931009 214.807877 
L 323.084121 214.093828 
L 323.161575 213.889813 
L 323.73863 213.889813 
L 323.853784 212.2577 
L 323.969708 211.237629 
L 324.047419 210.421573 
L 324.661662 210.421573 
L 324.739372 211.645658 
L 324.89274 213.073757 
L 324.970707 213.889813 
L 325.585206 213.889813 
L 325.700361 215.249908 
L 325.816028 216.099967 
L 325.894251 216.780014 
L 326.508751 216.780014 
L 326.546452 217.29005 
M 327.663374 217.29005 
L 327.854956 216.780014 
L 328.392772 216.882021 
L 328.470482 217.052033 
L 328.971622 217.358054 
L 329.278616 217.358054 
M 332.356243 217.358054 
L 332.971512 217.358054 
L 333.086666 216.269979 
L 333.20259 215.589932 
L 333.280557 215.045894 
L 333.895057 215.045894 
L 334.010211 213.141762 
L 334.126135 211.951679 
L 334.204102 210.999613 
L 334.818601 210.897606 
L 334.896055 210.38757 
L 335.049167 209.673521 
L 335.126877 209.265492 
L 335.741633 209.265492 
L 335.856531 210.897606 
L 335.972455 211.917677 
L 336.050422 212.733733 
L 336.702622 212.83574 
L 336.779819 213.005752 
L 337.281472 213.311773 
L 337.588209 213.311773 
L 337.703107 217.120038 
M 338.665635 217.324052 
L 339.011355 214.467854 
L 339.435555 214.399849 
L 339.550197 213.923816 
L 339.703565 213.447783 
L 339.780762 213.311773 
L 343.127938 213.311773 
L 343.243093 216.576 
L 343.28182 216.984028 
L 343.28182 216.984028 
" clip-path="url(#p4f83480632)" style="fill: none; stroke: #ff0000; stroke-width: 1.5; stroke-linecap: square"/>
   </g>
   <g id="LineCollection_1">
    <path d="M 138.424174 265.797818 
L 138.424174 52.154182 
" clip-path="url(#p4f83480632)" style="fill: none; stroke-dasharray: 5.55,2.4; stroke-dashoffset: 0; stroke: #000000; stroke-width: 1.5"/>
   </g>
   <g id="patch_3">
    <path d="M 57.6 276.48 
L 57.6 41.472 
" style="fill: none; stroke: #000000; stroke-width: 0.8; stroke-linejoin: miter; stroke-linecap: square"/>
   </g>
   <g id="patch_4">
    <path d="M 414.72 276.48 
L 414.72 41.472 
" style="fill: none; stroke: #000000; stroke-width: 0.8; stroke-linejoin: miter; stroke-linecap: square"/>
   </g>
   <g id="patch_5">
    <path d="M 57.6 276.48 
L 414.72 276.48 
" style="fill: none; stroke: #000000; stroke-width: 0.8; stroke-linejoin: miter; stroke-linecap: square"/>
   </g>
   <g id="patch_6">
    <path d="M 57.6 41.472 
L 414.72 41.472 
" style="fill: none; stroke: #000000; stroke-width: 0.8; stroke-linejoin: miter; stroke-linecap: square"/>
   </g>
   <g id="text_20">
    <!-- dinky fan on -->
    <g transform="translate(136.344487 255.836575) rotate(-90) scale(0.1 -0.1)">
     <defs>
      <path id="DejaVuSans-64" d="M 2906 2969 
L 2906 4863 
L 3481 4863 
L 3481 0 
L 2906 0 
L 2906 525 
Q 2725 213 2448 61 
Q 2172 -91 1784 -91 
Q 1150 -91 751 415 
Q 353 922 353 1747 
Q 353 2572 751 3078 
Q 1150 3584 1784 3584 
Q 2172 3584 2448 3432 
Q 2725 3281 2906 2969 
z
M 947 1747 
Q 947 1113 1208 752 
Q 1469 391 1925 391 
Q 2381 391 2643 752 
Q 2906 1113 2906 1747 
Q 2906 2381 2643 2742 
Q 2381 3103 1925 3103 
Q 1469 3103 1208 2742 
Q 947 2381 947 1747 
z
" transform="scale(0.015625)"/>
      <path id="DejaVuSans-69" d="M 603 3500 
L 1178 3500 
L 1178 0 
L 603 0 
L 603 3500 
z
M 603 4863 
L 1178 4863 
L 1178 4134 
L 603 4134 
L 603 4863 
z
" transform="scale(0.015625)"/>
      <path id="DejaVuSans-6b" d="M 581 4863 
L 1159 4863 
L 1159 1991 
L 2875 3500 
L 3609 3500 
L 1753 1863 
L 3688 0 
L 2938 0 
L 1159 1709 
L 1159 0 
L 581 0 
L 581 4863 
z
" transform="scale(0.015625)"/>
      <path id="DejaVuSans-79" d="M 2059 -325 
Q 1816 -950 1584 -1140 
Q 1353 -1331 966 -1331 
L 506 -1331 
L 506 -850 
L 844 -850 
Q 1081 -850 1212 -737 
Q 1344 -625 1503 -206 
L 1606 56 
L 191 3500 
L 800 3500 
L 1894 763 
L 2988 3500 
L 3597 3500 
L 2059 -325 
z
" transform="scale(0.015625)"/>
      <path id="DejaVuSans-66" d="M 2375 4863 
L 2375 4384 
L 1825 4384 
Q 1516 4384 1395 4259 
Q 1275 4134 1275 3809 
L 1275 3500 
L 2222 3500 
L 2222 3053 
L 1275 3053 
L 1275 0 
L 697 0 
L 697 3053 
L 147 3053 
L 147 3500 
L 697 3500 
L 697 3744 
Q 697 4328 969 4595 
Q 1241 4863 1831 4863 
L 2375 4863 
z
" transform="scale(0.015625)"/>
      <path id="DejaVuSans-61" d="M 2194 1759 
Q 1497 1759 1228 1600 
Q 959 1441 959 1056 
Q 959 750 1161 570 
Q 1363 391 1709 391 
Q 2188 391 2477 730 
Q 2766 1069 2766 1631 
L 2766 1759 
L 2194 1759 
z
M 3341 1997 
L 3341 0 
L 2766 0 
L 2766 531 
Q 2569 213 2275 61 
Q 1981 -91 1556 -91 
Q 1019 -91 701 211 
Q 384 513 384 1019 
Q 384 1609 779 1909 
Q 1175 2209 1959 2209 
L 2766 2209 
L 2766 2266 
Q 2766 2663 2505 2880 
Q 2244 3097 1772 3097 
Q 1472 3097 1187 3025 
Q 903 2953 641 2809 
L 641 3341 
Q 956 3463 1253 3523 
Q 1550 3584 1831 3584 
Q 2591 3584 2966 3190 
Q 3341 2797 3341 1997 
z
" transform="scale(0.015625)"/>
      <path id="DejaVuSans-6f" d="M 1959 3097 
Q 1497 3097 1228 2736 
Q 959 2375 959 1747 
Q 959 1119 1226 758 
Q 1494 397 1959 397 
Q 2419 397 2687 759 
Q 2956 1122 2956 1747 
Q 2956 2369 2687 2733 
Q 2419 3097 1959 3097 
z
M 1959 3584 
Q 2709 3584 3137 3096 
Q 3566 2609 3566 1747 
Q 3566 888 3137 398 
Q 2709 -91 1959 -91 
Q 1206 -91 779 398 
Q 353 888 353 1747 
Q 353 2609 779 3096 
Q 1206 3584 1959 3584 
z
" transform="scale(0.015625)"/>
     </defs>
     <use xlink:href="#DejaVuSans-64"/>
     <use xlink:href="#DejaVuSans-69" x="63.476562"/>
     <use xlink:href="#DejaVuSans-6e" x="91.259766"/>
     <use xlink:href="#DejaVuSans-6b" x="154.638672"/>
     <use xlink:href="#DejaVuSans-79" x="208.923828"/>
     <use xlink:href="#DejaVuSans-20" x="268.103516"/>
     <use xlink:href="#DejaVuSans-66" x="299.890625"/>
     <use xlink:href="#DejaVuSans-61" x="335.095703"/>
     <use xlink:href="#DejaVuSans-6e" x="396.375"/>
     <use xlink:href="#DejaVuSans-20" x="459.753906"/>
     <use xlink:href="#DejaVuSans-6f" x="491.541016"/>
     <use xlink:href="#DejaVuSans-6e" x="552.722656"/>
    </g>
   </g>
   <g id="text_21">
    <!-- Radon in Office -->
    <g transform="translate(190.277812 35.472) scale(0.12 -0.12)">
     <defs>
      <path id="DejaVuSans-63" d="M 3122 3366 
L 3122 2828 
Q 2878 2963 2633 3030 
Q 2388 3097 2138 3097 
Q 1578 3097 1268 2742 
Q 959 2388 959 1747 
Q 959 1106 1268 751 
Q 1578 397 2138 397 
Q 2388 397 2633 464 
Q 2878 531 3122 666 
L 3122 134 
Q 2881 22 2623 -34 
Q 2366 -91 2075 -91 
Q 1284 -91 818 406 
Q 353 903 353 1747 
Q 353 2603 823 3093 
Q 1294 3584 2113 3584 
Q 2378 3584 2631 3529 
Q 2884 3475 3122 3366 
z
" transform="scale(0.015625)"/>
     </defs>
     <use xlink:href="#DejaVuSans-52"/>
     <use xlink:href="#DejaVuSans-61" x="67.232422"/>
     <use xlink:href="#DejaVuSans-64" x="128.511719"/>
     <use xlink:href="#DejaVuSans-6f" x="191.988281"/>
     <use xlink:href="#DejaVuSans-6e" x="253.169922"/>
     <use xlink:href="#DejaVuSans-20" x="316.548828"/>
     <use xlink:href="#DejaVuSans-69" x="348.335938"/>
     <use xlink:href="#DejaVuSans-6e" x="376.119141"/>
     <use xlink:href="#DejaVuSans-20" x="439.498047"/>
     <use xlink:href="#DejaVuSans-4f" x="471.285156"/>
     <use xlink:href="#DejaVuSans-66" x="549.996094"/>
     <use xlink:href="#DejaVuSans-66" x="585.201172"/>
     <use xlink:href="#DejaVuSans-69" x="620.40625"/>
     <use xlink:href="#DejaVuSans-63" x="648.189453"/>
     <use xlink:href="#DejaVuSans-65" x="703.169922"/>
    </g>
   </g>
   <g id="legend_1">
    <g id="patch_7">
     <path d="M 350.785625 93.506375 
L 407.72 93.506375 
Q 409.72 93.506375 409.72 91.506375 
L 409.72 48.472 
Q 409.72 46.472 407.72 46.472 
L 350.785625 46.472 
Q 348.785625 46.472 348.785625 48.472 
L 348.785625 91.506375 
Q 348.785625 93.506375 350.785625 93.506375 
z
" style="fill: #ffffff; opacity: 0.8; stroke: #cccccc; stroke-linejoin: miter"/>
    </g>
    <g id="line2d_38">
     <path d="M 352.785625 54.570437 
L 362.785625 54.570437 
L 372.785625 54.570437 
" style="fill: none; stroke: #008000; stroke-width: 1.5; stroke-linecap: square"/>
    </g>
    <g id="text_22">
     <!-- good -->
     <g transform="translate(380.785625 58.070437) scale(0.1 -0.1)">
      <defs>
       <path id="DejaVuSans-67" d="M 2906 1791 
Q 2906 2416 2648 2759 
Q 2391 3103 1925 3103 
Q 1463 3103 1205 2759 
Q 947 2416 947 1791 
Q 947 1169 1205 825 
Q 1463 481 1925 481 
Q 2391 481 2648 825 
Q 2906 1169 2906 1791 
z
M 3481 434 
Q 3481 -459 3084 -895 
Q 2688 -1331 1869 -1331 
Q 1566 -1331 1297 -1286 
Q 1028 -1241 775 -1147 
L 775 -588 
Q 1028 -725 1275 -790 
Q 1522 -856 1778 -856 
Q 2344 -856 2625 -561 
Q 2906 -266 2906 331 
L 2906 616 
Q 2728 306 2450 153 
Q 2172 0 1784 0 
Q 1141 0 747 490 
Q 353 981 353 1791 
Q 353 2603 747 3093 
Q 1141 3584 1784 3584 
Q 2172 3584 2450 3431 
Q 2728 3278 2906 2969 
L 2906 3500 
L 3481 3500 
L 3481 434 
z
" transform="scale(0.015625)"/>
      </defs>
      <use xlink:href="#DejaVuSans-67"/>
      <use xlink:href="#DejaVuSans-6f" x="63.476562"/>
      <use xlink:href="#DejaVuSans-6f" x="124.658203"/>
      <use xlink:href="#DejaVuSans-64" x="185.839844"/>
     </g>
    </g>
    <g id="line2d_39">
     <path d="M 352.785625 69.248562 
L 362.785625 69.248562 
L 372.785625 69.248562 
" style="fill: none; stroke: #ffff00; stroke-width: 1.5; stroke-linecap: square"/>
    </g>
    <g id="text_23">
     <!-- bad -->
     <g transform="translate(380.785625 72.748562) scale(0.1 -0.1)">
      <defs>
       <path id="DejaVuSans-62" d="M 3116 1747 
Q 3116 2381 2855 2742 
Q 2594 3103 2138 3103 
Q 1681 3103 1420 2742 
Q 1159 2381 1159 1747 
Q 1159 1113 1420 752 
Q 1681 391 2138 391 
Q 2594 391 2855 752 
Q 3116 1113 3116 1747 
z
M 1159 2969 
Q 1341 3281 1617 3432 
Q 1894 3584 2278 3584 
Q 2916 3584 3314 3078 
Q 3713 2572 3713 1747 
Q 3713 922 3314 415 
Q 2916 -91 2278 -91 
Q 1894 -91 1617 61 
Q 1341 213 1159 525 
L 1159 0 
L 581 0 
L 581 4863 
L 1159 4863 
L 1159 2969 
z
" transform="scale(0.015625)"/>
      </defs>
      <use xlink:href="#DejaVuSans-62"/>
      <use xlink:href="#DejaVuSans-61" x="63.476562"/>
      <use xlink:href="#DejaVuSans-64" x="124.755859"/>
     </g>
    </g>
    <g id="line2d_40">
     <path d="M 352.785625 83.926687 
L 362.785625 83.926687 
L 372.785625 83.926687 
" style="fill: none; stroke: #ff0000; stroke-width: 1.5; stroke-linecap: square"/>
    </g>
    <g id="text_24">
     <!-- ugly -->
     <g transform="translate(380.785625 87.426687) scale(0.1 -0.1)">
      <defs>
       <path id="DejaVuSans-75" d="M 544 1381 
L 544 3500 
L 1119 3500 
L 1119 1403 
Q 1119 906 1312 657 
Q 1506 409 1894 409 
Q 2359 409 2629 706 
Q 2900 1003 2900 1516 
L 2900 3500 
L 3475 3500 
L 3475 0 
L 2900 0 
L 2900 538 
Q 2691 219 2414 64 
Q 2138 -91 1772 -91 
Q 1169 -91 856 284 
Q 544 659 544 1381 
z
M 1991 3584 
L 1991 3584 
z
" transform="scale(0.015625)"/>
       <path id="DejaVuSans-6c" d="M 603 4863 
L 1178 4863 
L 1178 0 
L 603 0 
L 603 4863 
z
" transform="scale(0.015625)"/>
      </defs>
      <use xlink:href="#DejaVuSans-75"/>
      <use xlink:href="#DejaVuSans-67" x="63.378906"/>
      <use xlink:href="#DejaVuSans-6c" x="126.855469"/>
      <use xlink:href="#DejaVuSans-79" x="154.638672"/>
     </g>
    </g>
   </g>
  </g>
 </g>
 <defs>
  <clipPath id="p4f83480632">
   <rect x="57.6" y="41.472" width="357.12" height="235.008"/>
  </clipPath>
 </defs>
</svg>
