<?xml version="1.0" encoding="utf-8" standalone="no"?>
<!DOCTYPE svg PUBLIC "-//W3C//DTD SVG 1.1//EN"
  "http://www.w3.org/Graphics/SVG/1.1/DTD/svg11.dtd">
<svg xmlns:xlink="http://www.w3.org/1999/xlink" width="460.8pt" height="345.6pt" viewBox="0 0 460.8 345.6" xmlns="http://www.w3.org/2000/svg" version="1.1">
 <metadata>
  <rdf:RDF xmlns:dc="http://purl.org/dc/elements/1.1/" xmlns:cc="http://creativecommons.org/ns#" xmlns:rdf="http://www.w3.org/1999/02/22-rdf-syntax-ns#">
   <cc:Work>
    <dc:type rdf:resource="http://purl.org/dc/dcmitype/StillImage"/>
    <dc:date>2024-10-30T21:36:44.412308</dc:date>
    <dc:format>image/svg+xml</dc:format>
    <dc:creator>
     <cc:Agent>
      <dc:title>Matplotlib v3.9.2, https://matplotlib.org/</dc:title>
     </cc:Agent>
    </dc:creator>
   </cc:Work>
  </rdf:RDF>
 </metadata>
 <defs>
  <style type="text/css">*{stroke-linejoin: round; stroke-linecap: butt}</style>
 </defs>
 <g id="figure_1">
  <g id="patch_1">
   <path d="M 0 345.6 
L 460.8 345.6 
L 460.8 0 
L 0 0 
z
" style="fill: #ffffff"/>
  </g>
  <g id="axes_1">
   <g id="patch_2">
    <path d="M 57.6 276.48 
L 414.72 276.48 
L 414.72 41.472 
L 57.6 41.472 
z
" style="fill: #c0c0c0"/>
   </g>
   <g id="matplotlib.axis_1">
    <g id="xtick_1">
     <g id="line2d_1">
      <path d="M 95.024247 276.48 
L 95.024247 41.472 
" clip-path="url(#p669afc4015)" style="fill: none; stroke: #ffffff; stroke-width: 0.8; stroke-linecap: square"/>
     </g>
     <g id="line2d_2">
      <defs>
       <path id="m85767b91a3" d="M 0 0 
L 0 3.5 
" style="stroke: #000000; stroke-width: 0.8"/>
      </defs>
      <g>
       <use xlink:href="#m85767b91a3" x="95.024247" y="276.48" style="stroke: #000000; stroke-width: 0.8"/>
      </g>
     </g>
     <g id="text_1">
      <!-- 2024-10-13 -->
      <g transform="translate(43.654796 319.118252) rotate(-30) scale(0.1 -0.1)">
       <defs>
        <path id="DejaVuSans-32" d="M 1228 531 
L 3431 531 
L 3431 0 
L 469 0 
L 469 531 
Q 828 903 1448 1529 
Q 2069 2156 2228 2338 
Q 2531 2678 2651 2914 
Q 2772 3150 2772 3378 
Q 2772 3750 2511 3984 
Q 2250 4219 1831 4219 
Q 1534 4219 1204 4116 
Q 875 4013 500 3803 
L 500 4441 
Q 881 4594 1212 4672 
Q 1544 4750 1819 4750 
Q 2544 4750 2975 4387 
Q 3406 4025 3406 3419 
Q 3406 3131 3298 2873 
Q 3191 2616 2906 2266 
Q 2828 2175 2409 1742 
Q 1991 1309 1228 531 
z
" transform="scale(0.015625)"/>
        <path id="DejaVuSans-30" d="M 2034 4250 
Q 1547 4250 1301 3770 
Q 1056 3291 1056 2328 
Q 1056 1369 1301 889 
Q 1547 409 2034 409 
Q 2525 409 2770 889 
Q 3016 1369 3016 2328 
Q 3016 3291 2770 3770 
Q 2525 4250 2034 4250 
z
M 2034 4750 
Q 2819 4750 3233 4129 
Q 3647 3509 3647 2328 
Q 3647 1150 3233 529 
Q 2819 -91 2034 -91 
Q 1250 -91 836 529 
Q 422 1150 422 2328 
Q 422 3509 836 4129 
Q 1250 4750 2034 4750 
z
" transform="scale(0.015625)"/>
        <path id="DejaVuSans-34" d="M 2419 4116 
L 825 1625 
L 2419 1625 
L 2419 4116 
z
M 2253 4666 
L 3047 4666 
L 3047 1625 
L 3713 1625 
L 3713 1100 
L 3047 1100 
L 3047 0 
L 2419 0 
L 2419 1100 
L 313 1100 
L 313 1709 
L 2253 4666 
z
" transform="scale(0.015625)"/>
        <path id="DejaVuSans-2d" d="M 313 2009 
L 1997 2009 
L 1997 1497 
L 313 1497 
L 313 2009 
z
" transform="scale(0.015625)"/>
        <path id="DejaVuSans-31" d="M 794 531 
L 1825 531 
L 1825 4091 
L 703 3866 
L 703 4441 
L 1819 4666 
L 2450 4666 
L 2450 531 
L 3481 531 
L 3481 0 
L 794 0 
L 794 531 
z
" transform="scale(0.015625)"/>
        <path id="DejaVuSans-33" d="M 2597 2516 
Q 3050 2419 3304 2112 
Q 3559 1806 3559 1356 
Q 3559 666 3084 287 
Q 2609 -91 1734 -91 
Q 1441 -91 1130 -33 
Q 819 25 488 141 
L 488 750 
Q 750 597 1062 519 
Q 1375 441 1716 441 
Q 2309 441 2620 675 
Q 2931 909 2931 1356 
Q 2931 1769 2642 2001 
Q 2353 2234 1838 2234 
L 1294 2234 
L 1294 2753 
L 1863 2753 
Q 2328 2753 2575 2939 
Q 2822 3125 2822 3475 
Q 2822 3834 2567 4026 
Q 2313 4219 1838 4219 
Q 1578 4219 1281 4162 
Q 984 4106 628 3988 
L 628 4550 
Q 988 4650 1302 4700 
Q 1616 4750 1894 4750 
Q 2613 4750 3031 4423 
Q 3450 4097 3450 3541 
Q 3450 3153 3228 2886 
Q 3006 2619 2597 2516 
z
" transform="scale(0.015625)"/>
       </defs>
       <use xlink:href="#DejaVuSans-32"/>
       <use xlink:href="#DejaVuSans-30" x="63.623047"/>
       <use xlink:href="#DejaVuSans-32" x="127.246094"/>
       <use xlink:href="#DejaVuSans-34" x="190.869141"/>
       <use xlink:href="#DejaVuSans-2d" x="254.492188"/>
       <use xlink:href="#DejaVuSans-31" x="290.576172"/>
       <use xlink:href="#DejaVuSans-30" x="354.199219"/>
       <use xlink:href="#DejaVuSans-2d" x="417.822266"/>
       <use xlink:href="#DejaVuSans-31" x="453.90625"/>
       <use xlink:href="#DejaVuSans-33" x="517.529297"/>
      </g>
     </g>
    </g>
    <g id="xtick_2">
     <g id="line2d_3">
      <path d="M 162.932057 276.48 
L 162.932057 41.472 
" clip-path="url(#p669afc4015)" style="fill: none; stroke: #ffffff; stroke-width: 0.8; stroke-linecap: square"/>
     </g>
     <g id="line2d_4">
      <g>
       <use xlink:href="#m85767b91a3" x="162.932057" y="276.48" style="stroke: #000000; stroke-width: 0.8"/>
      </g>
     </g>
     <g id="text_2">
      <!-- 2024-10-17 -->
      <g transform="translate(111.562606 319.118252) rotate(-30) scale(0.1 -0.1)">
       <defs>
        <path id="DejaVuSans-37" d="M 525 4666 
L 3525 4666 
L 3525 4397 
L 1831 0 
L 1172 0 
L 2766 4134 
L 525 4134 
L 525 4666 
z
" transform="scale(0.015625)"/>
       </defs>
       <use xlink:href="#DejaVuSans-32"/>
       <use xlink:href="#DejaVuSans-30" x="63.623047"/>
       <use xlink:href="#DejaVuSans-32" x="127.246094"/>
       <use xlink:href="#DejaVuSans-34" x="190.869141"/>
       <use xlink:href="#DejaVuSans-2d" x="254.492188"/>
       <use xlink:href="#DejaVuSans-31" x="290.576172"/>
       <use xlink:href="#DejaVuSans-30" x="354.199219"/>
       <use xlink:href="#DejaVuSans-2d" x="417.822266"/>
       <use xlink:href="#DejaVuSans-31" x="453.90625"/>
       <use xlink:href="#DejaVuSans-37" x="517.529297"/>
      </g>
     </g>
    </g>
    <g id="xtick_3">
     <g id="line2d_5">
      <path d="M 230.839867 276.48 
L 230.839867 41.472 
" clip-path="url(#p669afc4015)" style="fill: none; stroke: #ffffff; stroke-width: 0.8; stroke-linecap: square"/>
     </g>
     <g id="line2d_6">
      <g>
       <use xlink:href="#m85767b91a3" x="230.839867" y="276.48" style="stroke: #000000; stroke-width: 0.8"/>
      </g>
     </g>
     <g id="text_3">
      <!-- 2024-10-21 -->
      <g transform="translate(179.470416 319.118252) rotate(-30) scale(0.1 -0.1)">
       <use xlink:href="#DejaVuSans-32"/>
       <use xlink:href="#DejaVuSans-30" x="63.623047"/>
       <use xlink:href="#DejaVuSans-32" x="127.246094"/>
       <use xlink:href="#DejaVuSans-34" x="190.869141"/>
       <use xlink:href="#DejaVuSans-2d" x="254.492188"/>
       <use xlink:href="#DejaVuSans-31" x="290.576172"/>
       <use xlink:href="#DejaVuSans-30" x="354.199219"/>
       <use xlink:href="#DejaVuSans-2d" x="417.822266"/>
       <use xlink:href="#DejaVuSans-32" x="453.90625"/>
       <use xlink:href="#DejaVuSans-31" x="517.529297"/>
      </g>
     </g>
    </g>
    <g id="xtick_4">
     <g id="line2d_7">
      <path d="M 298.747677 276.48 
L 298.747677 41.472 
" clip-path="url(#p669afc4015)" style="fill: none; stroke: #ffffff; stroke-width: 0.8; stroke-linecap: square"/>
     </g>
     <g id="line2d_8">
      <g>
       <use xlink:href="#m85767b91a3" x="298.747677" y="276.48" style="stroke: #000000; stroke-width: 0.8"/>
      </g>
     </g>
     <g id="text_4">
      <!-- 2024-10-25 -->
      <g transform="translate(247.378226 319.118252) rotate(-30) scale(0.1 -0.1)">
       <defs>
        <path id="DejaVuSans-35" d="M 691 4666 
L 3169 4666 
L 3169 4134 
L 1269 4134 
L 1269 2991 
Q 1406 3038 1543 3061 
Q 1681 3084 1819 3084 
Q 2600 3084 3056 2656 
Q 3513 2228 3513 1497 
Q 3513 744 3044 326 
Q 2575 -91 1722 -91 
Q 1428 -91 1123 -41 
Q 819 9 494 109 
L 494 744 
Q 775 591 1075 516 
Q 1375 441 1709 441 
Q 2250 441 2565 725 
Q 2881 1009 2881 1497 
Q 2881 1984 2565 2268 
Q 2250 2553 1709 2553 
Q 1456 2553 1204 2497 
Q 953 2441 691 2322 
L 691 4666 
z
" transform="scale(0.015625)"/>
       </defs>
       <use xlink:href="#DejaVuSans-32"/>
       <use xlink:href="#DejaVuSans-30" x="63.623047"/>
       <use xlink:href="#DejaVuSans-32" x="127.246094"/>
       <use xlink:href="#DejaVuSans-34" x="190.869141"/>
       <use xlink:href="#DejaVuSans-2d" x="254.492188"/>
       <use xlink:href="#DejaVuSans-31" x="290.576172"/>
       <use xlink:href="#DejaVuSans-30" x="354.199219"/>
       <use xlink:href="#DejaVuSans-2d" x="417.822266"/>
       <use xlink:href="#DejaVuSans-32" x="453.90625"/>
       <use xlink:href="#DejaVuSans-35" x="517.529297"/>
      </g>
     </g>
    </g>
    <g id="xtick_5">
     <g id="line2d_9">
      <path d="M 366.655487 276.48 
L 366.655487 41.472 
" clip-path="url(#p669afc4015)" style="fill: none; stroke: #ffffff; stroke-width: 0.8; stroke-linecap: square"/>
     </g>
     <g id="line2d_10">
      <g>
       <use xlink:href="#m85767b91a3" x="366.655487" y="276.48" style="stroke: #000000; stroke-width: 0.8"/>
      </g>
     </g>
     <g id="text_5">
      <!-- 2024-10-29 -->
      <g transform="translate(315.286036 319.118252) rotate(-30) scale(0.1 -0.1)">
       <defs>
        <path id="DejaVuSans-39" d="M 703 97 
L 703 672 
Q 941 559 1184 500 
Q 1428 441 1663 441 
Q 2288 441 2617 861 
Q 2947 1281 2994 2138 
Q 2813 1869 2534 1725 
Q 2256 1581 1919 1581 
Q 1219 1581 811 2004 
Q 403 2428 403 3163 
Q 403 3881 828 4315 
Q 1253 4750 1959 4750 
Q 2769 4750 3195 4129 
Q 3622 3509 3622 2328 
Q 3622 1225 3098 567 
Q 2575 -91 1691 -91 
Q 1453 -91 1209 -44 
Q 966 3 703 97 
z
M 1959 2075 
Q 2384 2075 2632 2365 
Q 2881 2656 2881 3163 
Q 2881 3666 2632 3958 
Q 2384 4250 1959 4250 
Q 1534 4250 1286 3958 
Q 1038 3666 1038 3163 
Q 1038 2656 1286 2365 
Q 1534 2075 1959 2075 
z
" transform="scale(0.015625)"/>
       </defs>
       <use xlink:href="#DejaVuSans-32"/>
       <use xlink:href="#DejaVuSans-30" x="63.623047"/>
       <use xlink:href="#DejaVuSans-32" x="127.246094"/>
       <use xlink:href="#DejaVuSans-34" x="190.869141"/>
       <use xlink:href="#DejaVuSans-2d" x="254.492188"/>
       <use xlink:href="#DejaVuSans-31" x="290.576172"/>
       <use xlink:href="#DejaVuSans-30" x="354.199219"/>
       <use xlink:href="#DejaVuSans-2d" x="417.822266"/>
       <use xlink:href="#DejaVuSans-32" x="453.90625"/>
       <use xlink:href="#DejaVuSans-39" x="517.529297"/>
      </g>
     </g>
    </g>
    <g id="text_6">
     <!-- When -->
     <g transform="translate(221.802188 332.517752) scale(0.1 -0.1)">
      <defs>
       <path id="DejaVuSans-57" d="M 213 4666 
L 850 4666 
L 1831 722 
L 2809 4666 
L 3519 4666 
L 4500 722 
L 5478 4666 
L 6119 4666 
L 4947 0 
L 4153 0 
L 3169 4050 
L 2175 0 
L 1381 0 
L 213 4666 
z
" transform="scale(0.015625)"/>
       <path id="DejaVuSans-68" d="M 3513 2113 
L 3513 0 
L 2938 0 
L 2938 2094 
Q 2938 2591 2744 2837 
Q 2550 3084 2163 3084 
Q 1697 3084 1428 2787 
Q 1159 2491 1159 1978 
L 1159 0 
L 581 0 
L 581 4863 
L 1159 4863 
L 1159 2956 
Q 1366 3272 1645 3428 
Q 1925 3584 2291 3584 
Q 2894 3584 3203 3211 
Q 3513 2838 3513 2113 
z
" transform="scale(0.015625)"/>
       <path id="DejaVuSans-65" d="M 3597 1894 
L 3597 1613 
L 953 1613 
Q 991 1019 1311 708 
Q 1631 397 2203 397 
Q 2534 397 2845 478 
Q 3156 559 3463 722 
L 3463 178 
Q 3153 47 2828 -22 
Q 2503 -91 2169 -91 
Q 1331 -91 842 396 
Q 353 884 353 1716 
Q 353 2575 817 3079 
Q 1281 3584 2069 3584 
Q 2775 3584 3186 3129 
Q 3597 2675 3597 1894 
z
M 3022 2063 
Q 3016 2534 2758 2815 
Q 2500 3097 2075 3097 
Q 1594 3097 1305 2825 
Q 1016 2553 972 2059 
L 3022 2063 
z
" transform="scale(0.015625)"/>
       <path id="DejaVuSans-6e" d="M 3513 2113 
L 3513 0 
L 2938 0 
L 2938 2094 
Q 2938 2591 2744 2837 
Q 2550 3084 2163 3084 
Q 1697 3084 1428 2787 
Q 1159 2491 1159 1978 
L 1159 0 
L 581 0 
L 581 3500 
L 1159 3500 
L 1159 2956 
Q 1366 3272 1645 3428 
Q 1925 3584 2291 3584 
Q 2894 3584 3203 3211 
Q 3513 2838 3513 2113 
z
" transform="scale(0.015625)"/>
      </defs>
      <use xlink:href="#DejaVuSans-57"/>
      <use xlink:href="#DejaVuSans-68" x="98.876953"/>
      <use xlink:href="#DejaVuSans-65" x="162.255859"/>
      <use xlink:href="#DejaVuSans-6e" x="223.779297"/>
     </g>
    </g>
   </g>
   <g id="matplotlib.axis_2">
    <g id="ytick_1">
     <g id="line2d_11">
      <path d="M 57.6 264.599699 
L 414.72 264.599699 
" clip-path="url(#p669afc4015)" style="fill: none; stroke: #ffffff; stroke-width: 0.8; stroke-linecap: square"/>
     </g>
     <g id="line2d_12">
      <defs>
       <path id="ma3c8f0ac59" d="M 0 0 
L -3.5 0 
" style="stroke: #000000; stroke-width: 0.8"/>
      </defs>
      <g>
       <use xlink:href="#ma3c8f0ac59" x="57.6" y="264.599699" style="stroke: #000000; stroke-width: 0.8"/>
      </g>
     </g>
     <g id="text_7">
      <!-- 50 -->
      <g transform="translate(37.875 268.398917) scale(0.1 -0.1)">
       <use xlink:href="#DejaVuSans-35"/>
       <use xlink:href="#DejaVuSans-30" x="63.623047"/>
      </g>
     </g>
    </g>
    <g id="ytick_2">
     <g id="line2d_13">
      <path d="M 57.6 238.325147 
L 414.72 238.325147 
" clip-path="url(#p669afc4015)" style="fill: none; stroke: #ffffff; stroke-width: 0.8; stroke-linecap: square"/>
     </g>
     <g id="line2d_14">
      <g>
       <use xlink:href="#ma3c8f0ac59" x="57.6" y="238.325147" style="stroke: #000000; stroke-width: 0.8"/>
      </g>
     </g>
     <g id="text_8">
      <!-- 100 -->
      <g transform="translate(31.5125 242.124365) scale(0.1 -0.1)">
       <use xlink:href="#DejaVuSans-31"/>
       <use xlink:href="#DejaVuSans-30" x="63.623047"/>
       <use xlink:href="#DejaVuSans-30" x="127.246094"/>
      </g>
     </g>
    </g>
    <g id="ytick_3">
     <g id="line2d_15">
      <path d="M 57.6 212.050595 
L 414.72 212.050595 
" clip-path="url(#p669afc4015)" style="fill: none; stroke: #ffffff; stroke-width: 0.8; stroke-linecap: square"/>
     </g>
     <g id="line2d_16">
      <g>
       <use xlink:href="#ma3c8f0ac59" x="57.6" y="212.050595" style="stroke: #000000; stroke-width: 0.8"/>
      </g>
     </g>
     <g id="text_9">
      <!-- 150 -->
      <g transform="translate(31.5125 215.849814) scale(0.1 -0.1)">
       <use xlink:href="#DejaVuSans-31"/>
       <use xlink:href="#DejaVuSans-35" x="63.623047"/>
       <use xlink:href="#DejaVuSans-30" x="127.246094"/>
      </g>
     </g>
    </g>
    <g id="ytick_4">
     <g id="line2d_17">
      <path d="M 57.6 185.776043 
L 414.72 185.776043 
" clip-path="url(#p669afc4015)" style="fill: none; stroke: #ffffff; stroke-width: 0.8; stroke-linecap: square"/>
     </g>
     <g id="line2d_18">
      <g>
       <use xlink:href="#ma3c8f0ac59" x="57.6" y="185.776043" style="stroke: #000000; stroke-width: 0.8"/>
      </g>
     </g>
     <g id="text_10">
      <!-- 200 -->
      <g transform="translate(31.5125 189.575262) scale(0.1 -0.1)">
       <use xlink:href="#DejaVuSans-32"/>
       <use xlink:href="#DejaVuSans-30" x="63.623047"/>
       <use xlink:href="#DejaVuSans-30" x="127.246094"/>
      </g>
     </g>
    </g>
    <g id="ytick_5">
     <g id="line2d_19">
      <path d="M 57.6 159.501491 
L 414.72 159.501491 
" clip-path="url(#p669afc4015)" style="fill: none; stroke: #ffffff; stroke-width: 0.8; stroke-linecap: square"/>
     </g>
     <g id="line2d_20">
      <g>
       <use xlink:href="#ma3c8f0ac59" x="57.6" y="159.501491" style="stroke: #000000; stroke-width: 0.8"/>
      </g>
     </g>
     <g id="text_11">
      <!-- 250 -->
      <g transform="translate(31.5125 163.30071) scale(0.1 -0.1)">
       <use xlink:href="#DejaVuSans-32"/>
       <use xlink:href="#DejaVuSans-35" x="63.623047"/>
       <use xlink:href="#DejaVuSans-30" x="127.246094"/>
      </g>
     </g>
    </g>
    <g id="ytick_6">
     <g id="line2d_21">
      <path d="M 57.6 133.226939 
L 414.72 133.226939 
" clip-path="url(#p669afc4015)" style="fill: none; stroke: #ffffff; stroke-width: 0.8; stroke-linecap: square"/>
     </g>
     <g id="line2d_22">
      <g>
       <use xlink:href="#ma3c8f0ac59" x="57.6" y="133.226939" style="stroke: #000000; stroke-width: 0.8"/>
      </g>
     </g>
     <g id="text_12">
      <!-- 300 -->
      <g transform="translate(31.5125 137.026158) scale(0.1 -0.1)">
       <use xlink:href="#DejaVuSans-33"/>
       <use xlink:href="#DejaVuSans-30" x="63.623047"/>
       <use xlink:href="#DejaVuSans-30" x="127.246094"/>
      </g>
     </g>
    </g>
    <g id="ytick_7">
     <g id="line2d_23">
      <path d="M 57.6 106.952387 
L 414.72 106.952387 
" clip-path="url(#p669afc4015)" style="fill: none; stroke: #ffffff; stroke-width: 0.8; stroke-linecap: square"/>
     </g>
     <g id="line2d_24">
      <g>
       <use xlink:href="#ma3c8f0ac59" x="57.6" y="106.952387" style="stroke: #000000; stroke-width: 0.8"/>
      </g>
     </g>
     <g id="text_13">
      <!-- 350 -->
      <g transform="translate(31.5125 110.751606) scale(0.1 -0.1)">
       <use xlink:href="#DejaVuSans-33"/>
       <use xlink:href="#DejaVuSans-35" x="63.623047"/>
       <use xlink:href="#DejaVuSans-30" x="127.246094"/>
      </g>
     </g>
    </g>
    <g id="ytick_8">
     <g id="line2d_25">
      <path d="M 57.6 80.677835 
L 414.72 80.677835 
" clip-path="url(#p669afc4015)" style="fill: none; stroke: #ffffff; stroke-width: 0.8; stroke-linecap: square"/>
     </g>
     <g id="line2d_26">
      <g>
       <use xlink:href="#ma3c8f0ac59" x="57.6" y="80.677835" style="stroke: #000000; stroke-width: 0.8"/>
      </g>
     </g>
     <g id="text_14">
      <!-- 400 -->
      <g transform="translate(31.5125 84.477054) scale(0.1 -0.1)">
       <use xlink:href="#DejaVuSans-34"/>
       <use xlink:href="#DejaVuSans-30" x="63.623047"/>
       <use xlink:href="#DejaVuSans-30" x="127.246094"/>
      </g>
     </g>
    </g>
    <g id="ytick_9">
     <g id="line2d_27">
      <path d="M 57.6 54.403283 
L 414.72 54.403283 
" clip-path="url(#p669afc4015)" style="fill: none; stroke: #ffffff; stroke-width: 0.8; stroke-linecap: square"/>
     </g>
     <g id="line2d_28">
      <g>
       <use xlink:href="#ma3c8f0ac59" x="57.6" y="54.403283" style="stroke: #000000; stroke-width: 0.8"/>
      </g>
     </g>
     <g id="text_15">
      <!-- 450 -->
      <g transform="translate(31.5125 58.202502) scale(0.1 -0.1)">
       <use xlink:href="#DejaVuSans-34"/>
       <use xlink:href="#DejaVuSans-35" x="63.623047"/>
       <use xlink:href="#DejaVuSans-30" x="127.246094"/>
      </g>
     </g>
    </g>
    <g id="text_16">
     <!-- RADON_SHORT_TERM_AVG Bq/m3 -->
     <g transform="translate(25.154687 244.060375) rotate(-90) scale(0.1 -0.1)">
      <defs>
       <path id="DejaVuSans-52" d="M 2841 2188 
Q 3044 2119 3236 1894 
Q 3428 1669 3622 1275 
L 4263 0 
L 3584 0 
L 2988 1197 
Q 2756 1666 2539 1819 
Q 2322 1972 1947 1972 
L 1259 1972 
L 1259 0 
L 628 0 
L 628 4666 
L 2053 4666 
Q 2853 4666 3247 4331 
Q 3641 3997 3641 3322 
Q 3641 2881 3436 2590 
Q 3231 2300 2841 2188 
z
M 1259 4147 
L 1259 2491 
L 2053 2491 
Q 2509 2491 2742 2702 
Q 2975 2913 2975 3322 
Q 2975 3731 2742 3939 
Q 2509 4147 2053 4147 
L 1259 4147 
z
" transform="scale(0.015625)"/>
       <path id="DejaVuSans-41" d="M 2188 4044 
L 1331 1722 
L 3047 1722 
L 2188 4044 
z
M 1831 4666 
L 2547 4666 
L 4325 0 
L 3669 0 
L 3244 1197 
L 1141 1197 
L 716 0 
L 50 0 
L 1831 4666 
z
" transform="scale(0.015625)"/>
       <path id="DejaVuSans-44" d="M 1259 4147 
L 1259 519 
L 2022 519 
Q 2988 519 3436 956 
Q 3884 1394 3884 2338 
Q 3884 3275 3436 3711 
Q 2988 4147 2022 4147 
L 1259 4147 
z
M 628 4666 
L 1925 4666 
Q 3281 4666 3915 4102 
Q 4550 3538 4550 2338 
Q 4550 1131 3912 565 
Q 3275 0 1925 0 
L 628 0 
L 628 4666 
z
" transform="scale(0.015625)"/>
       <path id="DejaVuSans-4f" d="M 2522 4238 
Q 1834 4238 1429 3725 
Q 1025 3213 1025 2328 
Q 1025 1447 1429 934 
Q 1834 422 2522 422 
Q 3209 422 3611 934 
Q 4013 1447 4013 2328 
Q 4013 3213 3611 3725 
Q 3209 4238 2522 4238 
z
M 2522 4750 
Q 3503 4750 4090 4092 
Q 4678 3434 4678 2328 
Q 4678 1225 4090 567 
Q 3503 -91 2522 -91 
Q 1538 -91 948 565 
Q 359 1222 359 2328 
Q 359 3434 948 4092 
Q 1538 4750 2522 4750 
z
" transform="scale(0.015625)"/>
       <path id="DejaVuSans-4e" d="M 628 4666 
L 1478 4666 
L 3547 763 
L 3547 4666 
L 4159 4666 
L 4159 0 
L 3309 0 
L 1241 3903 
L 1241 0 
L 628 0 
L 628 4666 
z
" transform="scale(0.015625)"/>
       <path id="DejaVuSans-5f" d="M 3263 -1063 
L 3263 -1509 
L -63 -1509 
L -63 -1063 
L 3263 -1063 
z
" transform="scale(0.015625)"/>
       <path id="DejaVuSans-53" d="M 3425 4513 
L 3425 3897 
Q 3066 4069 2747 4153 
Q 2428 4238 2131 4238 
Q 1616 4238 1336 4038 
Q 1056 3838 1056 3469 
Q 1056 3159 1242 3001 
Q 1428 2844 1947 2747 
L 2328 2669 
Q 3034 2534 3370 2195 
Q 3706 1856 3706 1288 
Q 3706 609 3251 259 
Q 2797 -91 1919 -91 
Q 1588 -91 1214 -16 
Q 841 59 441 206 
L 441 856 
Q 825 641 1194 531 
Q 1563 422 1919 422 
Q 2459 422 2753 634 
Q 3047 847 3047 1241 
Q 3047 1584 2836 1778 
Q 2625 1972 2144 2069 
L 1759 2144 
Q 1053 2284 737 2584 
Q 422 2884 422 3419 
Q 422 4038 858 4394 
Q 1294 4750 2059 4750 
Q 2388 4750 2728 4690 
Q 3069 4631 3425 4513 
z
" transform="scale(0.015625)"/>
       <path id="DejaVuSans-48" d="M 628 4666 
L 1259 4666 
L 1259 2753 
L 3553 2753 
L 3553 4666 
L 4184 4666 
L 4184 0 
L 3553 0 
L 3553 2222 
L 1259 2222 
L 1259 0 
L 628 0 
L 628 4666 
z
" transform="scale(0.015625)"/>
       <path id="DejaVuSans-54" d="M -19 4666 
L 3928 4666 
L 3928 4134 
L 2272 4134 
L 2272 0 
L 1638 0 
L 1638 4134 
L -19 4134 
L -19 4666 
z
" transform="scale(0.015625)"/>
       <path id="DejaVuSans-45" d="M 628 4666 
L 3578 4666 
L 3578 4134 
L 1259 4134 
L 1259 2753 
L 3481 2753 
L 3481 2222 
L 1259 2222 
L 1259 531 
L 3634 531 
L 3634 0 
L 628 0 
L 628 4666 
z
" transform="scale(0.015625)"/>
       <path id="DejaVuSans-4d" d="M 628 4666 
L 1569 4666 
L 2759 1491 
L 3956 4666 
L 4897 4666 
L 4897 0 
L 4281 0 
L 4281 4097 
L 3078 897 
L 2444 897 
L 1241 4097 
L 1241 0 
L 628 0 
L 628 4666 
z
" transform="scale(0.015625)"/>
       <path id="DejaVuSans-56" d="M 1831 0 
L 50 4666 
L 709 4666 
L 2188 738 
L 3669 4666 
L 4325 4666 
L 2547 0 
L 1831 0 
z
" transform="scale(0.015625)"/>
       <path id="DejaVuSans-47" d="M 3809 666 
L 3809 1919 
L 2778 1919 
L 2778 2438 
L 4434 2438 
L 4434 434 
Q 4069 175 3628 42 
Q 3188 -91 2688 -91 
Q 1594 -91 976 548 
Q 359 1188 359 2328 
Q 359 3472 976 4111 
Q 1594 4750 2688 4750 
Q 3144 4750 3555 4637 
Q 3966 4525 4313 4306 
L 4313 3634 
Q 3963 3931 3569 4081 
Q 3175 4231 2741 4231 
Q 1884 4231 1454 3753 
Q 1025 3275 1025 2328 
Q 1025 1384 1454 906 
Q 1884 428 2741 428 
Q 3075 428 3337 486 
Q 3600 544 3809 666 
z
" transform="scale(0.015625)"/>
       <path id="DejaVuSans-20" transform="scale(0.015625)"/>
       <path id="DejaVuSans-42" d="M 1259 2228 
L 1259 519 
L 2272 519 
Q 2781 519 3026 730 
Q 3272 941 3272 1375 
Q 3272 1813 3026 2020 
Q 2781 2228 2272 2228 
L 1259 2228 
z
M 1259 4147 
L 1259 2741 
L 2194 2741 
Q 2656 2741 2882 2914 
Q 3109 3088 3109 3444 
Q 3109 3797 2882 3972 
Q 2656 4147 2194 4147 
L 1259 4147 
z
M 628 4666 
L 2241 4666 
Q 2963 4666 3353 4366 
Q 3744 4066 3744 3513 
Q 3744 3084 3544 2831 
Q 3344 2578 2956 2516 
Q 3422 2416 3680 2098 
Q 3938 1781 3938 1306 
Q 3938 681 3513 340 
Q 3088 0 2303 0 
L 628 0 
L 628 4666 
z
" transform="scale(0.015625)"/>
       <path id="DejaVuSans-71" d="M 947 1747 
Q 947 1113 1208 752 
Q 1469 391 1925 391 
Q 2381 391 2643 752 
Q 2906 1113 2906 1747 
Q 2906 2381 2643 2742 
Q 2381 3103 1925 3103 
Q 1469 3103 1208 2742 
Q 947 2381 947 1747 
z
M 2906 525 
Q 2725 213 2448 61 
Q 2172 -91 1784 -91 
Q 1150 -91 751 415 
Q 353 922 353 1747 
Q 353 2572 751 3078 
Q 1150 3584 1784 3584 
Q 2172 3584 2448 3432 
Q 2725 3281 2906 2969 
L 2906 3500 
L 3481 3500 
L 3481 -1331 
L 2906 -1331 
L 2906 525 
z
" transform="scale(0.015625)"/>
       <path id="DejaVuSans-2f" d="M 1625 4666 
L 2156 4666 
L 531 -594 
L 0 -594 
L 1625 4666 
z
" transform="scale(0.015625)"/>
       <path id="DejaVuSans-6d" d="M 3328 2828 
Q 3544 3216 3844 3400 
Q 4144 3584 4550 3584 
Q 5097 3584 5394 3201 
Q 5691 2819 5691 2113 
L 5691 0 
L 5113 0 
L 5113 2094 
Q 5113 2597 4934 2840 
Q 4756 3084 4391 3084 
Q 3944 3084 3684 2787 
Q 3425 2491 3425 1978 
L 3425 0 
L 2847 0 
L 2847 2094 
Q 2847 2600 2669 2842 
Q 2491 3084 2119 3084 
Q 1678 3084 1418 2786 
Q 1159 2488 1159 1978 
L 1159 0 
L 581 0 
L 581 3500 
L 1159 3500 
L 1159 2956 
Q 1356 3278 1631 3431 
Q 1906 3584 2284 3584 
Q 2666 3584 2933 3390 
Q 3200 3197 3328 2828 
z
" transform="scale(0.015625)"/>
      </defs>
      <use xlink:href="#DejaVuSans-52"/>
      <use xlink:href="#DejaVuSans-41" x="65.482422"/>
      <use xlink:href="#DejaVuSans-44" x="133.890625"/>
      <use xlink:href="#DejaVuSans-4f" x="210.892578"/>
      <use xlink:href="#DejaVuSans-4e" x="289.603516"/>
      <use xlink:href="#DejaVuSans-5f" x="364.408203"/>
      <use xlink:href="#DejaVuSans-53" x="414.408203"/>
      <use xlink:href="#DejaVuSans-48" x="477.884766"/>
      <use xlink:href="#DejaVuSans-4f" x="553.080078"/>
      <use xlink:href="#DejaVuSans-52" x="631.791016"/>
      <use xlink:href="#DejaVuSans-54" x="694.023438"/>
      <use xlink:href="#DejaVuSans-5f" x="755.107422"/>
      <use xlink:href="#DejaVuSans-54" x="805.107422"/>
      <use xlink:href="#DejaVuSans-45" x="866.191406"/>
      <use xlink:href="#DejaVuSans-52" x="929.375"/>
      <use xlink:href="#DejaVuSans-4d" x="998.857422"/>
      <use xlink:href="#DejaVuSans-5f" x="1085.136719"/>
      <use xlink:href="#DejaVuSans-41" x="1135.136719"/>
      <use xlink:href="#DejaVuSans-56" x="1197.169922"/>
      <use xlink:href="#DejaVuSans-47" x="1265.578125"/>
      <use xlink:href="#DejaVuSans-20" x="1343.068359"/>
      <use xlink:href="#DejaVuSans-42" x="1374.855469"/>
      <use xlink:href="#DejaVuSans-71" x="1443.458984"/>
      <use xlink:href="#DejaVuSans-2f" x="1506.935547"/>
      <use xlink:href="#DejaVuSans-6d" x="1540.626953"/>
      <use xlink:href="#DejaVuSans-33" x="1638.039062"/>
     </g>
    </g>
   </g>
   <g id="line2d_29">
    <path d="M 175.547466 238.479703 
L 175.63687 240.210732 
L 175.813713 240.952602 
L 176.1674 241.014424 
L 176.255232 241.447182 
L 176.639571 242.003584 
L 176.874773 242.065406 
L 176.962605 242.498164 
L 177.346944 243.054566 
L 177.581753 243.054566 
L 177.640307 242.12036 
L 177.75781 241.419705 
L 177.81833 240.952602 
L 178.289322 240.952602 
L 178.347877 241.419705 
L 178.76169 242.003584 
L 178.996695 242.003584 
L 179.055053 241.195136 
L 179.143475 240.5888 
L 179.233272 239.376129 
L 179.703872 239.376129 
L 179.763409 238.448792 
M 183.358829 238.448792 
L 183.446857 240.179821 
L 183.564949 240.427111 
L 184.655876 240.365288 
L 184.743904 239.932531 
L 185.127851 239.376129 
L 186.070425 239.376129 
L 186.15865 238.386969 
M 187.514645 238.386969 
L 187.631951 240.334377 
L 187.721748 242.003584 
L 188.192544 242.003584 
L 188.280769 243.487323 
L 188.398272 244.785595 
L 188.487676 245.15653 
L 188.899917 245.15653 
L 188.988142 246.14569 
L 189.105645 247.011204 
L 189.195049 247.258494 
L 189.607683 247.196672 
L 189.695516 246.763915 
L 190.079658 246.207512 
L 190.315056 246.269335 
L 190.402889 246.702092 
L 190.787031 247.258494 
L 191.022036 247.258494 
L 191.110262 243.549146 
L 191.227764 240.303466 
L 191.317168 239.376129 
L 191.729409 239.376129 
L 191.817635 241.601738 
L 191.935334 243.549146 
L 192.024541 244.105548 
L 192.436782 244.105548 
L 192.524811 241.879939 
L 192.64251 239.932531 
L 192.731914 239.376129 
L 193.144155 239.376129 
L 193.232381 238.386969 
M 225.771343 238.479703 
L 225.860944 240.210732 
L 226.037787 240.952602 
L 227.098257 240.952602 
L 227.186679 242.683631 
L 227.303985 244.198282 
L 227.393389 244.631039 
L 227.806416 244.569217 
L 227.894052 244.136459 
L 228.278194 243.580057 
L 228.513789 243.487323 
L 228.601621 242.838187 
L 228.719124 242.189051 
L 228.808135 242.003584 
L 229.249653 241.91085 
L 229.339057 241.694472 
L 229.662681 241.478093 
L 230.635318 241.478093 
L 230.723544 239.994354 
L 230.841046 238.696082 
L 230.841439 238.510614 
M 233.582903 238.448792 
L 233.671128 240.179821 
L 233.789023 240.427111 
L 234.17238 240.427111 
L 234.260605 238.448792 
M 350.241878 238.386969 
L 350.388658 240.056176 
L 350.477669 240.427111 
L 350.890107 240.427111 
L 350.978332 239.190661 
L 351.06695 238.41788 
M 351.657017 238.356058 
L 351.803404 239.190661 
L 351.892808 239.376129 
L 352.30505 239.376129 
L 352.393275 240.365288 
L 352.510777 241.230803 
L 352.599985 241.478093 
L 353.012619 241.539915 
L 353.100255 241.972673 
L 353.484594 242.529075 
L 353.719796 242.529075 
L 353.808021 243.518235 
L 353.925523 244.383749 
L 354.014928 244.631039 
L 354.427365 244.569217 
L 354.515197 244.136459 
L 354.899537 243.580057 
L 355.134542 243.580057 
L 355.222767 241.354448 
L 355.340269 239.40704 
L 355.429477 238.850638 
L 355.842308 238.788815 
L 355.929943 238.356058 
M 382.073664 238.675474 
L 382.19097 239.726456 
L 382.25149 240.427111 
L 382.722876 240.427111 
L 382.781234 241.594869 
L 382.898736 242.470687 
L 382.95906 243.054566 
L 383.430445 242.996178 
L 383.488607 242.821014 
L 383.90242 242.529075 
L 384.137622 242.587463 
L 384.195783 242.762627 
L 384.609597 243.054566 
L 385.551975 243.054566 
L 385.610529 243.521669 
L 386.024736 244.105548 
L 386.259741 244.105548 
L 386.318295 244.572651 
L 386.732109 245.15653 
L 386.967114 245.15653 
L 387.025668 243.054566 
L 387.143171 241.478093 
L 387.203494 240.427111 
L 387.674487 240.427111 
L 387.732648 238.850638 
L 387.732648 238.850638 
" clip-path="url(#p669afc4015)" style="fill: none; stroke: #008000; stroke-width: 1.5; stroke-linecap: square"/>
   </g>
   <g id="line2d_30">
    <path d="M 137.379189 212.143329 
L 137.467611 213.441601 
L 137.58531 213.627068 
L 137.968863 213.68889 
L 138.056696 214.121648 
L 138.440838 214.67805 
L 138.675844 214.67805 
L 138.764069 216.161789 
L 138.881768 217.460061 
L 138.971172 217.830996 
L 139.383217 217.830996 
L 139.471442 214.121648 
L 139.530389 212.266973 
M 157.804192 212.17424 
L 157.893597 213.68889 
L 158.187942 215.203541 
L 158.482485 215.203541 
L 158.57071 214.214381 
L 158.688409 213.348867 
L 158.777813 213.101577 
L 159.189858 213.101577 
L 159.278083 214.585316 
L 159.395782 215.883588 
L 159.484989 216.254523 
L 159.89782 216.316346 
L 159.985849 216.749103 
L 160.369992 217.305505 
L 161.312173 217.305505 
L 161.400595 218.789245 
L 161.517901 220.087517 
L 161.607305 220.458451 
L 162.019546 220.458451 
L 162.107771 223.17864 
L 162.225077 225.558806 
L 162.314678 226.238853 
L 162.726723 226.238853 
L 162.815144 227.722592 
L 162.932647 229.020864 
L 163.022051 229.391799 
L 163.434292 229.391799 
L 163.522321 230.380959 
L 163.639823 231.246473 
L 163.729227 231.493763 
L 164.141469 231.493763 
L 164.229694 232.482923 
L 164.347393 233.348437 
L 164.436797 233.595727 
L 164.849038 233.595727 
L 164.937263 232.606568 
L 165.054766 231.741053 
L 165.14417 231.493763 
L 165.556804 231.586497 
L 165.644636 232.235633 
L 165.762532 232.884769 
L 165.851346 233.070236 
L 166.263588 233.070236 
L 166.352009 231.833787 
L 166.469512 230.751894 
L 166.558719 230.442781 
L 166.971354 230.442781 
L 167.059382 231.679231 
L 167.176885 232.761124 
L 167.266486 233.070236 
L 167.678727 233.132059 
L 167.766952 233.564816 
L 168.150898 234.121218 
L 168.386296 234.183041 
L 168.473932 234.615798 
L 168.858271 235.1722 
L 169.800846 235.1722 
L 169.889071 233.688461 
L 170.006181 232.390189 
L 170.095585 232.019254 
L 170.508219 232.019254 
L 170.596444 231.030095 
L 170.713947 230.16458 
L 170.803154 229.91729 
L 171.215788 229.855468 
L 171.303621 229.42271 
L 171.68796 228.866308 
L 171.922965 228.866308 
L 172.01119 230.597337 
L 172.128496 232.111988 
L 172.2179 232.544745 
L 172.630338 232.544745 
L 172.718367 234.275775 
L 172.835869 235.790425 
L 172.925077 236.223183 
L 173.337907 236.293248 
L 173.396855 236.643575 
L 173.484098 236.853772 
L 173.573895 237.274165 
L 174.074165 237.366898 
L 174.163372 237.583277 
L 174.486996 237.799656 
L 174.752653 237.737833 
L 174.840486 237.305076 
L 175.224628 236.748674 
L 175.459633 236.748674 
L 175.519171 238.232413 
M 179.791704 238.294235 
L 179.880911 237.212342 
L 180.057755 236.748674 
L 180.412031 236.65594 
L 180.499666 236.006804 
L 180.617365 235.357668 
L 180.706376 235.1722 
L 181.826384 235.234023 
L 181.914412 235.66678 
L 182.298555 236.223183 
L 183.240737 236.223183 
L 183.329158 238.201502 
M 186.188321 238.263324 
L 186.276349 237.39781 
L 186.394441 237.274165 
L 187.485171 237.274165 
L 187.514252 238.108768 
M 193.262051 238.263324 
L 193.350276 237.39781 
L 193.468368 237.274165 
L 193.851528 237.274165 
L 193.93995 235.543135 
L 194.057649 234.028485 
L 194.146857 233.595727 
L 194.559294 233.65755 
L 194.647127 234.090307 
L 195.031466 234.646709 
L 195.266471 234.646709 
L 195.354893 232.91568 
L 195.472199 231.40103 
L 195.56121 230.968272 
L 196.709905 231.061006 
L 196.799309 231.277385 
L 197.122932 231.493763 
L 197.388787 231.555586 
L 197.476619 231.988343 
L 197.860762 232.544745 
L 198.095767 232.544745 
L 198.184188 231.061006 
L 198.301887 229.762734 
L 198.391291 229.391799 
L 198.803336 229.391799 
L 198.891365 228.402639 
L 199.008867 227.537125 
L 199.098468 227.289835 
L 199.510709 227.289835 
L 199.598738 226.053385 
L 199.716633 224.971492 
L 199.805841 224.66238 
L 200.218082 224.66238 
L 200.306307 222.436771 
L 200.423613 220.489363 
L 200.513017 219.93296 
L 200.95434 220.025694 
L 201.043547 220.242073 
L 201.367367 220.458451 
L 201.632828 220.458451 
L 201.72125 218.974712 
L 201.838752 217.67644 
L 201.92796 217.305505 
L 202.369282 217.398239 
L 202.45849 217.614618 
L 202.782113 217.830996 
L 203.754947 217.830996 
L 203.843172 218.820156 
L 203.960675 219.68567 
L 204.049686 219.93296 
L 204.46232 219.93296 
L 204.550545 218.696511 
L 204.668244 217.614618 
L 204.757256 217.305505 
L 205.877656 217.212771 
L 205.965291 216.563636 
L 206.082794 215.9145 
L 206.172198 215.729032 
L 206.584243 215.729032 
L 206.672861 216.718192 
L 206.790167 217.583706 
L 206.879571 217.830996 
L 207.291616 217.830996 
L 207.380037 216.347257 
L 207.49754 215.048985 
L 207.586944 214.67805 
L 207.999578 214.739872 
L 208.087411 215.17263 
L 208.47175 215.729032 
L 208.706951 215.66721 
L 208.79498 215.234452 
L 209.178926 214.67805 
L 209.413931 214.67805 
L 209.502157 216.903659 
L 209.619659 218.851067 
L 209.708867 219.407469 
L 210.828874 219.407469 
L 210.917099 220.891209 
L 211.034405 222.189481 
L 211.123809 222.560416 
L 211.565131 222.653149 
L 211.654142 222.869528 
L 211.977962 223.085907 
L 212.243227 223.085907 
L 212.331649 225.064226 
L 212.449151 226.795255 
L 212.538752 227.289835 
L 212.951189 227.228012 
L 213.039022 226.795255 
L 213.423164 226.238853 
L 213.68725 226.331587 
L 213.776655 226.547965 
L 214.100474 226.764344 
L 214.365739 226.764344 
L 214.453768 227.753503 
L 214.571467 228.619018 
L 214.660674 228.866308 
L 215.780682 228.928131 
L 215.868514 229.360888 
L 216.252657 229.91729 
L 217.195624 230.010024 
L 217.283653 230.65916 
L 217.400959 231.308296 
L 217.490363 231.493763 
L 218.61037 231.586497 
L 218.698202 232.235633 
L 218.815705 232.884769 
L 218.904912 233.070236 
L 219.31735 233.070236 
L 219.405379 232.081077 
L 219.523078 231.215562 
L 219.612482 230.968272 
L 220.732096 230.968272 
L 220.820321 229.979113 
L 220.937627 229.113598 
L 221.027031 228.866308 
L 221.439469 228.866308 
L 221.527694 230.350047 
L 221.645 231.648319 
L 221.734404 232.019254 
L 222.146842 232.019254 
L 222.235067 230.535515 
L 222.35257 229.237243 
L 222.441777 228.866308 
L 222.854215 228.928131 
L 222.94244 229.360888 
L 223.326583 229.91729 
L 223.561981 229.855468 
L 223.649813 229.42271 
L 224.03376 228.866308 
L 224.269158 228.866308 
L 224.357186 230.844627 
L 224.474885 232.575657 
L 224.564093 233.070236 
L 224.976334 233.070236 
L 225.064363 234.801266 
L 225.182062 236.315916 
L 225.271466 236.748674 
L 225.683511 236.748674 
L 225.743245 238.232413 
M 230.871109 238.325147 
L 231.342495 238.325147 
L 231.430917 236.594117 
L 231.548616 235.079467 
L 231.63802 234.646709 
L 232.078949 234.553976 
L 232.168353 234.337597 
L 232.491976 234.121218 
L 232.757438 234.121218 
L 232.845859 235.110378 
L 232.963362 235.975893 
L 233.052766 236.223183 
L 233.465007 236.223183 
L 233.553232 238.201502 
M 234.290079 238.201502 
L 234.378501 236.470472 
L 234.496396 236.223183 
L 234.880343 236.16136 
L 234.968175 235.728603 
L 235.351925 235.1722 
L 235.615814 235.264934 
L 235.705415 235.481313 
L 236.028841 235.697692 
L 236.294892 235.635869 
L 236.382921 235.203112 
L 236.766867 234.646709 
L 237.002265 234.708532 
L 237.090294 235.141289 
L 237.474044 235.697692 
L 238.416422 235.697692 
L 238.504647 232.235633 
L 238.622346 229.206332 
L 238.711553 228.340817 
L 239.152876 228.248083 
L 239.24228 228.031705 
L 239.587321 227.815326 
L 239.831168 227.815326 
L 239.919589 226.578876 
L 240.037288 225.496983 
L 240.126496 225.187871 
L 240.538737 225.187871 
L 240.626766 223.209552 
L 240.744465 221.478522 
L 240.833869 220.983942 
L 241.238644 220.92212 
L 241.326279 220.489363 
L 241.688022 219.93296 
L 241.953287 219.93296 
L 242.041905 218.201931 
L 242.159211 216.68728 
L 242.248615 216.254523 
L 243.368426 216.254523 
L 243.456454 215.265364 
L 243.573957 214.399849 
L 243.663361 214.152559 
L 244.076192 214.059825 
L 244.163827 213.410689 
L 244.281526 212.761553 
L 244.370931 212.576086 
L 244.783368 212.514263 
L 244.8712 212.081506 
M 262.46848 212.081506 
L 262.614277 214.585316 
L 262.704271 216.254523 
L 263.17487 216.254523 
L 263.263292 214.028914 
L 263.380794 212.081506 
M 267.448582 212.143329 
L 267.566085 213.225222 
L 267.655685 214.152559 
L 268.126481 214.152559 
L 268.214707 212.916109 
L 268.303521 212.143329 
M 269.541817 212.359707 
L 269.629846 214.523494 
L 269.746955 216.68728 
L 269.836359 217.305505 
L 270.248994 217.243683 
L 270.336826 216.810925 
L 270.721165 216.254523 
L 270.95617 216.254523 
L 271.044199 215.018074 
L 271.161898 213.93618 
L 271.251302 213.627068 
L 271.66374 213.534334 
L 271.751572 212.885198 
L 271.869271 212.236062 
L 271.869664 212.143329 
M 276.02548 212.266973 
L 276.114098 215.296275 
L 276.231797 215.729032 
L 276.615351 215.729032 
L 276.703576 212.761553 
L 276.732853 212.390618 
M 280.270308 212.081506 
L 280.565047 214.67805 
L 280.859392 214.67805 
L 280.947617 216.161789 
L 281.06512 217.460061 
L 281.154524 217.830996 
L 281.566765 217.830996 
L 281.654794 219.067446 
L 281.772689 220.149339 
L 281.861897 220.458451 
L 282.274138 220.458451 
L 282.362363 221.694901 
L 282.480062 222.776794 
L 282.56927 223.085907 
L 282.982101 223.147729 
L 283.069933 223.580486 
L 283.453879 224.136889 
L 283.689277 224.044155 
L 283.77711 223.395019 
L 283.894612 222.745883 
L 283.984016 222.560416 
L 284.396454 222.560416 
L 284.484679 221.571256 
L 284.601985 220.705741 
L 284.691389 220.458451 
L 285.10363 220.458451 
L 285.191856 221.942191 
L 285.309358 223.240463 
L 285.398762 223.611398 
L 285.811396 223.704131 
L 285.899229 224.353267 
L 286.016731 225.002403 
L 286.106332 225.187871 
L 286.547654 225.280604 
L 286.636665 225.496983 
L 286.990744 225.713362 
L 287.255027 225.806096 
L 287.343841 226.022474 
L 287.697921 226.238853 
L 287.933712 226.300675 
L 288.021544 226.733433 
L 288.405687 227.289835 
L 288.640496 227.289835 
L 288.729114 229.020864 
L 288.846223 230.535515 
L 288.935431 230.968272 
L 289.348065 230.968272 
L 289.43629 232.204722 
L 289.553793 233.286615 
L 289.643393 233.595727 
L 290.763204 233.502994 
L 290.85084 232.853858 
L 290.968539 232.204722 
L 291.058139 232.019254 
L 291.470774 231.926521 
L 291.558606 231.277385 
L 291.676108 230.628249 
L 291.765316 230.442781 
L 292.178147 230.380959 
L 292.265979 229.948201 
L 292.650122 229.391799 
L 292.885323 229.299065 
L 292.973155 228.649929 
L 293.090658 228.000793 
L 293.180062 227.815326 
L 293.592303 227.815326 
L 293.680725 229.546355 
L 293.797834 231.061006 
L 293.887238 231.493763 
L 294.299676 231.493763 
L 294.388098 232.730213 
L 294.505207 233.812106 
L 294.594611 234.121218 
L 295.007442 234.183041 
L 295.095274 234.615798 
L 295.479221 235.1722 
L 295.714422 235.1722 
L 295.802647 233.688461 
L 295.92015 232.390189 
L 296.00975 232.019254 
L 296.421795 232.019254 
L 296.51002 231.030095 
L 296.627523 230.16458 
L 296.71673 229.91729 
L 298.543914 229.91729 
L 298.632336 228.680841 
L 298.749838 227.598947 
L 298.839046 227.289835 
L 299.251091 227.289835 
L 299.339316 226.300675 
L 299.457211 225.435161 
L 299.546616 225.187871 
L 299.987741 225.280604 
L 300.077145 225.496983 
L 300.400572 225.713362 
L 300.666623 225.775184 
L 300.754455 226.207942 
L 301.138205 226.764344 
L 301.373996 226.702521 
L 301.461828 226.269764 
L 301.845971 225.713362 
L 302.081369 225.651539 
L 302.169201 225.218782 
L 302.553344 224.66238 
L 302.788349 224.66238 
L 302.876574 223.67322 
L 302.99388 222.807705 
L 303.083284 222.560416 
L 303.495918 222.622238 
L 303.583751 223.054995 
L 303.967893 223.611398 
L 304.202702 223.611398 
L 304.290927 222.622238 
L 304.408626 221.756723 
L 304.498227 221.509434 
L 304.939156 221.602167 
L 305.02856 221.818546 
L 305.352183 222.034925 
L 305.618234 222.096747 
L 305.70587 222.529504 
L 306.090209 223.085907 
L 306.325607 222.993173 
L 306.413439 222.344037 
L 306.530745 221.694901 
L 306.620149 221.509434 
L 309.154706 221.509434 
L 309.243128 222.993173 
L 309.360434 224.291445 
L 309.449838 224.66238 
L 309.862276 224.724202 
L 309.950108 225.15696 
L 310.334644 225.713362 
L 310.569649 225.713362 
L 310.657481 226.949811 
L 310.775376 228.031705 
L 310.864387 228.340817 
L 311.30571 228.248083 
L 311.395114 228.031705 
L 311.71854 227.815326 
L 311.984002 227.815326 
L 312.072423 226.331587 
L 312.189729 225.033315 
L 312.27933 224.66238 
L 312.691571 224.66238 
L 312.779993 226.640699 
L 312.897495 228.371728 
L 312.986703 228.866308 
L 313.399141 228.866308 
L 313.487366 227.135279 
L 313.604868 225.620628 
L 313.694272 225.187871 
L 314.135202 225.095137 
L 314.224409 224.878758 
L 314.548425 224.66238 
L 314.81369 224.66238 
L 314.901915 223.42593 
L 315.019418 222.344037 
L 315.109018 222.034925 
L 315.521456 222.127658 
L 315.609288 222.776794 
L 315.726791 223.42593 
L 315.816195 223.611398 
L 316.935809 223.611398 
L 317.024034 222.127658 
L 317.14134 220.829386 
L 317.230745 220.458451 
L 317.672263 220.365718 
L 317.761667 220.149339 
L 318.08529 219.93296 
L 318.350555 219.93296 
L 318.43878 218.696511 
L 318.556479 217.614618 
L 318.645884 217.305505 
L 319.058125 217.398239 
L 319.145957 218.047375 
L 319.264049 218.696511 
L 319.353257 218.881978 
L 319.765301 218.881978 
L 319.853723 220.365718 
L 319.971226 221.66399 
L 320.060433 222.034925 
L 320.472871 222.034925 
L 320.561096 220.798475 
L 320.678402 219.716582 
L 320.767806 219.407469 
L 321.180244 219.407469 
L 321.268469 220.891209 
L 321.385775 222.189481 
L 321.475179 222.560416 
L 321.887617 222.560416 
L 321.976039 221.323966 
L 322.093345 220.242073 
L 322.182749 219.93296 
L 322.59499 219.93296 
L 322.683215 218.449221 
L 322.800718 217.150949 
L 322.889925 216.780014 
L 324.717502 216.841837 
L 324.805334 217.274594 
L 325.189477 217.830996 
L 325.424286 217.830996 
L 325.512707 215.605387 
L 325.63021 213.657979 
L 325.719614 213.101577 
L 326.131855 213.101577 
L 326.191196 212.17424 
M 340.279905 212.17424 
L 340.367541 213.039754 
L 340.48524 213.905269 
L 340.574447 214.152559 
L 340.987278 214.245293 
L 341.07511 214.894429 
L 341.192613 215.543565 
L 341.282017 215.729032 
L 341.694454 215.821766 
L 341.782287 216.470902 
L 341.899789 217.120038 
L 341.98939 217.305505 
L 342.401434 217.305505 
L 342.48966 220.025694 
L 342.607359 222.405859 
L 342.696763 223.085907 
L 343.109397 223.024084 
L 343.197033 222.591327 
L 343.581372 222.034925 
L 343.816377 222.034925 
L 343.904602 223.024084 
L 344.022105 223.889599 
L 344.111509 224.136889 
L 344.52375 224.136889 
L 344.611975 225.126048 
L 344.729478 225.991563 
L 344.818685 226.238853 
L 345.231123 226.238853 
L 345.319348 228.217172 
L 345.436654 229.948201 
L 345.526058 230.442781 
L 345.967577 230.535515 
L 346.056588 230.751894 
L 346.380408 230.968272 
L 346.646262 231.061006 
L 346.734094 231.710142 
L 346.851793 232.359278 
L 346.941197 232.544745 
L 347.353046 232.544745 
L 347.441467 233.533905 
L 347.55897 234.39942 
L 347.648374 234.646709 
L 348.060812 234.708532 
L 348.14884 235.141289 
L 348.53318 235.697692 
L 348.767988 235.697692 
L 348.856213 234.461242 
L 348.973716 233.379349 
L 349.06312 233.070236 
L 349.475361 233.070236 
L 349.56339 235.048556 
L 349.681285 236.779585 
L 349.770689 237.274165 
L 350.182734 237.274165 
L 350.241485 238.201502 
M 351.067343 238.263324 
L 351.244383 237.799656 
L 351.59807 237.892389 
L 351.656624 238.263324 
M 355.959417 238.294235 
L 356.047839 237.861478 
L 356.195601 237.799656 
L 356.549091 237.799656 
L 356.637316 236.810496 
L 356.754623 235.944981 
L 356.844027 235.697692 
L 357.256661 235.697692 
L 357.344886 233.224793 
L 357.462192 231.061006 
L 357.551596 230.442781 
L 358.671014 230.442781 
L 358.759436 229.206332 
L 358.877135 228.124438 
L 358.966539 227.815326 
L 359.407468 227.722592 
L 359.496872 227.506214 
L 359.850951 227.289835 
L 360.085956 227.289835 
L 360.174378 229.020864 
L 360.291881 230.535515 
L 360.381285 230.968272 
L 360.793919 230.90645 
L 360.881751 230.473692 
L 361.265697 229.91729 
L 361.501095 229.91729 
L 361.589321 228.928131 
L 361.70643 228.062616 
L 361.796031 227.815326 
L 362.23696 227.90806 
L 362.32656 228.124438 
L 362.650184 228.340817 
L 362.915645 228.340817 
L 363.00387 227.351657 
L 363.121373 226.486143 
L 363.210777 226.238853 
L 363.623018 226.238853 
L 363.711243 224.755113 
L 363.828549 223.456841 
L 363.917953 223.085907 
L 364.330391 223.085907 
L 364.418616 221.107587 
L 364.535922 219.376558 
L 364.625326 218.881978 
L 365.037764 218.881978 
L 365.125989 217.892819 
L 365.243295 217.027304 
L 365.332699 216.780014 
L 365.774021 216.872748 
L 365.863426 217.089127 
L 366.187049 217.305505 
L 366.452903 217.243683 
L 366.540735 216.810925 
L 366.924878 216.254523 
L 367.16008 216.347257 
L 367.248108 216.996393 
L 367.365611 217.645529 
L 367.455015 217.830996 
L 367.86706 217.830996 
L 367.955285 219.562026 
L 368.072984 221.076676 
L 368.162388 221.509434 
L 368.574629 221.509434 
L 368.662854 220.272984 
L 368.780553 219.191091 
L 368.869761 218.881978 
L 369.282395 218.943801 
L 369.370227 219.376558 
L 369.75437 219.93296 
L 369.989965 219.994783 
L 370.0776 220.42754 
L 370.461743 220.983942 
L 370.696945 220.983942 
L 370.78517 219.252913 
L 370.902476 217.738263 
L 370.991683 217.305505 
L 371.433202 217.212771 
L 371.522213 216.996393 
L 371.846229 216.780014 
L 372.111494 216.780014 
L 372.199719 219.005623 
L 372.317222 220.953031 
L 372.406626 221.509434 
L 372.81926 221.571256 
L 372.907289 222.004013 
L 373.291432 222.560416 
L 373.52624 222.560416 
L 373.614269 223.796865 
L 373.732361 224.878758 
L 373.821765 225.187871 
L 374.233613 225.187871 
L 374.321838 227.16619 
L 374.439734 228.897219 
L 374.528549 229.391799 
L 375.648556 229.391799 
L 375.707111 230.793109 
L 375.824613 231.844091 
L 375.885133 232.544745 
L 376.355929 232.544745 
L 376.414484 233.011848 
L 376.828297 233.595727 
L 377.063498 233.595727 
L 377.122053 234.062831 
L 377.53567 234.646709 
L 377.770871 234.646709 
L 377.829426 233.712503 
L 377.946929 233.011848 
L 378.007448 232.544745 
L 378.478637 232.486357 
L 378.536603 232.311194 
L 378.950219 232.019254 
L 379.185421 232.019254 
L 379.243779 232.953461 
L 379.361478 233.654115 
L 379.421998 234.121218 
L 379.89299 234.121218 
L 379.951349 235.055425 
L 380.069048 235.756079 
L 380.129371 236.223183 
L 381.307933 236.223183 
L 381.366291 236.690286 
L 381.779908 237.274165 
L 382.015306 237.274165 
L 382.073271 238.325147 
M 387.733041 238.325147 
L 387.850347 236.748674 
L 387.911064 235.697692 
L 388.382253 235.639304 
L 388.440414 235.46414 
L 388.854228 235.1722 
L 389.089429 235.1722 
L 389.147984 233.770891 
L 389.265486 232.719909 
L 389.326006 232.019254 
L 390.504175 232.019254 
L 390.562533 230.617945 
L 390.680233 229.566963 
L 390.740752 228.866308 
L 391.917939 228.866308 
L 392.00636 227.877148 
L 392.124256 227.011634 
L 392.213267 226.764344 
L 392.626098 226.67161 
L 392.713733 226.022474 
L 392.831432 225.373338 
L 392.920837 225.187871 
L 393.332881 225.187871 
L 393.421106 223.456841 
L 393.538805 221.942191 
L 393.627817 221.509434 
L 394.040451 221.509434 
L 394.128676 219.531114 
L 394.246178 217.800085 
L 394.335386 217.305505 
L 394.776512 217.212771 
L 394.866112 216.996393 
L 395.189539 216.780014 
L 395.455197 216.780014 
L 395.543422 214.307115 
L 395.660925 212.143329 
L 395.660925 212.143329 
" clip-path="url(#p669afc4015)" style="fill: none; stroke: #ffff00; stroke-width: 1.5; stroke-linecap: square"/>
   </g>
   <g id="line2d_31">
    <path d="M 73.832727 153.72109 
L 74.304309 153.72109 
L 74.392534 154.957539 
L 74.50984 156.039432 
L 74.599441 156.348545 
L 75.011682 156.348545 
L 75.099907 155.112095 
L 75.21741 154.030202 
L 75.306814 153.72109 
L 75.748136 153.628356 
L 75.83754 153.411977 
L 76.161163 153.195599 
L 76.426428 153.195599 
L 76.514653 151.711859 
L 76.632156 150.413587 
L 76.721757 150.042652 
L 77.134194 150.104475 
L 77.222026 150.537232 
L 77.606169 151.093634 
L 77.841174 151.093634 
L 77.9294 148.373446 
L 78.047099 145.99328 
L 78.136306 145.313233 
L 79.256117 145.313233 
L 79.344342 143.334914 
L 79.462041 141.603885 
L 79.551052 141.109305 
L 79.963686 141.109305 
L 80.051715 142.098464 
L 80.169218 142.963979 
L 80.258622 143.211269 
L 80.699551 143.304003 
L 80.789151 143.520381 
L 81.112775 143.73676 
L 81.378629 143.674937 
L 81.466461 143.24218 
L 81.850604 142.685778 
L 82.085609 142.685778 
L 82.173834 140.707459 
L 82.29114 138.976429 
L 82.380544 138.48185 
L 82.792982 138.48185 
L 82.881011 137.2454 
L 82.998513 136.163507 
L 83.087917 135.854394 
L 83.500355 135.854394 
L 83.588384 134.617945 
L 83.705886 133.536052 
L 83.795487 133.226939 
L 84.207532 133.226939 
L 84.295757 134.957968 
L 84.413259 136.472619 
L 84.502663 136.905376 
L 84.915298 136.812643 
L 85.003326 136.163507 
L 85.120829 135.514371 
L 85.20984 135.328903 
L 85.622474 135.328903 
L 85.710699 128.899366 
L 85.828398 123.273521 
L 85.917409 121.666136 
L 86.329847 121.666136 
L 86.417876 119.440527 
L 86.535378 117.493119 
L 86.624979 116.936717 
L 87.03722 116.936717 
L 87.125445 115.452978 
L 87.242751 114.154706 
L 87.332352 113.783771 
L 87.744593 113.783771 
L 87.832818 111.558162 
L 87.950517 109.610754 
L 88.039725 109.054351 
L 88.451966 109.054351 
L 88.540191 107.817902 
L 88.65789 106.736009 
L 88.747098 106.426896 
L 89.159536 106.426896 
L 89.247761 105.190447 
L 89.365263 104.108553 
L 89.454274 103.799441 
L 89.866909 103.799441 
L 89.955134 101.573832 
L 90.07244 99.626424 
L 90.16204 99.070022 
L 90.574085 99.070022 
L 90.662507 97.091702 
L 90.780009 95.360673 
L 90.869217 94.866093 
L 91.310539 94.958827 
L 91.399747 95.175206 
L 91.72337 95.391584 
L 92.017912 95.298851 
L 92.10712 95.082472 
L 92.430743 94.866093 
L 92.696204 94.866093 
L 92.784429 95.855253 
L 92.901735 96.720768 
L 92.991336 96.968058 
L 93.432658 97.060791 
L 93.521866 97.27717 
L 93.845489 97.493549 
L 94.110754 97.493549 
L 94.199175 95.762519 
L 94.316678 94.247869 
L 94.406082 93.815111 
L 95.5255 93.815111 
L 95.613921 91.589502 
L 95.731621 89.642094 
L 95.821221 89.085692 
L 96.233462 88.992958 
L 96.321295 88.343822 
L 96.438994 87.694686 
L 96.528201 87.509219 
L 96.940442 87.509219 
L 97.028668 84.29445 
L 97.14617 81.481528 
L 97.235574 80.677835 
L 97.648012 80.677835 
L 97.736041 78.204936 
L 97.85374 76.04115 
L 97.942947 75.422925 
L 98.384466 75.330191 
L 98.473673 75.113813 
L 98.7971 74.897434 
L 99.062954 74.897434 
L 99.15118 72.919115 
L 99.268486 71.188085 
L 99.35789 70.693506 
L 99.770131 70.693506 
L 99.85816 73.413695 
L 99.975859 75.79386 
L 100.065263 76.473907 
L 100.4777 76.473907 
L 100.565729 77.957646 
L 100.683232 79.255918 
L 100.772439 79.626853 
L 101.213958 79.719587 
L 101.302969 79.935966 
L 101.626396 80.152344 
L 101.921134 80.245078 
L 102.010539 80.461457 
L 102.334358 80.677835 
L 102.599427 80.677835 
L 102.687848 83.892604 
L 102.805351 86.705527 
L 102.894558 87.509219 
L 103.306996 87.509219 
L 103.395221 91.713147 
L 103.51292 95.391584 
L 103.602128 96.442566 
L 104.014173 96.442566 
L 104.102398 98.173596 
L 104.220097 99.688246 
L 104.309501 100.121004 
L 104.721546 100.121004 
L 104.809771 102.346613 
L 104.92747 104.294021 
L 105.016677 104.850423 
L 105.429115 104.850423 
L 105.517144 106.581452 
L 105.634843 108.096103 
L 105.724247 108.52886 
L 106.136488 108.52886 
L 106.22491 109.51802 
L 106.342412 110.383535 
L 106.43162 110.630825 
L 106.844254 110.692647 
L 106.932086 111.125404 
L 107.316426 111.681807 
L 107.551431 111.681807 
L 107.639656 113.412836 
L 107.756962 114.927487 
L 107.846366 115.360244 
L 108.287492 115.452978 
L 108.376896 115.669356 
L 108.700519 115.885735 
L 108.96598 115.885735 
L 109.054205 118.358634 
L 109.171708 120.522421 
L 109.261112 121.140645 
L 109.673746 121.078823 
L 109.761578 120.646065 
L 110.145721 120.089663 
L 110.409414 119.996929 
L 110.498818 119.780551 
L 110.822638 119.564172 
L 111.088099 119.564172 
L 111.176324 121.789781 
L 111.294023 123.737189 
L 111.383428 124.293591 
L 111.795472 124.293591 
L 111.883894 126.519201 
L 112.001396 128.466609 
L 112.090408 129.023011 
L 112.53173 128.930277 
L 112.621134 128.713898 
L 112.944757 128.49752 
L 113.210611 128.404786 
L 113.298443 127.75565 
L 113.416142 127.106514 
L 113.50535 126.921047 
L 113.917788 126.921047 
L 114.006013 130.135815 
L 114.123319 132.948738 
L 114.21292 133.75243 
L 114.653849 133.659696 
L 114.743449 133.443318 
L 115.066876 133.226939 
L 115.332337 133.226939 
L 115.420366 129.764881 
L 115.537869 126.735579 
L 115.627469 125.870065 
L 116.039907 125.870065 
L 116.128132 123.891745 
L 116.245635 122.160716 
L 116.335039 121.666136 
L 116.74728 121.666136 
L 116.835505 119.935107 
L 116.953008 118.420456 
L 117.042412 117.987699 
L 117.454653 117.987699 
L 117.542878 116.998539 
L 117.660381 116.133025 
L 117.749588 115.885735 
L 118.162026 115.885735 
L 118.250251 110.445357 
L 118.367557 105.685027 
L 118.456961 104.324932 
L 118.869988 104.386755 
L 118.957624 104.819512 
L 119.34157 105.375914 
L 119.605656 105.468648 
L 119.694864 105.685027 
L 120.018291 105.901405 
L 120.283949 105.901405 
L 120.372174 104.912246 
L 120.489676 104.046731 
L 120.57908 103.799441 
L 121.698695 103.799441 
L 121.787116 102.562992 
L 121.904619 101.481098 
L 121.994023 101.171986 
L 122.406657 101.233808 
L 122.494293 101.666566 
L 122.878632 102.222968 
L 123.113441 102.222968 
L 123.201862 105.190447 
L 123.319561 107.786991 
L 123.408769 108.52886 
L 123.82101 108.52886 
L 123.909235 112.238209 
L 124.026934 115.483889 
L 124.116142 116.411226 
L 124.528383 116.411226 
L 124.616608 118.884125 
L 124.734111 121.047912 
L 124.823515 121.666136 
L 125.235756 121.666136 
L 125.323981 124.386325 
L 125.441484 126.766491 
L 125.530888 127.446538 
L 125.943522 127.50836 
L 126.031354 127.941118 
L 126.415301 128.49752 
L 126.650699 128.559342 
L 126.738727 128.9921 
L 127.12287 129.548502 
L 127.357875 129.548502 
L 127.445904 132.515981 
L 127.563603 135.112525 
L 127.653007 135.854394 
L 128.772621 135.854394 
L 128.860846 137.090844 
L 128.978349 138.172737 
L 129.067753 138.48185 
L 129.479994 138.48185 
L 129.568219 141.449328 
L 129.685722 144.045872 
L 129.775126 144.787742 
L 130.187367 144.787742 
L 130.275592 149.73354 
L 130.393291 154.061113 
L 130.482696 155.297563 
L 130.89474 155.297563 
L 130.982965 156.781302 
L 131.100468 158.079574 
L 131.189676 158.450509 
L 131.602113 158.450509 
L 131.690338 162.407147 
L 131.807644 165.869206 
L 131.897049 166.858366 
L 132.309486 166.858366 
L 132.397711 169.825844 
L 132.515017 172.422388 
L 132.604618 173.164258 
L 133.016859 173.164258 
L 133.105281 177.120896 
L 133.222391 180.582955 
L 133.311795 181.572115 
L 133.724036 181.572115 
L 133.812654 185.281463 
L 133.92996 188.527143 
L 134.019364 189.45448 
L 134.431998 189.547214 
L 134.519831 190.19635 
L 134.637333 190.845486 
L 134.726737 191.030953 
L 135.138978 191.030953 
L 135.227204 199.43881 
L 135.34451 206.795684 
L 135.43411 208.897649 
L 136.554117 208.990382 
L 136.64195 209.639518 
L 136.759845 210.288654 
L 136.84866 210.474122 
L 137.261097 210.474122 
L 137.349323 211.957861 
M 139.56006 211.803305 
L 139.648481 209.948631 
L 140.09059 209.948631 
L 140.179011 205.991992 
L 140.296514 202.529934 
L 140.385918 201.540774 
L 140.797963 201.540774 
L 140.886188 198.326005 
L 141.00369 195.513083 
L 141.093291 194.709391 
L 141.505532 194.709391 
L 141.593757 193.225651 
L 141.71126 191.927379 
L 141.800664 191.556444 
L 142.212905 191.556444 
L 142.300934 189.083545 
L 142.418633 186.919759 
L 142.50784 186.301534 
L 142.920082 186.301534 
L 143.008307 185.065084 
L 143.126006 183.983191 
L 143.21541 183.674079 
L 144.335024 183.674079 
L 144.423249 181.44847 
L 144.540555 179.501062 
L 144.629959 178.944659 
L 145.042594 178.944659 
L 145.130819 177.46092 
L 145.247928 176.162648 
L 145.337529 175.791713 
L 145.749574 175.791713 
L 145.838192 174.802554 
L 145.955498 173.937039 
L 146.044705 173.689749 
L 146.486224 173.597015 
L 146.575432 173.380637 
L 146.898858 173.164258 
L 147.164516 173.164258 
L 147.252741 171.433229 
L 147.370047 169.918578 
L 147.459648 169.485821 
L 148.579262 169.485821 
L 148.667487 168.496661 
L 148.785186 167.631147 
L 148.874198 167.383857 
L 149.286635 167.383857 
L 149.37486 168.867596 
L 149.492363 170.165868 
L 149.581571 170.536803 
L 149.994008 170.536803 
L 150.082233 171.773252 
L 150.199932 172.855146 
L 150.28914 173.164258 
L 150.701381 173.164258 
L 150.78941 174.400708 
L 150.907305 175.482601 
L 150.99671 175.791713 
L 151.408951 175.791713 
L 151.496979 177.522743 
L 151.614482 179.037393 
L 151.703886 179.47015 
L 152.11652 179.531973 
L 152.204549 179.96473 
L 152.588495 180.521133 
L 152.8235 180.521133 
L 152.911726 183.983191 
L 153.029228 187.012492 
L 153.118632 187.878007 
L 153.53107 187.878007 
L 153.619099 190.103616 
L 153.736798 192.051024 
L 153.826005 192.607426 
L 154.238443 192.607426 
L 154.326472 194.338456 
L 154.443974 195.853106 
L 154.533378 196.285864 
L 154.9747 196.378597 
L 155.063908 196.594976 
L 155.387728 196.811355 
L 155.653582 196.749532 
L 155.741414 196.316775 
L 156.12536 195.760373 
L 156.360169 195.760373 
L 156.448591 200.211591 
L 156.56629 204.106407 
L 156.655694 205.219211 
L 157.067542 205.219211 
L 157.155964 208.18669 
L 157.273859 210.783234 
L 157.363263 211.525104 
L 157.774915 211.525104 
L 157.775701 211.957861 
M 244.900674 212.019684 
L 244.989292 211.586926 
L 245.136858 211.525104 
L 245.490545 211.525104 
L 245.57877 210.288654 
L 245.69588 209.206761 
L 245.78548 208.897649 
L 246.197721 208.897649 
L 246.285947 207.661199 
L 246.403449 206.579306 
L 246.492657 206.270193 
L 247.61286 206.332016 
L 247.700693 206.764773 
L 248.084835 207.321175 
L 248.320037 207.321175 
L 248.408262 208.557625 
L 248.525765 209.639518 
L 248.614972 209.948631 
L 249.027213 209.948631 
L 249.115635 208.959471 
L 249.232941 208.093956 
L 249.322345 207.846667 
L 249.735176 207.784844 
L 249.822812 207.352087 
L 250.207151 206.795684 
L 250.442156 206.795684 
L 250.530381 205.559235 
L 250.647884 204.477342 
L 250.737091 204.168229 
L 251.149136 204.168229 
L 251.237754 205.899259 
L 251.355257 207.413909 
L 251.444661 207.846667 
L 251.857099 207.753933 
L 251.945127 207.104797 
L 252.062433 206.455661 
L 252.151837 206.270193 
L 252.564275 206.270193 
L 252.6525 203.302715 
L 252.770199 200.706171 
L 252.859407 199.964301 
L 253.271648 199.964301 
L 253.359873 200.953461 
L 253.477572 201.818975 
L 253.566976 202.066265 
L 253.979414 201.973531 
L 254.067246 201.324395 
L 254.184749 200.675259 
L 254.273956 200.489792 
L 255.393571 200.489792 
L 255.481992 202.962691 
L 255.599495 205.126478 
L 255.688899 205.744702 
L 256.10114 205.744702 
L 256.189365 207.228442 
L 256.306868 208.526714 
L 256.396272 208.897649 
L 256.80871 208.990382 
L 256.896738 209.639518 
L 257.014241 210.288654 
L 257.103645 210.474122 
L 258.223652 210.412299 
L 258.311484 209.979542 
L 258.695627 209.42314 
L 258.930632 209.42314 
L 259.018857 207.197531 
L 259.13636 205.250123 
L 259.225567 204.69372 
L 259.638398 204.755543 
L 259.72623 205.1883 
L 260.110373 205.744702 
L 260.345182 205.744702 
L 260.433603 207.228442 
L 260.551106 208.526714 
L 260.640707 208.897649 
L 261.081832 208.990382 
L 261.171236 209.206761 
L 261.494663 209.42314 
L 261.760321 209.42314 
L 261.848349 210.412299 
L 261.966048 211.277814 
L 262.055256 211.525104 
L 262.467694 211.525104 
L 262.468087 211.803305 
M 263.381187 211.803305 
L 263.499083 211.525104 
L 263.882636 211.463281 
L 263.970468 211.030524 
L 264.354611 210.474122 
L 264.590402 210.381388 
L 264.678235 209.732252 
L 264.795541 209.083116 
L 264.884552 208.897649 
L 265.296989 208.897649 
L 265.385215 207.413909 
L 265.502717 206.115637 
L 265.591925 205.744702 
L 266.004166 205.744702 
L 266.092588 207.228442 
L 266.21009 208.526714 
L 266.299494 208.897649 
L 266.711735 208.897649 
L 266.799961 210.134098 
L 266.917856 211.215991 
L 267.007064 211.525104 
L 267.419305 211.525104 
L 267.448189 211.988772 
M 268.303914 211.988772 
L 268.480757 211.525104 
L 268.862739 211.617838 
L 268.952143 211.834216 
L 269.275766 212.050595 
L 269.541424 212.050595 
M 271.899334 212.050595 
L 272.37072 212.050595 
L 272.458945 211.061435 
L 272.576447 210.195921 
L 272.665851 209.948631 
L 273.078289 209.948631 
L 273.166514 208.217601 
L 273.284017 206.702951 
L 273.373224 206.270193 
L 273.785859 206.17746 
L 273.874084 205.528324 
L 273.99139 204.879188 
L 274.08099 204.69372 
L 274.493035 204.69372 
L 274.581064 206.17746 
L 274.698763 207.475732 
L 274.788167 207.846667 
L 275.229293 207.9394 
L 275.318893 208.155779 
L 275.64232 208.372158 
L 275.907781 208.372158 
L 275.99581 211.834216 
M 276.733246 212.019684 
L 277.028181 209.42314 
L 277.323117 209.361317 
L 277.410949 208.92856 
L 277.795092 208.372158 
L 280.152019 208.372158 
L 280.240244 211.339636 
L 280.269915 211.710571 
M 326.219687 212.019684 
L 326.309091 210.93779 
L 326.485935 210.474122 
L 326.839425 210.535944 
L 326.92706 210.968702 
L 327.311596 211.525104 
L 327.546601 211.525104 
L 327.63463 209.794074 
L 327.752525 208.279424 
L 327.841929 207.846667 
L 328.254171 207.846667 
L 328.342199 206.362927 
L 328.459702 205.064655 
L 328.549106 204.69372 
L 328.96174 204.755543 
L 329.049572 205.1883 
L 329.433912 205.744702 
L 329.669113 205.68288 
L 329.756945 205.250123 
L 330.141088 204.69372 
L 330.37629 204.69372 
L 330.464318 206.42475 
L 330.581624 207.9394 
L 330.671028 208.372158 
L 331.112351 208.464891 
L 331.201558 208.68127 
L 331.525378 208.897649 
L 331.790839 208.897649 
L 331.879064 210.381388 
L 331.996763 211.67966 
L 332.085971 212.050595 
L 332.498212 212.050595 
L 332.586634 210.566855 
L 332.70394 209.268583 
L 332.793147 208.897649 
L 333.205585 208.897649 
L 333.29381 206.672039 
L 333.411509 204.724632 
L 333.500913 204.168229 
L 333.912762 204.168229 
L 334.001183 205.157389 
L 334.118882 206.022904 
L 334.20809 206.270193 
L 334.620724 206.208371 
L 334.708753 205.775614 
L 335.092896 205.219211 
L 335.327901 205.219211 
L 335.416126 206.208371 
L 335.533432 207.073886 
L 335.622836 207.321175 
L 336.03547 207.321175 
L 336.123695 206.332016 
L 336.240805 205.466501 
L 336.330406 205.219211 
L 336.74304 205.157389 
L 336.831068 204.724632 
L 337.214818 204.168229 
L 337.449823 204.168229 
L 337.538245 205.651969 
L 337.655747 206.950241 
L 337.744955 207.321175 
L 338.864766 207.321175 
L 338.952991 208.557625 
L 339.070494 209.639518 
L 339.159898 209.948631 
L 339.572139 209.948631 
L 339.660364 210.93779 
L 339.777867 211.803305 
L 339.867074 212.050595 
L 340.279512 212.050595 
M 395.661318 211.834216 
L 395.779213 211.525104 
L 396.339806 211.525104 
L 396.339806 211.525104 
" clip-path="url(#p669afc4015)" style="fill: none; stroke: #ff0000; stroke-width: 1.5; stroke-linecap: square"/>
   </g>
   <g id="LineCollection_1">
    <path d="M 123.319168 256.086744 
L 123.319168 61.865256 
" clip-path="url(#p669afc4015)" style="fill: none; stroke-dasharray: 5.55,2.4; stroke-dashoffset: 0; stroke: #000000; stroke-width: 1.5"/>
   </g>
   <g id="LineCollection_2">
    <path d="M 398.487273 265.797818 
L 398.487273 52.154182 
" clip-path="url(#p669afc4015)" style="fill: none; stroke-dasharray: 5.55,2.4; stroke-dashoffset: 0; stroke: #000000; stroke-width: 1.5"/>
   </g>
   <g id="patch_3">
    <path d="M 57.6 276.48 
L 57.6 41.472 
" style="fill: none; stroke: #000000; stroke-width: 0.8; stroke-linejoin: miter; stroke-linecap: square"/>
   </g>
   <g id="patch_4">
    <path d="M 414.72 276.48 
L 414.72 41.472 
" style="fill: none; stroke: #000000; stroke-width: 0.8; stroke-linejoin: miter; stroke-linecap: square"/>
   </g>
   <g id="patch_5">
    <path d="M 57.6 276.48 
L 414.72 276.48 
" style="fill: none; stroke: #000000; stroke-width: 0.8; stroke-linejoin: miter; stroke-linecap: square"/>
   </g>
   <g id="patch_6">
    <path d="M 57.6 41.472 
L 414.72 41.472 
" style="fill: none; stroke: #000000; stroke-width: 0.8; stroke-linejoin: miter; stroke-linecap: square"/>
   </g>
   <g id="text_17">
    <!-- dinky fan on -->
    <g transform="translate(121.239481 255.836575) rotate(-90) scale(0.1 -0.1)">
     <defs>
      <path id="DejaVuSans-64" d="M 2906 2969 
L 2906 4863 
L 3481 4863 
L 3481 0 
L 2906 0 
L 2906 525 
Q 2725 213 2448 61 
Q 2172 -91 1784 -91 
Q 1150 -91 751 415 
Q 353 922 353 1747 
Q 353 2572 751 3078 
Q 1150 3584 1784 3584 
Q 2172 3584 2448 3432 
Q 2725 3281 2906 2969 
z
M 947 1747 
Q 947 1113 1208 752 
Q 1469 391 1925 391 
Q 2381 391 2643 752 
Q 2906 1113 2906 1747 
Q 2906 2381 2643 2742 
Q 2381 3103 1925 3103 
Q 1469 3103 1208 2742 
Q 947 2381 947 1747 
z
" transform="scale(0.015625)"/>
      <path id="DejaVuSans-69" d="M 603 3500 
L 1178 3500 
L 1178 0 
L 603 0 
L 603 3500 
z
M 603 4863 
L 1178 4863 
L 1178 4134 
L 603 4134 
L 603 4863 
z
" transform="scale(0.015625)"/>
      <path id="DejaVuSans-6b" d="M 581 4863 
L 1159 4863 
L 1159 1991 
L 2875 3500 
L 3609 3500 
L 1753 1863 
L 3688 0 
L 2938 0 
L 1159 1709 
L 1159 0 
L 581 0 
L 581 4863 
z
" transform="scale(0.015625)"/>
      <path id="DejaVuSans-79" d="M 2059 -325 
Q 1816 -950 1584 -1140 
Q 1353 -1331 966 -1331 
L 506 -1331 
L 506 -850 
L 844 -850 
Q 1081 -850 1212 -737 
Q 1344 -625 1503 -206 
L 1606 56 
L 191 3500 
L 800 3500 
L 1894 763 
L 2988 3500 
L 3597 3500 
L 2059 -325 
z
" transform="scale(0.015625)"/>
      <path id="DejaVuSans-66" d="M 2375 4863 
L 2375 4384 
L 1825 4384 
Q 1516 4384 1395 4259 
Q 1275 4134 1275 3809 
L 1275 3500 
L 2222 3500 
L 2222 3053 
L 1275 3053 
L 1275 0 
L 697 0 
L 697 3053 
L 147 3053 
L 147 3500 
L 697 3500 
L 697 3744 
Q 697 4328 969 4595 
Q 1241 4863 1831 4863 
L 2375 4863 
z
" transform="scale(0.015625)"/>
      <path id="DejaVuSans-61" d="M 2194 1759 
Q 1497 1759 1228 1600 
Q 959 1441 959 1056 
Q 959 750 1161 570 
Q 1363 391 1709 391 
Q 2188 391 2477 730 
Q 2766 1069 2766 1631 
L 2766 1759 
L 2194 1759 
z
M 3341 1997 
L 3341 0 
L 2766 0 
L 2766 531 
Q 2569 213 2275 61 
Q 1981 -91 1556 -91 
Q 1019 -91 701 211 
Q 384 513 384 1019 
Q 384 1609 779 1909 
Q 1175 2209 1959 2209 
L 2766 2209 
L 2766 2266 
Q 2766 2663 2505 2880 
Q 2244 3097 1772 3097 
Q 1472 3097 1187 3025 
Q 903 2953 641 2809 
L 641 3341 
Q 956 3463 1253 3523 
Q 1550 3584 1831 3584 
Q 2591 3584 2966 3190 
Q 3341 2797 3341 1997 
z
" transform="scale(0.015625)"/>
      <path id="DejaVuSans-6f" d="M 1959 3097 
Q 1497 3097 1228 2736 
Q 959 2375 959 1747 
Q 959 1119 1226 758 
Q 1494 397 1959 397 
Q 2419 397 2687 759 
Q 2956 1122 2956 1747 
Q 2956 2369 2687 2733 
Q 2419 3097 1959 3097 
z
M 1959 3584 
Q 2709 3584 3137 3096 
Q 3566 2609 3566 1747 
Q 3566 888 3137 398 
Q 2709 -91 1959 -91 
Q 1206 -91 779 398 
Q 353 888 353 1747 
Q 353 2609 779 3096 
Q 1206 3584 1959 3584 
z
" transform="scale(0.015625)"/>
     </defs>
     <use xlink:href="#DejaVuSans-64"/>
     <use xlink:href="#DejaVuSans-69" x="63.476562"/>
     <use xlink:href="#DejaVuSans-6e" x="91.259766"/>
     <use xlink:href="#DejaVuSans-6b" x="154.638672"/>
     <use xlink:href="#DejaVuSans-79" x="208.923828"/>
     <use xlink:href="#DejaVuSans-20" x="268.103516"/>
     <use xlink:href="#DejaVuSans-66" x="299.890625"/>
     <use xlink:href="#DejaVuSans-61" x="335.095703"/>
     <use xlink:href="#DejaVuSans-6e" x="396.375"/>
     <use xlink:href="#DejaVuSans-20" x="459.753906"/>
     <use xlink:href="#DejaVuSans-6f" x="491.541016"/>
     <use xlink:href="#DejaVuSans-6e" x="552.722656"/>
    </g>
   </g>
   <g id="text_18">
    <!-- big fan on -->
    <g transform="translate(396.407585 185.748637) rotate(-90) scale(0.1 -0.1)">
     <defs>
      <path id="DejaVuSans-62" d="M 3116 1747 
Q 3116 2381 2855 2742 
Q 2594 3103 2138 3103 
Q 1681 3103 1420 2742 
Q 1159 2381 1159 1747 
Q 1159 1113 1420 752 
Q 1681 391 2138 391 
Q 2594 391 2855 752 
Q 3116 1113 3116 1747 
z
M 1159 2969 
Q 1341 3281 1617 3432 
Q 1894 3584 2278 3584 
Q 2916 3584 3314 3078 
Q 3713 2572 3713 1747 
Q 3713 922 3314 415 
Q 2916 -91 2278 -91 
Q 1894 -91 1617 61 
Q 1341 213 1159 525 
L 1159 0 
L 581 0 
L 581 4863 
L 1159 4863 
L 1159 2969 
z
" transform="scale(0.015625)"/>
      <path id="DejaVuSans-67" d="M 2906 1791 
Q 2906 2416 2648 2759 
Q 2391 3103 1925 3103 
Q 1463 3103 1205 2759 
Q 947 2416 947 1791 
Q 947 1169 1205 825 
Q 1463 481 1925 481 
Q 2391 481 2648 825 
Q 2906 1169 2906 1791 
z
M 3481 434 
Q 3481 -459 3084 -895 
Q 2688 -1331 1869 -1331 
Q 1566 -1331 1297 -1286 
Q 1028 -1241 775 -1147 
L 775 -588 
Q 1028 -725 1275 -790 
Q 1522 -856 1778 -856 
Q 2344 -856 2625 -561 
Q 2906 -266 2906 331 
L 2906 616 
Q 2728 306 2450 153 
Q 2172 0 1784 0 
Q 1141 0 747 490 
Q 353 981 353 1791 
Q 353 2603 747 3093 
Q 1141 3584 1784 3584 
Q 2172 3584 2450 3431 
Q 2728 3278 2906 2969 
L 2906 3500 
L 3481 3500 
L 3481 434 
z
" transform="scale(0.015625)"/>
     </defs>
     <use xlink:href="#DejaVuSans-62"/>
     <use xlink:href="#DejaVuSans-69" x="63.476562"/>
     <use xlink:href="#DejaVuSans-67" x="91.259766"/>
     <use xlink:href="#DejaVuSans-20" x="154.736328"/>
     <use xlink:href="#DejaVuSans-66" x="186.523438"/>
     <use xlink:href="#DejaVuSans-61" x="221.728516"/>
     <use xlink:href="#DejaVuSans-6e" x="283.007812"/>
     <use xlink:href="#DejaVuSans-20" x="346.386719"/>
     <use xlink:href="#DejaVuSans-6f" x="378.173828"/>
     <use xlink:href="#DejaVuSans-6e" x="439.355469"/>
    </g>
   </g>
   <g id="text_19">
    <!-- Radon in Office -->
    <g transform="translate(190.277812 35.472) scale(0.12 -0.12)">
     <defs>
      <path id="DejaVuSans-63" d="M 3122 3366 
L 3122 2828 
Q 2878 2963 2633 3030 
Q 2388 3097 2138 3097 
Q 1578 3097 1268 2742 
Q 959 2388 959 1747 
Q 959 1106 1268 751 
Q 1578 397 2138 397 
Q 2388 397 2633 464 
Q 2878 531 3122 666 
L 3122 134 
Q 2881 22 2623 -34 
Q 2366 -91 2075 -91 
Q 1284 -91 818 406 
Q 353 903 353 1747 
Q 353 2603 823 3093 
Q 1294 3584 2113 3584 
Q 2378 3584 2631 3529 
Q 2884 3475 3122 3366 
z
" transform="scale(0.015625)"/>
     </defs>
     <use xlink:href="#DejaVuSans-52"/>
     <use xlink:href="#DejaVuSans-61" x="67.232422"/>
     <use xlink:href="#DejaVuSans-64" x="128.511719"/>
     <use xlink:href="#DejaVuSans-6f" x="191.988281"/>
     <use xlink:href="#DejaVuSans-6e" x="253.169922"/>
     <use xlink:href="#DejaVuSans-20" x="316.548828"/>
     <use xlink:href="#DejaVuSans-69" x="348.335938"/>
     <use xlink:href="#DejaVuSans-6e" x="376.119141"/>
     <use xlink:href="#DejaVuSans-20" x="439.498047"/>
     <use xlink:href="#DejaVuSans-4f" x="471.285156"/>
     <use xlink:href="#DejaVuSans-66" x="549.996094"/>
     <use xlink:href="#DejaVuSans-66" x="585.201172"/>
     <use xlink:href="#DejaVuSans-69" x="620.40625"/>
     <use xlink:href="#DejaVuSans-63" x="648.189453"/>
     <use xlink:href="#DejaVuSans-65" x="703.169922"/>
    </g>
   </g>
   <g id="legend_1">
    <g id="patch_7">
     <path d="M 350.785625 93.506375 
L 407.72 93.506375 
Q 409.72 93.506375 409.72 91.506375 
L 409.72 48.472 
Q 409.72 46.472 407.72 46.472 
L 350.785625 46.472 
Q 348.785625 46.472 348.785625 48.472 
L 348.785625 91.506375 
Q 348.785625 93.506375 350.785625 93.506375 
z
" style="fill: #ffffff; opacity: 0.8; stroke: #cccccc; stroke-linejoin: miter"/>
    </g>
    <g id="line2d_32">
     <path d="M 352.785625 54.570437 
L 362.785625 54.570437 
L 372.785625 54.570437 
" style="fill: none; stroke: #008000; stroke-width: 1.5; stroke-linecap: square"/>
    </g>
    <g id="text_20">
     <!-- good -->
     <g transform="translate(380.785625 58.070437) scale(0.1 -0.1)">
      <use xlink:href="#DejaVuSans-67"/>
      <use xlink:href="#DejaVuSans-6f" x="63.476562"/>
      <use xlink:href="#DejaVuSans-6f" x="124.658203"/>
      <use xlink:href="#DejaVuSans-64" x="185.839844"/>
     </g>
    </g>
    <g id="line2d_33">
     <path d="M 352.785625 69.248562 
L 362.785625 69.248562 
L 372.785625 69.248562 
" style="fill: none; stroke: #ffff00; stroke-width: 1.5; stroke-linecap: square"/>
    </g>
    <g id="text_21">
     <!-- bad -->
     <g transform="translate(380.785625 72.748562) scale(0.1 -0.1)">
      <use xlink:href="#DejaVuSans-62"/>
      <use xlink:href="#DejaVuSans-61" x="63.476562"/>
      <use xlink:href="#DejaVuSans-64" x="124.755859"/>
     </g>
    </g>
    <g id="line2d_34">
     <path d="M 352.785625 83.926687 
L 362.785625 83.926687 
L 372.785625 83.926687 
" style="fill: none; stroke: #ff0000; stroke-width: 1.5; stroke-linecap: square"/>
    </g>
    <g id="text_22">
     <!-- ugly -->
     <g transform="translate(380.785625 87.426687) scale(0.1 -0.1)">
      <defs>
       <path id="DejaVuSans-75" d="M 544 1381 
L 544 3500 
L 1119 3500 
L 1119 1403 
Q 1119 906 1312 657 
Q 1506 409 1894 409 
Q 2359 409 2629 706 
Q 2900 1003 2900 1516 
L 2900 3500 
L 3475 3500 
L 3475 0 
L 2900 0 
L 2900 538 
Q 2691 219 2414 64 
Q 2138 -91 1772 -91 
Q 1169 -91 856 284 
Q 544 659 544 1381 
z
M 1991 3584 
L 1991 3584 
z
" transform="scale(0.015625)"/>
       <path id="DejaVuSans-6c" d="M 603 4863 
L 1178 4863 
L 1178 0 
L 603 0 
L 603 4863 
z
" transform="scale(0.015625)"/>
      </defs>
      <use xlink:href="#DejaVuSans-75"/>
      <use xlink:href="#DejaVuSans-67" x="63.378906"/>
      <use xlink:href="#DejaVuSans-6c" x="126.855469"/>
      <use xlink:href="#DejaVuSans-79" x="154.638672"/>
     </g>
    </g>
   </g>
  </g>
 </g>
 <defs>
  <clipPath id="p669afc4015">
   <rect x="57.6" y="41.472" width="357.12" height="235.008"/>
  </clipPath>
 </defs>
</svg>
